G75*
%MOIN*%
%OFA0B0*%
%FSLAX25Y25*%
%IPPOS*%
%LPD*%
%AMOC8*
5,1,8,0,0,1.08239X$1,22.5*
%
%ADD10C,0.00000*%
%ADD11C,0.03937*%
%ADD12C,0.13843*%
%ADD13C,0.06600*%
%ADD14R,0.03937X0.18110*%
%ADD15R,0.06299X0.13386*%
%ADD16C,0.00709*%
%ADD17R,0.01575X0.01969*%
%ADD18R,0.01969X0.01575*%
%ADD19R,0.01772X0.01772*%
%ADD20R,0.06299X0.03150*%
%ADD21R,0.05512X0.02756*%
%ADD22R,0.02500X0.10000*%
%ADD23R,0.06600X0.04000*%
%ADD24R,0.02756X0.01575*%
%ADD25R,0.00984X0.01575*%
%ADD26R,0.01811X0.02795*%
%ADD27R,0.09409X0.06299*%
%ADD28R,0.02165X0.04724*%
%ADD29R,0.06693X0.03150*%
%ADD30C,0.04000*%
%ADD31C,0.00787*%
%ADD32C,0.02756*%
%ADD33C,0.03740*%
%ADD34C,0.00500*%
%ADD35C,0.01551*%
%ADD36C,0.00945*%
%ADD37C,0.01600*%
%ADD38C,0.01200*%
%ADD39C,0.02400*%
%ADD40C,0.01000*%
%ADD41C,0.00301*%
%ADD42C,0.00295*%
%ADD43C,0.03200*%
D10*
X0044595Y0120262D02*
X0224595Y0120262D01*
X0219595Y0130262D02*
X0219597Y0130403D01*
X0219603Y0130544D01*
X0219613Y0130684D01*
X0219627Y0130824D01*
X0219645Y0130964D01*
X0219666Y0131103D01*
X0219692Y0131242D01*
X0219721Y0131380D01*
X0219755Y0131516D01*
X0219792Y0131652D01*
X0219833Y0131787D01*
X0219878Y0131921D01*
X0219927Y0132053D01*
X0219979Y0132184D01*
X0220035Y0132313D01*
X0220095Y0132440D01*
X0220158Y0132566D01*
X0220224Y0132690D01*
X0220295Y0132813D01*
X0220368Y0132933D01*
X0220445Y0133051D01*
X0220525Y0133167D01*
X0220609Y0133280D01*
X0220695Y0133391D01*
X0220785Y0133500D01*
X0220878Y0133606D01*
X0220973Y0133709D01*
X0221072Y0133810D01*
X0221173Y0133908D01*
X0221277Y0134003D01*
X0221384Y0134095D01*
X0221493Y0134184D01*
X0221605Y0134269D01*
X0221719Y0134352D01*
X0221835Y0134432D01*
X0221954Y0134508D01*
X0222075Y0134580D01*
X0222197Y0134650D01*
X0222322Y0134715D01*
X0222448Y0134778D01*
X0222576Y0134836D01*
X0222706Y0134891D01*
X0222837Y0134943D01*
X0222970Y0134990D01*
X0223104Y0135034D01*
X0223239Y0135075D01*
X0223375Y0135111D01*
X0223512Y0135143D01*
X0223650Y0135172D01*
X0223788Y0135197D01*
X0223928Y0135217D01*
X0224068Y0135234D01*
X0224208Y0135247D01*
X0224349Y0135256D01*
X0224489Y0135261D01*
X0224630Y0135262D01*
X0224771Y0135259D01*
X0224912Y0135252D01*
X0225052Y0135241D01*
X0225192Y0135226D01*
X0225332Y0135207D01*
X0225471Y0135185D01*
X0225609Y0135158D01*
X0225747Y0135128D01*
X0225883Y0135093D01*
X0226019Y0135055D01*
X0226153Y0135013D01*
X0226287Y0134967D01*
X0226419Y0134918D01*
X0226549Y0134864D01*
X0226678Y0134807D01*
X0226805Y0134747D01*
X0226931Y0134683D01*
X0227054Y0134615D01*
X0227176Y0134544D01*
X0227296Y0134470D01*
X0227413Y0134392D01*
X0227528Y0134311D01*
X0227641Y0134227D01*
X0227752Y0134140D01*
X0227860Y0134049D01*
X0227965Y0133956D01*
X0228068Y0133859D01*
X0228168Y0133760D01*
X0228265Y0133658D01*
X0228359Y0133553D01*
X0228450Y0133446D01*
X0228538Y0133336D01*
X0228623Y0133224D01*
X0228705Y0133109D01*
X0228784Y0132992D01*
X0228859Y0132873D01*
X0228931Y0132752D01*
X0228999Y0132629D01*
X0229064Y0132504D01*
X0229126Y0132377D01*
X0229183Y0132248D01*
X0229238Y0132118D01*
X0229288Y0131987D01*
X0229335Y0131854D01*
X0229378Y0131720D01*
X0229417Y0131584D01*
X0229452Y0131448D01*
X0229484Y0131311D01*
X0229511Y0131173D01*
X0229535Y0131034D01*
X0229555Y0130894D01*
X0229571Y0130754D01*
X0229583Y0130614D01*
X0229591Y0130473D01*
X0229595Y0130332D01*
X0229595Y0130192D01*
X0229591Y0130051D01*
X0229583Y0129910D01*
X0229571Y0129770D01*
X0229555Y0129630D01*
X0229535Y0129490D01*
X0229511Y0129351D01*
X0229484Y0129213D01*
X0229452Y0129076D01*
X0229417Y0128940D01*
X0229378Y0128804D01*
X0229335Y0128670D01*
X0229288Y0128537D01*
X0229238Y0128406D01*
X0229183Y0128276D01*
X0229126Y0128147D01*
X0229064Y0128020D01*
X0228999Y0127895D01*
X0228931Y0127772D01*
X0228859Y0127651D01*
X0228784Y0127532D01*
X0228705Y0127415D01*
X0228623Y0127300D01*
X0228538Y0127188D01*
X0228450Y0127078D01*
X0228359Y0126971D01*
X0228265Y0126866D01*
X0228168Y0126764D01*
X0228068Y0126665D01*
X0227965Y0126568D01*
X0227860Y0126475D01*
X0227752Y0126384D01*
X0227641Y0126297D01*
X0227528Y0126213D01*
X0227413Y0126132D01*
X0227296Y0126054D01*
X0227176Y0125980D01*
X0227054Y0125909D01*
X0226931Y0125841D01*
X0226805Y0125777D01*
X0226678Y0125717D01*
X0226549Y0125660D01*
X0226419Y0125606D01*
X0226287Y0125557D01*
X0226153Y0125511D01*
X0226019Y0125469D01*
X0225883Y0125431D01*
X0225747Y0125396D01*
X0225609Y0125366D01*
X0225471Y0125339D01*
X0225332Y0125317D01*
X0225192Y0125298D01*
X0225052Y0125283D01*
X0224912Y0125272D01*
X0224771Y0125265D01*
X0224630Y0125262D01*
X0224489Y0125263D01*
X0224349Y0125268D01*
X0224208Y0125277D01*
X0224068Y0125290D01*
X0223928Y0125307D01*
X0223788Y0125327D01*
X0223650Y0125352D01*
X0223512Y0125381D01*
X0223375Y0125413D01*
X0223239Y0125449D01*
X0223104Y0125490D01*
X0222970Y0125534D01*
X0222837Y0125581D01*
X0222706Y0125633D01*
X0222576Y0125688D01*
X0222448Y0125746D01*
X0222322Y0125809D01*
X0222197Y0125874D01*
X0222075Y0125944D01*
X0221954Y0126016D01*
X0221835Y0126092D01*
X0221719Y0126172D01*
X0221605Y0126255D01*
X0221493Y0126340D01*
X0221384Y0126429D01*
X0221277Y0126521D01*
X0221173Y0126616D01*
X0221072Y0126714D01*
X0220973Y0126815D01*
X0220878Y0126918D01*
X0220785Y0127024D01*
X0220695Y0127133D01*
X0220609Y0127244D01*
X0220525Y0127357D01*
X0220445Y0127473D01*
X0220368Y0127591D01*
X0220295Y0127711D01*
X0220224Y0127834D01*
X0220158Y0127958D01*
X0220095Y0128084D01*
X0220035Y0128211D01*
X0219979Y0128340D01*
X0219927Y0128471D01*
X0219878Y0128603D01*
X0219833Y0128737D01*
X0219792Y0128872D01*
X0219755Y0129008D01*
X0219721Y0129144D01*
X0219692Y0129282D01*
X0219666Y0129421D01*
X0219645Y0129560D01*
X0219627Y0129700D01*
X0219613Y0129840D01*
X0219603Y0129980D01*
X0219597Y0130121D01*
X0219595Y0130262D01*
X0224595Y0120262D02*
X0224837Y0120265D01*
X0225078Y0120274D01*
X0225319Y0120288D01*
X0225560Y0120309D01*
X0225800Y0120335D01*
X0226040Y0120367D01*
X0226279Y0120405D01*
X0226516Y0120448D01*
X0226753Y0120498D01*
X0226988Y0120553D01*
X0227222Y0120613D01*
X0227454Y0120680D01*
X0227685Y0120751D01*
X0227914Y0120829D01*
X0228141Y0120912D01*
X0228366Y0121000D01*
X0228589Y0121094D01*
X0228809Y0121193D01*
X0229027Y0121298D01*
X0229242Y0121407D01*
X0229455Y0121522D01*
X0229665Y0121642D01*
X0229871Y0121767D01*
X0230075Y0121897D01*
X0230276Y0122032D01*
X0230473Y0122172D01*
X0230667Y0122316D01*
X0230857Y0122465D01*
X0231043Y0122619D01*
X0231226Y0122777D01*
X0231405Y0122939D01*
X0231580Y0123106D01*
X0231751Y0123277D01*
X0231918Y0123452D01*
X0232080Y0123631D01*
X0232238Y0123814D01*
X0232392Y0124000D01*
X0232541Y0124190D01*
X0232685Y0124384D01*
X0232825Y0124581D01*
X0232960Y0124782D01*
X0233090Y0124986D01*
X0233215Y0125192D01*
X0233335Y0125402D01*
X0233450Y0125615D01*
X0233559Y0125830D01*
X0233664Y0126048D01*
X0233763Y0126268D01*
X0233857Y0126491D01*
X0233945Y0126716D01*
X0234028Y0126943D01*
X0234106Y0127172D01*
X0234177Y0127403D01*
X0234244Y0127635D01*
X0234304Y0127869D01*
X0234359Y0128104D01*
X0234409Y0128341D01*
X0234452Y0128578D01*
X0234490Y0128817D01*
X0234522Y0129057D01*
X0234548Y0129297D01*
X0234569Y0129538D01*
X0234583Y0129779D01*
X0234592Y0130020D01*
X0234595Y0130262D01*
X0234595Y0200262D01*
X0219595Y0200262D02*
X0219597Y0200403D01*
X0219603Y0200544D01*
X0219613Y0200684D01*
X0219627Y0200824D01*
X0219645Y0200964D01*
X0219666Y0201103D01*
X0219692Y0201242D01*
X0219721Y0201380D01*
X0219755Y0201516D01*
X0219792Y0201652D01*
X0219833Y0201787D01*
X0219878Y0201921D01*
X0219927Y0202053D01*
X0219979Y0202184D01*
X0220035Y0202313D01*
X0220095Y0202440D01*
X0220158Y0202566D01*
X0220224Y0202690D01*
X0220295Y0202813D01*
X0220368Y0202933D01*
X0220445Y0203051D01*
X0220525Y0203167D01*
X0220609Y0203280D01*
X0220695Y0203391D01*
X0220785Y0203500D01*
X0220878Y0203606D01*
X0220973Y0203709D01*
X0221072Y0203810D01*
X0221173Y0203908D01*
X0221277Y0204003D01*
X0221384Y0204095D01*
X0221493Y0204184D01*
X0221605Y0204269D01*
X0221719Y0204352D01*
X0221835Y0204432D01*
X0221954Y0204508D01*
X0222075Y0204580D01*
X0222197Y0204650D01*
X0222322Y0204715D01*
X0222448Y0204778D01*
X0222576Y0204836D01*
X0222706Y0204891D01*
X0222837Y0204943D01*
X0222970Y0204990D01*
X0223104Y0205034D01*
X0223239Y0205075D01*
X0223375Y0205111D01*
X0223512Y0205143D01*
X0223650Y0205172D01*
X0223788Y0205197D01*
X0223928Y0205217D01*
X0224068Y0205234D01*
X0224208Y0205247D01*
X0224349Y0205256D01*
X0224489Y0205261D01*
X0224630Y0205262D01*
X0224771Y0205259D01*
X0224912Y0205252D01*
X0225052Y0205241D01*
X0225192Y0205226D01*
X0225332Y0205207D01*
X0225471Y0205185D01*
X0225609Y0205158D01*
X0225747Y0205128D01*
X0225883Y0205093D01*
X0226019Y0205055D01*
X0226153Y0205013D01*
X0226287Y0204967D01*
X0226419Y0204918D01*
X0226549Y0204864D01*
X0226678Y0204807D01*
X0226805Y0204747D01*
X0226931Y0204683D01*
X0227054Y0204615D01*
X0227176Y0204544D01*
X0227296Y0204470D01*
X0227413Y0204392D01*
X0227528Y0204311D01*
X0227641Y0204227D01*
X0227752Y0204140D01*
X0227860Y0204049D01*
X0227965Y0203956D01*
X0228068Y0203859D01*
X0228168Y0203760D01*
X0228265Y0203658D01*
X0228359Y0203553D01*
X0228450Y0203446D01*
X0228538Y0203336D01*
X0228623Y0203224D01*
X0228705Y0203109D01*
X0228784Y0202992D01*
X0228859Y0202873D01*
X0228931Y0202752D01*
X0228999Y0202629D01*
X0229064Y0202504D01*
X0229126Y0202377D01*
X0229183Y0202248D01*
X0229238Y0202118D01*
X0229288Y0201987D01*
X0229335Y0201854D01*
X0229378Y0201720D01*
X0229417Y0201584D01*
X0229452Y0201448D01*
X0229484Y0201311D01*
X0229511Y0201173D01*
X0229535Y0201034D01*
X0229555Y0200894D01*
X0229571Y0200754D01*
X0229583Y0200614D01*
X0229591Y0200473D01*
X0229595Y0200332D01*
X0229595Y0200192D01*
X0229591Y0200051D01*
X0229583Y0199910D01*
X0229571Y0199770D01*
X0229555Y0199630D01*
X0229535Y0199490D01*
X0229511Y0199351D01*
X0229484Y0199213D01*
X0229452Y0199076D01*
X0229417Y0198940D01*
X0229378Y0198804D01*
X0229335Y0198670D01*
X0229288Y0198537D01*
X0229238Y0198406D01*
X0229183Y0198276D01*
X0229126Y0198147D01*
X0229064Y0198020D01*
X0228999Y0197895D01*
X0228931Y0197772D01*
X0228859Y0197651D01*
X0228784Y0197532D01*
X0228705Y0197415D01*
X0228623Y0197300D01*
X0228538Y0197188D01*
X0228450Y0197078D01*
X0228359Y0196971D01*
X0228265Y0196866D01*
X0228168Y0196764D01*
X0228068Y0196665D01*
X0227965Y0196568D01*
X0227860Y0196475D01*
X0227752Y0196384D01*
X0227641Y0196297D01*
X0227528Y0196213D01*
X0227413Y0196132D01*
X0227296Y0196054D01*
X0227176Y0195980D01*
X0227054Y0195909D01*
X0226931Y0195841D01*
X0226805Y0195777D01*
X0226678Y0195717D01*
X0226549Y0195660D01*
X0226419Y0195606D01*
X0226287Y0195557D01*
X0226153Y0195511D01*
X0226019Y0195469D01*
X0225883Y0195431D01*
X0225747Y0195396D01*
X0225609Y0195366D01*
X0225471Y0195339D01*
X0225332Y0195317D01*
X0225192Y0195298D01*
X0225052Y0195283D01*
X0224912Y0195272D01*
X0224771Y0195265D01*
X0224630Y0195262D01*
X0224489Y0195263D01*
X0224349Y0195268D01*
X0224208Y0195277D01*
X0224068Y0195290D01*
X0223928Y0195307D01*
X0223788Y0195327D01*
X0223650Y0195352D01*
X0223512Y0195381D01*
X0223375Y0195413D01*
X0223239Y0195449D01*
X0223104Y0195490D01*
X0222970Y0195534D01*
X0222837Y0195581D01*
X0222706Y0195633D01*
X0222576Y0195688D01*
X0222448Y0195746D01*
X0222322Y0195809D01*
X0222197Y0195874D01*
X0222075Y0195944D01*
X0221954Y0196016D01*
X0221835Y0196092D01*
X0221719Y0196172D01*
X0221605Y0196255D01*
X0221493Y0196340D01*
X0221384Y0196429D01*
X0221277Y0196521D01*
X0221173Y0196616D01*
X0221072Y0196714D01*
X0220973Y0196815D01*
X0220878Y0196918D01*
X0220785Y0197024D01*
X0220695Y0197133D01*
X0220609Y0197244D01*
X0220525Y0197357D01*
X0220445Y0197473D01*
X0220368Y0197591D01*
X0220295Y0197711D01*
X0220224Y0197834D01*
X0220158Y0197958D01*
X0220095Y0198084D01*
X0220035Y0198211D01*
X0219979Y0198340D01*
X0219927Y0198471D01*
X0219878Y0198603D01*
X0219833Y0198737D01*
X0219792Y0198872D01*
X0219755Y0199008D01*
X0219721Y0199144D01*
X0219692Y0199282D01*
X0219666Y0199421D01*
X0219645Y0199560D01*
X0219627Y0199700D01*
X0219613Y0199840D01*
X0219603Y0199980D01*
X0219597Y0200121D01*
X0219595Y0200262D01*
X0224595Y0210262D02*
X0224837Y0210259D01*
X0225078Y0210250D01*
X0225319Y0210236D01*
X0225560Y0210215D01*
X0225800Y0210189D01*
X0226040Y0210157D01*
X0226279Y0210119D01*
X0226516Y0210076D01*
X0226753Y0210026D01*
X0226988Y0209971D01*
X0227222Y0209911D01*
X0227454Y0209844D01*
X0227685Y0209773D01*
X0227914Y0209695D01*
X0228141Y0209612D01*
X0228366Y0209524D01*
X0228589Y0209430D01*
X0228809Y0209331D01*
X0229027Y0209226D01*
X0229242Y0209117D01*
X0229455Y0209002D01*
X0229665Y0208882D01*
X0229871Y0208757D01*
X0230075Y0208627D01*
X0230276Y0208492D01*
X0230473Y0208352D01*
X0230667Y0208208D01*
X0230857Y0208059D01*
X0231043Y0207905D01*
X0231226Y0207747D01*
X0231405Y0207585D01*
X0231580Y0207418D01*
X0231751Y0207247D01*
X0231918Y0207072D01*
X0232080Y0206893D01*
X0232238Y0206710D01*
X0232392Y0206524D01*
X0232541Y0206334D01*
X0232685Y0206140D01*
X0232825Y0205943D01*
X0232960Y0205742D01*
X0233090Y0205538D01*
X0233215Y0205332D01*
X0233335Y0205122D01*
X0233450Y0204909D01*
X0233559Y0204694D01*
X0233664Y0204476D01*
X0233763Y0204256D01*
X0233857Y0204033D01*
X0233945Y0203808D01*
X0234028Y0203581D01*
X0234106Y0203352D01*
X0234177Y0203121D01*
X0234244Y0202889D01*
X0234304Y0202655D01*
X0234359Y0202420D01*
X0234409Y0202183D01*
X0234452Y0201946D01*
X0234490Y0201707D01*
X0234522Y0201467D01*
X0234548Y0201227D01*
X0234569Y0200986D01*
X0234583Y0200745D01*
X0234592Y0200504D01*
X0234595Y0200262D01*
X0224595Y0210262D02*
X0044595Y0210262D01*
X0044353Y0210259D01*
X0044112Y0210250D01*
X0043871Y0210236D01*
X0043630Y0210215D01*
X0043390Y0210189D01*
X0043150Y0210157D01*
X0042911Y0210119D01*
X0042674Y0210076D01*
X0042437Y0210026D01*
X0042202Y0209971D01*
X0041968Y0209911D01*
X0041736Y0209844D01*
X0041505Y0209773D01*
X0041276Y0209695D01*
X0041049Y0209612D01*
X0040824Y0209524D01*
X0040601Y0209430D01*
X0040381Y0209331D01*
X0040163Y0209226D01*
X0039948Y0209117D01*
X0039735Y0209002D01*
X0039525Y0208882D01*
X0039319Y0208757D01*
X0039115Y0208627D01*
X0038914Y0208492D01*
X0038717Y0208352D01*
X0038523Y0208208D01*
X0038333Y0208059D01*
X0038147Y0207905D01*
X0037964Y0207747D01*
X0037785Y0207585D01*
X0037610Y0207418D01*
X0037439Y0207247D01*
X0037272Y0207072D01*
X0037110Y0206893D01*
X0036952Y0206710D01*
X0036798Y0206524D01*
X0036649Y0206334D01*
X0036505Y0206140D01*
X0036365Y0205943D01*
X0036230Y0205742D01*
X0036100Y0205538D01*
X0035975Y0205332D01*
X0035855Y0205122D01*
X0035740Y0204909D01*
X0035631Y0204694D01*
X0035526Y0204476D01*
X0035427Y0204256D01*
X0035333Y0204033D01*
X0035245Y0203808D01*
X0035162Y0203581D01*
X0035084Y0203352D01*
X0035013Y0203121D01*
X0034946Y0202889D01*
X0034886Y0202655D01*
X0034831Y0202420D01*
X0034781Y0202183D01*
X0034738Y0201946D01*
X0034700Y0201707D01*
X0034668Y0201467D01*
X0034642Y0201227D01*
X0034621Y0200986D01*
X0034607Y0200745D01*
X0034598Y0200504D01*
X0034595Y0200262D01*
X0034595Y0175262D01*
X0036595Y0173262D01*
X0036595Y0157262D01*
X0034595Y0155262D01*
X0034595Y0130262D01*
X0034598Y0130020D01*
X0034607Y0129779D01*
X0034621Y0129538D01*
X0034642Y0129297D01*
X0034668Y0129057D01*
X0034700Y0128817D01*
X0034738Y0128578D01*
X0034781Y0128341D01*
X0034831Y0128104D01*
X0034886Y0127869D01*
X0034946Y0127635D01*
X0035013Y0127403D01*
X0035084Y0127172D01*
X0035162Y0126943D01*
X0035245Y0126716D01*
X0035333Y0126491D01*
X0035427Y0126268D01*
X0035526Y0126048D01*
X0035631Y0125830D01*
X0035740Y0125615D01*
X0035855Y0125402D01*
X0035975Y0125192D01*
X0036100Y0124986D01*
X0036230Y0124782D01*
X0036365Y0124581D01*
X0036505Y0124384D01*
X0036649Y0124190D01*
X0036798Y0124000D01*
X0036952Y0123814D01*
X0037110Y0123631D01*
X0037272Y0123452D01*
X0037439Y0123277D01*
X0037610Y0123106D01*
X0037785Y0122939D01*
X0037964Y0122777D01*
X0038147Y0122619D01*
X0038333Y0122465D01*
X0038523Y0122316D01*
X0038717Y0122172D01*
X0038914Y0122032D01*
X0039115Y0121897D01*
X0039319Y0121767D01*
X0039525Y0121642D01*
X0039735Y0121522D01*
X0039948Y0121407D01*
X0040163Y0121298D01*
X0040381Y0121193D01*
X0040601Y0121094D01*
X0040824Y0121000D01*
X0041049Y0120912D01*
X0041276Y0120829D01*
X0041505Y0120751D01*
X0041736Y0120680D01*
X0041968Y0120613D01*
X0042202Y0120553D01*
X0042437Y0120498D01*
X0042674Y0120448D01*
X0042911Y0120405D01*
X0043150Y0120367D01*
X0043390Y0120335D01*
X0043630Y0120309D01*
X0043871Y0120288D01*
X0044112Y0120274D01*
X0044353Y0120265D01*
X0044595Y0120262D01*
X0167845Y0140262D02*
X0167847Y0140345D01*
X0167853Y0140428D01*
X0167863Y0140511D01*
X0167877Y0140593D01*
X0167894Y0140675D01*
X0167916Y0140755D01*
X0167941Y0140834D01*
X0167970Y0140912D01*
X0168003Y0140989D01*
X0168040Y0141064D01*
X0168079Y0141137D01*
X0168123Y0141208D01*
X0168169Y0141277D01*
X0168219Y0141344D01*
X0168272Y0141408D01*
X0168328Y0141470D01*
X0168387Y0141529D01*
X0168449Y0141585D01*
X0168513Y0141638D01*
X0168580Y0141688D01*
X0168649Y0141734D01*
X0168720Y0141778D01*
X0168793Y0141817D01*
X0168868Y0141854D01*
X0168945Y0141887D01*
X0169023Y0141916D01*
X0169102Y0141941D01*
X0169182Y0141963D01*
X0169264Y0141980D01*
X0169346Y0141994D01*
X0169429Y0142004D01*
X0169512Y0142010D01*
X0169595Y0142012D01*
X0169678Y0142010D01*
X0169761Y0142004D01*
X0169844Y0141994D01*
X0169926Y0141980D01*
X0170008Y0141963D01*
X0170088Y0141941D01*
X0170167Y0141916D01*
X0170245Y0141887D01*
X0170322Y0141854D01*
X0170397Y0141817D01*
X0170470Y0141778D01*
X0170541Y0141734D01*
X0170610Y0141688D01*
X0170677Y0141638D01*
X0170741Y0141585D01*
X0170803Y0141529D01*
X0170862Y0141470D01*
X0170918Y0141408D01*
X0170971Y0141344D01*
X0171021Y0141277D01*
X0171067Y0141208D01*
X0171111Y0141137D01*
X0171150Y0141064D01*
X0171187Y0140989D01*
X0171220Y0140912D01*
X0171249Y0140834D01*
X0171274Y0140755D01*
X0171296Y0140675D01*
X0171313Y0140593D01*
X0171327Y0140511D01*
X0171337Y0140428D01*
X0171343Y0140345D01*
X0171345Y0140262D01*
X0171343Y0140179D01*
X0171337Y0140096D01*
X0171327Y0140013D01*
X0171313Y0139931D01*
X0171296Y0139849D01*
X0171274Y0139769D01*
X0171249Y0139690D01*
X0171220Y0139612D01*
X0171187Y0139535D01*
X0171150Y0139460D01*
X0171111Y0139387D01*
X0171067Y0139316D01*
X0171021Y0139247D01*
X0170971Y0139180D01*
X0170918Y0139116D01*
X0170862Y0139054D01*
X0170803Y0138995D01*
X0170741Y0138939D01*
X0170677Y0138886D01*
X0170610Y0138836D01*
X0170541Y0138790D01*
X0170470Y0138746D01*
X0170397Y0138707D01*
X0170322Y0138670D01*
X0170245Y0138637D01*
X0170167Y0138608D01*
X0170088Y0138583D01*
X0170008Y0138561D01*
X0169926Y0138544D01*
X0169844Y0138530D01*
X0169761Y0138520D01*
X0169678Y0138514D01*
X0169595Y0138512D01*
X0169512Y0138514D01*
X0169429Y0138520D01*
X0169346Y0138530D01*
X0169264Y0138544D01*
X0169182Y0138561D01*
X0169102Y0138583D01*
X0169023Y0138608D01*
X0168945Y0138637D01*
X0168868Y0138670D01*
X0168793Y0138707D01*
X0168720Y0138746D01*
X0168649Y0138790D01*
X0168580Y0138836D01*
X0168513Y0138886D01*
X0168449Y0138939D01*
X0168387Y0138995D01*
X0168328Y0139054D01*
X0168272Y0139116D01*
X0168219Y0139180D01*
X0168169Y0139247D01*
X0168123Y0139316D01*
X0168079Y0139387D01*
X0168040Y0139460D01*
X0168003Y0139535D01*
X0167970Y0139612D01*
X0167941Y0139690D01*
X0167916Y0139769D01*
X0167894Y0139849D01*
X0167877Y0139931D01*
X0167863Y0140013D01*
X0167853Y0140096D01*
X0167847Y0140179D01*
X0167845Y0140262D01*
X0177845Y0140262D02*
X0177847Y0140345D01*
X0177853Y0140428D01*
X0177863Y0140511D01*
X0177877Y0140593D01*
X0177894Y0140675D01*
X0177916Y0140755D01*
X0177941Y0140834D01*
X0177970Y0140912D01*
X0178003Y0140989D01*
X0178040Y0141064D01*
X0178079Y0141137D01*
X0178123Y0141208D01*
X0178169Y0141277D01*
X0178219Y0141344D01*
X0178272Y0141408D01*
X0178328Y0141470D01*
X0178387Y0141529D01*
X0178449Y0141585D01*
X0178513Y0141638D01*
X0178580Y0141688D01*
X0178649Y0141734D01*
X0178720Y0141778D01*
X0178793Y0141817D01*
X0178868Y0141854D01*
X0178945Y0141887D01*
X0179023Y0141916D01*
X0179102Y0141941D01*
X0179182Y0141963D01*
X0179264Y0141980D01*
X0179346Y0141994D01*
X0179429Y0142004D01*
X0179512Y0142010D01*
X0179595Y0142012D01*
X0179678Y0142010D01*
X0179761Y0142004D01*
X0179844Y0141994D01*
X0179926Y0141980D01*
X0180008Y0141963D01*
X0180088Y0141941D01*
X0180167Y0141916D01*
X0180245Y0141887D01*
X0180322Y0141854D01*
X0180397Y0141817D01*
X0180470Y0141778D01*
X0180541Y0141734D01*
X0180610Y0141688D01*
X0180677Y0141638D01*
X0180741Y0141585D01*
X0180803Y0141529D01*
X0180862Y0141470D01*
X0180918Y0141408D01*
X0180971Y0141344D01*
X0181021Y0141277D01*
X0181067Y0141208D01*
X0181111Y0141137D01*
X0181150Y0141064D01*
X0181187Y0140989D01*
X0181220Y0140912D01*
X0181249Y0140834D01*
X0181274Y0140755D01*
X0181296Y0140675D01*
X0181313Y0140593D01*
X0181327Y0140511D01*
X0181337Y0140428D01*
X0181343Y0140345D01*
X0181345Y0140262D01*
X0181343Y0140179D01*
X0181337Y0140096D01*
X0181327Y0140013D01*
X0181313Y0139931D01*
X0181296Y0139849D01*
X0181274Y0139769D01*
X0181249Y0139690D01*
X0181220Y0139612D01*
X0181187Y0139535D01*
X0181150Y0139460D01*
X0181111Y0139387D01*
X0181067Y0139316D01*
X0181021Y0139247D01*
X0180971Y0139180D01*
X0180918Y0139116D01*
X0180862Y0139054D01*
X0180803Y0138995D01*
X0180741Y0138939D01*
X0180677Y0138886D01*
X0180610Y0138836D01*
X0180541Y0138790D01*
X0180470Y0138746D01*
X0180397Y0138707D01*
X0180322Y0138670D01*
X0180245Y0138637D01*
X0180167Y0138608D01*
X0180088Y0138583D01*
X0180008Y0138561D01*
X0179926Y0138544D01*
X0179844Y0138530D01*
X0179761Y0138520D01*
X0179678Y0138514D01*
X0179595Y0138512D01*
X0179512Y0138514D01*
X0179429Y0138520D01*
X0179346Y0138530D01*
X0179264Y0138544D01*
X0179182Y0138561D01*
X0179102Y0138583D01*
X0179023Y0138608D01*
X0178945Y0138637D01*
X0178868Y0138670D01*
X0178793Y0138707D01*
X0178720Y0138746D01*
X0178649Y0138790D01*
X0178580Y0138836D01*
X0178513Y0138886D01*
X0178449Y0138939D01*
X0178387Y0138995D01*
X0178328Y0139054D01*
X0178272Y0139116D01*
X0178219Y0139180D01*
X0178169Y0139247D01*
X0178123Y0139316D01*
X0178079Y0139387D01*
X0178040Y0139460D01*
X0178003Y0139535D01*
X0177970Y0139612D01*
X0177941Y0139690D01*
X0177916Y0139769D01*
X0177894Y0139849D01*
X0177877Y0139931D01*
X0177863Y0140013D01*
X0177853Y0140096D01*
X0177847Y0140179D01*
X0177845Y0140262D01*
X0177845Y0150262D02*
X0177847Y0150345D01*
X0177853Y0150428D01*
X0177863Y0150511D01*
X0177877Y0150593D01*
X0177894Y0150675D01*
X0177916Y0150755D01*
X0177941Y0150834D01*
X0177970Y0150912D01*
X0178003Y0150989D01*
X0178040Y0151064D01*
X0178079Y0151137D01*
X0178123Y0151208D01*
X0178169Y0151277D01*
X0178219Y0151344D01*
X0178272Y0151408D01*
X0178328Y0151470D01*
X0178387Y0151529D01*
X0178449Y0151585D01*
X0178513Y0151638D01*
X0178580Y0151688D01*
X0178649Y0151734D01*
X0178720Y0151778D01*
X0178793Y0151817D01*
X0178868Y0151854D01*
X0178945Y0151887D01*
X0179023Y0151916D01*
X0179102Y0151941D01*
X0179182Y0151963D01*
X0179264Y0151980D01*
X0179346Y0151994D01*
X0179429Y0152004D01*
X0179512Y0152010D01*
X0179595Y0152012D01*
X0179678Y0152010D01*
X0179761Y0152004D01*
X0179844Y0151994D01*
X0179926Y0151980D01*
X0180008Y0151963D01*
X0180088Y0151941D01*
X0180167Y0151916D01*
X0180245Y0151887D01*
X0180322Y0151854D01*
X0180397Y0151817D01*
X0180470Y0151778D01*
X0180541Y0151734D01*
X0180610Y0151688D01*
X0180677Y0151638D01*
X0180741Y0151585D01*
X0180803Y0151529D01*
X0180862Y0151470D01*
X0180918Y0151408D01*
X0180971Y0151344D01*
X0181021Y0151277D01*
X0181067Y0151208D01*
X0181111Y0151137D01*
X0181150Y0151064D01*
X0181187Y0150989D01*
X0181220Y0150912D01*
X0181249Y0150834D01*
X0181274Y0150755D01*
X0181296Y0150675D01*
X0181313Y0150593D01*
X0181327Y0150511D01*
X0181337Y0150428D01*
X0181343Y0150345D01*
X0181345Y0150262D01*
X0181343Y0150179D01*
X0181337Y0150096D01*
X0181327Y0150013D01*
X0181313Y0149931D01*
X0181296Y0149849D01*
X0181274Y0149769D01*
X0181249Y0149690D01*
X0181220Y0149612D01*
X0181187Y0149535D01*
X0181150Y0149460D01*
X0181111Y0149387D01*
X0181067Y0149316D01*
X0181021Y0149247D01*
X0180971Y0149180D01*
X0180918Y0149116D01*
X0180862Y0149054D01*
X0180803Y0148995D01*
X0180741Y0148939D01*
X0180677Y0148886D01*
X0180610Y0148836D01*
X0180541Y0148790D01*
X0180470Y0148746D01*
X0180397Y0148707D01*
X0180322Y0148670D01*
X0180245Y0148637D01*
X0180167Y0148608D01*
X0180088Y0148583D01*
X0180008Y0148561D01*
X0179926Y0148544D01*
X0179844Y0148530D01*
X0179761Y0148520D01*
X0179678Y0148514D01*
X0179595Y0148512D01*
X0179512Y0148514D01*
X0179429Y0148520D01*
X0179346Y0148530D01*
X0179264Y0148544D01*
X0179182Y0148561D01*
X0179102Y0148583D01*
X0179023Y0148608D01*
X0178945Y0148637D01*
X0178868Y0148670D01*
X0178793Y0148707D01*
X0178720Y0148746D01*
X0178649Y0148790D01*
X0178580Y0148836D01*
X0178513Y0148886D01*
X0178449Y0148939D01*
X0178387Y0148995D01*
X0178328Y0149054D01*
X0178272Y0149116D01*
X0178219Y0149180D01*
X0178169Y0149247D01*
X0178123Y0149316D01*
X0178079Y0149387D01*
X0178040Y0149460D01*
X0178003Y0149535D01*
X0177970Y0149612D01*
X0177941Y0149690D01*
X0177916Y0149769D01*
X0177894Y0149849D01*
X0177877Y0149931D01*
X0177863Y0150013D01*
X0177853Y0150096D01*
X0177847Y0150179D01*
X0177845Y0150262D01*
X0167845Y0150262D02*
X0167847Y0150345D01*
X0167853Y0150428D01*
X0167863Y0150511D01*
X0167877Y0150593D01*
X0167894Y0150675D01*
X0167916Y0150755D01*
X0167941Y0150834D01*
X0167970Y0150912D01*
X0168003Y0150989D01*
X0168040Y0151064D01*
X0168079Y0151137D01*
X0168123Y0151208D01*
X0168169Y0151277D01*
X0168219Y0151344D01*
X0168272Y0151408D01*
X0168328Y0151470D01*
X0168387Y0151529D01*
X0168449Y0151585D01*
X0168513Y0151638D01*
X0168580Y0151688D01*
X0168649Y0151734D01*
X0168720Y0151778D01*
X0168793Y0151817D01*
X0168868Y0151854D01*
X0168945Y0151887D01*
X0169023Y0151916D01*
X0169102Y0151941D01*
X0169182Y0151963D01*
X0169264Y0151980D01*
X0169346Y0151994D01*
X0169429Y0152004D01*
X0169512Y0152010D01*
X0169595Y0152012D01*
X0169678Y0152010D01*
X0169761Y0152004D01*
X0169844Y0151994D01*
X0169926Y0151980D01*
X0170008Y0151963D01*
X0170088Y0151941D01*
X0170167Y0151916D01*
X0170245Y0151887D01*
X0170322Y0151854D01*
X0170397Y0151817D01*
X0170470Y0151778D01*
X0170541Y0151734D01*
X0170610Y0151688D01*
X0170677Y0151638D01*
X0170741Y0151585D01*
X0170803Y0151529D01*
X0170862Y0151470D01*
X0170918Y0151408D01*
X0170971Y0151344D01*
X0171021Y0151277D01*
X0171067Y0151208D01*
X0171111Y0151137D01*
X0171150Y0151064D01*
X0171187Y0150989D01*
X0171220Y0150912D01*
X0171249Y0150834D01*
X0171274Y0150755D01*
X0171296Y0150675D01*
X0171313Y0150593D01*
X0171327Y0150511D01*
X0171337Y0150428D01*
X0171343Y0150345D01*
X0171345Y0150262D01*
X0171343Y0150179D01*
X0171337Y0150096D01*
X0171327Y0150013D01*
X0171313Y0149931D01*
X0171296Y0149849D01*
X0171274Y0149769D01*
X0171249Y0149690D01*
X0171220Y0149612D01*
X0171187Y0149535D01*
X0171150Y0149460D01*
X0171111Y0149387D01*
X0171067Y0149316D01*
X0171021Y0149247D01*
X0170971Y0149180D01*
X0170918Y0149116D01*
X0170862Y0149054D01*
X0170803Y0148995D01*
X0170741Y0148939D01*
X0170677Y0148886D01*
X0170610Y0148836D01*
X0170541Y0148790D01*
X0170470Y0148746D01*
X0170397Y0148707D01*
X0170322Y0148670D01*
X0170245Y0148637D01*
X0170167Y0148608D01*
X0170088Y0148583D01*
X0170008Y0148561D01*
X0169926Y0148544D01*
X0169844Y0148530D01*
X0169761Y0148520D01*
X0169678Y0148514D01*
X0169595Y0148512D01*
X0169512Y0148514D01*
X0169429Y0148520D01*
X0169346Y0148530D01*
X0169264Y0148544D01*
X0169182Y0148561D01*
X0169102Y0148583D01*
X0169023Y0148608D01*
X0168945Y0148637D01*
X0168868Y0148670D01*
X0168793Y0148707D01*
X0168720Y0148746D01*
X0168649Y0148790D01*
X0168580Y0148836D01*
X0168513Y0148886D01*
X0168449Y0148939D01*
X0168387Y0148995D01*
X0168328Y0149054D01*
X0168272Y0149116D01*
X0168219Y0149180D01*
X0168169Y0149247D01*
X0168123Y0149316D01*
X0168079Y0149387D01*
X0168040Y0149460D01*
X0168003Y0149535D01*
X0167970Y0149612D01*
X0167941Y0149690D01*
X0167916Y0149769D01*
X0167894Y0149849D01*
X0167877Y0149931D01*
X0167863Y0150013D01*
X0167853Y0150096D01*
X0167847Y0150179D01*
X0167845Y0150262D01*
X0167845Y0160262D02*
X0167847Y0160345D01*
X0167853Y0160428D01*
X0167863Y0160511D01*
X0167877Y0160593D01*
X0167894Y0160675D01*
X0167916Y0160755D01*
X0167941Y0160834D01*
X0167970Y0160912D01*
X0168003Y0160989D01*
X0168040Y0161064D01*
X0168079Y0161137D01*
X0168123Y0161208D01*
X0168169Y0161277D01*
X0168219Y0161344D01*
X0168272Y0161408D01*
X0168328Y0161470D01*
X0168387Y0161529D01*
X0168449Y0161585D01*
X0168513Y0161638D01*
X0168580Y0161688D01*
X0168649Y0161734D01*
X0168720Y0161778D01*
X0168793Y0161817D01*
X0168868Y0161854D01*
X0168945Y0161887D01*
X0169023Y0161916D01*
X0169102Y0161941D01*
X0169182Y0161963D01*
X0169264Y0161980D01*
X0169346Y0161994D01*
X0169429Y0162004D01*
X0169512Y0162010D01*
X0169595Y0162012D01*
X0169678Y0162010D01*
X0169761Y0162004D01*
X0169844Y0161994D01*
X0169926Y0161980D01*
X0170008Y0161963D01*
X0170088Y0161941D01*
X0170167Y0161916D01*
X0170245Y0161887D01*
X0170322Y0161854D01*
X0170397Y0161817D01*
X0170470Y0161778D01*
X0170541Y0161734D01*
X0170610Y0161688D01*
X0170677Y0161638D01*
X0170741Y0161585D01*
X0170803Y0161529D01*
X0170862Y0161470D01*
X0170918Y0161408D01*
X0170971Y0161344D01*
X0171021Y0161277D01*
X0171067Y0161208D01*
X0171111Y0161137D01*
X0171150Y0161064D01*
X0171187Y0160989D01*
X0171220Y0160912D01*
X0171249Y0160834D01*
X0171274Y0160755D01*
X0171296Y0160675D01*
X0171313Y0160593D01*
X0171327Y0160511D01*
X0171337Y0160428D01*
X0171343Y0160345D01*
X0171345Y0160262D01*
X0171343Y0160179D01*
X0171337Y0160096D01*
X0171327Y0160013D01*
X0171313Y0159931D01*
X0171296Y0159849D01*
X0171274Y0159769D01*
X0171249Y0159690D01*
X0171220Y0159612D01*
X0171187Y0159535D01*
X0171150Y0159460D01*
X0171111Y0159387D01*
X0171067Y0159316D01*
X0171021Y0159247D01*
X0170971Y0159180D01*
X0170918Y0159116D01*
X0170862Y0159054D01*
X0170803Y0158995D01*
X0170741Y0158939D01*
X0170677Y0158886D01*
X0170610Y0158836D01*
X0170541Y0158790D01*
X0170470Y0158746D01*
X0170397Y0158707D01*
X0170322Y0158670D01*
X0170245Y0158637D01*
X0170167Y0158608D01*
X0170088Y0158583D01*
X0170008Y0158561D01*
X0169926Y0158544D01*
X0169844Y0158530D01*
X0169761Y0158520D01*
X0169678Y0158514D01*
X0169595Y0158512D01*
X0169512Y0158514D01*
X0169429Y0158520D01*
X0169346Y0158530D01*
X0169264Y0158544D01*
X0169182Y0158561D01*
X0169102Y0158583D01*
X0169023Y0158608D01*
X0168945Y0158637D01*
X0168868Y0158670D01*
X0168793Y0158707D01*
X0168720Y0158746D01*
X0168649Y0158790D01*
X0168580Y0158836D01*
X0168513Y0158886D01*
X0168449Y0158939D01*
X0168387Y0158995D01*
X0168328Y0159054D01*
X0168272Y0159116D01*
X0168219Y0159180D01*
X0168169Y0159247D01*
X0168123Y0159316D01*
X0168079Y0159387D01*
X0168040Y0159460D01*
X0168003Y0159535D01*
X0167970Y0159612D01*
X0167941Y0159690D01*
X0167916Y0159769D01*
X0167894Y0159849D01*
X0167877Y0159931D01*
X0167863Y0160013D01*
X0167853Y0160096D01*
X0167847Y0160179D01*
X0167845Y0160262D01*
X0177845Y0160262D02*
X0177847Y0160345D01*
X0177853Y0160428D01*
X0177863Y0160511D01*
X0177877Y0160593D01*
X0177894Y0160675D01*
X0177916Y0160755D01*
X0177941Y0160834D01*
X0177970Y0160912D01*
X0178003Y0160989D01*
X0178040Y0161064D01*
X0178079Y0161137D01*
X0178123Y0161208D01*
X0178169Y0161277D01*
X0178219Y0161344D01*
X0178272Y0161408D01*
X0178328Y0161470D01*
X0178387Y0161529D01*
X0178449Y0161585D01*
X0178513Y0161638D01*
X0178580Y0161688D01*
X0178649Y0161734D01*
X0178720Y0161778D01*
X0178793Y0161817D01*
X0178868Y0161854D01*
X0178945Y0161887D01*
X0179023Y0161916D01*
X0179102Y0161941D01*
X0179182Y0161963D01*
X0179264Y0161980D01*
X0179346Y0161994D01*
X0179429Y0162004D01*
X0179512Y0162010D01*
X0179595Y0162012D01*
X0179678Y0162010D01*
X0179761Y0162004D01*
X0179844Y0161994D01*
X0179926Y0161980D01*
X0180008Y0161963D01*
X0180088Y0161941D01*
X0180167Y0161916D01*
X0180245Y0161887D01*
X0180322Y0161854D01*
X0180397Y0161817D01*
X0180470Y0161778D01*
X0180541Y0161734D01*
X0180610Y0161688D01*
X0180677Y0161638D01*
X0180741Y0161585D01*
X0180803Y0161529D01*
X0180862Y0161470D01*
X0180918Y0161408D01*
X0180971Y0161344D01*
X0181021Y0161277D01*
X0181067Y0161208D01*
X0181111Y0161137D01*
X0181150Y0161064D01*
X0181187Y0160989D01*
X0181220Y0160912D01*
X0181249Y0160834D01*
X0181274Y0160755D01*
X0181296Y0160675D01*
X0181313Y0160593D01*
X0181327Y0160511D01*
X0181337Y0160428D01*
X0181343Y0160345D01*
X0181345Y0160262D01*
X0181343Y0160179D01*
X0181337Y0160096D01*
X0181327Y0160013D01*
X0181313Y0159931D01*
X0181296Y0159849D01*
X0181274Y0159769D01*
X0181249Y0159690D01*
X0181220Y0159612D01*
X0181187Y0159535D01*
X0181150Y0159460D01*
X0181111Y0159387D01*
X0181067Y0159316D01*
X0181021Y0159247D01*
X0180971Y0159180D01*
X0180918Y0159116D01*
X0180862Y0159054D01*
X0180803Y0158995D01*
X0180741Y0158939D01*
X0180677Y0158886D01*
X0180610Y0158836D01*
X0180541Y0158790D01*
X0180470Y0158746D01*
X0180397Y0158707D01*
X0180322Y0158670D01*
X0180245Y0158637D01*
X0180167Y0158608D01*
X0180088Y0158583D01*
X0180008Y0158561D01*
X0179926Y0158544D01*
X0179844Y0158530D01*
X0179761Y0158520D01*
X0179678Y0158514D01*
X0179595Y0158512D01*
X0179512Y0158514D01*
X0179429Y0158520D01*
X0179346Y0158530D01*
X0179264Y0158544D01*
X0179182Y0158561D01*
X0179102Y0158583D01*
X0179023Y0158608D01*
X0178945Y0158637D01*
X0178868Y0158670D01*
X0178793Y0158707D01*
X0178720Y0158746D01*
X0178649Y0158790D01*
X0178580Y0158836D01*
X0178513Y0158886D01*
X0178449Y0158939D01*
X0178387Y0158995D01*
X0178328Y0159054D01*
X0178272Y0159116D01*
X0178219Y0159180D01*
X0178169Y0159247D01*
X0178123Y0159316D01*
X0178079Y0159387D01*
X0178040Y0159460D01*
X0178003Y0159535D01*
X0177970Y0159612D01*
X0177941Y0159690D01*
X0177916Y0159769D01*
X0177894Y0159849D01*
X0177877Y0159931D01*
X0177863Y0160013D01*
X0177853Y0160096D01*
X0177847Y0160179D01*
X0177845Y0160262D01*
X0177845Y0170262D02*
X0177847Y0170345D01*
X0177853Y0170428D01*
X0177863Y0170511D01*
X0177877Y0170593D01*
X0177894Y0170675D01*
X0177916Y0170755D01*
X0177941Y0170834D01*
X0177970Y0170912D01*
X0178003Y0170989D01*
X0178040Y0171064D01*
X0178079Y0171137D01*
X0178123Y0171208D01*
X0178169Y0171277D01*
X0178219Y0171344D01*
X0178272Y0171408D01*
X0178328Y0171470D01*
X0178387Y0171529D01*
X0178449Y0171585D01*
X0178513Y0171638D01*
X0178580Y0171688D01*
X0178649Y0171734D01*
X0178720Y0171778D01*
X0178793Y0171817D01*
X0178868Y0171854D01*
X0178945Y0171887D01*
X0179023Y0171916D01*
X0179102Y0171941D01*
X0179182Y0171963D01*
X0179264Y0171980D01*
X0179346Y0171994D01*
X0179429Y0172004D01*
X0179512Y0172010D01*
X0179595Y0172012D01*
X0179678Y0172010D01*
X0179761Y0172004D01*
X0179844Y0171994D01*
X0179926Y0171980D01*
X0180008Y0171963D01*
X0180088Y0171941D01*
X0180167Y0171916D01*
X0180245Y0171887D01*
X0180322Y0171854D01*
X0180397Y0171817D01*
X0180470Y0171778D01*
X0180541Y0171734D01*
X0180610Y0171688D01*
X0180677Y0171638D01*
X0180741Y0171585D01*
X0180803Y0171529D01*
X0180862Y0171470D01*
X0180918Y0171408D01*
X0180971Y0171344D01*
X0181021Y0171277D01*
X0181067Y0171208D01*
X0181111Y0171137D01*
X0181150Y0171064D01*
X0181187Y0170989D01*
X0181220Y0170912D01*
X0181249Y0170834D01*
X0181274Y0170755D01*
X0181296Y0170675D01*
X0181313Y0170593D01*
X0181327Y0170511D01*
X0181337Y0170428D01*
X0181343Y0170345D01*
X0181345Y0170262D01*
X0181343Y0170179D01*
X0181337Y0170096D01*
X0181327Y0170013D01*
X0181313Y0169931D01*
X0181296Y0169849D01*
X0181274Y0169769D01*
X0181249Y0169690D01*
X0181220Y0169612D01*
X0181187Y0169535D01*
X0181150Y0169460D01*
X0181111Y0169387D01*
X0181067Y0169316D01*
X0181021Y0169247D01*
X0180971Y0169180D01*
X0180918Y0169116D01*
X0180862Y0169054D01*
X0180803Y0168995D01*
X0180741Y0168939D01*
X0180677Y0168886D01*
X0180610Y0168836D01*
X0180541Y0168790D01*
X0180470Y0168746D01*
X0180397Y0168707D01*
X0180322Y0168670D01*
X0180245Y0168637D01*
X0180167Y0168608D01*
X0180088Y0168583D01*
X0180008Y0168561D01*
X0179926Y0168544D01*
X0179844Y0168530D01*
X0179761Y0168520D01*
X0179678Y0168514D01*
X0179595Y0168512D01*
X0179512Y0168514D01*
X0179429Y0168520D01*
X0179346Y0168530D01*
X0179264Y0168544D01*
X0179182Y0168561D01*
X0179102Y0168583D01*
X0179023Y0168608D01*
X0178945Y0168637D01*
X0178868Y0168670D01*
X0178793Y0168707D01*
X0178720Y0168746D01*
X0178649Y0168790D01*
X0178580Y0168836D01*
X0178513Y0168886D01*
X0178449Y0168939D01*
X0178387Y0168995D01*
X0178328Y0169054D01*
X0178272Y0169116D01*
X0178219Y0169180D01*
X0178169Y0169247D01*
X0178123Y0169316D01*
X0178079Y0169387D01*
X0178040Y0169460D01*
X0178003Y0169535D01*
X0177970Y0169612D01*
X0177941Y0169690D01*
X0177916Y0169769D01*
X0177894Y0169849D01*
X0177877Y0169931D01*
X0177863Y0170013D01*
X0177853Y0170096D01*
X0177847Y0170179D01*
X0177845Y0170262D01*
X0167845Y0170262D02*
X0167847Y0170345D01*
X0167853Y0170428D01*
X0167863Y0170511D01*
X0167877Y0170593D01*
X0167894Y0170675D01*
X0167916Y0170755D01*
X0167941Y0170834D01*
X0167970Y0170912D01*
X0168003Y0170989D01*
X0168040Y0171064D01*
X0168079Y0171137D01*
X0168123Y0171208D01*
X0168169Y0171277D01*
X0168219Y0171344D01*
X0168272Y0171408D01*
X0168328Y0171470D01*
X0168387Y0171529D01*
X0168449Y0171585D01*
X0168513Y0171638D01*
X0168580Y0171688D01*
X0168649Y0171734D01*
X0168720Y0171778D01*
X0168793Y0171817D01*
X0168868Y0171854D01*
X0168945Y0171887D01*
X0169023Y0171916D01*
X0169102Y0171941D01*
X0169182Y0171963D01*
X0169264Y0171980D01*
X0169346Y0171994D01*
X0169429Y0172004D01*
X0169512Y0172010D01*
X0169595Y0172012D01*
X0169678Y0172010D01*
X0169761Y0172004D01*
X0169844Y0171994D01*
X0169926Y0171980D01*
X0170008Y0171963D01*
X0170088Y0171941D01*
X0170167Y0171916D01*
X0170245Y0171887D01*
X0170322Y0171854D01*
X0170397Y0171817D01*
X0170470Y0171778D01*
X0170541Y0171734D01*
X0170610Y0171688D01*
X0170677Y0171638D01*
X0170741Y0171585D01*
X0170803Y0171529D01*
X0170862Y0171470D01*
X0170918Y0171408D01*
X0170971Y0171344D01*
X0171021Y0171277D01*
X0171067Y0171208D01*
X0171111Y0171137D01*
X0171150Y0171064D01*
X0171187Y0170989D01*
X0171220Y0170912D01*
X0171249Y0170834D01*
X0171274Y0170755D01*
X0171296Y0170675D01*
X0171313Y0170593D01*
X0171327Y0170511D01*
X0171337Y0170428D01*
X0171343Y0170345D01*
X0171345Y0170262D01*
X0171343Y0170179D01*
X0171337Y0170096D01*
X0171327Y0170013D01*
X0171313Y0169931D01*
X0171296Y0169849D01*
X0171274Y0169769D01*
X0171249Y0169690D01*
X0171220Y0169612D01*
X0171187Y0169535D01*
X0171150Y0169460D01*
X0171111Y0169387D01*
X0171067Y0169316D01*
X0171021Y0169247D01*
X0170971Y0169180D01*
X0170918Y0169116D01*
X0170862Y0169054D01*
X0170803Y0168995D01*
X0170741Y0168939D01*
X0170677Y0168886D01*
X0170610Y0168836D01*
X0170541Y0168790D01*
X0170470Y0168746D01*
X0170397Y0168707D01*
X0170322Y0168670D01*
X0170245Y0168637D01*
X0170167Y0168608D01*
X0170088Y0168583D01*
X0170008Y0168561D01*
X0169926Y0168544D01*
X0169844Y0168530D01*
X0169761Y0168520D01*
X0169678Y0168514D01*
X0169595Y0168512D01*
X0169512Y0168514D01*
X0169429Y0168520D01*
X0169346Y0168530D01*
X0169264Y0168544D01*
X0169182Y0168561D01*
X0169102Y0168583D01*
X0169023Y0168608D01*
X0168945Y0168637D01*
X0168868Y0168670D01*
X0168793Y0168707D01*
X0168720Y0168746D01*
X0168649Y0168790D01*
X0168580Y0168836D01*
X0168513Y0168886D01*
X0168449Y0168939D01*
X0168387Y0168995D01*
X0168328Y0169054D01*
X0168272Y0169116D01*
X0168219Y0169180D01*
X0168169Y0169247D01*
X0168123Y0169316D01*
X0168079Y0169387D01*
X0168040Y0169460D01*
X0168003Y0169535D01*
X0167970Y0169612D01*
X0167941Y0169690D01*
X0167916Y0169769D01*
X0167894Y0169849D01*
X0167877Y0169931D01*
X0167863Y0170013D01*
X0167853Y0170096D01*
X0167847Y0170179D01*
X0167845Y0170262D01*
X0167845Y0180262D02*
X0167847Y0180345D01*
X0167853Y0180428D01*
X0167863Y0180511D01*
X0167877Y0180593D01*
X0167894Y0180675D01*
X0167916Y0180755D01*
X0167941Y0180834D01*
X0167970Y0180912D01*
X0168003Y0180989D01*
X0168040Y0181064D01*
X0168079Y0181137D01*
X0168123Y0181208D01*
X0168169Y0181277D01*
X0168219Y0181344D01*
X0168272Y0181408D01*
X0168328Y0181470D01*
X0168387Y0181529D01*
X0168449Y0181585D01*
X0168513Y0181638D01*
X0168580Y0181688D01*
X0168649Y0181734D01*
X0168720Y0181778D01*
X0168793Y0181817D01*
X0168868Y0181854D01*
X0168945Y0181887D01*
X0169023Y0181916D01*
X0169102Y0181941D01*
X0169182Y0181963D01*
X0169264Y0181980D01*
X0169346Y0181994D01*
X0169429Y0182004D01*
X0169512Y0182010D01*
X0169595Y0182012D01*
X0169678Y0182010D01*
X0169761Y0182004D01*
X0169844Y0181994D01*
X0169926Y0181980D01*
X0170008Y0181963D01*
X0170088Y0181941D01*
X0170167Y0181916D01*
X0170245Y0181887D01*
X0170322Y0181854D01*
X0170397Y0181817D01*
X0170470Y0181778D01*
X0170541Y0181734D01*
X0170610Y0181688D01*
X0170677Y0181638D01*
X0170741Y0181585D01*
X0170803Y0181529D01*
X0170862Y0181470D01*
X0170918Y0181408D01*
X0170971Y0181344D01*
X0171021Y0181277D01*
X0171067Y0181208D01*
X0171111Y0181137D01*
X0171150Y0181064D01*
X0171187Y0180989D01*
X0171220Y0180912D01*
X0171249Y0180834D01*
X0171274Y0180755D01*
X0171296Y0180675D01*
X0171313Y0180593D01*
X0171327Y0180511D01*
X0171337Y0180428D01*
X0171343Y0180345D01*
X0171345Y0180262D01*
X0171343Y0180179D01*
X0171337Y0180096D01*
X0171327Y0180013D01*
X0171313Y0179931D01*
X0171296Y0179849D01*
X0171274Y0179769D01*
X0171249Y0179690D01*
X0171220Y0179612D01*
X0171187Y0179535D01*
X0171150Y0179460D01*
X0171111Y0179387D01*
X0171067Y0179316D01*
X0171021Y0179247D01*
X0170971Y0179180D01*
X0170918Y0179116D01*
X0170862Y0179054D01*
X0170803Y0178995D01*
X0170741Y0178939D01*
X0170677Y0178886D01*
X0170610Y0178836D01*
X0170541Y0178790D01*
X0170470Y0178746D01*
X0170397Y0178707D01*
X0170322Y0178670D01*
X0170245Y0178637D01*
X0170167Y0178608D01*
X0170088Y0178583D01*
X0170008Y0178561D01*
X0169926Y0178544D01*
X0169844Y0178530D01*
X0169761Y0178520D01*
X0169678Y0178514D01*
X0169595Y0178512D01*
X0169512Y0178514D01*
X0169429Y0178520D01*
X0169346Y0178530D01*
X0169264Y0178544D01*
X0169182Y0178561D01*
X0169102Y0178583D01*
X0169023Y0178608D01*
X0168945Y0178637D01*
X0168868Y0178670D01*
X0168793Y0178707D01*
X0168720Y0178746D01*
X0168649Y0178790D01*
X0168580Y0178836D01*
X0168513Y0178886D01*
X0168449Y0178939D01*
X0168387Y0178995D01*
X0168328Y0179054D01*
X0168272Y0179116D01*
X0168219Y0179180D01*
X0168169Y0179247D01*
X0168123Y0179316D01*
X0168079Y0179387D01*
X0168040Y0179460D01*
X0168003Y0179535D01*
X0167970Y0179612D01*
X0167941Y0179690D01*
X0167916Y0179769D01*
X0167894Y0179849D01*
X0167877Y0179931D01*
X0167863Y0180013D01*
X0167853Y0180096D01*
X0167847Y0180179D01*
X0167845Y0180262D01*
X0177845Y0180262D02*
X0177847Y0180345D01*
X0177853Y0180428D01*
X0177863Y0180511D01*
X0177877Y0180593D01*
X0177894Y0180675D01*
X0177916Y0180755D01*
X0177941Y0180834D01*
X0177970Y0180912D01*
X0178003Y0180989D01*
X0178040Y0181064D01*
X0178079Y0181137D01*
X0178123Y0181208D01*
X0178169Y0181277D01*
X0178219Y0181344D01*
X0178272Y0181408D01*
X0178328Y0181470D01*
X0178387Y0181529D01*
X0178449Y0181585D01*
X0178513Y0181638D01*
X0178580Y0181688D01*
X0178649Y0181734D01*
X0178720Y0181778D01*
X0178793Y0181817D01*
X0178868Y0181854D01*
X0178945Y0181887D01*
X0179023Y0181916D01*
X0179102Y0181941D01*
X0179182Y0181963D01*
X0179264Y0181980D01*
X0179346Y0181994D01*
X0179429Y0182004D01*
X0179512Y0182010D01*
X0179595Y0182012D01*
X0179678Y0182010D01*
X0179761Y0182004D01*
X0179844Y0181994D01*
X0179926Y0181980D01*
X0180008Y0181963D01*
X0180088Y0181941D01*
X0180167Y0181916D01*
X0180245Y0181887D01*
X0180322Y0181854D01*
X0180397Y0181817D01*
X0180470Y0181778D01*
X0180541Y0181734D01*
X0180610Y0181688D01*
X0180677Y0181638D01*
X0180741Y0181585D01*
X0180803Y0181529D01*
X0180862Y0181470D01*
X0180918Y0181408D01*
X0180971Y0181344D01*
X0181021Y0181277D01*
X0181067Y0181208D01*
X0181111Y0181137D01*
X0181150Y0181064D01*
X0181187Y0180989D01*
X0181220Y0180912D01*
X0181249Y0180834D01*
X0181274Y0180755D01*
X0181296Y0180675D01*
X0181313Y0180593D01*
X0181327Y0180511D01*
X0181337Y0180428D01*
X0181343Y0180345D01*
X0181345Y0180262D01*
X0181343Y0180179D01*
X0181337Y0180096D01*
X0181327Y0180013D01*
X0181313Y0179931D01*
X0181296Y0179849D01*
X0181274Y0179769D01*
X0181249Y0179690D01*
X0181220Y0179612D01*
X0181187Y0179535D01*
X0181150Y0179460D01*
X0181111Y0179387D01*
X0181067Y0179316D01*
X0181021Y0179247D01*
X0180971Y0179180D01*
X0180918Y0179116D01*
X0180862Y0179054D01*
X0180803Y0178995D01*
X0180741Y0178939D01*
X0180677Y0178886D01*
X0180610Y0178836D01*
X0180541Y0178790D01*
X0180470Y0178746D01*
X0180397Y0178707D01*
X0180322Y0178670D01*
X0180245Y0178637D01*
X0180167Y0178608D01*
X0180088Y0178583D01*
X0180008Y0178561D01*
X0179926Y0178544D01*
X0179844Y0178530D01*
X0179761Y0178520D01*
X0179678Y0178514D01*
X0179595Y0178512D01*
X0179512Y0178514D01*
X0179429Y0178520D01*
X0179346Y0178530D01*
X0179264Y0178544D01*
X0179182Y0178561D01*
X0179102Y0178583D01*
X0179023Y0178608D01*
X0178945Y0178637D01*
X0178868Y0178670D01*
X0178793Y0178707D01*
X0178720Y0178746D01*
X0178649Y0178790D01*
X0178580Y0178836D01*
X0178513Y0178886D01*
X0178449Y0178939D01*
X0178387Y0178995D01*
X0178328Y0179054D01*
X0178272Y0179116D01*
X0178219Y0179180D01*
X0178169Y0179247D01*
X0178123Y0179316D01*
X0178079Y0179387D01*
X0178040Y0179460D01*
X0178003Y0179535D01*
X0177970Y0179612D01*
X0177941Y0179690D01*
X0177916Y0179769D01*
X0177894Y0179849D01*
X0177877Y0179931D01*
X0177863Y0180013D01*
X0177853Y0180096D01*
X0177847Y0180179D01*
X0177845Y0180262D01*
X0177845Y0190262D02*
X0177847Y0190345D01*
X0177853Y0190428D01*
X0177863Y0190511D01*
X0177877Y0190593D01*
X0177894Y0190675D01*
X0177916Y0190755D01*
X0177941Y0190834D01*
X0177970Y0190912D01*
X0178003Y0190989D01*
X0178040Y0191064D01*
X0178079Y0191137D01*
X0178123Y0191208D01*
X0178169Y0191277D01*
X0178219Y0191344D01*
X0178272Y0191408D01*
X0178328Y0191470D01*
X0178387Y0191529D01*
X0178449Y0191585D01*
X0178513Y0191638D01*
X0178580Y0191688D01*
X0178649Y0191734D01*
X0178720Y0191778D01*
X0178793Y0191817D01*
X0178868Y0191854D01*
X0178945Y0191887D01*
X0179023Y0191916D01*
X0179102Y0191941D01*
X0179182Y0191963D01*
X0179264Y0191980D01*
X0179346Y0191994D01*
X0179429Y0192004D01*
X0179512Y0192010D01*
X0179595Y0192012D01*
X0179678Y0192010D01*
X0179761Y0192004D01*
X0179844Y0191994D01*
X0179926Y0191980D01*
X0180008Y0191963D01*
X0180088Y0191941D01*
X0180167Y0191916D01*
X0180245Y0191887D01*
X0180322Y0191854D01*
X0180397Y0191817D01*
X0180470Y0191778D01*
X0180541Y0191734D01*
X0180610Y0191688D01*
X0180677Y0191638D01*
X0180741Y0191585D01*
X0180803Y0191529D01*
X0180862Y0191470D01*
X0180918Y0191408D01*
X0180971Y0191344D01*
X0181021Y0191277D01*
X0181067Y0191208D01*
X0181111Y0191137D01*
X0181150Y0191064D01*
X0181187Y0190989D01*
X0181220Y0190912D01*
X0181249Y0190834D01*
X0181274Y0190755D01*
X0181296Y0190675D01*
X0181313Y0190593D01*
X0181327Y0190511D01*
X0181337Y0190428D01*
X0181343Y0190345D01*
X0181345Y0190262D01*
X0181343Y0190179D01*
X0181337Y0190096D01*
X0181327Y0190013D01*
X0181313Y0189931D01*
X0181296Y0189849D01*
X0181274Y0189769D01*
X0181249Y0189690D01*
X0181220Y0189612D01*
X0181187Y0189535D01*
X0181150Y0189460D01*
X0181111Y0189387D01*
X0181067Y0189316D01*
X0181021Y0189247D01*
X0180971Y0189180D01*
X0180918Y0189116D01*
X0180862Y0189054D01*
X0180803Y0188995D01*
X0180741Y0188939D01*
X0180677Y0188886D01*
X0180610Y0188836D01*
X0180541Y0188790D01*
X0180470Y0188746D01*
X0180397Y0188707D01*
X0180322Y0188670D01*
X0180245Y0188637D01*
X0180167Y0188608D01*
X0180088Y0188583D01*
X0180008Y0188561D01*
X0179926Y0188544D01*
X0179844Y0188530D01*
X0179761Y0188520D01*
X0179678Y0188514D01*
X0179595Y0188512D01*
X0179512Y0188514D01*
X0179429Y0188520D01*
X0179346Y0188530D01*
X0179264Y0188544D01*
X0179182Y0188561D01*
X0179102Y0188583D01*
X0179023Y0188608D01*
X0178945Y0188637D01*
X0178868Y0188670D01*
X0178793Y0188707D01*
X0178720Y0188746D01*
X0178649Y0188790D01*
X0178580Y0188836D01*
X0178513Y0188886D01*
X0178449Y0188939D01*
X0178387Y0188995D01*
X0178328Y0189054D01*
X0178272Y0189116D01*
X0178219Y0189180D01*
X0178169Y0189247D01*
X0178123Y0189316D01*
X0178079Y0189387D01*
X0178040Y0189460D01*
X0178003Y0189535D01*
X0177970Y0189612D01*
X0177941Y0189690D01*
X0177916Y0189769D01*
X0177894Y0189849D01*
X0177877Y0189931D01*
X0177863Y0190013D01*
X0177853Y0190096D01*
X0177847Y0190179D01*
X0177845Y0190262D01*
X0167845Y0190262D02*
X0167847Y0190345D01*
X0167853Y0190428D01*
X0167863Y0190511D01*
X0167877Y0190593D01*
X0167894Y0190675D01*
X0167916Y0190755D01*
X0167941Y0190834D01*
X0167970Y0190912D01*
X0168003Y0190989D01*
X0168040Y0191064D01*
X0168079Y0191137D01*
X0168123Y0191208D01*
X0168169Y0191277D01*
X0168219Y0191344D01*
X0168272Y0191408D01*
X0168328Y0191470D01*
X0168387Y0191529D01*
X0168449Y0191585D01*
X0168513Y0191638D01*
X0168580Y0191688D01*
X0168649Y0191734D01*
X0168720Y0191778D01*
X0168793Y0191817D01*
X0168868Y0191854D01*
X0168945Y0191887D01*
X0169023Y0191916D01*
X0169102Y0191941D01*
X0169182Y0191963D01*
X0169264Y0191980D01*
X0169346Y0191994D01*
X0169429Y0192004D01*
X0169512Y0192010D01*
X0169595Y0192012D01*
X0169678Y0192010D01*
X0169761Y0192004D01*
X0169844Y0191994D01*
X0169926Y0191980D01*
X0170008Y0191963D01*
X0170088Y0191941D01*
X0170167Y0191916D01*
X0170245Y0191887D01*
X0170322Y0191854D01*
X0170397Y0191817D01*
X0170470Y0191778D01*
X0170541Y0191734D01*
X0170610Y0191688D01*
X0170677Y0191638D01*
X0170741Y0191585D01*
X0170803Y0191529D01*
X0170862Y0191470D01*
X0170918Y0191408D01*
X0170971Y0191344D01*
X0171021Y0191277D01*
X0171067Y0191208D01*
X0171111Y0191137D01*
X0171150Y0191064D01*
X0171187Y0190989D01*
X0171220Y0190912D01*
X0171249Y0190834D01*
X0171274Y0190755D01*
X0171296Y0190675D01*
X0171313Y0190593D01*
X0171327Y0190511D01*
X0171337Y0190428D01*
X0171343Y0190345D01*
X0171345Y0190262D01*
X0171343Y0190179D01*
X0171337Y0190096D01*
X0171327Y0190013D01*
X0171313Y0189931D01*
X0171296Y0189849D01*
X0171274Y0189769D01*
X0171249Y0189690D01*
X0171220Y0189612D01*
X0171187Y0189535D01*
X0171150Y0189460D01*
X0171111Y0189387D01*
X0171067Y0189316D01*
X0171021Y0189247D01*
X0170971Y0189180D01*
X0170918Y0189116D01*
X0170862Y0189054D01*
X0170803Y0188995D01*
X0170741Y0188939D01*
X0170677Y0188886D01*
X0170610Y0188836D01*
X0170541Y0188790D01*
X0170470Y0188746D01*
X0170397Y0188707D01*
X0170322Y0188670D01*
X0170245Y0188637D01*
X0170167Y0188608D01*
X0170088Y0188583D01*
X0170008Y0188561D01*
X0169926Y0188544D01*
X0169844Y0188530D01*
X0169761Y0188520D01*
X0169678Y0188514D01*
X0169595Y0188512D01*
X0169512Y0188514D01*
X0169429Y0188520D01*
X0169346Y0188530D01*
X0169264Y0188544D01*
X0169182Y0188561D01*
X0169102Y0188583D01*
X0169023Y0188608D01*
X0168945Y0188637D01*
X0168868Y0188670D01*
X0168793Y0188707D01*
X0168720Y0188746D01*
X0168649Y0188790D01*
X0168580Y0188836D01*
X0168513Y0188886D01*
X0168449Y0188939D01*
X0168387Y0188995D01*
X0168328Y0189054D01*
X0168272Y0189116D01*
X0168219Y0189180D01*
X0168169Y0189247D01*
X0168123Y0189316D01*
X0168079Y0189387D01*
X0168040Y0189460D01*
X0168003Y0189535D01*
X0167970Y0189612D01*
X0167941Y0189690D01*
X0167916Y0189769D01*
X0167894Y0189849D01*
X0167877Y0189931D01*
X0167863Y0190013D01*
X0167853Y0190096D01*
X0167847Y0190179D01*
X0167845Y0190262D01*
X0197845Y0190262D02*
X0197847Y0190345D01*
X0197853Y0190428D01*
X0197863Y0190511D01*
X0197877Y0190593D01*
X0197894Y0190675D01*
X0197916Y0190755D01*
X0197941Y0190834D01*
X0197970Y0190912D01*
X0198003Y0190989D01*
X0198040Y0191064D01*
X0198079Y0191137D01*
X0198123Y0191208D01*
X0198169Y0191277D01*
X0198219Y0191344D01*
X0198272Y0191408D01*
X0198328Y0191470D01*
X0198387Y0191529D01*
X0198449Y0191585D01*
X0198513Y0191638D01*
X0198580Y0191688D01*
X0198649Y0191734D01*
X0198720Y0191778D01*
X0198793Y0191817D01*
X0198868Y0191854D01*
X0198945Y0191887D01*
X0199023Y0191916D01*
X0199102Y0191941D01*
X0199182Y0191963D01*
X0199264Y0191980D01*
X0199346Y0191994D01*
X0199429Y0192004D01*
X0199512Y0192010D01*
X0199595Y0192012D01*
X0199678Y0192010D01*
X0199761Y0192004D01*
X0199844Y0191994D01*
X0199926Y0191980D01*
X0200008Y0191963D01*
X0200088Y0191941D01*
X0200167Y0191916D01*
X0200245Y0191887D01*
X0200322Y0191854D01*
X0200397Y0191817D01*
X0200470Y0191778D01*
X0200541Y0191734D01*
X0200610Y0191688D01*
X0200677Y0191638D01*
X0200741Y0191585D01*
X0200803Y0191529D01*
X0200862Y0191470D01*
X0200918Y0191408D01*
X0200971Y0191344D01*
X0201021Y0191277D01*
X0201067Y0191208D01*
X0201111Y0191137D01*
X0201150Y0191064D01*
X0201187Y0190989D01*
X0201220Y0190912D01*
X0201249Y0190834D01*
X0201274Y0190755D01*
X0201296Y0190675D01*
X0201313Y0190593D01*
X0201327Y0190511D01*
X0201337Y0190428D01*
X0201343Y0190345D01*
X0201345Y0190262D01*
X0201343Y0190179D01*
X0201337Y0190096D01*
X0201327Y0190013D01*
X0201313Y0189931D01*
X0201296Y0189849D01*
X0201274Y0189769D01*
X0201249Y0189690D01*
X0201220Y0189612D01*
X0201187Y0189535D01*
X0201150Y0189460D01*
X0201111Y0189387D01*
X0201067Y0189316D01*
X0201021Y0189247D01*
X0200971Y0189180D01*
X0200918Y0189116D01*
X0200862Y0189054D01*
X0200803Y0188995D01*
X0200741Y0188939D01*
X0200677Y0188886D01*
X0200610Y0188836D01*
X0200541Y0188790D01*
X0200470Y0188746D01*
X0200397Y0188707D01*
X0200322Y0188670D01*
X0200245Y0188637D01*
X0200167Y0188608D01*
X0200088Y0188583D01*
X0200008Y0188561D01*
X0199926Y0188544D01*
X0199844Y0188530D01*
X0199761Y0188520D01*
X0199678Y0188514D01*
X0199595Y0188512D01*
X0199512Y0188514D01*
X0199429Y0188520D01*
X0199346Y0188530D01*
X0199264Y0188544D01*
X0199182Y0188561D01*
X0199102Y0188583D01*
X0199023Y0188608D01*
X0198945Y0188637D01*
X0198868Y0188670D01*
X0198793Y0188707D01*
X0198720Y0188746D01*
X0198649Y0188790D01*
X0198580Y0188836D01*
X0198513Y0188886D01*
X0198449Y0188939D01*
X0198387Y0188995D01*
X0198328Y0189054D01*
X0198272Y0189116D01*
X0198219Y0189180D01*
X0198169Y0189247D01*
X0198123Y0189316D01*
X0198079Y0189387D01*
X0198040Y0189460D01*
X0198003Y0189535D01*
X0197970Y0189612D01*
X0197941Y0189690D01*
X0197916Y0189769D01*
X0197894Y0189849D01*
X0197877Y0189931D01*
X0197863Y0190013D01*
X0197853Y0190096D01*
X0197847Y0190179D01*
X0197845Y0190262D01*
X0197845Y0180262D02*
X0197847Y0180345D01*
X0197853Y0180428D01*
X0197863Y0180511D01*
X0197877Y0180593D01*
X0197894Y0180675D01*
X0197916Y0180755D01*
X0197941Y0180834D01*
X0197970Y0180912D01*
X0198003Y0180989D01*
X0198040Y0181064D01*
X0198079Y0181137D01*
X0198123Y0181208D01*
X0198169Y0181277D01*
X0198219Y0181344D01*
X0198272Y0181408D01*
X0198328Y0181470D01*
X0198387Y0181529D01*
X0198449Y0181585D01*
X0198513Y0181638D01*
X0198580Y0181688D01*
X0198649Y0181734D01*
X0198720Y0181778D01*
X0198793Y0181817D01*
X0198868Y0181854D01*
X0198945Y0181887D01*
X0199023Y0181916D01*
X0199102Y0181941D01*
X0199182Y0181963D01*
X0199264Y0181980D01*
X0199346Y0181994D01*
X0199429Y0182004D01*
X0199512Y0182010D01*
X0199595Y0182012D01*
X0199678Y0182010D01*
X0199761Y0182004D01*
X0199844Y0181994D01*
X0199926Y0181980D01*
X0200008Y0181963D01*
X0200088Y0181941D01*
X0200167Y0181916D01*
X0200245Y0181887D01*
X0200322Y0181854D01*
X0200397Y0181817D01*
X0200470Y0181778D01*
X0200541Y0181734D01*
X0200610Y0181688D01*
X0200677Y0181638D01*
X0200741Y0181585D01*
X0200803Y0181529D01*
X0200862Y0181470D01*
X0200918Y0181408D01*
X0200971Y0181344D01*
X0201021Y0181277D01*
X0201067Y0181208D01*
X0201111Y0181137D01*
X0201150Y0181064D01*
X0201187Y0180989D01*
X0201220Y0180912D01*
X0201249Y0180834D01*
X0201274Y0180755D01*
X0201296Y0180675D01*
X0201313Y0180593D01*
X0201327Y0180511D01*
X0201337Y0180428D01*
X0201343Y0180345D01*
X0201345Y0180262D01*
X0201343Y0180179D01*
X0201337Y0180096D01*
X0201327Y0180013D01*
X0201313Y0179931D01*
X0201296Y0179849D01*
X0201274Y0179769D01*
X0201249Y0179690D01*
X0201220Y0179612D01*
X0201187Y0179535D01*
X0201150Y0179460D01*
X0201111Y0179387D01*
X0201067Y0179316D01*
X0201021Y0179247D01*
X0200971Y0179180D01*
X0200918Y0179116D01*
X0200862Y0179054D01*
X0200803Y0178995D01*
X0200741Y0178939D01*
X0200677Y0178886D01*
X0200610Y0178836D01*
X0200541Y0178790D01*
X0200470Y0178746D01*
X0200397Y0178707D01*
X0200322Y0178670D01*
X0200245Y0178637D01*
X0200167Y0178608D01*
X0200088Y0178583D01*
X0200008Y0178561D01*
X0199926Y0178544D01*
X0199844Y0178530D01*
X0199761Y0178520D01*
X0199678Y0178514D01*
X0199595Y0178512D01*
X0199512Y0178514D01*
X0199429Y0178520D01*
X0199346Y0178530D01*
X0199264Y0178544D01*
X0199182Y0178561D01*
X0199102Y0178583D01*
X0199023Y0178608D01*
X0198945Y0178637D01*
X0198868Y0178670D01*
X0198793Y0178707D01*
X0198720Y0178746D01*
X0198649Y0178790D01*
X0198580Y0178836D01*
X0198513Y0178886D01*
X0198449Y0178939D01*
X0198387Y0178995D01*
X0198328Y0179054D01*
X0198272Y0179116D01*
X0198219Y0179180D01*
X0198169Y0179247D01*
X0198123Y0179316D01*
X0198079Y0179387D01*
X0198040Y0179460D01*
X0198003Y0179535D01*
X0197970Y0179612D01*
X0197941Y0179690D01*
X0197916Y0179769D01*
X0197894Y0179849D01*
X0197877Y0179931D01*
X0197863Y0180013D01*
X0197853Y0180096D01*
X0197847Y0180179D01*
X0197845Y0180262D01*
X0207845Y0180262D02*
X0207847Y0180345D01*
X0207853Y0180428D01*
X0207863Y0180511D01*
X0207877Y0180593D01*
X0207894Y0180675D01*
X0207916Y0180755D01*
X0207941Y0180834D01*
X0207970Y0180912D01*
X0208003Y0180989D01*
X0208040Y0181064D01*
X0208079Y0181137D01*
X0208123Y0181208D01*
X0208169Y0181277D01*
X0208219Y0181344D01*
X0208272Y0181408D01*
X0208328Y0181470D01*
X0208387Y0181529D01*
X0208449Y0181585D01*
X0208513Y0181638D01*
X0208580Y0181688D01*
X0208649Y0181734D01*
X0208720Y0181778D01*
X0208793Y0181817D01*
X0208868Y0181854D01*
X0208945Y0181887D01*
X0209023Y0181916D01*
X0209102Y0181941D01*
X0209182Y0181963D01*
X0209264Y0181980D01*
X0209346Y0181994D01*
X0209429Y0182004D01*
X0209512Y0182010D01*
X0209595Y0182012D01*
X0209678Y0182010D01*
X0209761Y0182004D01*
X0209844Y0181994D01*
X0209926Y0181980D01*
X0210008Y0181963D01*
X0210088Y0181941D01*
X0210167Y0181916D01*
X0210245Y0181887D01*
X0210322Y0181854D01*
X0210397Y0181817D01*
X0210470Y0181778D01*
X0210541Y0181734D01*
X0210610Y0181688D01*
X0210677Y0181638D01*
X0210741Y0181585D01*
X0210803Y0181529D01*
X0210862Y0181470D01*
X0210918Y0181408D01*
X0210971Y0181344D01*
X0211021Y0181277D01*
X0211067Y0181208D01*
X0211111Y0181137D01*
X0211150Y0181064D01*
X0211187Y0180989D01*
X0211220Y0180912D01*
X0211249Y0180834D01*
X0211274Y0180755D01*
X0211296Y0180675D01*
X0211313Y0180593D01*
X0211327Y0180511D01*
X0211337Y0180428D01*
X0211343Y0180345D01*
X0211345Y0180262D01*
X0211343Y0180179D01*
X0211337Y0180096D01*
X0211327Y0180013D01*
X0211313Y0179931D01*
X0211296Y0179849D01*
X0211274Y0179769D01*
X0211249Y0179690D01*
X0211220Y0179612D01*
X0211187Y0179535D01*
X0211150Y0179460D01*
X0211111Y0179387D01*
X0211067Y0179316D01*
X0211021Y0179247D01*
X0210971Y0179180D01*
X0210918Y0179116D01*
X0210862Y0179054D01*
X0210803Y0178995D01*
X0210741Y0178939D01*
X0210677Y0178886D01*
X0210610Y0178836D01*
X0210541Y0178790D01*
X0210470Y0178746D01*
X0210397Y0178707D01*
X0210322Y0178670D01*
X0210245Y0178637D01*
X0210167Y0178608D01*
X0210088Y0178583D01*
X0210008Y0178561D01*
X0209926Y0178544D01*
X0209844Y0178530D01*
X0209761Y0178520D01*
X0209678Y0178514D01*
X0209595Y0178512D01*
X0209512Y0178514D01*
X0209429Y0178520D01*
X0209346Y0178530D01*
X0209264Y0178544D01*
X0209182Y0178561D01*
X0209102Y0178583D01*
X0209023Y0178608D01*
X0208945Y0178637D01*
X0208868Y0178670D01*
X0208793Y0178707D01*
X0208720Y0178746D01*
X0208649Y0178790D01*
X0208580Y0178836D01*
X0208513Y0178886D01*
X0208449Y0178939D01*
X0208387Y0178995D01*
X0208328Y0179054D01*
X0208272Y0179116D01*
X0208219Y0179180D01*
X0208169Y0179247D01*
X0208123Y0179316D01*
X0208079Y0179387D01*
X0208040Y0179460D01*
X0208003Y0179535D01*
X0207970Y0179612D01*
X0207941Y0179690D01*
X0207916Y0179769D01*
X0207894Y0179849D01*
X0207877Y0179931D01*
X0207863Y0180013D01*
X0207853Y0180096D01*
X0207847Y0180179D01*
X0207845Y0180262D01*
X0207845Y0190262D02*
X0207847Y0190345D01*
X0207853Y0190428D01*
X0207863Y0190511D01*
X0207877Y0190593D01*
X0207894Y0190675D01*
X0207916Y0190755D01*
X0207941Y0190834D01*
X0207970Y0190912D01*
X0208003Y0190989D01*
X0208040Y0191064D01*
X0208079Y0191137D01*
X0208123Y0191208D01*
X0208169Y0191277D01*
X0208219Y0191344D01*
X0208272Y0191408D01*
X0208328Y0191470D01*
X0208387Y0191529D01*
X0208449Y0191585D01*
X0208513Y0191638D01*
X0208580Y0191688D01*
X0208649Y0191734D01*
X0208720Y0191778D01*
X0208793Y0191817D01*
X0208868Y0191854D01*
X0208945Y0191887D01*
X0209023Y0191916D01*
X0209102Y0191941D01*
X0209182Y0191963D01*
X0209264Y0191980D01*
X0209346Y0191994D01*
X0209429Y0192004D01*
X0209512Y0192010D01*
X0209595Y0192012D01*
X0209678Y0192010D01*
X0209761Y0192004D01*
X0209844Y0191994D01*
X0209926Y0191980D01*
X0210008Y0191963D01*
X0210088Y0191941D01*
X0210167Y0191916D01*
X0210245Y0191887D01*
X0210322Y0191854D01*
X0210397Y0191817D01*
X0210470Y0191778D01*
X0210541Y0191734D01*
X0210610Y0191688D01*
X0210677Y0191638D01*
X0210741Y0191585D01*
X0210803Y0191529D01*
X0210862Y0191470D01*
X0210918Y0191408D01*
X0210971Y0191344D01*
X0211021Y0191277D01*
X0211067Y0191208D01*
X0211111Y0191137D01*
X0211150Y0191064D01*
X0211187Y0190989D01*
X0211220Y0190912D01*
X0211249Y0190834D01*
X0211274Y0190755D01*
X0211296Y0190675D01*
X0211313Y0190593D01*
X0211327Y0190511D01*
X0211337Y0190428D01*
X0211343Y0190345D01*
X0211345Y0190262D01*
X0211343Y0190179D01*
X0211337Y0190096D01*
X0211327Y0190013D01*
X0211313Y0189931D01*
X0211296Y0189849D01*
X0211274Y0189769D01*
X0211249Y0189690D01*
X0211220Y0189612D01*
X0211187Y0189535D01*
X0211150Y0189460D01*
X0211111Y0189387D01*
X0211067Y0189316D01*
X0211021Y0189247D01*
X0210971Y0189180D01*
X0210918Y0189116D01*
X0210862Y0189054D01*
X0210803Y0188995D01*
X0210741Y0188939D01*
X0210677Y0188886D01*
X0210610Y0188836D01*
X0210541Y0188790D01*
X0210470Y0188746D01*
X0210397Y0188707D01*
X0210322Y0188670D01*
X0210245Y0188637D01*
X0210167Y0188608D01*
X0210088Y0188583D01*
X0210008Y0188561D01*
X0209926Y0188544D01*
X0209844Y0188530D01*
X0209761Y0188520D01*
X0209678Y0188514D01*
X0209595Y0188512D01*
X0209512Y0188514D01*
X0209429Y0188520D01*
X0209346Y0188530D01*
X0209264Y0188544D01*
X0209182Y0188561D01*
X0209102Y0188583D01*
X0209023Y0188608D01*
X0208945Y0188637D01*
X0208868Y0188670D01*
X0208793Y0188707D01*
X0208720Y0188746D01*
X0208649Y0188790D01*
X0208580Y0188836D01*
X0208513Y0188886D01*
X0208449Y0188939D01*
X0208387Y0188995D01*
X0208328Y0189054D01*
X0208272Y0189116D01*
X0208219Y0189180D01*
X0208169Y0189247D01*
X0208123Y0189316D01*
X0208079Y0189387D01*
X0208040Y0189460D01*
X0208003Y0189535D01*
X0207970Y0189612D01*
X0207941Y0189690D01*
X0207916Y0189769D01*
X0207894Y0189849D01*
X0207877Y0189931D01*
X0207863Y0190013D01*
X0207853Y0190096D01*
X0207847Y0190179D01*
X0207845Y0190262D01*
X0207845Y0170262D02*
X0207847Y0170345D01*
X0207853Y0170428D01*
X0207863Y0170511D01*
X0207877Y0170593D01*
X0207894Y0170675D01*
X0207916Y0170755D01*
X0207941Y0170834D01*
X0207970Y0170912D01*
X0208003Y0170989D01*
X0208040Y0171064D01*
X0208079Y0171137D01*
X0208123Y0171208D01*
X0208169Y0171277D01*
X0208219Y0171344D01*
X0208272Y0171408D01*
X0208328Y0171470D01*
X0208387Y0171529D01*
X0208449Y0171585D01*
X0208513Y0171638D01*
X0208580Y0171688D01*
X0208649Y0171734D01*
X0208720Y0171778D01*
X0208793Y0171817D01*
X0208868Y0171854D01*
X0208945Y0171887D01*
X0209023Y0171916D01*
X0209102Y0171941D01*
X0209182Y0171963D01*
X0209264Y0171980D01*
X0209346Y0171994D01*
X0209429Y0172004D01*
X0209512Y0172010D01*
X0209595Y0172012D01*
X0209678Y0172010D01*
X0209761Y0172004D01*
X0209844Y0171994D01*
X0209926Y0171980D01*
X0210008Y0171963D01*
X0210088Y0171941D01*
X0210167Y0171916D01*
X0210245Y0171887D01*
X0210322Y0171854D01*
X0210397Y0171817D01*
X0210470Y0171778D01*
X0210541Y0171734D01*
X0210610Y0171688D01*
X0210677Y0171638D01*
X0210741Y0171585D01*
X0210803Y0171529D01*
X0210862Y0171470D01*
X0210918Y0171408D01*
X0210971Y0171344D01*
X0211021Y0171277D01*
X0211067Y0171208D01*
X0211111Y0171137D01*
X0211150Y0171064D01*
X0211187Y0170989D01*
X0211220Y0170912D01*
X0211249Y0170834D01*
X0211274Y0170755D01*
X0211296Y0170675D01*
X0211313Y0170593D01*
X0211327Y0170511D01*
X0211337Y0170428D01*
X0211343Y0170345D01*
X0211345Y0170262D01*
X0211343Y0170179D01*
X0211337Y0170096D01*
X0211327Y0170013D01*
X0211313Y0169931D01*
X0211296Y0169849D01*
X0211274Y0169769D01*
X0211249Y0169690D01*
X0211220Y0169612D01*
X0211187Y0169535D01*
X0211150Y0169460D01*
X0211111Y0169387D01*
X0211067Y0169316D01*
X0211021Y0169247D01*
X0210971Y0169180D01*
X0210918Y0169116D01*
X0210862Y0169054D01*
X0210803Y0168995D01*
X0210741Y0168939D01*
X0210677Y0168886D01*
X0210610Y0168836D01*
X0210541Y0168790D01*
X0210470Y0168746D01*
X0210397Y0168707D01*
X0210322Y0168670D01*
X0210245Y0168637D01*
X0210167Y0168608D01*
X0210088Y0168583D01*
X0210008Y0168561D01*
X0209926Y0168544D01*
X0209844Y0168530D01*
X0209761Y0168520D01*
X0209678Y0168514D01*
X0209595Y0168512D01*
X0209512Y0168514D01*
X0209429Y0168520D01*
X0209346Y0168530D01*
X0209264Y0168544D01*
X0209182Y0168561D01*
X0209102Y0168583D01*
X0209023Y0168608D01*
X0208945Y0168637D01*
X0208868Y0168670D01*
X0208793Y0168707D01*
X0208720Y0168746D01*
X0208649Y0168790D01*
X0208580Y0168836D01*
X0208513Y0168886D01*
X0208449Y0168939D01*
X0208387Y0168995D01*
X0208328Y0169054D01*
X0208272Y0169116D01*
X0208219Y0169180D01*
X0208169Y0169247D01*
X0208123Y0169316D01*
X0208079Y0169387D01*
X0208040Y0169460D01*
X0208003Y0169535D01*
X0207970Y0169612D01*
X0207941Y0169690D01*
X0207916Y0169769D01*
X0207894Y0169849D01*
X0207877Y0169931D01*
X0207863Y0170013D01*
X0207853Y0170096D01*
X0207847Y0170179D01*
X0207845Y0170262D01*
X0197845Y0170262D02*
X0197847Y0170345D01*
X0197853Y0170428D01*
X0197863Y0170511D01*
X0197877Y0170593D01*
X0197894Y0170675D01*
X0197916Y0170755D01*
X0197941Y0170834D01*
X0197970Y0170912D01*
X0198003Y0170989D01*
X0198040Y0171064D01*
X0198079Y0171137D01*
X0198123Y0171208D01*
X0198169Y0171277D01*
X0198219Y0171344D01*
X0198272Y0171408D01*
X0198328Y0171470D01*
X0198387Y0171529D01*
X0198449Y0171585D01*
X0198513Y0171638D01*
X0198580Y0171688D01*
X0198649Y0171734D01*
X0198720Y0171778D01*
X0198793Y0171817D01*
X0198868Y0171854D01*
X0198945Y0171887D01*
X0199023Y0171916D01*
X0199102Y0171941D01*
X0199182Y0171963D01*
X0199264Y0171980D01*
X0199346Y0171994D01*
X0199429Y0172004D01*
X0199512Y0172010D01*
X0199595Y0172012D01*
X0199678Y0172010D01*
X0199761Y0172004D01*
X0199844Y0171994D01*
X0199926Y0171980D01*
X0200008Y0171963D01*
X0200088Y0171941D01*
X0200167Y0171916D01*
X0200245Y0171887D01*
X0200322Y0171854D01*
X0200397Y0171817D01*
X0200470Y0171778D01*
X0200541Y0171734D01*
X0200610Y0171688D01*
X0200677Y0171638D01*
X0200741Y0171585D01*
X0200803Y0171529D01*
X0200862Y0171470D01*
X0200918Y0171408D01*
X0200971Y0171344D01*
X0201021Y0171277D01*
X0201067Y0171208D01*
X0201111Y0171137D01*
X0201150Y0171064D01*
X0201187Y0170989D01*
X0201220Y0170912D01*
X0201249Y0170834D01*
X0201274Y0170755D01*
X0201296Y0170675D01*
X0201313Y0170593D01*
X0201327Y0170511D01*
X0201337Y0170428D01*
X0201343Y0170345D01*
X0201345Y0170262D01*
X0201343Y0170179D01*
X0201337Y0170096D01*
X0201327Y0170013D01*
X0201313Y0169931D01*
X0201296Y0169849D01*
X0201274Y0169769D01*
X0201249Y0169690D01*
X0201220Y0169612D01*
X0201187Y0169535D01*
X0201150Y0169460D01*
X0201111Y0169387D01*
X0201067Y0169316D01*
X0201021Y0169247D01*
X0200971Y0169180D01*
X0200918Y0169116D01*
X0200862Y0169054D01*
X0200803Y0168995D01*
X0200741Y0168939D01*
X0200677Y0168886D01*
X0200610Y0168836D01*
X0200541Y0168790D01*
X0200470Y0168746D01*
X0200397Y0168707D01*
X0200322Y0168670D01*
X0200245Y0168637D01*
X0200167Y0168608D01*
X0200088Y0168583D01*
X0200008Y0168561D01*
X0199926Y0168544D01*
X0199844Y0168530D01*
X0199761Y0168520D01*
X0199678Y0168514D01*
X0199595Y0168512D01*
X0199512Y0168514D01*
X0199429Y0168520D01*
X0199346Y0168530D01*
X0199264Y0168544D01*
X0199182Y0168561D01*
X0199102Y0168583D01*
X0199023Y0168608D01*
X0198945Y0168637D01*
X0198868Y0168670D01*
X0198793Y0168707D01*
X0198720Y0168746D01*
X0198649Y0168790D01*
X0198580Y0168836D01*
X0198513Y0168886D01*
X0198449Y0168939D01*
X0198387Y0168995D01*
X0198328Y0169054D01*
X0198272Y0169116D01*
X0198219Y0169180D01*
X0198169Y0169247D01*
X0198123Y0169316D01*
X0198079Y0169387D01*
X0198040Y0169460D01*
X0198003Y0169535D01*
X0197970Y0169612D01*
X0197941Y0169690D01*
X0197916Y0169769D01*
X0197894Y0169849D01*
X0197877Y0169931D01*
X0197863Y0170013D01*
X0197853Y0170096D01*
X0197847Y0170179D01*
X0197845Y0170262D01*
X0197845Y0160262D02*
X0197847Y0160345D01*
X0197853Y0160428D01*
X0197863Y0160511D01*
X0197877Y0160593D01*
X0197894Y0160675D01*
X0197916Y0160755D01*
X0197941Y0160834D01*
X0197970Y0160912D01*
X0198003Y0160989D01*
X0198040Y0161064D01*
X0198079Y0161137D01*
X0198123Y0161208D01*
X0198169Y0161277D01*
X0198219Y0161344D01*
X0198272Y0161408D01*
X0198328Y0161470D01*
X0198387Y0161529D01*
X0198449Y0161585D01*
X0198513Y0161638D01*
X0198580Y0161688D01*
X0198649Y0161734D01*
X0198720Y0161778D01*
X0198793Y0161817D01*
X0198868Y0161854D01*
X0198945Y0161887D01*
X0199023Y0161916D01*
X0199102Y0161941D01*
X0199182Y0161963D01*
X0199264Y0161980D01*
X0199346Y0161994D01*
X0199429Y0162004D01*
X0199512Y0162010D01*
X0199595Y0162012D01*
X0199678Y0162010D01*
X0199761Y0162004D01*
X0199844Y0161994D01*
X0199926Y0161980D01*
X0200008Y0161963D01*
X0200088Y0161941D01*
X0200167Y0161916D01*
X0200245Y0161887D01*
X0200322Y0161854D01*
X0200397Y0161817D01*
X0200470Y0161778D01*
X0200541Y0161734D01*
X0200610Y0161688D01*
X0200677Y0161638D01*
X0200741Y0161585D01*
X0200803Y0161529D01*
X0200862Y0161470D01*
X0200918Y0161408D01*
X0200971Y0161344D01*
X0201021Y0161277D01*
X0201067Y0161208D01*
X0201111Y0161137D01*
X0201150Y0161064D01*
X0201187Y0160989D01*
X0201220Y0160912D01*
X0201249Y0160834D01*
X0201274Y0160755D01*
X0201296Y0160675D01*
X0201313Y0160593D01*
X0201327Y0160511D01*
X0201337Y0160428D01*
X0201343Y0160345D01*
X0201345Y0160262D01*
X0201343Y0160179D01*
X0201337Y0160096D01*
X0201327Y0160013D01*
X0201313Y0159931D01*
X0201296Y0159849D01*
X0201274Y0159769D01*
X0201249Y0159690D01*
X0201220Y0159612D01*
X0201187Y0159535D01*
X0201150Y0159460D01*
X0201111Y0159387D01*
X0201067Y0159316D01*
X0201021Y0159247D01*
X0200971Y0159180D01*
X0200918Y0159116D01*
X0200862Y0159054D01*
X0200803Y0158995D01*
X0200741Y0158939D01*
X0200677Y0158886D01*
X0200610Y0158836D01*
X0200541Y0158790D01*
X0200470Y0158746D01*
X0200397Y0158707D01*
X0200322Y0158670D01*
X0200245Y0158637D01*
X0200167Y0158608D01*
X0200088Y0158583D01*
X0200008Y0158561D01*
X0199926Y0158544D01*
X0199844Y0158530D01*
X0199761Y0158520D01*
X0199678Y0158514D01*
X0199595Y0158512D01*
X0199512Y0158514D01*
X0199429Y0158520D01*
X0199346Y0158530D01*
X0199264Y0158544D01*
X0199182Y0158561D01*
X0199102Y0158583D01*
X0199023Y0158608D01*
X0198945Y0158637D01*
X0198868Y0158670D01*
X0198793Y0158707D01*
X0198720Y0158746D01*
X0198649Y0158790D01*
X0198580Y0158836D01*
X0198513Y0158886D01*
X0198449Y0158939D01*
X0198387Y0158995D01*
X0198328Y0159054D01*
X0198272Y0159116D01*
X0198219Y0159180D01*
X0198169Y0159247D01*
X0198123Y0159316D01*
X0198079Y0159387D01*
X0198040Y0159460D01*
X0198003Y0159535D01*
X0197970Y0159612D01*
X0197941Y0159690D01*
X0197916Y0159769D01*
X0197894Y0159849D01*
X0197877Y0159931D01*
X0197863Y0160013D01*
X0197853Y0160096D01*
X0197847Y0160179D01*
X0197845Y0160262D01*
X0207845Y0160262D02*
X0207847Y0160345D01*
X0207853Y0160428D01*
X0207863Y0160511D01*
X0207877Y0160593D01*
X0207894Y0160675D01*
X0207916Y0160755D01*
X0207941Y0160834D01*
X0207970Y0160912D01*
X0208003Y0160989D01*
X0208040Y0161064D01*
X0208079Y0161137D01*
X0208123Y0161208D01*
X0208169Y0161277D01*
X0208219Y0161344D01*
X0208272Y0161408D01*
X0208328Y0161470D01*
X0208387Y0161529D01*
X0208449Y0161585D01*
X0208513Y0161638D01*
X0208580Y0161688D01*
X0208649Y0161734D01*
X0208720Y0161778D01*
X0208793Y0161817D01*
X0208868Y0161854D01*
X0208945Y0161887D01*
X0209023Y0161916D01*
X0209102Y0161941D01*
X0209182Y0161963D01*
X0209264Y0161980D01*
X0209346Y0161994D01*
X0209429Y0162004D01*
X0209512Y0162010D01*
X0209595Y0162012D01*
X0209678Y0162010D01*
X0209761Y0162004D01*
X0209844Y0161994D01*
X0209926Y0161980D01*
X0210008Y0161963D01*
X0210088Y0161941D01*
X0210167Y0161916D01*
X0210245Y0161887D01*
X0210322Y0161854D01*
X0210397Y0161817D01*
X0210470Y0161778D01*
X0210541Y0161734D01*
X0210610Y0161688D01*
X0210677Y0161638D01*
X0210741Y0161585D01*
X0210803Y0161529D01*
X0210862Y0161470D01*
X0210918Y0161408D01*
X0210971Y0161344D01*
X0211021Y0161277D01*
X0211067Y0161208D01*
X0211111Y0161137D01*
X0211150Y0161064D01*
X0211187Y0160989D01*
X0211220Y0160912D01*
X0211249Y0160834D01*
X0211274Y0160755D01*
X0211296Y0160675D01*
X0211313Y0160593D01*
X0211327Y0160511D01*
X0211337Y0160428D01*
X0211343Y0160345D01*
X0211345Y0160262D01*
X0211343Y0160179D01*
X0211337Y0160096D01*
X0211327Y0160013D01*
X0211313Y0159931D01*
X0211296Y0159849D01*
X0211274Y0159769D01*
X0211249Y0159690D01*
X0211220Y0159612D01*
X0211187Y0159535D01*
X0211150Y0159460D01*
X0211111Y0159387D01*
X0211067Y0159316D01*
X0211021Y0159247D01*
X0210971Y0159180D01*
X0210918Y0159116D01*
X0210862Y0159054D01*
X0210803Y0158995D01*
X0210741Y0158939D01*
X0210677Y0158886D01*
X0210610Y0158836D01*
X0210541Y0158790D01*
X0210470Y0158746D01*
X0210397Y0158707D01*
X0210322Y0158670D01*
X0210245Y0158637D01*
X0210167Y0158608D01*
X0210088Y0158583D01*
X0210008Y0158561D01*
X0209926Y0158544D01*
X0209844Y0158530D01*
X0209761Y0158520D01*
X0209678Y0158514D01*
X0209595Y0158512D01*
X0209512Y0158514D01*
X0209429Y0158520D01*
X0209346Y0158530D01*
X0209264Y0158544D01*
X0209182Y0158561D01*
X0209102Y0158583D01*
X0209023Y0158608D01*
X0208945Y0158637D01*
X0208868Y0158670D01*
X0208793Y0158707D01*
X0208720Y0158746D01*
X0208649Y0158790D01*
X0208580Y0158836D01*
X0208513Y0158886D01*
X0208449Y0158939D01*
X0208387Y0158995D01*
X0208328Y0159054D01*
X0208272Y0159116D01*
X0208219Y0159180D01*
X0208169Y0159247D01*
X0208123Y0159316D01*
X0208079Y0159387D01*
X0208040Y0159460D01*
X0208003Y0159535D01*
X0207970Y0159612D01*
X0207941Y0159690D01*
X0207916Y0159769D01*
X0207894Y0159849D01*
X0207877Y0159931D01*
X0207863Y0160013D01*
X0207853Y0160096D01*
X0207847Y0160179D01*
X0207845Y0160262D01*
X0207845Y0150262D02*
X0207847Y0150345D01*
X0207853Y0150428D01*
X0207863Y0150511D01*
X0207877Y0150593D01*
X0207894Y0150675D01*
X0207916Y0150755D01*
X0207941Y0150834D01*
X0207970Y0150912D01*
X0208003Y0150989D01*
X0208040Y0151064D01*
X0208079Y0151137D01*
X0208123Y0151208D01*
X0208169Y0151277D01*
X0208219Y0151344D01*
X0208272Y0151408D01*
X0208328Y0151470D01*
X0208387Y0151529D01*
X0208449Y0151585D01*
X0208513Y0151638D01*
X0208580Y0151688D01*
X0208649Y0151734D01*
X0208720Y0151778D01*
X0208793Y0151817D01*
X0208868Y0151854D01*
X0208945Y0151887D01*
X0209023Y0151916D01*
X0209102Y0151941D01*
X0209182Y0151963D01*
X0209264Y0151980D01*
X0209346Y0151994D01*
X0209429Y0152004D01*
X0209512Y0152010D01*
X0209595Y0152012D01*
X0209678Y0152010D01*
X0209761Y0152004D01*
X0209844Y0151994D01*
X0209926Y0151980D01*
X0210008Y0151963D01*
X0210088Y0151941D01*
X0210167Y0151916D01*
X0210245Y0151887D01*
X0210322Y0151854D01*
X0210397Y0151817D01*
X0210470Y0151778D01*
X0210541Y0151734D01*
X0210610Y0151688D01*
X0210677Y0151638D01*
X0210741Y0151585D01*
X0210803Y0151529D01*
X0210862Y0151470D01*
X0210918Y0151408D01*
X0210971Y0151344D01*
X0211021Y0151277D01*
X0211067Y0151208D01*
X0211111Y0151137D01*
X0211150Y0151064D01*
X0211187Y0150989D01*
X0211220Y0150912D01*
X0211249Y0150834D01*
X0211274Y0150755D01*
X0211296Y0150675D01*
X0211313Y0150593D01*
X0211327Y0150511D01*
X0211337Y0150428D01*
X0211343Y0150345D01*
X0211345Y0150262D01*
X0211343Y0150179D01*
X0211337Y0150096D01*
X0211327Y0150013D01*
X0211313Y0149931D01*
X0211296Y0149849D01*
X0211274Y0149769D01*
X0211249Y0149690D01*
X0211220Y0149612D01*
X0211187Y0149535D01*
X0211150Y0149460D01*
X0211111Y0149387D01*
X0211067Y0149316D01*
X0211021Y0149247D01*
X0210971Y0149180D01*
X0210918Y0149116D01*
X0210862Y0149054D01*
X0210803Y0148995D01*
X0210741Y0148939D01*
X0210677Y0148886D01*
X0210610Y0148836D01*
X0210541Y0148790D01*
X0210470Y0148746D01*
X0210397Y0148707D01*
X0210322Y0148670D01*
X0210245Y0148637D01*
X0210167Y0148608D01*
X0210088Y0148583D01*
X0210008Y0148561D01*
X0209926Y0148544D01*
X0209844Y0148530D01*
X0209761Y0148520D01*
X0209678Y0148514D01*
X0209595Y0148512D01*
X0209512Y0148514D01*
X0209429Y0148520D01*
X0209346Y0148530D01*
X0209264Y0148544D01*
X0209182Y0148561D01*
X0209102Y0148583D01*
X0209023Y0148608D01*
X0208945Y0148637D01*
X0208868Y0148670D01*
X0208793Y0148707D01*
X0208720Y0148746D01*
X0208649Y0148790D01*
X0208580Y0148836D01*
X0208513Y0148886D01*
X0208449Y0148939D01*
X0208387Y0148995D01*
X0208328Y0149054D01*
X0208272Y0149116D01*
X0208219Y0149180D01*
X0208169Y0149247D01*
X0208123Y0149316D01*
X0208079Y0149387D01*
X0208040Y0149460D01*
X0208003Y0149535D01*
X0207970Y0149612D01*
X0207941Y0149690D01*
X0207916Y0149769D01*
X0207894Y0149849D01*
X0207877Y0149931D01*
X0207863Y0150013D01*
X0207853Y0150096D01*
X0207847Y0150179D01*
X0207845Y0150262D01*
X0197845Y0150262D02*
X0197847Y0150345D01*
X0197853Y0150428D01*
X0197863Y0150511D01*
X0197877Y0150593D01*
X0197894Y0150675D01*
X0197916Y0150755D01*
X0197941Y0150834D01*
X0197970Y0150912D01*
X0198003Y0150989D01*
X0198040Y0151064D01*
X0198079Y0151137D01*
X0198123Y0151208D01*
X0198169Y0151277D01*
X0198219Y0151344D01*
X0198272Y0151408D01*
X0198328Y0151470D01*
X0198387Y0151529D01*
X0198449Y0151585D01*
X0198513Y0151638D01*
X0198580Y0151688D01*
X0198649Y0151734D01*
X0198720Y0151778D01*
X0198793Y0151817D01*
X0198868Y0151854D01*
X0198945Y0151887D01*
X0199023Y0151916D01*
X0199102Y0151941D01*
X0199182Y0151963D01*
X0199264Y0151980D01*
X0199346Y0151994D01*
X0199429Y0152004D01*
X0199512Y0152010D01*
X0199595Y0152012D01*
X0199678Y0152010D01*
X0199761Y0152004D01*
X0199844Y0151994D01*
X0199926Y0151980D01*
X0200008Y0151963D01*
X0200088Y0151941D01*
X0200167Y0151916D01*
X0200245Y0151887D01*
X0200322Y0151854D01*
X0200397Y0151817D01*
X0200470Y0151778D01*
X0200541Y0151734D01*
X0200610Y0151688D01*
X0200677Y0151638D01*
X0200741Y0151585D01*
X0200803Y0151529D01*
X0200862Y0151470D01*
X0200918Y0151408D01*
X0200971Y0151344D01*
X0201021Y0151277D01*
X0201067Y0151208D01*
X0201111Y0151137D01*
X0201150Y0151064D01*
X0201187Y0150989D01*
X0201220Y0150912D01*
X0201249Y0150834D01*
X0201274Y0150755D01*
X0201296Y0150675D01*
X0201313Y0150593D01*
X0201327Y0150511D01*
X0201337Y0150428D01*
X0201343Y0150345D01*
X0201345Y0150262D01*
X0201343Y0150179D01*
X0201337Y0150096D01*
X0201327Y0150013D01*
X0201313Y0149931D01*
X0201296Y0149849D01*
X0201274Y0149769D01*
X0201249Y0149690D01*
X0201220Y0149612D01*
X0201187Y0149535D01*
X0201150Y0149460D01*
X0201111Y0149387D01*
X0201067Y0149316D01*
X0201021Y0149247D01*
X0200971Y0149180D01*
X0200918Y0149116D01*
X0200862Y0149054D01*
X0200803Y0148995D01*
X0200741Y0148939D01*
X0200677Y0148886D01*
X0200610Y0148836D01*
X0200541Y0148790D01*
X0200470Y0148746D01*
X0200397Y0148707D01*
X0200322Y0148670D01*
X0200245Y0148637D01*
X0200167Y0148608D01*
X0200088Y0148583D01*
X0200008Y0148561D01*
X0199926Y0148544D01*
X0199844Y0148530D01*
X0199761Y0148520D01*
X0199678Y0148514D01*
X0199595Y0148512D01*
X0199512Y0148514D01*
X0199429Y0148520D01*
X0199346Y0148530D01*
X0199264Y0148544D01*
X0199182Y0148561D01*
X0199102Y0148583D01*
X0199023Y0148608D01*
X0198945Y0148637D01*
X0198868Y0148670D01*
X0198793Y0148707D01*
X0198720Y0148746D01*
X0198649Y0148790D01*
X0198580Y0148836D01*
X0198513Y0148886D01*
X0198449Y0148939D01*
X0198387Y0148995D01*
X0198328Y0149054D01*
X0198272Y0149116D01*
X0198219Y0149180D01*
X0198169Y0149247D01*
X0198123Y0149316D01*
X0198079Y0149387D01*
X0198040Y0149460D01*
X0198003Y0149535D01*
X0197970Y0149612D01*
X0197941Y0149690D01*
X0197916Y0149769D01*
X0197894Y0149849D01*
X0197877Y0149931D01*
X0197863Y0150013D01*
X0197853Y0150096D01*
X0197847Y0150179D01*
X0197845Y0150262D01*
X0197845Y0140262D02*
X0197847Y0140345D01*
X0197853Y0140428D01*
X0197863Y0140511D01*
X0197877Y0140593D01*
X0197894Y0140675D01*
X0197916Y0140755D01*
X0197941Y0140834D01*
X0197970Y0140912D01*
X0198003Y0140989D01*
X0198040Y0141064D01*
X0198079Y0141137D01*
X0198123Y0141208D01*
X0198169Y0141277D01*
X0198219Y0141344D01*
X0198272Y0141408D01*
X0198328Y0141470D01*
X0198387Y0141529D01*
X0198449Y0141585D01*
X0198513Y0141638D01*
X0198580Y0141688D01*
X0198649Y0141734D01*
X0198720Y0141778D01*
X0198793Y0141817D01*
X0198868Y0141854D01*
X0198945Y0141887D01*
X0199023Y0141916D01*
X0199102Y0141941D01*
X0199182Y0141963D01*
X0199264Y0141980D01*
X0199346Y0141994D01*
X0199429Y0142004D01*
X0199512Y0142010D01*
X0199595Y0142012D01*
X0199678Y0142010D01*
X0199761Y0142004D01*
X0199844Y0141994D01*
X0199926Y0141980D01*
X0200008Y0141963D01*
X0200088Y0141941D01*
X0200167Y0141916D01*
X0200245Y0141887D01*
X0200322Y0141854D01*
X0200397Y0141817D01*
X0200470Y0141778D01*
X0200541Y0141734D01*
X0200610Y0141688D01*
X0200677Y0141638D01*
X0200741Y0141585D01*
X0200803Y0141529D01*
X0200862Y0141470D01*
X0200918Y0141408D01*
X0200971Y0141344D01*
X0201021Y0141277D01*
X0201067Y0141208D01*
X0201111Y0141137D01*
X0201150Y0141064D01*
X0201187Y0140989D01*
X0201220Y0140912D01*
X0201249Y0140834D01*
X0201274Y0140755D01*
X0201296Y0140675D01*
X0201313Y0140593D01*
X0201327Y0140511D01*
X0201337Y0140428D01*
X0201343Y0140345D01*
X0201345Y0140262D01*
X0201343Y0140179D01*
X0201337Y0140096D01*
X0201327Y0140013D01*
X0201313Y0139931D01*
X0201296Y0139849D01*
X0201274Y0139769D01*
X0201249Y0139690D01*
X0201220Y0139612D01*
X0201187Y0139535D01*
X0201150Y0139460D01*
X0201111Y0139387D01*
X0201067Y0139316D01*
X0201021Y0139247D01*
X0200971Y0139180D01*
X0200918Y0139116D01*
X0200862Y0139054D01*
X0200803Y0138995D01*
X0200741Y0138939D01*
X0200677Y0138886D01*
X0200610Y0138836D01*
X0200541Y0138790D01*
X0200470Y0138746D01*
X0200397Y0138707D01*
X0200322Y0138670D01*
X0200245Y0138637D01*
X0200167Y0138608D01*
X0200088Y0138583D01*
X0200008Y0138561D01*
X0199926Y0138544D01*
X0199844Y0138530D01*
X0199761Y0138520D01*
X0199678Y0138514D01*
X0199595Y0138512D01*
X0199512Y0138514D01*
X0199429Y0138520D01*
X0199346Y0138530D01*
X0199264Y0138544D01*
X0199182Y0138561D01*
X0199102Y0138583D01*
X0199023Y0138608D01*
X0198945Y0138637D01*
X0198868Y0138670D01*
X0198793Y0138707D01*
X0198720Y0138746D01*
X0198649Y0138790D01*
X0198580Y0138836D01*
X0198513Y0138886D01*
X0198449Y0138939D01*
X0198387Y0138995D01*
X0198328Y0139054D01*
X0198272Y0139116D01*
X0198219Y0139180D01*
X0198169Y0139247D01*
X0198123Y0139316D01*
X0198079Y0139387D01*
X0198040Y0139460D01*
X0198003Y0139535D01*
X0197970Y0139612D01*
X0197941Y0139690D01*
X0197916Y0139769D01*
X0197894Y0139849D01*
X0197877Y0139931D01*
X0197863Y0140013D01*
X0197853Y0140096D01*
X0197847Y0140179D01*
X0197845Y0140262D01*
X0207845Y0140262D02*
X0207847Y0140345D01*
X0207853Y0140428D01*
X0207863Y0140511D01*
X0207877Y0140593D01*
X0207894Y0140675D01*
X0207916Y0140755D01*
X0207941Y0140834D01*
X0207970Y0140912D01*
X0208003Y0140989D01*
X0208040Y0141064D01*
X0208079Y0141137D01*
X0208123Y0141208D01*
X0208169Y0141277D01*
X0208219Y0141344D01*
X0208272Y0141408D01*
X0208328Y0141470D01*
X0208387Y0141529D01*
X0208449Y0141585D01*
X0208513Y0141638D01*
X0208580Y0141688D01*
X0208649Y0141734D01*
X0208720Y0141778D01*
X0208793Y0141817D01*
X0208868Y0141854D01*
X0208945Y0141887D01*
X0209023Y0141916D01*
X0209102Y0141941D01*
X0209182Y0141963D01*
X0209264Y0141980D01*
X0209346Y0141994D01*
X0209429Y0142004D01*
X0209512Y0142010D01*
X0209595Y0142012D01*
X0209678Y0142010D01*
X0209761Y0142004D01*
X0209844Y0141994D01*
X0209926Y0141980D01*
X0210008Y0141963D01*
X0210088Y0141941D01*
X0210167Y0141916D01*
X0210245Y0141887D01*
X0210322Y0141854D01*
X0210397Y0141817D01*
X0210470Y0141778D01*
X0210541Y0141734D01*
X0210610Y0141688D01*
X0210677Y0141638D01*
X0210741Y0141585D01*
X0210803Y0141529D01*
X0210862Y0141470D01*
X0210918Y0141408D01*
X0210971Y0141344D01*
X0211021Y0141277D01*
X0211067Y0141208D01*
X0211111Y0141137D01*
X0211150Y0141064D01*
X0211187Y0140989D01*
X0211220Y0140912D01*
X0211249Y0140834D01*
X0211274Y0140755D01*
X0211296Y0140675D01*
X0211313Y0140593D01*
X0211327Y0140511D01*
X0211337Y0140428D01*
X0211343Y0140345D01*
X0211345Y0140262D01*
X0211343Y0140179D01*
X0211337Y0140096D01*
X0211327Y0140013D01*
X0211313Y0139931D01*
X0211296Y0139849D01*
X0211274Y0139769D01*
X0211249Y0139690D01*
X0211220Y0139612D01*
X0211187Y0139535D01*
X0211150Y0139460D01*
X0211111Y0139387D01*
X0211067Y0139316D01*
X0211021Y0139247D01*
X0210971Y0139180D01*
X0210918Y0139116D01*
X0210862Y0139054D01*
X0210803Y0138995D01*
X0210741Y0138939D01*
X0210677Y0138886D01*
X0210610Y0138836D01*
X0210541Y0138790D01*
X0210470Y0138746D01*
X0210397Y0138707D01*
X0210322Y0138670D01*
X0210245Y0138637D01*
X0210167Y0138608D01*
X0210088Y0138583D01*
X0210008Y0138561D01*
X0209926Y0138544D01*
X0209844Y0138530D01*
X0209761Y0138520D01*
X0209678Y0138514D01*
X0209595Y0138512D01*
X0209512Y0138514D01*
X0209429Y0138520D01*
X0209346Y0138530D01*
X0209264Y0138544D01*
X0209182Y0138561D01*
X0209102Y0138583D01*
X0209023Y0138608D01*
X0208945Y0138637D01*
X0208868Y0138670D01*
X0208793Y0138707D01*
X0208720Y0138746D01*
X0208649Y0138790D01*
X0208580Y0138836D01*
X0208513Y0138886D01*
X0208449Y0138939D01*
X0208387Y0138995D01*
X0208328Y0139054D01*
X0208272Y0139116D01*
X0208219Y0139180D01*
X0208169Y0139247D01*
X0208123Y0139316D01*
X0208079Y0139387D01*
X0208040Y0139460D01*
X0208003Y0139535D01*
X0207970Y0139612D01*
X0207941Y0139690D01*
X0207916Y0139769D01*
X0207894Y0139849D01*
X0207877Y0139931D01*
X0207863Y0140013D01*
X0207853Y0140096D01*
X0207847Y0140179D01*
X0207845Y0140262D01*
D11*
X0204595Y0145262D03*
X0074595Y0200262D03*
D12*
X0044595Y0200262D03*
X0044595Y0130262D03*
D13*
X0059595Y0125262D03*
X0069595Y0125262D03*
X0079595Y0125262D03*
X0089595Y0125262D03*
X0099595Y0125262D03*
X0109595Y0125262D03*
X0119595Y0125262D03*
X0129595Y0125262D03*
X0139595Y0125262D03*
X0149595Y0125262D03*
X0159595Y0125262D03*
X0169595Y0125262D03*
X0179595Y0125262D03*
X0189595Y0125262D03*
X0199595Y0125262D03*
X0209595Y0125262D03*
X0209595Y0205262D03*
X0199595Y0205262D03*
X0189595Y0205262D03*
X0179595Y0205262D03*
X0169595Y0205262D03*
X0159595Y0205262D03*
X0149595Y0205262D03*
X0139595Y0205262D03*
X0129595Y0205262D03*
X0119595Y0205262D03*
X0109595Y0205262D03*
X0099595Y0205262D03*
D14*
X0079871Y0182861D03*
X0071997Y0182861D03*
D15*
X0062548Y0203333D03*
X0089320Y0203333D03*
D16*
X0104280Y0178924D03*
X0104280Y0177349D03*
X0104280Y0175774D03*
X0104280Y0174199D03*
X0104280Y0172625D03*
X0105855Y0172625D03*
X0105855Y0174199D03*
X0107430Y0174199D03*
X0107430Y0172625D03*
X0109005Y0172625D03*
X0110579Y0172625D03*
X0110579Y0174199D03*
X0109005Y0174199D03*
X0109005Y0175774D03*
X0110579Y0175774D03*
X0110579Y0177349D03*
X0109005Y0177349D03*
X0109005Y0178924D03*
X0110579Y0178924D03*
X0107430Y0178924D03*
X0107430Y0177349D03*
X0107430Y0175774D03*
X0105855Y0175774D03*
X0105855Y0177349D03*
X0105855Y0178924D03*
X0105855Y0171050D03*
X0107430Y0171050D03*
X0109005Y0171050D03*
X0110579Y0171050D03*
X0104280Y0171050D03*
X0085776Y0168294D03*
X0084201Y0168294D03*
X0082627Y0168294D03*
X0082627Y0166719D03*
X0084201Y0166719D03*
X0084201Y0165144D03*
X0082627Y0165144D03*
X0085776Y0165144D03*
X0085776Y0166719D03*
X0126721Y0165932D03*
X0128296Y0165932D03*
X0129871Y0165932D03*
X0131446Y0165932D03*
X0133020Y0165932D03*
X0133020Y0164357D03*
X0131446Y0164357D03*
X0131446Y0162782D03*
X0133020Y0162782D03*
X0133020Y0161207D03*
X0133020Y0159633D03*
X0131446Y0159633D03*
X0131446Y0161207D03*
X0129871Y0161207D03*
X0129871Y0159633D03*
X0128296Y0159633D03*
X0128296Y0161207D03*
X0126721Y0161207D03*
X0126721Y0159633D03*
X0126721Y0158058D03*
X0128296Y0158058D03*
X0129871Y0158058D03*
X0131446Y0158058D03*
X0133020Y0158058D03*
X0133020Y0156483D03*
X0131446Y0156483D03*
X0131446Y0154908D03*
X0133020Y0154908D03*
X0133020Y0153333D03*
X0131446Y0153333D03*
X0129871Y0153333D03*
X0128296Y0153333D03*
X0126721Y0153333D03*
X0126721Y0154908D03*
X0128296Y0154908D03*
X0129871Y0154908D03*
X0129871Y0156483D03*
X0128296Y0156483D03*
X0126721Y0156483D03*
X0134595Y0156483D03*
X0134595Y0158058D03*
X0134595Y0159633D03*
X0134595Y0161207D03*
X0136170Y0161207D03*
X0136170Y0159633D03*
X0137745Y0159633D03*
X0137745Y0161207D03*
X0139320Y0161207D03*
X0139320Y0159633D03*
X0139320Y0158058D03*
X0139320Y0156483D03*
X0139320Y0154908D03*
X0139320Y0153333D03*
X0137745Y0153333D03*
X0136170Y0153333D03*
X0134595Y0153333D03*
X0134595Y0154908D03*
X0136170Y0154908D03*
X0137745Y0154908D03*
X0137745Y0156483D03*
X0137745Y0158058D03*
X0136170Y0158058D03*
X0136170Y0156483D03*
X0136170Y0162782D03*
X0137745Y0162782D03*
X0139320Y0162782D03*
X0139320Y0164357D03*
X0139320Y0165932D03*
X0137745Y0165932D03*
X0137745Y0164357D03*
X0136170Y0164357D03*
X0136170Y0165932D03*
X0134595Y0165932D03*
X0134595Y0164357D03*
X0134595Y0162782D03*
X0129871Y0162782D03*
X0129871Y0164357D03*
X0128296Y0164357D03*
X0128296Y0162782D03*
X0126721Y0162782D03*
X0126721Y0164357D03*
D17*
X0120816Y0159239D03*
X0117666Y0159239D03*
X0094438Y0165932D03*
X0091288Y0165932D03*
X0082627Y0157664D03*
X0079477Y0157664D03*
X0117666Y0141916D03*
X0120816Y0141916D03*
X0154280Y0140341D03*
X0157430Y0140341D03*
X0150343Y0167113D03*
X0147194Y0167113D03*
X0147194Y0171050D03*
X0150343Y0171050D03*
X0150343Y0174987D03*
X0147194Y0174987D03*
X0135383Y0172625D03*
X0132233Y0172625D03*
X0100737Y0177743D03*
X0097587Y0177743D03*
X0097587Y0182467D03*
X0100737Y0182467D03*
X0127509Y0193885D03*
X0130658Y0193885D03*
X0082627Y0137979D03*
X0079477Y0137979D03*
D18*
X0125540Y0145066D03*
X0125540Y0148215D03*
X0137351Y0148215D03*
X0137351Y0145066D03*
X0141288Y0145066D03*
X0141288Y0148215D03*
X0139320Y0141129D03*
X0139320Y0137979D03*
X0147587Y0160420D03*
X0147587Y0163570D03*
X0118060Y0173806D03*
X0118060Y0176955D03*
X0116879Y0183255D03*
X0116879Y0186404D03*
X0112942Y0186404D03*
X0112942Y0183255D03*
X0109398Y0185617D03*
X0109398Y0188766D03*
X0105855Y0186798D03*
X0105855Y0183648D03*
X0102312Y0185617D03*
X0102312Y0188766D03*
X0086170Y0175774D03*
X0086170Y0172625D03*
X0077902Y0169869D03*
X0077902Y0166719D03*
X0073965Y0166719D03*
X0073965Y0169869D03*
X0058217Y0173806D03*
X0058217Y0176955D03*
X0100343Y0174199D03*
X0100343Y0171050D03*
X0100737Y0167507D03*
X0100737Y0164357D03*
X0105461Y0164357D03*
X0105461Y0167507D03*
X0109398Y0167507D03*
X0109398Y0164357D03*
X0130264Y0187585D03*
X0130264Y0190735D03*
D19*
X0046268Y0186936D03*
X0042922Y0186936D03*
X0042922Y0183589D03*
X0046268Y0183589D03*
X0225422Y0166936D03*
X0228768Y0166936D03*
X0228768Y0163589D03*
X0225422Y0163589D03*
D20*
X0092863Y0170262D03*
X0092863Y0174987D03*
D21*
X0119241Y0155499D03*
X0119241Y0148806D03*
D22*
X0109595Y0155262D03*
X0104595Y0155262D03*
X0099595Y0155262D03*
X0094595Y0155262D03*
X0089595Y0155262D03*
X0089595Y0140262D03*
X0094595Y0140262D03*
X0099595Y0140262D03*
X0104595Y0140262D03*
X0109595Y0140262D03*
D23*
X0163895Y0140262D03*
X0163895Y0150262D03*
X0163895Y0160262D03*
X0163895Y0170262D03*
X0163895Y0180262D03*
X0163895Y0190262D03*
X0185295Y0190262D03*
X0193895Y0190262D03*
X0193895Y0180262D03*
X0185295Y0180262D03*
X0185295Y0170262D03*
X0193895Y0170262D03*
X0193895Y0160262D03*
X0185295Y0160262D03*
X0185295Y0150262D03*
X0193895Y0150262D03*
X0193895Y0140262D03*
X0185295Y0140262D03*
X0215295Y0140262D03*
X0215295Y0150262D03*
X0215295Y0160262D03*
X0215295Y0170262D03*
X0215295Y0180262D03*
X0215295Y0190262D03*
D24*
X0134201Y0194081D03*
D25*
X0133316Y0191325D03*
X0135087Y0191325D03*
D26*
X0082296Y0153668D03*
X0078595Y0153668D03*
X0074894Y0153668D03*
X0074894Y0141857D03*
X0078595Y0141857D03*
X0082296Y0141857D03*
D27*
X0078595Y0147762D03*
D28*
X0068650Y0158845D03*
X0064910Y0158845D03*
X0061170Y0158845D03*
X0061170Y0169081D03*
X0064910Y0169081D03*
X0068650Y0169081D03*
D29*
X0064595Y0151955D03*
X0064595Y0138570D03*
X0227095Y0143570D03*
X0227095Y0156955D03*
X0227095Y0173570D03*
X0227095Y0186955D03*
D30*
X0044595Y0178255D02*
X0040595Y0178255D01*
X0040595Y0152270D02*
X0044595Y0152270D01*
D31*
X0055391Y0159750D02*
X0055391Y0160538D01*
X0055391Y0159750D02*
X0050863Y0159750D01*
X0050863Y0160538D01*
X0055391Y0160538D01*
X0055391Y0160536D02*
X0050863Y0160536D01*
X0055391Y0162309D02*
X0055391Y0163097D01*
X0055391Y0162309D02*
X0050863Y0162309D01*
X0050863Y0163097D01*
X0055391Y0163097D01*
X0055391Y0163095D02*
X0050863Y0163095D01*
X0055391Y0164868D02*
X0055391Y0165656D01*
X0055391Y0164868D02*
X0050863Y0164868D01*
X0050863Y0165656D01*
X0055391Y0165656D01*
X0055391Y0165654D02*
X0050863Y0165654D01*
X0055391Y0167428D02*
X0055391Y0168216D01*
X0055391Y0167428D02*
X0050863Y0167428D01*
X0050863Y0168216D01*
X0055391Y0168216D01*
X0055391Y0168214D02*
X0050863Y0168214D01*
X0055391Y0169987D02*
X0055391Y0170775D01*
X0055391Y0169987D02*
X0050863Y0169987D01*
X0050863Y0170775D01*
X0055391Y0170775D01*
X0055391Y0170773D02*
X0050863Y0170773D01*
D32*
X0050863Y0176090D02*
X0053619Y0176090D01*
X0050863Y0176090D02*
X0050863Y0179632D01*
X0053619Y0179632D01*
X0053619Y0176090D01*
X0053619Y0178845D02*
X0050863Y0178845D01*
X0050863Y0150893D02*
X0053619Y0150893D01*
X0050863Y0150893D02*
X0050863Y0154435D01*
X0053619Y0154435D01*
X0053619Y0150893D01*
X0053619Y0153648D02*
X0050863Y0153648D01*
D33*
X0040725Y0158668D02*
X0040725Y0162408D01*
X0044465Y0162408D01*
X0044465Y0158668D01*
X0040725Y0158668D01*
X0040725Y0162407D02*
X0044465Y0162407D01*
X0040725Y0168117D02*
X0040725Y0171857D01*
X0044465Y0171857D01*
X0044465Y0168117D01*
X0040725Y0168117D01*
X0040725Y0171856D02*
X0044465Y0171856D01*
D34*
X0052812Y0167507D02*
X0053127Y0167822D01*
X0053442Y0167507D01*
X0055068Y0167507D01*
X0055461Y0167113D01*
X0057823Y0167113D01*
X0059792Y0165144D01*
X0068453Y0165144D01*
X0068453Y0168491D01*
X0068847Y0168885D01*
X0068650Y0169081D01*
X0068453Y0165144D02*
X0069635Y0165144D01*
X0072784Y0161995D01*
X0125934Y0161995D01*
X0125540Y0162782D02*
X0123572Y0164751D01*
X0123572Y0170262D01*
X0125146Y0168688D02*
X0125146Y0164357D01*
X0125934Y0163570D01*
X0125540Y0162782D02*
X0126721Y0162782D01*
X0125146Y0161207D02*
X0072390Y0161207D01*
X0069241Y0164357D01*
X0061367Y0164357D01*
X0061367Y0159042D01*
X0061170Y0158845D01*
X0061367Y0164357D02*
X0059398Y0164357D01*
X0057705Y0166050D01*
X0055579Y0166050D01*
X0055068Y0165538D01*
X0053402Y0165538D01*
X0053127Y0165262D01*
X0051524Y0165262D01*
X0050418Y0164156D01*
X0049489Y0164156D01*
X0049489Y0166762D02*
X0050386Y0166762D01*
X0051131Y0167507D01*
X0052812Y0167507D01*
X0053127Y0167822D02*
X0053205Y0167900D01*
X0073965Y0166719D02*
X0075146Y0167900D01*
X0075540Y0167900D01*
X0075934Y0167507D01*
X0075934Y0165932D01*
X0076721Y0165144D01*
X0082627Y0165144D01*
X0084201Y0165144D02*
X0085776Y0163570D01*
X0087351Y0163570D01*
X0087745Y0165144D02*
X0089320Y0163570D01*
X0095225Y0163570D01*
X0097587Y0165932D01*
X0112942Y0165932D01*
X0115304Y0163570D01*
X0118453Y0163570D01*
X0120028Y0165144D01*
X0121997Y0167113D01*
X0121997Y0180892D01*
X0118060Y0184829D01*
X0111367Y0184829D01*
X0107430Y0180892D01*
X0107430Y0178924D01*
X0108217Y0179711D02*
X0110186Y0181680D01*
X0110186Y0180105D02*
X0111367Y0180105D01*
X0112942Y0181680D01*
X0112942Y0183255D01*
X0112942Y0186404D02*
X0112942Y0188373D01*
X0112154Y0191129D02*
X0116879Y0186404D01*
X0116879Y0183255D02*
X0116879Y0180892D01*
X0113335Y0177349D01*
X0110579Y0177349D01*
X0111367Y0176562D02*
X0114910Y0176562D01*
X0119241Y0180892D01*
X0123965Y0184436D02*
X0130264Y0190735D01*
X0130855Y0191325D01*
X0133316Y0191325D01*
X0135087Y0191325D02*
X0135087Y0190833D01*
X0133020Y0188766D01*
X0131839Y0187585D01*
X0130264Y0187585D01*
X0136564Y0184829D02*
X0147194Y0184829D01*
X0152705Y0190341D01*
X0155068Y0190341D01*
X0159005Y0194278D01*
X0218060Y0194278D01*
X0220422Y0191916D01*
X0220422Y0186798D01*
X0232627Y0174593D01*
X0232627Y0147428D01*
X0229871Y0144672D01*
X0228198Y0144672D01*
X0227095Y0143570D01*
X0215698Y0132073D02*
X0136957Y0132073D01*
X0134989Y0134042D02*
X0131052Y0130105D01*
X0096012Y0130105D01*
X0090107Y0136010D01*
X0081446Y0136010D01*
X0079477Y0137979D01*
X0065186Y0137979D01*
X0064595Y0138570D01*
X0066288Y0138570D01*
X0064595Y0138570D02*
X0064005Y0137979D01*
X0062154Y0137979D01*
X0059595Y0135420D01*
X0059595Y0125262D01*
X0082627Y0137979D02*
X0085776Y0137979D01*
X0085776Y0154514D01*
X0082627Y0157664D01*
X0081446Y0159633D02*
X0088926Y0159633D01*
X0089595Y0158963D01*
X0089595Y0155262D01*
X0081446Y0159633D02*
X0079477Y0157664D01*
X0078595Y0156782D01*
X0078595Y0153668D01*
X0074894Y0153668D02*
X0074753Y0153810D01*
X0089595Y0144160D02*
X0089713Y0144278D01*
X0089713Y0136404D01*
X0090107Y0136010D01*
X0088926Y0137585D02*
X0089595Y0138255D01*
X0089595Y0140262D01*
X0089595Y0144160D01*
X0094831Y0144278D02*
X0094831Y0140420D01*
X0094753Y0140420D01*
X0094595Y0140262D01*
X0094831Y0144278D02*
X0099556Y0149003D01*
X0113335Y0149003D01*
X0116485Y0145853D01*
X0120816Y0145853D01*
X0121209Y0143885D02*
X0123178Y0145853D01*
X0121209Y0143885D02*
X0114910Y0143885D01*
X0112548Y0146247D01*
X0101918Y0146247D01*
X0099556Y0143885D01*
X0099556Y0140302D01*
X0099595Y0140262D01*
X0104595Y0140262D02*
X0104595Y0133648D01*
X0106170Y0132073D01*
X0125540Y0132073D01*
X0133808Y0140341D01*
X0133808Y0152546D01*
X0134595Y0153333D02*
X0134595Y0137585D01*
X0129083Y0132073D01*
X0128296Y0131286D01*
X0102312Y0131286D01*
X0101524Y0132073D01*
X0109792Y0136404D02*
X0109792Y0140066D01*
X0109595Y0140262D01*
X0109674Y0140341D01*
X0104674Y0140184D02*
X0104595Y0140262D01*
X0109792Y0136404D02*
X0110973Y0135223D01*
X0114595Y0135223D01*
X0124359Y0135223D01*
X0132233Y0143097D01*
X0132233Y0152546D01*
X0133020Y0153333D02*
X0133020Y0141916D01*
X0124753Y0133648D01*
X0111367Y0133648D01*
X0119635Y0136798D02*
X0123965Y0136798D01*
X0131446Y0144278D01*
X0131446Y0153333D01*
X0130658Y0152546D02*
X0129871Y0151759D01*
X0129871Y0150184D01*
X0128296Y0151759D02*
X0129871Y0153333D01*
X0128296Y0153333D02*
X0125540Y0150577D01*
X0128296Y0151759D02*
X0128296Y0143491D01*
X0123572Y0138766D01*
X0120816Y0138766D01*
X0117666Y0141916D01*
X0120816Y0141916D02*
X0123178Y0141916D01*
X0121209Y0149396D02*
X0119831Y0149396D01*
X0119241Y0148806D01*
X0121209Y0149396D02*
X0126721Y0154908D01*
X0127509Y0155696D02*
X0128296Y0154908D01*
X0128296Y0156483D02*
X0127509Y0157270D01*
X0126721Y0156483D02*
X0120225Y0156483D01*
X0119241Y0155499D01*
X0120816Y0159239D02*
X0120816Y0159633D01*
X0122784Y0159633D01*
X0126721Y0159633D01*
X0127509Y0158845D01*
X0126721Y0158058D02*
X0125146Y0158058D01*
X0125934Y0160420D02*
X0125146Y0161207D01*
X0129083Y0158845D02*
X0129871Y0159633D01*
X0131446Y0159633D02*
X0132233Y0158845D01*
X0133020Y0158058D02*
X0133808Y0157270D01*
X0133020Y0156483D02*
X0133808Y0155696D01*
X0132233Y0155696D02*
X0131446Y0156483D01*
X0132233Y0157270D02*
X0131446Y0158058D01*
X0133020Y0159633D02*
X0133808Y0160420D01*
X0134595Y0161207D02*
X0135383Y0160420D01*
X0136170Y0159633D02*
X0136957Y0158845D01*
X0136170Y0158058D02*
X0136957Y0157270D01*
X0135383Y0157270D02*
X0134595Y0158058D01*
X0135383Y0158845D02*
X0134595Y0159633D01*
X0133020Y0161207D02*
X0132233Y0160420D01*
X0131446Y0161207D02*
X0130658Y0161995D01*
X0129871Y0162782D02*
X0129083Y0163570D01*
X0128296Y0165932D02*
X0126721Y0167507D01*
X0126721Y0169081D01*
X0123178Y0172625D01*
X0123178Y0189554D01*
X0127509Y0193885D01*
X0126721Y0193097D01*
X0127509Y0193885D02*
X0129595Y0195971D01*
X0129595Y0205262D01*
X0147587Y0200577D02*
X0129083Y0182073D01*
X0129083Y0169081D01*
X0130658Y0167507D01*
X0131446Y0167900D02*
X0131446Y0165932D01*
X0132233Y0166719D02*
X0132233Y0168294D01*
X0130658Y0169869D01*
X0130658Y0178924D01*
X0136564Y0184829D01*
X0135383Y0180892D02*
X0132233Y0177743D01*
X0132233Y0175381D02*
X0136170Y0179318D01*
X0156642Y0179318D01*
X0158611Y0177349D01*
X0204674Y0177349D01*
X0203099Y0175381D02*
X0205068Y0173412D01*
X0210973Y0173412D01*
X0212548Y0171837D01*
X0213720Y0171837D01*
X0215295Y0170262D01*
X0220816Y0165538D02*
X0223965Y0168688D01*
X0227016Y0168688D01*
X0228768Y0166936D01*
X0228768Y0167034D01*
X0225422Y0166936D02*
X0225323Y0166936D01*
X0222745Y0164357D01*
X0191682Y0164357D01*
X0189713Y0166325D01*
X0155068Y0166325D01*
X0150343Y0171050D01*
X0148375Y0173018D02*
X0148768Y0173412D01*
X0148768Y0176562D01*
X0149162Y0176955D01*
X0151131Y0176955D01*
X0154674Y0173412D01*
X0181052Y0173412D01*
X0184201Y0170262D01*
X0185295Y0170262D01*
X0184508Y0169475D01*
X0183020Y0169475D01*
X0188926Y0165538D02*
X0151918Y0165538D01*
X0150343Y0167113D01*
X0150737Y0165144D02*
X0152312Y0163570D01*
X0180658Y0163570D01*
X0182627Y0161601D01*
X0183957Y0161601D01*
X0185295Y0160262D01*
X0184744Y0160814D01*
X0189713Y0157270D02*
X0190894Y0158451D01*
X0190894Y0160420D01*
X0191682Y0161207D01*
X0192950Y0161207D01*
X0193895Y0160262D01*
X0191288Y0163176D02*
X0225009Y0163176D01*
X0225422Y0163589D01*
X0220816Y0165538D02*
X0192075Y0165538D01*
X0190501Y0167113D01*
X0158217Y0167113D01*
X0150343Y0174987D01*
X0148375Y0173018D02*
X0143650Y0173018D01*
X0140501Y0176168D01*
X0139713Y0176168D01*
X0138532Y0174987D01*
X0138532Y0169081D01*
X0136957Y0167507D01*
X0136957Y0166719D01*
X0137745Y0167113D02*
X0139320Y0168688D01*
X0139320Y0173806D01*
X0140107Y0174593D01*
X0140894Y0172625D02*
X0140894Y0169081D01*
X0138532Y0166719D01*
X0137745Y0167113D02*
X0137745Y0165932D01*
X0136170Y0165932D02*
X0136170Y0167900D01*
X0137745Y0169475D01*
X0137745Y0176168D01*
X0136957Y0174199D02*
X0135776Y0175381D01*
X0136957Y0174199D02*
X0136957Y0169869D01*
X0135383Y0168294D01*
X0135383Y0166719D01*
X0134595Y0165932D02*
X0134595Y0169475D01*
X0135383Y0170262D01*
X0133020Y0169475D02*
X0132233Y0170262D01*
X0132233Y0172625D01*
X0133808Y0175381D02*
X0136170Y0177743D01*
X0141682Y0177743D01*
X0144438Y0174987D01*
X0147194Y0174987D01*
X0147194Y0171050D02*
X0146406Y0170262D01*
X0146012Y0170262D01*
X0145225Y0169475D01*
X0145225Y0166719D02*
X0146800Y0166719D01*
X0147194Y0167113D01*
X0144831Y0165144D02*
X0150737Y0165144D01*
X0147587Y0163570D02*
X0145225Y0163570D01*
X0144438Y0162782D01*
X0139320Y0162782D01*
X0140107Y0161995D02*
X0157823Y0161995D01*
X0159792Y0157664D02*
X0153099Y0157664D01*
X0151524Y0156089D02*
X0191682Y0156089D01*
X0192469Y0156877D01*
X0194044Y0154908D02*
X0196406Y0157270D01*
X0211367Y0157270D01*
X0213335Y0159239D01*
X0214272Y0159239D01*
X0215295Y0160262D01*
X0205461Y0169081D02*
X0201131Y0173412D01*
X0183020Y0173412D01*
X0181839Y0174593D01*
X0156249Y0174593D01*
X0153099Y0177743D01*
X0145225Y0177743D01*
X0147587Y0180892D02*
X0149949Y0183255D01*
X0155461Y0183255D01*
X0156642Y0184436D01*
X0189320Y0184436D01*
X0190501Y0185617D01*
X0204674Y0185617D01*
X0205068Y0180892D02*
X0212154Y0187979D01*
X0212154Y0188373D01*
X0214044Y0190262D01*
X0215295Y0190262D01*
X0214586Y0189554D01*
X0218060Y0195459D02*
X0222784Y0190735D01*
X0222784Y0189554D01*
X0225383Y0186955D01*
X0227095Y0186955D01*
X0215295Y0180262D02*
X0214350Y0179318D01*
X0212942Y0179318D01*
X0209005Y0175381D01*
X0203099Y0175381D02*
X0183414Y0175381D01*
X0182627Y0176168D01*
X0157823Y0176168D01*
X0157823Y0180499D02*
X0162075Y0180499D01*
X0162312Y0180262D01*
X0163895Y0180262D01*
X0158217Y0183255D02*
X0156249Y0181286D01*
X0150343Y0181286D01*
X0147587Y0180892D02*
X0135383Y0180892D01*
X0129871Y0180105D02*
X0148768Y0199003D01*
X0173335Y0199003D01*
X0179595Y0205262D01*
X0172784Y0200577D02*
X0147587Y0200577D01*
X0155461Y0197822D02*
X0146800Y0189160D01*
X0146800Y0187192D01*
X0148768Y0188766D02*
X0156642Y0196640D01*
X0179477Y0196640D01*
X0180264Y0197428D01*
X0201760Y0197428D01*
X0209595Y0205262D01*
X0199595Y0205262D02*
X0194516Y0200184D01*
X0177902Y0200184D01*
X0175540Y0197822D01*
X0155461Y0197822D01*
X0157823Y0195459D02*
X0154674Y0192310D01*
X0155855Y0188373D02*
X0153099Y0188373D01*
X0147194Y0182467D01*
X0145225Y0182467D01*
X0155461Y0186010D02*
X0157823Y0186010D01*
X0159398Y0187585D01*
X0181446Y0187585D01*
X0184123Y0190262D01*
X0185295Y0190262D01*
X0188532Y0186010D02*
X0192075Y0189554D01*
X0193186Y0189554D01*
X0193895Y0190262D01*
X0192784Y0190262D01*
X0188532Y0186010D02*
X0159792Y0186010D01*
X0157823Y0188373D02*
X0159792Y0190341D01*
X0163816Y0190341D01*
X0163895Y0190262D01*
X0160579Y0193097D02*
X0155855Y0188373D01*
X0158217Y0183255D02*
X0181052Y0183255D01*
X0184044Y0180262D01*
X0185295Y0180262D01*
X0191288Y0180892D02*
X0191288Y0183648D01*
X0191288Y0180892D02*
X0193265Y0180892D01*
X0193895Y0180262D01*
X0192950Y0179318D01*
X0191682Y0179318D01*
X0191288Y0178924D01*
X0193257Y0179624D02*
X0193895Y0180262D01*
X0193895Y0170262D02*
X0193257Y0169624D01*
X0193257Y0167113D01*
X0191288Y0163176D02*
X0188926Y0165538D01*
X0189713Y0157270D02*
X0160186Y0157270D01*
X0159792Y0157664D01*
X0163895Y0160262D02*
X0152548Y0160262D01*
X0150343Y0158058D01*
X0144438Y0158058D01*
X0142863Y0159633D01*
X0139320Y0159633D01*
X0140107Y0160420D02*
X0143257Y0160420D01*
X0144831Y0158845D01*
X0148768Y0158845D01*
X0150343Y0160420D01*
X0147587Y0160420D02*
X0145225Y0160420D01*
X0144438Y0161207D01*
X0139320Y0161207D01*
X0140107Y0158845D02*
X0142469Y0158845D01*
X0144044Y0157270D01*
X0150343Y0157270D01*
X0151524Y0156089D01*
X0149949Y0154908D02*
X0194044Y0154908D01*
X0197981Y0153727D02*
X0148768Y0153727D01*
X0146800Y0155696D01*
X0143257Y0155696D01*
X0141682Y0157270D01*
X0140107Y0157270D01*
X0139320Y0156483D02*
X0141288Y0156483D01*
X0142863Y0154908D01*
X0144831Y0154908D01*
X0151131Y0148609D01*
X0156642Y0148609D01*
X0149556Y0147034D02*
X0171603Y0147034D01*
X0174359Y0149790D01*
X0164516Y0140341D02*
X0164438Y0140262D01*
X0163895Y0140262D01*
X0163659Y0140262D01*
X0163580Y0140341D01*
X0149556Y0147034D02*
X0140894Y0155696D01*
X0140107Y0155696D01*
X0140501Y0154908D02*
X0139320Y0154908D01*
X0140107Y0154121D02*
X0141288Y0152940D01*
X0141288Y0148215D01*
X0142863Y0146640D01*
X0142863Y0138373D01*
X0144438Y0137979D02*
X0144438Y0150971D01*
X0140501Y0154908D01*
X0137745Y0153333D02*
X0139320Y0151759D01*
X0137351Y0152152D02*
X0137351Y0148215D01*
X0137351Y0145066D02*
X0137351Y0143097D01*
X0139320Y0141129D02*
X0141288Y0143097D01*
X0141288Y0145066D01*
X0137351Y0152152D02*
X0136170Y0153333D01*
X0135383Y0152546D02*
X0135383Y0138373D01*
X0137351Y0136404D01*
X0138926Y0137979D01*
X0139320Y0137979D01*
X0140501Y0134042D02*
X0144438Y0137979D01*
X0140501Y0134042D02*
X0134989Y0134042D01*
X0136957Y0154121D02*
X0136170Y0154908D01*
X0139320Y0158058D02*
X0142075Y0158058D01*
X0143650Y0156483D01*
X0148375Y0156483D01*
X0149949Y0154908D01*
X0143257Y0163570D02*
X0140107Y0163570D01*
X0139320Y0164357D02*
X0141288Y0166325D01*
X0143257Y0163570D02*
X0144831Y0165144D01*
X0135383Y0163570D02*
X0134595Y0162782D01*
X0133808Y0163570D02*
X0133020Y0162782D01*
X0132233Y0163570D02*
X0131446Y0162782D01*
X0133020Y0165932D02*
X0133020Y0169475D01*
X0131446Y0167900D02*
X0129871Y0169475D01*
X0129871Y0180105D01*
X0125540Y0177743D02*
X0128296Y0174987D01*
X0128296Y0168688D01*
X0129871Y0167113D01*
X0129871Y0165932D01*
X0129083Y0166719D02*
X0127509Y0168294D01*
X0127509Y0173018D01*
X0123965Y0176562D01*
X0123965Y0184436D01*
X0112548Y0178924D02*
X0110579Y0178924D01*
X0110186Y0180105D02*
X0109005Y0178924D01*
X0108217Y0178136D02*
X0109005Y0177349D01*
X0108217Y0176562D02*
X0107430Y0177349D01*
X0107430Y0175774D02*
X0106642Y0174987D01*
X0105855Y0174199D02*
X0105068Y0174987D01*
X0104280Y0175774D02*
X0101918Y0175774D01*
X0100737Y0176955D02*
X0100737Y0177743D01*
X0102705Y0177349D02*
X0104280Y0177349D01*
X0105068Y0178136D02*
X0105855Y0177349D01*
X0105855Y0178924D02*
X0105855Y0183648D01*
X0106642Y0181680D02*
X0109398Y0184436D01*
X0109398Y0185617D01*
X0109398Y0188766D02*
X0107823Y0190341D01*
X0101131Y0190341D01*
X0100737Y0189948D01*
X0100737Y0187192D01*
X0102312Y0185617D01*
X0102312Y0184436D01*
X0105068Y0181680D01*
X0105068Y0179711D01*
X0104280Y0178924D02*
X0103099Y0180105D01*
X0106642Y0179711D02*
X0106642Y0181680D01*
X0109005Y0175774D02*
X0108217Y0174987D01*
X0107430Y0174199D02*
X0106642Y0173412D01*
X0105855Y0172625D02*
X0105068Y0171837D01*
X0105855Y0171050D02*
X0105855Y0169475D01*
X0107430Y0169869D02*
X0107430Y0171050D01*
X0106642Y0171837D01*
X0107430Y0172625D02*
X0108217Y0171837D01*
X0109005Y0171050D02*
X0109005Y0169869D01*
X0108611Y0169475D01*
X0107823Y0169475D02*
X0107430Y0169869D01*
X0110579Y0169475D02*
X0110579Y0171050D01*
X0111760Y0171444D02*
X0111760Y0170656D01*
X0112942Y0169475D01*
X0111760Y0171444D02*
X0110579Y0172625D01*
X0109005Y0172625D02*
X0108217Y0173412D01*
X0109005Y0174199D02*
X0109792Y0174987D01*
X0110579Y0175774D02*
X0112548Y0175774D01*
X0119241Y0169081D01*
X0119241Y0166719D01*
X0117666Y0165144D01*
X0117666Y0167507D02*
X0117666Y0169475D01*
X0112154Y0174987D01*
X0111367Y0174987D01*
X0110579Y0174199D02*
X0115304Y0169475D01*
X0118060Y0173806D02*
X0118847Y0173806D01*
X0118060Y0176955D02*
X0117272Y0176955D01*
X0104280Y0174199D02*
X0100343Y0174199D01*
X0099556Y0174199D01*
X0100343Y0171050D02*
X0101131Y0171050D01*
X0102705Y0172625D02*
X0104280Y0172625D01*
X0104280Y0171050D02*
X0103099Y0169869D01*
X0097981Y0167507D02*
X0096012Y0167507D01*
X0094438Y0165932D01*
X0091288Y0165932D02*
X0091288Y0170262D01*
X0092863Y0170262D01*
X0088138Y0169081D02*
X0088138Y0173806D01*
X0086170Y0175774D01*
X0081052Y0175774D01*
X0080264Y0176562D01*
X0080264Y0179318D01*
X0081052Y0180105D01*
X0081052Y0181676D02*
X0081052Y0181680D01*
X0079871Y0182861D01*
X0060186Y0185223D02*
X0044556Y0185223D01*
X0042922Y0183589D01*
X0046268Y0183589D02*
X0046603Y0183255D01*
X0058217Y0183255D01*
X0058217Y0187192D02*
X0046524Y0187192D01*
X0046268Y0186936D01*
X0073965Y0169869D02*
X0075146Y0168688D01*
X0076721Y0168688D01*
X0077902Y0169869D01*
X0082627Y0169869D01*
X0082627Y0168294D01*
X0082627Y0169869D02*
X0083414Y0169869D01*
X0086170Y0172625D01*
X0085776Y0169869D02*
X0085776Y0168294D01*
X0085776Y0166719D02*
X0088138Y0169081D01*
X0088926Y0165932D02*
X0086564Y0165932D01*
X0085776Y0165144D02*
X0087745Y0165144D01*
X0084989Y0165932D02*
X0084201Y0166719D01*
X0082627Y0166719D02*
X0077902Y0166719D01*
X0115698Y0159239D02*
X0117666Y0159239D01*
X0133808Y0166719D02*
X0133808Y0175381D01*
X0157823Y0171444D02*
X0163335Y0171444D01*
X0163895Y0170884D01*
X0163895Y0170262D01*
X0203493Y0193097D02*
X0204674Y0191916D01*
X0203493Y0193097D02*
X0160579Y0193097D01*
X0157823Y0195459D02*
X0218060Y0195459D01*
X0134201Y0194081D02*
X0134005Y0193885D01*
X0130658Y0193885D01*
X0112154Y0191129D02*
X0109398Y0191129D01*
X0105855Y0188766D02*
X0102312Y0188766D01*
X0105461Y0199790D02*
X0094438Y0199790D01*
D35*
X0094438Y0199790D03*
X0105461Y0199790D03*
X0109398Y0191129D03*
X0105855Y0188766D03*
X0112942Y0188373D03*
X0110186Y0181680D03*
X0112548Y0178924D03*
X0115698Y0175381D03*
X0120422Y0175381D03*
X0125540Y0177743D03*
X0132233Y0177743D03*
X0132233Y0175381D03*
X0135776Y0175381D03*
X0137745Y0176168D03*
X0140107Y0174593D03*
X0140894Y0172625D03*
X0135383Y0170262D03*
X0132233Y0170262D03*
X0125146Y0168688D03*
X0123572Y0170262D03*
X0120028Y0165144D03*
X0117666Y0165144D03*
X0117666Y0167507D03*
X0115304Y0169475D03*
X0112942Y0169475D03*
X0111760Y0167507D03*
X0110579Y0169475D03*
X0105855Y0169475D03*
X0103099Y0167507D03*
X0103099Y0164357D03*
X0098375Y0164357D03*
X0097981Y0167507D03*
X0097587Y0170262D03*
X0097981Y0172625D03*
X0097587Y0174987D03*
X0102705Y0177349D03*
X0102705Y0172625D03*
X0095619Y0177743D03*
X0092469Y0180105D03*
X0095619Y0182467D03*
X0116879Y0180892D03*
X0119241Y0180892D03*
X0133020Y0188766D03*
X0145225Y0182467D03*
X0145225Y0177743D03*
X0150343Y0181286D03*
X0157823Y0180499D03*
X0157823Y0176168D03*
X0157823Y0171444D03*
X0145225Y0169475D03*
X0145225Y0166719D03*
X0145225Y0163570D03*
X0145225Y0160420D03*
X0150343Y0160420D03*
X0153099Y0157664D03*
X0157823Y0161995D03*
X0141288Y0166325D03*
X0125146Y0158058D03*
X0122784Y0159633D03*
X0115698Y0159239D03*
X0112154Y0154908D03*
X0101918Y0155302D03*
X0111760Y0164357D03*
X0088926Y0165932D03*
X0087351Y0163570D03*
X0085776Y0169869D03*
X0073965Y0164751D03*
X0064910Y0162388D03*
X0071997Y0153727D03*
X0064516Y0149003D03*
X0053099Y0158058D03*
X0049489Y0164156D03*
X0049489Y0166762D03*
X0042095Y0165262D03*
X0052312Y0173412D03*
X0058217Y0178924D03*
X0058217Y0183255D03*
X0060186Y0185223D03*
X0058217Y0187192D03*
X0040894Y0186798D03*
X0123178Y0148215D03*
X0123178Y0145853D03*
X0120816Y0145853D03*
X0125540Y0143097D03*
X0123178Y0141916D03*
X0120816Y0138766D03*
X0119635Y0136798D03*
X0114595Y0135223D03*
X0111367Y0133648D03*
X0104595Y0133648D03*
X0101524Y0132073D03*
X0085776Y0137979D03*
X0129083Y0132073D03*
X0136957Y0132073D03*
X0137351Y0136404D03*
X0142863Y0138373D03*
X0141288Y0143097D03*
X0137351Y0143097D03*
X0139320Y0151759D03*
X0129871Y0150184D03*
X0152312Y0140341D03*
X0159398Y0140341D03*
X0159398Y0137585D03*
X0159398Y0143097D03*
X0156642Y0148609D03*
X0159005Y0150184D03*
X0174359Y0149790D03*
X0189615Y0150184D03*
X0197981Y0153727D03*
X0192469Y0156877D03*
X0193257Y0167113D03*
X0205461Y0169081D03*
X0209005Y0175381D03*
X0204674Y0177349D03*
X0205068Y0180892D03*
X0204674Y0185617D03*
X0204674Y0191916D03*
X0191288Y0183648D03*
X0159792Y0186010D03*
X0157823Y0188373D03*
X0155461Y0186010D03*
X0154674Y0192310D03*
X0148768Y0188766D03*
X0146800Y0187192D03*
X0172784Y0200577D03*
X0222489Y0175262D03*
X0231052Y0165144D03*
X0222489Y0155262D03*
X0220028Y0150184D03*
X0215698Y0132073D03*
D36*
X0136957Y0154121D03*
X0136957Y0157270D03*
X0135383Y0157270D03*
X0135383Y0158845D03*
X0136957Y0158845D03*
X0135383Y0160420D03*
X0133808Y0160420D03*
X0132233Y0160420D03*
X0130658Y0160420D03*
X0130658Y0161995D03*
X0129083Y0161995D03*
X0129083Y0163570D03*
X0132233Y0163570D03*
X0133808Y0163570D03*
X0135383Y0163570D03*
X0132233Y0158845D03*
X0132233Y0157270D03*
X0132233Y0155696D03*
X0133808Y0155696D03*
X0133808Y0157270D03*
X0129083Y0158845D03*
X0127509Y0155696D03*
X0108217Y0171837D03*
X0108217Y0173412D03*
X0108217Y0174987D03*
X0106642Y0174987D03*
X0105068Y0174987D03*
X0105068Y0171837D03*
D37*
X0105855Y0169475D02*
X0105855Y0167507D01*
X0105461Y0167507D01*
X0103099Y0167507D02*
X0100737Y0167507D01*
X0103099Y0167507D02*
X0103099Y0169869D01*
X0101131Y0171050D02*
X0102705Y0172625D01*
X0099556Y0174199D02*
X0097981Y0172625D01*
X0097587Y0174987D02*
X0092863Y0174987D01*
X0092863Y0170262D02*
X0097587Y0170262D01*
X0107823Y0169475D02*
X0107823Y0167507D01*
X0108611Y0167507D01*
X0109398Y0167507D01*
X0111760Y0167507D01*
X0108611Y0167507D02*
X0108611Y0169475D01*
X0109398Y0164357D02*
X0111760Y0164357D01*
X0105461Y0164357D02*
X0103099Y0164357D01*
X0100737Y0164357D02*
X0098375Y0164357D01*
X0099635Y0155302D02*
X0101918Y0155302D01*
X0104556Y0155302D01*
X0104595Y0155262D01*
X0099635Y0155302D02*
X0099595Y0155262D01*
X0109595Y0155262D02*
X0109949Y0154908D01*
X0112154Y0154908D01*
X0135383Y0170262D02*
X0135383Y0172625D01*
X0105855Y0186798D02*
X0105855Y0188766D01*
X0099949Y0184436D02*
X0097981Y0186404D01*
X0099949Y0184436D02*
X0099949Y0183255D01*
X0100737Y0182467D01*
X0103099Y0180105D01*
X0100737Y0178136D02*
X0100737Y0177743D01*
X0100737Y0178136D02*
X0098768Y0180105D01*
X0092469Y0180105D01*
X0095619Y0182467D02*
X0097587Y0182467D01*
X0097587Y0177743D02*
X0095619Y0177743D01*
X0081052Y0180105D02*
X0081052Y0181676D01*
X0071997Y0182861D02*
X0071997Y0171837D01*
X0073965Y0169869D01*
X0073965Y0166719D02*
X0073965Y0164751D01*
X0064910Y0162388D02*
X0064910Y0158845D01*
X0071997Y0153727D02*
X0074835Y0153727D01*
X0074894Y0153668D01*
X0064595Y0151955D02*
X0064516Y0151877D01*
X0064516Y0149003D01*
X0053099Y0153522D02*
X0053099Y0158058D01*
X0053099Y0160117D01*
X0053127Y0160144D01*
X0042595Y0160538D02*
X0042469Y0160412D01*
X0042095Y0160786D01*
X0042095Y0165262D01*
X0042095Y0169487D01*
X0042595Y0169987D01*
X0042469Y0170113D01*
X0052312Y0173412D02*
X0052312Y0177790D01*
X0052241Y0177861D01*
X0058217Y0176955D02*
X0058217Y0178924D01*
X0064910Y0173806D02*
X0064910Y0169081D01*
X0055855Y0171444D02*
X0054792Y0170381D01*
X0053127Y0170381D01*
X0042784Y0186798D02*
X0040894Y0186798D01*
X0042784Y0186798D02*
X0042922Y0186936D01*
X0053099Y0153522D02*
X0052241Y0152664D01*
X0152312Y0140341D02*
X0154280Y0140341D01*
X0157430Y0140341D02*
X0159398Y0140341D01*
X0163580Y0140341D01*
X0163895Y0140262D02*
X0163974Y0140341D01*
X0164516Y0140341D02*
X0168453Y0136404D01*
X0180658Y0136404D01*
X0184516Y0140262D01*
X0185295Y0140262D01*
X0185374Y0140341D01*
X0193257Y0140341D01*
X0193335Y0140262D01*
X0193895Y0140262D01*
X0194516Y0140262D01*
X0198375Y0136404D01*
X0210579Y0136404D01*
X0214516Y0140341D01*
X0215216Y0140341D01*
X0215295Y0140262D01*
X0215374Y0150184D02*
X0220028Y0150184D01*
X0215374Y0150184D02*
X0215295Y0150262D01*
X0222489Y0155262D02*
X0224182Y0156955D01*
X0227095Y0156955D01*
X0193895Y0150262D02*
X0193816Y0150184D01*
X0189615Y0150184D01*
X0185374Y0150184D01*
X0185295Y0150262D01*
X0163895Y0150262D02*
X0163816Y0150184D01*
X0159005Y0150184D01*
X0222489Y0175262D02*
X0224182Y0173570D01*
X0227095Y0173570D01*
D38*
X0125540Y0150577D02*
X0125540Y0148215D01*
X0123178Y0148215D01*
X0125540Y0145066D02*
X0125540Y0143097D01*
D39*
X0052241Y0152664D02*
X0051847Y0152270D01*
X0042595Y0152270D01*
X0042595Y0160538D01*
X0042595Y0169987D02*
X0042595Y0178255D01*
X0050636Y0178255D01*
X0042595Y0178255D02*
X0042398Y0178255D01*
D40*
X0100737Y0176955D02*
X0101918Y0175774D01*
X0115698Y0175381D02*
X0117272Y0176955D01*
X0118847Y0173806D02*
X0120422Y0175381D01*
X0228768Y0163589D02*
X0229497Y0163589D01*
X0231052Y0165144D01*
D41*
X0140107Y0163570D02*
X0138532Y0163570D01*
X0137745Y0162782D01*
X0136957Y0161995D02*
X0140107Y0161995D01*
X0140107Y0160420D02*
X0138532Y0160420D01*
X0137745Y0161207D01*
X0136957Y0161995D02*
X0136170Y0161207D01*
X0136170Y0162782D02*
X0136957Y0163570D01*
X0136957Y0166719D01*
X0135383Y0166719D02*
X0135383Y0165144D01*
X0136170Y0164357D01*
X0137745Y0164357D02*
X0138532Y0165144D01*
X0138532Y0166719D01*
X0134595Y0164357D02*
X0133808Y0165144D01*
X0133808Y0166719D01*
X0130658Y0160420D02*
X0130658Y0158845D01*
X0129871Y0158058D01*
X0129871Y0156483D02*
X0130658Y0155696D01*
X0130658Y0152546D01*
X0137745Y0156483D02*
X0138178Y0156483D01*
X0138965Y0155696D01*
X0140107Y0155696D01*
X0140107Y0157270D02*
X0138532Y0157270D01*
X0137745Y0158058D01*
X0138532Y0158845D02*
X0140107Y0158845D01*
X0138532Y0158845D02*
X0137745Y0159633D01*
X0127509Y0161995D02*
X0125934Y0161995D01*
X0106642Y0176562D02*
X0106642Y0179711D01*
X0106642Y0176562D02*
X0105855Y0175774D01*
D42*
X0106642Y0173412D02*
X0106642Y0171837D01*
X0109792Y0174987D02*
X0111367Y0174987D01*
X0111367Y0176562D02*
X0108217Y0176562D01*
X0108217Y0178136D02*
X0108217Y0179711D01*
X0105068Y0179711D02*
X0105068Y0178136D01*
X0086564Y0165932D02*
X0084989Y0165932D01*
X0125934Y0163570D02*
X0127509Y0163570D01*
X0128296Y0162782D01*
X0129083Y0161995D02*
X0129083Y0160814D01*
X0128690Y0160420D01*
X0127942Y0160420D01*
X0127154Y0161207D01*
X0126721Y0161207D01*
X0127075Y0160420D02*
X0125934Y0160420D01*
X0127075Y0160420D02*
X0127863Y0159633D01*
X0128296Y0159633D01*
X0127509Y0158845D02*
X0127509Y0157270D01*
X0128296Y0158058D02*
X0129083Y0157270D01*
X0129083Y0154121D01*
X0128296Y0153333D01*
X0132233Y0152546D02*
X0132233Y0154121D01*
X0133020Y0154908D01*
X0133808Y0154121D02*
X0133808Y0152546D01*
X0135383Y0152546D02*
X0135383Y0155696D01*
X0134595Y0156483D01*
X0134595Y0154908D02*
X0133808Y0154121D01*
X0136170Y0156483D02*
X0136957Y0155696D01*
X0138099Y0155696D01*
X0138532Y0155262D01*
X0138532Y0154514D01*
X0138926Y0154121D01*
X0140107Y0154121D01*
X0128296Y0161207D02*
X0127509Y0161995D01*
X0129871Y0164357D02*
X0129083Y0165144D01*
X0129083Y0166719D01*
X0130658Y0167507D02*
X0130658Y0165144D01*
X0131446Y0164357D01*
X0132233Y0165144D02*
X0133020Y0164357D01*
X0132233Y0165144D02*
X0132233Y0166719D01*
D43*
X0092469Y0180105D02*
X0081052Y0180105D01*
X0064910Y0173806D02*
X0064910Y0190735D01*
X0068453Y0194278D01*
X0097981Y0194278D01*
X0097981Y0186404D01*
X0097981Y0194278D02*
X0108611Y0194278D01*
X0119595Y0205262D01*
X0064910Y0173806D02*
X0058217Y0173806D01*
X0055855Y0171444D01*
M02*
