G75*
%MOIN*%
%OFA0B0*%
%FSLAX25Y25*%
%IPPOS*%
%LPD*%
%AMOC8*
5,1,8,0,0,1.08239X$1,22.5*
%
%ADD10C,0.00000*%
%ADD11C,0.13843*%
%ADD12C,0.05937*%
%ADD13C,0.04000*%
%ADD14C,0.01600*%
%ADD15C,0.01551*%
%ADD16C,0.00945*%
D10*
X0044595Y0120262D02*
X0224595Y0120262D01*
X0219595Y0130262D02*
X0219597Y0130403D01*
X0219603Y0130544D01*
X0219613Y0130684D01*
X0219627Y0130824D01*
X0219645Y0130964D01*
X0219666Y0131103D01*
X0219692Y0131242D01*
X0219721Y0131380D01*
X0219755Y0131516D01*
X0219792Y0131652D01*
X0219833Y0131787D01*
X0219878Y0131921D01*
X0219927Y0132053D01*
X0219979Y0132184D01*
X0220035Y0132313D01*
X0220095Y0132440D01*
X0220158Y0132566D01*
X0220224Y0132690D01*
X0220295Y0132813D01*
X0220368Y0132933D01*
X0220445Y0133051D01*
X0220525Y0133167D01*
X0220609Y0133280D01*
X0220695Y0133391D01*
X0220785Y0133500D01*
X0220878Y0133606D01*
X0220973Y0133709D01*
X0221072Y0133810D01*
X0221173Y0133908D01*
X0221277Y0134003D01*
X0221384Y0134095D01*
X0221493Y0134184D01*
X0221605Y0134269D01*
X0221719Y0134352D01*
X0221835Y0134432D01*
X0221954Y0134508D01*
X0222075Y0134580D01*
X0222197Y0134650D01*
X0222322Y0134715D01*
X0222448Y0134778D01*
X0222576Y0134836D01*
X0222706Y0134891D01*
X0222837Y0134943D01*
X0222970Y0134990D01*
X0223104Y0135034D01*
X0223239Y0135075D01*
X0223375Y0135111D01*
X0223512Y0135143D01*
X0223650Y0135172D01*
X0223788Y0135197D01*
X0223928Y0135217D01*
X0224068Y0135234D01*
X0224208Y0135247D01*
X0224349Y0135256D01*
X0224489Y0135261D01*
X0224630Y0135262D01*
X0224771Y0135259D01*
X0224912Y0135252D01*
X0225052Y0135241D01*
X0225192Y0135226D01*
X0225332Y0135207D01*
X0225471Y0135185D01*
X0225609Y0135158D01*
X0225747Y0135128D01*
X0225883Y0135093D01*
X0226019Y0135055D01*
X0226153Y0135013D01*
X0226287Y0134967D01*
X0226419Y0134918D01*
X0226549Y0134864D01*
X0226678Y0134807D01*
X0226805Y0134747D01*
X0226931Y0134683D01*
X0227054Y0134615D01*
X0227176Y0134544D01*
X0227296Y0134470D01*
X0227413Y0134392D01*
X0227528Y0134311D01*
X0227641Y0134227D01*
X0227752Y0134140D01*
X0227860Y0134049D01*
X0227965Y0133956D01*
X0228068Y0133859D01*
X0228168Y0133760D01*
X0228265Y0133658D01*
X0228359Y0133553D01*
X0228450Y0133446D01*
X0228538Y0133336D01*
X0228623Y0133224D01*
X0228705Y0133109D01*
X0228784Y0132992D01*
X0228859Y0132873D01*
X0228931Y0132752D01*
X0228999Y0132629D01*
X0229064Y0132504D01*
X0229126Y0132377D01*
X0229183Y0132248D01*
X0229238Y0132118D01*
X0229288Y0131987D01*
X0229335Y0131854D01*
X0229378Y0131720D01*
X0229417Y0131584D01*
X0229452Y0131448D01*
X0229484Y0131311D01*
X0229511Y0131173D01*
X0229535Y0131034D01*
X0229555Y0130894D01*
X0229571Y0130754D01*
X0229583Y0130614D01*
X0229591Y0130473D01*
X0229595Y0130332D01*
X0229595Y0130192D01*
X0229591Y0130051D01*
X0229583Y0129910D01*
X0229571Y0129770D01*
X0229555Y0129630D01*
X0229535Y0129490D01*
X0229511Y0129351D01*
X0229484Y0129213D01*
X0229452Y0129076D01*
X0229417Y0128940D01*
X0229378Y0128804D01*
X0229335Y0128670D01*
X0229288Y0128537D01*
X0229238Y0128406D01*
X0229183Y0128276D01*
X0229126Y0128147D01*
X0229064Y0128020D01*
X0228999Y0127895D01*
X0228931Y0127772D01*
X0228859Y0127651D01*
X0228784Y0127532D01*
X0228705Y0127415D01*
X0228623Y0127300D01*
X0228538Y0127188D01*
X0228450Y0127078D01*
X0228359Y0126971D01*
X0228265Y0126866D01*
X0228168Y0126764D01*
X0228068Y0126665D01*
X0227965Y0126568D01*
X0227860Y0126475D01*
X0227752Y0126384D01*
X0227641Y0126297D01*
X0227528Y0126213D01*
X0227413Y0126132D01*
X0227296Y0126054D01*
X0227176Y0125980D01*
X0227054Y0125909D01*
X0226931Y0125841D01*
X0226805Y0125777D01*
X0226678Y0125717D01*
X0226549Y0125660D01*
X0226419Y0125606D01*
X0226287Y0125557D01*
X0226153Y0125511D01*
X0226019Y0125469D01*
X0225883Y0125431D01*
X0225747Y0125396D01*
X0225609Y0125366D01*
X0225471Y0125339D01*
X0225332Y0125317D01*
X0225192Y0125298D01*
X0225052Y0125283D01*
X0224912Y0125272D01*
X0224771Y0125265D01*
X0224630Y0125262D01*
X0224489Y0125263D01*
X0224349Y0125268D01*
X0224208Y0125277D01*
X0224068Y0125290D01*
X0223928Y0125307D01*
X0223788Y0125327D01*
X0223650Y0125352D01*
X0223512Y0125381D01*
X0223375Y0125413D01*
X0223239Y0125449D01*
X0223104Y0125490D01*
X0222970Y0125534D01*
X0222837Y0125581D01*
X0222706Y0125633D01*
X0222576Y0125688D01*
X0222448Y0125746D01*
X0222322Y0125809D01*
X0222197Y0125874D01*
X0222075Y0125944D01*
X0221954Y0126016D01*
X0221835Y0126092D01*
X0221719Y0126172D01*
X0221605Y0126255D01*
X0221493Y0126340D01*
X0221384Y0126429D01*
X0221277Y0126521D01*
X0221173Y0126616D01*
X0221072Y0126714D01*
X0220973Y0126815D01*
X0220878Y0126918D01*
X0220785Y0127024D01*
X0220695Y0127133D01*
X0220609Y0127244D01*
X0220525Y0127357D01*
X0220445Y0127473D01*
X0220368Y0127591D01*
X0220295Y0127711D01*
X0220224Y0127834D01*
X0220158Y0127958D01*
X0220095Y0128084D01*
X0220035Y0128211D01*
X0219979Y0128340D01*
X0219927Y0128471D01*
X0219878Y0128603D01*
X0219833Y0128737D01*
X0219792Y0128872D01*
X0219755Y0129008D01*
X0219721Y0129144D01*
X0219692Y0129282D01*
X0219666Y0129421D01*
X0219645Y0129560D01*
X0219627Y0129700D01*
X0219613Y0129840D01*
X0219603Y0129980D01*
X0219597Y0130121D01*
X0219595Y0130262D01*
X0224595Y0120262D02*
X0224837Y0120265D01*
X0225078Y0120274D01*
X0225319Y0120288D01*
X0225560Y0120309D01*
X0225800Y0120335D01*
X0226040Y0120367D01*
X0226279Y0120405D01*
X0226516Y0120448D01*
X0226753Y0120498D01*
X0226988Y0120553D01*
X0227222Y0120613D01*
X0227454Y0120680D01*
X0227685Y0120751D01*
X0227914Y0120829D01*
X0228141Y0120912D01*
X0228366Y0121000D01*
X0228589Y0121094D01*
X0228809Y0121193D01*
X0229027Y0121298D01*
X0229242Y0121407D01*
X0229455Y0121522D01*
X0229665Y0121642D01*
X0229871Y0121767D01*
X0230075Y0121897D01*
X0230276Y0122032D01*
X0230473Y0122172D01*
X0230667Y0122316D01*
X0230857Y0122465D01*
X0231043Y0122619D01*
X0231226Y0122777D01*
X0231405Y0122939D01*
X0231580Y0123106D01*
X0231751Y0123277D01*
X0231918Y0123452D01*
X0232080Y0123631D01*
X0232238Y0123814D01*
X0232392Y0124000D01*
X0232541Y0124190D01*
X0232685Y0124384D01*
X0232825Y0124581D01*
X0232960Y0124782D01*
X0233090Y0124986D01*
X0233215Y0125192D01*
X0233335Y0125402D01*
X0233450Y0125615D01*
X0233559Y0125830D01*
X0233664Y0126048D01*
X0233763Y0126268D01*
X0233857Y0126491D01*
X0233945Y0126716D01*
X0234028Y0126943D01*
X0234106Y0127172D01*
X0234177Y0127403D01*
X0234244Y0127635D01*
X0234304Y0127869D01*
X0234359Y0128104D01*
X0234409Y0128341D01*
X0234452Y0128578D01*
X0234490Y0128817D01*
X0234522Y0129057D01*
X0234548Y0129297D01*
X0234569Y0129538D01*
X0234583Y0129779D01*
X0234592Y0130020D01*
X0234595Y0130262D01*
X0234595Y0200262D01*
X0219595Y0200262D02*
X0219597Y0200403D01*
X0219603Y0200544D01*
X0219613Y0200684D01*
X0219627Y0200824D01*
X0219645Y0200964D01*
X0219666Y0201103D01*
X0219692Y0201242D01*
X0219721Y0201380D01*
X0219755Y0201516D01*
X0219792Y0201652D01*
X0219833Y0201787D01*
X0219878Y0201921D01*
X0219927Y0202053D01*
X0219979Y0202184D01*
X0220035Y0202313D01*
X0220095Y0202440D01*
X0220158Y0202566D01*
X0220224Y0202690D01*
X0220295Y0202813D01*
X0220368Y0202933D01*
X0220445Y0203051D01*
X0220525Y0203167D01*
X0220609Y0203280D01*
X0220695Y0203391D01*
X0220785Y0203500D01*
X0220878Y0203606D01*
X0220973Y0203709D01*
X0221072Y0203810D01*
X0221173Y0203908D01*
X0221277Y0204003D01*
X0221384Y0204095D01*
X0221493Y0204184D01*
X0221605Y0204269D01*
X0221719Y0204352D01*
X0221835Y0204432D01*
X0221954Y0204508D01*
X0222075Y0204580D01*
X0222197Y0204650D01*
X0222322Y0204715D01*
X0222448Y0204778D01*
X0222576Y0204836D01*
X0222706Y0204891D01*
X0222837Y0204943D01*
X0222970Y0204990D01*
X0223104Y0205034D01*
X0223239Y0205075D01*
X0223375Y0205111D01*
X0223512Y0205143D01*
X0223650Y0205172D01*
X0223788Y0205197D01*
X0223928Y0205217D01*
X0224068Y0205234D01*
X0224208Y0205247D01*
X0224349Y0205256D01*
X0224489Y0205261D01*
X0224630Y0205262D01*
X0224771Y0205259D01*
X0224912Y0205252D01*
X0225052Y0205241D01*
X0225192Y0205226D01*
X0225332Y0205207D01*
X0225471Y0205185D01*
X0225609Y0205158D01*
X0225747Y0205128D01*
X0225883Y0205093D01*
X0226019Y0205055D01*
X0226153Y0205013D01*
X0226287Y0204967D01*
X0226419Y0204918D01*
X0226549Y0204864D01*
X0226678Y0204807D01*
X0226805Y0204747D01*
X0226931Y0204683D01*
X0227054Y0204615D01*
X0227176Y0204544D01*
X0227296Y0204470D01*
X0227413Y0204392D01*
X0227528Y0204311D01*
X0227641Y0204227D01*
X0227752Y0204140D01*
X0227860Y0204049D01*
X0227965Y0203956D01*
X0228068Y0203859D01*
X0228168Y0203760D01*
X0228265Y0203658D01*
X0228359Y0203553D01*
X0228450Y0203446D01*
X0228538Y0203336D01*
X0228623Y0203224D01*
X0228705Y0203109D01*
X0228784Y0202992D01*
X0228859Y0202873D01*
X0228931Y0202752D01*
X0228999Y0202629D01*
X0229064Y0202504D01*
X0229126Y0202377D01*
X0229183Y0202248D01*
X0229238Y0202118D01*
X0229288Y0201987D01*
X0229335Y0201854D01*
X0229378Y0201720D01*
X0229417Y0201584D01*
X0229452Y0201448D01*
X0229484Y0201311D01*
X0229511Y0201173D01*
X0229535Y0201034D01*
X0229555Y0200894D01*
X0229571Y0200754D01*
X0229583Y0200614D01*
X0229591Y0200473D01*
X0229595Y0200332D01*
X0229595Y0200192D01*
X0229591Y0200051D01*
X0229583Y0199910D01*
X0229571Y0199770D01*
X0229555Y0199630D01*
X0229535Y0199490D01*
X0229511Y0199351D01*
X0229484Y0199213D01*
X0229452Y0199076D01*
X0229417Y0198940D01*
X0229378Y0198804D01*
X0229335Y0198670D01*
X0229288Y0198537D01*
X0229238Y0198406D01*
X0229183Y0198276D01*
X0229126Y0198147D01*
X0229064Y0198020D01*
X0228999Y0197895D01*
X0228931Y0197772D01*
X0228859Y0197651D01*
X0228784Y0197532D01*
X0228705Y0197415D01*
X0228623Y0197300D01*
X0228538Y0197188D01*
X0228450Y0197078D01*
X0228359Y0196971D01*
X0228265Y0196866D01*
X0228168Y0196764D01*
X0228068Y0196665D01*
X0227965Y0196568D01*
X0227860Y0196475D01*
X0227752Y0196384D01*
X0227641Y0196297D01*
X0227528Y0196213D01*
X0227413Y0196132D01*
X0227296Y0196054D01*
X0227176Y0195980D01*
X0227054Y0195909D01*
X0226931Y0195841D01*
X0226805Y0195777D01*
X0226678Y0195717D01*
X0226549Y0195660D01*
X0226419Y0195606D01*
X0226287Y0195557D01*
X0226153Y0195511D01*
X0226019Y0195469D01*
X0225883Y0195431D01*
X0225747Y0195396D01*
X0225609Y0195366D01*
X0225471Y0195339D01*
X0225332Y0195317D01*
X0225192Y0195298D01*
X0225052Y0195283D01*
X0224912Y0195272D01*
X0224771Y0195265D01*
X0224630Y0195262D01*
X0224489Y0195263D01*
X0224349Y0195268D01*
X0224208Y0195277D01*
X0224068Y0195290D01*
X0223928Y0195307D01*
X0223788Y0195327D01*
X0223650Y0195352D01*
X0223512Y0195381D01*
X0223375Y0195413D01*
X0223239Y0195449D01*
X0223104Y0195490D01*
X0222970Y0195534D01*
X0222837Y0195581D01*
X0222706Y0195633D01*
X0222576Y0195688D01*
X0222448Y0195746D01*
X0222322Y0195809D01*
X0222197Y0195874D01*
X0222075Y0195944D01*
X0221954Y0196016D01*
X0221835Y0196092D01*
X0221719Y0196172D01*
X0221605Y0196255D01*
X0221493Y0196340D01*
X0221384Y0196429D01*
X0221277Y0196521D01*
X0221173Y0196616D01*
X0221072Y0196714D01*
X0220973Y0196815D01*
X0220878Y0196918D01*
X0220785Y0197024D01*
X0220695Y0197133D01*
X0220609Y0197244D01*
X0220525Y0197357D01*
X0220445Y0197473D01*
X0220368Y0197591D01*
X0220295Y0197711D01*
X0220224Y0197834D01*
X0220158Y0197958D01*
X0220095Y0198084D01*
X0220035Y0198211D01*
X0219979Y0198340D01*
X0219927Y0198471D01*
X0219878Y0198603D01*
X0219833Y0198737D01*
X0219792Y0198872D01*
X0219755Y0199008D01*
X0219721Y0199144D01*
X0219692Y0199282D01*
X0219666Y0199421D01*
X0219645Y0199560D01*
X0219627Y0199700D01*
X0219613Y0199840D01*
X0219603Y0199980D01*
X0219597Y0200121D01*
X0219595Y0200262D01*
X0224595Y0210262D02*
X0224837Y0210259D01*
X0225078Y0210250D01*
X0225319Y0210236D01*
X0225560Y0210215D01*
X0225800Y0210189D01*
X0226040Y0210157D01*
X0226279Y0210119D01*
X0226516Y0210076D01*
X0226753Y0210026D01*
X0226988Y0209971D01*
X0227222Y0209911D01*
X0227454Y0209844D01*
X0227685Y0209773D01*
X0227914Y0209695D01*
X0228141Y0209612D01*
X0228366Y0209524D01*
X0228589Y0209430D01*
X0228809Y0209331D01*
X0229027Y0209226D01*
X0229242Y0209117D01*
X0229455Y0209002D01*
X0229665Y0208882D01*
X0229871Y0208757D01*
X0230075Y0208627D01*
X0230276Y0208492D01*
X0230473Y0208352D01*
X0230667Y0208208D01*
X0230857Y0208059D01*
X0231043Y0207905D01*
X0231226Y0207747D01*
X0231405Y0207585D01*
X0231580Y0207418D01*
X0231751Y0207247D01*
X0231918Y0207072D01*
X0232080Y0206893D01*
X0232238Y0206710D01*
X0232392Y0206524D01*
X0232541Y0206334D01*
X0232685Y0206140D01*
X0232825Y0205943D01*
X0232960Y0205742D01*
X0233090Y0205538D01*
X0233215Y0205332D01*
X0233335Y0205122D01*
X0233450Y0204909D01*
X0233559Y0204694D01*
X0233664Y0204476D01*
X0233763Y0204256D01*
X0233857Y0204033D01*
X0233945Y0203808D01*
X0234028Y0203581D01*
X0234106Y0203352D01*
X0234177Y0203121D01*
X0234244Y0202889D01*
X0234304Y0202655D01*
X0234359Y0202420D01*
X0234409Y0202183D01*
X0234452Y0201946D01*
X0234490Y0201707D01*
X0234522Y0201467D01*
X0234548Y0201227D01*
X0234569Y0200986D01*
X0234583Y0200745D01*
X0234592Y0200504D01*
X0234595Y0200262D01*
X0224595Y0210262D02*
X0044595Y0210262D01*
X0044353Y0210259D01*
X0044112Y0210250D01*
X0043871Y0210236D01*
X0043630Y0210215D01*
X0043390Y0210189D01*
X0043150Y0210157D01*
X0042911Y0210119D01*
X0042674Y0210076D01*
X0042437Y0210026D01*
X0042202Y0209971D01*
X0041968Y0209911D01*
X0041736Y0209844D01*
X0041505Y0209773D01*
X0041276Y0209695D01*
X0041049Y0209612D01*
X0040824Y0209524D01*
X0040601Y0209430D01*
X0040381Y0209331D01*
X0040163Y0209226D01*
X0039948Y0209117D01*
X0039735Y0209002D01*
X0039525Y0208882D01*
X0039319Y0208757D01*
X0039115Y0208627D01*
X0038914Y0208492D01*
X0038717Y0208352D01*
X0038523Y0208208D01*
X0038333Y0208059D01*
X0038147Y0207905D01*
X0037964Y0207747D01*
X0037785Y0207585D01*
X0037610Y0207418D01*
X0037439Y0207247D01*
X0037272Y0207072D01*
X0037110Y0206893D01*
X0036952Y0206710D01*
X0036798Y0206524D01*
X0036649Y0206334D01*
X0036505Y0206140D01*
X0036365Y0205943D01*
X0036230Y0205742D01*
X0036100Y0205538D01*
X0035975Y0205332D01*
X0035855Y0205122D01*
X0035740Y0204909D01*
X0035631Y0204694D01*
X0035526Y0204476D01*
X0035427Y0204256D01*
X0035333Y0204033D01*
X0035245Y0203808D01*
X0035162Y0203581D01*
X0035084Y0203352D01*
X0035013Y0203121D01*
X0034946Y0202889D01*
X0034886Y0202655D01*
X0034831Y0202420D01*
X0034781Y0202183D01*
X0034738Y0201946D01*
X0034700Y0201707D01*
X0034668Y0201467D01*
X0034642Y0201227D01*
X0034621Y0200986D01*
X0034607Y0200745D01*
X0034598Y0200504D01*
X0034595Y0200262D01*
X0034595Y0175262D01*
X0036595Y0173262D01*
X0036595Y0157262D01*
X0034595Y0155262D01*
X0034595Y0130262D01*
X0034598Y0130020D01*
X0034607Y0129779D01*
X0034621Y0129538D01*
X0034642Y0129297D01*
X0034668Y0129057D01*
X0034700Y0128817D01*
X0034738Y0128578D01*
X0034781Y0128341D01*
X0034831Y0128104D01*
X0034886Y0127869D01*
X0034946Y0127635D01*
X0035013Y0127403D01*
X0035084Y0127172D01*
X0035162Y0126943D01*
X0035245Y0126716D01*
X0035333Y0126491D01*
X0035427Y0126268D01*
X0035526Y0126048D01*
X0035631Y0125830D01*
X0035740Y0125615D01*
X0035855Y0125402D01*
X0035975Y0125192D01*
X0036100Y0124986D01*
X0036230Y0124782D01*
X0036365Y0124581D01*
X0036505Y0124384D01*
X0036649Y0124190D01*
X0036798Y0124000D01*
X0036952Y0123814D01*
X0037110Y0123631D01*
X0037272Y0123452D01*
X0037439Y0123277D01*
X0037610Y0123106D01*
X0037785Y0122939D01*
X0037964Y0122777D01*
X0038147Y0122619D01*
X0038333Y0122465D01*
X0038523Y0122316D01*
X0038717Y0122172D01*
X0038914Y0122032D01*
X0039115Y0121897D01*
X0039319Y0121767D01*
X0039525Y0121642D01*
X0039735Y0121522D01*
X0039948Y0121407D01*
X0040163Y0121298D01*
X0040381Y0121193D01*
X0040601Y0121094D01*
X0040824Y0121000D01*
X0041049Y0120912D01*
X0041276Y0120829D01*
X0041505Y0120751D01*
X0041736Y0120680D01*
X0041968Y0120613D01*
X0042202Y0120553D01*
X0042437Y0120498D01*
X0042674Y0120448D01*
X0042911Y0120405D01*
X0043150Y0120367D01*
X0043390Y0120335D01*
X0043630Y0120309D01*
X0043871Y0120288D01*
X0044112Y0120274D01*
X0044353Y0120265D01*
X0044595Y0120262D01*
X0167845Y0140262D02*
X0167847Y0140345D01*
X0167853Y0140428D01*
X0167863Y0140511D01*
X0167877Y0140593D01*
X0167894Y0140675D01*
X0167916Y0140755D01*
X0167941Y0140834D01*
X0167970Y0140912D01*
X0168003Y0140989D01*
X0168040Y0141064D01*
X0168079Y0141137D01*
X0168123Y0141208D01*
X0168169Y0141277D01*
X0168219Y0141344D01*
X0168272Y0141408D01*
X0168328Y0141470D01*
X0168387Y0141529D01*
X0168449Y0141585D01*
X0168513Y0141638D01*
X0168580Y0141688D01*
X0168649Y0141734D01*
X0168720Y0141778D01*
X0168793Y0141817D01*
X0168868Y0141854D01*
X0168945Y0141887D01*
X0169023Y0141916D01*
X0169102Y0141941D01*
X0169182Y0141963D01*
X0169264Y0141980D01*
X0169346Y0141994D01*
X0169429Y0142004D01*
X0169512Y0142010D01*
X0169595Y0142012D01*
X0169678Y0142010D01*
X0169761Y0142004D01*
X0169844Y0141994D01*
X0169926Y0141980D01*
X0170008Y0141963D01*
X0170088Y0141941D01*
X0170167Y0141916D01*
X0170245Y0141887D01*
X0170322Y0141854D01*
X0170397Y0141817D01*
X0170470Y0141778D01*
X0170541Y0141734D01*
X0170610Y0141688D01*
X0170677Y0141638D01*
X0170741Y0141585D01*
X0170803Y0141529D01*
X0170862Y0141470D01*
X0170918Y0141408D01*
X0170971Y0141344D01*
X0171021Y0141277D01*
X0171067Y0141208D01*
X0171111Y0141137D01*
X0171150Y0141064D01*
X0171187Y0140989D01*
X0171220Y0140912D01*
X0171249Y0140834D01*
X0171274Y0140755D01*
X0171296Y0140675D01*
X0171313Y0140593D01*
X0171327Y0140511D01*
X0171337Y0140428D01*
X0171343Y0140345D01*
X0171345Y0140262D01*
X0171343Y0140179D01*
X0171337Y0140096D01*
X0171327Y0140013D01*
X0171313Y0139931D01*
X0171296Y0139849D01*
X0171274Y0139769D01*
X0171249Y0139690D01*
X0171220Y0139612D01*
X0171187Y0139535D01*
X0171150Y0139460D01*
X0171111Y0139387D01*
X0171067Y0139316D01*
X0171021Y0139247D01*
X0170971Y0139180D01*
X0170918Y0139116D01*
X0170862Y0139054D01*
X0170803Y0138995D01*
X0170741Y0138939D01*
X0170677Y0138886D01*
X0170610Y0138836D01*
X0170541Y0138790D01*
X0170470Y0138746D01*
X0170397Y0138707D01*
X0170322Y0138670D01*
X0170245Y0138637D01*
X0170167Y0138608D01*
X0170088Y0138583D01*
X0170008Y0138561D01*
X0169926Y0138544D01*
X0169844Y0138530D01*
X0169761Y0138520D01*
X0169678Y0138514D01*
X0169595Y0138512D01*
X0169512Y0138514D01*
X0169429Y0138520D01*
X0169346Y0138530D01*
X0169264Y0138544D01*
X0169182Y0138561D01*
X0169102Y0138583D01*
X0169023Y0138608D01*
X0168945Y0138637D01*
X0168868Y0138670D01*
X0168793Y0138707D01*
X0168720Y0138746D01*
X0168649Y0138790D01*
X0168580Y0138836D01*
X0168513Y0138886D01*
X0168449Y0138939D01*
X0168387Y0138995D01*
X0168328Y0139054D01*
X0168272Y0139116D01*
X0168219Y0139180D01*
X0168169Y0139247D01*
X0168123Y0139316D01*
X0168079Y0139387D01*
X0168040Y0139460D01*
X0168003Y0139535D01*
X0167970Y0139612D01*
X0167941Y0139690D01*
X0167916Y0139769D01*
X0167894Y0139849D01*
X0167877Y0139931D01*
X0167863Y0140013D01*
X0167853Y0140096D01*
X0167847Y0140179D01*
X0167845Y0140262D01*
X0177845Y0140262D02*
X0177847Y0140345D01*
X0177853Y0140428D01*
X0177863Y0140511D01*
X0177877Y0140593D01*
X0177894Y0140675D01*
X0177916Y0140755D01*
X0177941Y0140834D01*
X0177970Y0140912D01*
X0178003Y0140989D01*
X0178040Y0141064D01*
X0178079Y0141137D01*
X0178123Y0141208D01*
X0178169Y0141277D01*
X0178219Y0141344D01*
X0178272Y0141408D01*
X0178328Y0141470D01*
X0178387Y0141529D01*
X0178449Y0141585D01*
X0178513Y0141638D01*
X0178580Y0141688D01*
X0178649Y0141734D01*
X0178720Y0141778D01*
X0178793Y0141817D01*
X0178868Y0141854D01*
X0178945Y0141887D01*
X0179023Y0141916D01*
X0179102Y0141941D01*
X0179182Y0141963D01*
X0179264Y0141980D01*
X0179346Y0141994D01*
X0179429Y0142004D01*
X0179512Y0142010D01*
X0179595Y0142012D01*
X0179678Y0142010D01*
X0179761Y0142004D01*
X0179844Y0141994D01*
X0179926Y0141980D01*
X0180008Y0141963D01*
X0180088Y0141941D01*
X0180167Y0141916D01*
X0180245Y0141887D01*
X0180322Y0141854D01*
X0180397Y0141817D01*
X0180470Y0141778D01*
X0180541Y0141734D01*
X0180610Y0141688D01*
X0180677Y0141638D01*
X0180741Y0141585D01*
X0180803Y0141529D01*
X0180862Y0141470D01*
X0180918Y0141408D01*
X0180971Y0141344D01*
X0181021Y0141277D01*
X0181067Y0141208D01*
X0181111Y0141137D01*
X0181150Y0141064D01*
X0181187Y0140989D01*
X0181220Y0140912D01*
X0181249Y0140834D01*
X0181274Y0140755D01*
X0181296Y0140675D01*
X0181313Y0140593D01*
X0181327Y0140511D01*
X0181337Y0140428D01*
X0181343Y0140345D01*
X0181345Y0140262D01*
X0181343Y0140179D01*
X0181337Y0140096D01*
X0181327Y0140013D01*
X0181313Y0139931D01*
X0181296Y0139849D01*
X0181274Y0139769D01*
X0181249Y0139690D01*
X0181220Y0139612D01*
X0181187Y0139535D01*
X0181150Y0139460D01*
X0181111Y0139387D01*
X0181067Y0139316D01*
X0181021Y0139247D01*
X0180971Y0139180D01*
X0180918Y0139116D01*
X0180862Y0139054D01*
X0180803Y0138995D01*
X0180741Y0138939D01*
X0180677Y0138886D01*
X0180610Y0138836D01*
X0180541Y0138790D01*
X0180470Y0138746D01*
X0180397Y0138707D01*
X0180322Y0138670D01*
X0180245Y0138637D01*
X0180167Y0138608D01*
X0180088Y0138583D01*
X0180008Y0138561D01*
X0179926Y0138544D01*
X0179844Y0138530D01*
X0179761Y0138520D01*
X0179678Y0138514D01*
X0179595Y0138512D01*
X0179512Y0138514D01*
X0179429Y0138520D01*
X0179346Y0138530D01*
X0179264Y0138544D01*
X0179182Y0138561D01*
X0179102Y0138583D01*
X0179023Y0138608D01*
X0178945Y0138637D01*
X0178868Y0138670D01*
X0178793Y0138707D01*
X0178720Y0138746D01*
X0178649Y0138790D01*
X0178580Y0138836D01*
X0178513Y0138886D01*
X0178449Y0138939D01*
X0178387Y0138995D01*
X0178328Y0139054D01*
X0178272Y0139116D01*
X0178219Y0139180D01*
X0178169Y0139247D01*
X0178123Y0139316D01*
X0178079Y0139387D01*
X0178040Y0139460D01*
X0178003Y0139535D01*
X0177970Y0139612D01*
X0177941Y0139690D01*
X0177916Y0139769D01*
X0177894Y0139849D01*
X0177877Y0139931D01*
X0177863Y0140013D01*
X0177853Y0140096D01*
X0177847Y0140179D01*
X0177845Y0140262D01*
X0177845Y0150262D02*
X0177847Y0150345D01*
X0177853Y0150428D01*
X0177863Y0150511D01*
X0177877Y0150593D01*
X0177894Y0150675D01*
X0177916Y0150755D01*
X0177941Y0150834D01*
X0177970Y0150912D01*
X0178003Y0150989D01*
X0178040Y0151064D01*
X0178079Y0151137D01*
X0178123Y0151208D01*
X0178169Y0151277D01*
X0178219Y0151344D01*
X0178272Y0151408D01*
X0178328Y0151470D01*
X0178387Y0151529D01*
X0178449Y0151585D01*
X0178513Y0151638D01*
X0178580Y0151688D01*
X0178649Y0151734D01*
X0178720Y0151778D01*
X0178793Y0151817D01*
X0178868Y0151854D01*
X0178945Y0151887D01*
X0179023Y0151916D01*
X0179102Y0151941D01*
X0179182Y0151963D01*
X0179264Y0151980D01*
X0179346Y0151994D01*
X0179429Y0152004D01*
X0179512Y0152010D01*
X0179595Y0152012D01*
X0179678Y0152010D01*
X0179761Y0152004D01*
X0179844Y0151994D01*
X0179926Y0151980D01*
X0180008Y0151963D01*
X0180088Y0151941D01*
X0180167Y0151916D01*
X0180245Y0151887D01*
X0180322Y0151854D01*
X0180397Y0151817D01*
X0180470Y0151778D01*
X0180541Y0151734D01*
X0180610Y0151688D01*
X0180677Y0151638D01*
X0180741Y0151585D01*
X0180803Y0151529D01*
X0180862Y0151470D01*
X0180918Y0151408D01*
X0180971Y0151344D01*
X0181021Y0151277D01*
X0181067Y0151208D01*
X0181111Y0151137D01*
X0181150Y0151064D01*
X0181187Y0150989D01*
X0181220Y0150912D01*
X0181249Y0150834D01*
X0181274Y0150755D01*
X0181296Y0150675D01*
X0181313Y0150593D01*
X0181327Y0150511D01*
X0181337Y0150428D01*
X0181343Y0150345D01*
X0181345Y0150262D01*
X0181343Y0150179D01*
X0181337Y0150096D01*
X0181327Y0150013D01*
X0181313Y0149931D01*
X0181296Y0149849D01*
X0181274Y0149769D01*
X0181249Y0149690D01*
X0181220Y0149612D01*
X0181187Y0149535D01*
X0181150Y0149460D01*
X0181111Y0149387D01*
X0181067Y0149316D01*
X0181021Y0149247D01*
X0180971Y0149180D01*
X0180918Y0149116D01*
X0180862Y0149054D01*
X0180803Y0148995D01*
X0180741Y0148939D01*
X0180677Y0148886D01*
X0180610Y0148836D01*
X0180541Y0148790D01*
X0180470Y0148746D01*
X0180397Y0148707D01*
X0180322Y0148670D01*
X0180245Y0148637D01*
X0180167Y0148608D01*
X0180088Y0148583D01*
X0180008Y0148561D01*
X0179926Y0148544D01*
X0179844Y0148530D01*
X0179761Y0148520D01*
X0179678Y0148514D01*
X0179595Y0148512D01*
X0179512Y0148514D01*
X0179429Y0148520D01*
X0179346Y0148530D01*
X0179264Y0148544D01*
X0179182Y0148561D01*
X0179102Y0148583D01*
X0179023Y0148608D01*
X0178945Y0148637D01*
X0178868Y0148670D01*
X0178793Y0148707D01*
X0178720Y0148746D01*
X0178649Y0148790D01*
X0178580Y0148836D01*
X0178513Y0148886D01*
X0178449Y0148939D01*
X0178387Y0148995D01*
X0178328Y0149054D01*
X0178272Y0149116D01*
X0178219Y0149180D01*
X0178169Y0149247D01*
X0178123Y0149316D01*
X0178079Y0149387D01*
X0178040Y0149460D01*
X0178003Y0149535D01*
X0177970Y0149612D01*
X0177941Y0149690D01*
X0177916Y0149769D01*
X0177894Y0149849D01*
X0177877Y0149931D01*
X0177863Y0150013D01*
X0177853Y0150096D01*
X0177847Y0150179D01*
X0177845Y0150262D01*
X0167845Y0150262D02*
X0167847Y0150345D01*
X0167853Y0150428D01*
X0167863Y0150511D01*
X0167877Y0150593D01*
X0167894Y0150675D01*
X0167916Y0150755D01*
X0167941Y0150834D01*
X0167970Y0150912D01*
X0168003Y0150989D01*
X0168040Y0151064D01*
X0168079Y0151137D01*
X0168123Y0151208D01*
X0168169Y0151277D01*
X0168219Y0151344D01*
X0168272Y0151408D01*
X0168328Y0151470D01*
X0168387Y0151529D01*
X0168449Y0151585D01*
X0168513Y0151638D01*
X0168580Y0151688D01*
X0168649Y0151734D01*
X0168720Y0151778D01*
X0168793Y0151817D01*
X0168868Y0151854D01*
X0168945Y0151887D01*
X0169023Y0151916D01*
X0169102Y0151941D01*
X0169182Y0151963D01*
X0169264Y0151980D01*
X0169346Y0151994D01*
X0169429Y0152004D01*
X0169512Y0152010D01*
X0169595Y0152012D01*
X0169678Y0152010D01*
X0169761Y0152004D01*
X0169844Y0151994D01*
X0169926Y0151980D01*
X0170008Y0151963D01*
X0170088Y0151941D01*
X0170167Y0151916D01*
X0170245Y0151887D01*
X0170322Y0151854D01*
X0170397Y0151817D01*
X0170470Y0151778D01*
X0170541Y0151734D01*
X0170610Y0151688D01*
X0170677Y0151638D01*
X0170741Y0151585D01*
X0170803Y0151529D01*
X0170862Y0151470D01*
X0170918Y0151408D01*
X0170971Y0151344D01*
X0171021Y0151277D01*
X0171067Y0151208D01*
X0171111Y0151137D01*
X0171150Y0151064D01*
X0171187Y0150989D01*
X0171220Y0150912D01*
X0171249Y0150834D01*
X0171274Y0150755D01*
X0171296Y0150675D01*
X0171313Y0150593D01*
X0171327Y0150511D01*
X0171337Y0150428D01*
X0171343Y0150345D01*
X0171345Y0150262D01*
X0171343Y0150179D01*
X0171337Y0150096D01*
X0171327Y0150013D01*
X0171313Y0149931D01*
X0171296Y0149849D01*
X0171274Y0149769D01*
X0171249Y0149690D01*
X0171220Y0149612D01*
X0171187Y0149535D01*
X0171150Y0149460D01*
X0171111Y0149387D01*
X0171067Y0149316D01*
X0171021Y0149247D01*
X0170971Y0149180D01*
X0170918Y0149116D01*
X0170862Y0149054D01*
X0170803Y0148995D01*
X0170741Y0148939D01*
X0170677Y0148886D01*
X0170610Y0148836D01*
X0170541Y0148790D01*
X0170470Y0148746D01*
X0170397Y0148707D01*
X0170322Y0148670D01*
X0170245Y0148637D01*
X0170167Y0148608D01*
X0170088Y0148583D01*
X0170008Y0148561D01*
X0169926Y0148544D01*
X0169844Y0148530D01*
X0169761Y0148520D01*
X0169678Y0148514D01*
X0169595Y0148512D01*
X0169512Y0148514D01*
X0169429Y0148520D01*
X0169346Y0148530D01*
X0169264Y0148544D01*
X0169182Y0148561D01*
X0169102Y0148583D01*
X0169023Y0148608D01*
X0168945Y0148637D01*
X0168868Y0148670D01*
X0168793Y0148707D01*
X0168720Y0148746D01*
X0168649Y0148790D01*
X0168580Y0148836D01*
X0168513Y0148886D01*
X0168449Y0148939D01*
X0168387Y0148995D01*
X0168328Y0149054D01*
X0168272Y0149116D01*
X0168219Y0149180D01*
X0168169Y0149247D01*
X0168123Y0149316D01*
X0168079Y0149387D01*
X0168040Y0149460D01*
X0168003Y0149535D01*
X0167970Y0149612D01*
X0167941Y0149690D01*
X0167916Y0149769D01*
X0167894Y0149849D01*
X0167877Y0149931D01*
X0167863Y0150013D01*
X0167853Y0150096D01*
X0167847Y0150179D01*
X0167845Y0150262D01*
X0167845Y0160262D02*
X0167847Y0160345D01*
X0167853Y0160428D01*
X0167863Y0160511D01*
X0167877Y0160593D01*
X0167894Y0160675D01*
X0167916Y0160755D01*
X0167941Y0160834D01*
X0167970Y0160912D01*
X0168003Y0160989D01*
X0168040Y0161064D01*
X0168079Y0161137D01*
X0168123Y0161208D01*
X0168169Y0161277D01*
X0168219Y0161344D01*
X0168272Y0161408D01*
X0168328Y0161470D01*
X0168387Y0161529D01*
X0168449Y0161585D01*
X0168513Y0161638D01*
X0168580Y0161688D01*
X0168649Y0161734D01*
X0168720Y0161778D01*
X0168793Y0161817D01*
X0168868Y0161854D01*
X0168945Y0161887D01*
X0169023Y0161916D01*
X0169102Y0161941D01*
X0169182Y0161963D01*
X0169264Y0161980D01*
X0169346Y0161994D01*
X0169429Y0162004D01*
X0169512Y0162010D01*
X0169595Y0162012D01*
X0169678Y0162010D01*
X0169761Y0162004D01*
X0169844Y0161994D01*
X0169926Y0161980D01*
X0170008Y0161963D01*
X0170088Y0161941D01*
X0170167Y0161916D01*
X0170245Y0161887D01*
X0170322Y0161854D01*
X0170397Y0161817D01*
X0170470Y0161778D01*
X0170541Y0161734D01*
X0170610Y0161688D01*
X0170677Y0161638D01*
X0170741Y0161585D01*
X0170803Y0161529D01*
X0170862Y0161470D01*
X0170918Y0161408D01*
X0170971Y0161344D01*
X0171021Y0161277D01*
X0171067Y0161208D01*
X0171111Y0161137D01*
X0171150Y0161064D01*
X0171187Y0160989D01*
X0171220Y0160912D01*
X0171249Y0160834D01*
X0171274Y0160755D01*
X0171296Y0160675D01*
X0171313Y0160593D01*
X0171327Y0160511D01*
X0171337Y0160428D01*
X0171343Y0160345D01*
X0171345Y0160262D01*
X0171343Y0160179D01*
X0171337Y0160096D01*
X0171327Y0160013D01*
X0171313Y0159931D01*
X0171296Y0159849D01*
X0171274Y0159769D01*
X0171249Y0159690D01*
X0171220Y0159612D01*
X0171187Y0159535D01*
X0171150Y0159460D01*
X0171111Y0159387D01*
X0171067Y0159316D01*
X0171021Y0159247D01*
X0170971Y0159180D01*
X0170918Y0159116D01*
X0170862Y0159054D01*
X0170803Y0158995D01*
X0170741Y0158939D01*
X0170677Y0158886D01*
X0170610Y0158836D01*
X0170541Y0158790D01*
X0170470Y0158746D01*
X0170397Y0158707D01*
X0170322Y0158670D01*
X0170245Y0158637D01*
X0170167Y0158608D01*
X0170088Y0158583D01*
X0170008Y0158561D01*
X0169926Y0158544D01*
X0169844Y0158530D01*
X0169761Y0158520D01*
X0169678Y0158514D01*
X0169595Y0158512D01*
X0169512Y0158514D01*
X0169429Y0158520D01*
X0169346Y0158530D01*
X0169264Y0158544D01*
X0169182Y0158561D01*
X0169102Y0158583D01*
X0169023Y0158608D01*
X0168945Y0158637D01*
X0168868Y0158670D01*
X0168793Y0158707D01*
X0168720Y0158746D01*
X0168649Y0158790D01*
X0168580Y0158836D01*
X0168513Y0158886D01*
X0168449Y0158939D01*
X0168387Y0158995D01*
X0168328Y0159054D01*
X0168272Y0159116D01*
X0168219Y0159180D01*
X0168169Y0159247D01*
X0168123Y0159316D01*
X0168079Y0159387D01*
X0168040Y0159460D01*
X0168003Y0159535D01*
X0167970Y0159612D01*
X0167941Y0159690D01*
X0167916Y0159769D01*
X0167894Y0159849D01*
X0167877Y0159931D01*
X0167863Y0160013D01*
X0167853Y0160096D01*
X0167847Y0160179D01*
X0167845Y0160262D01*
X0177845Y0160262D02*
X0177847Y0160345D01*
X0177853Y0160428D01*
X0177863Y0160511D01*
X0177877Y0160593D01*
X0177894Y0160675D01*
X0177916Y0160755D01*
X0177941Y0160834D01*
X0177970Y0160912D01*
X0178003Y0160989D01*
X0178040Y0161064D01*
X0178079Y0161137D01*
X0178123Y0161208D01*
X0178169Y0161277D01*
X0178219Y0161344D01*
X0178272Y0161408D01*
X0178328Y0161470D01*
X0178387Y0161529D01*
X0178449Y0161585D01*
X0178513Y0161638D01*
X0178580Y0161688D01*
X0178649Y0161734D01*
X0178720Y0161778D01*
X0178793Y0161817D01*
X0178868Y0161854D01*
X0178945Y0161887D01*
X0179023Y0161916D01*
X0179102Y0161941D01*
X0179182Y0161963D01*
X0179264Y0161980D01*
X0179346Y0161994D01*
X0179429Y0162004D01*
X0179512Y0162010D01*
X0179595Y0162012D01*
X0179678Y0162010D01*
X0179761Y0162004D01*
X0179844Y0161994D01*
X0179926Y0161980D01*
X0180008Y0161963D01*
X0180088Y0161941D01*
X0180167Y0161916D01*
X0180245Y0161887D01*
X0180322Y0161854D01*
X0180397Y0161817D01*
X0180470Y0161778D01*
X0180541Y0161734D01*
X0180610Y0161688D01*
X0180677Y0161638D01*
X0180741Y0161585D01*
X0180803Y0161529D01*
X0180862Y0161470D01*
X0180918Y0161408D01*
X0180971Y0161344D01*
X0181021Y0161277D01*
X0181067Y0161208D01*
X0181111Y0161137D01*
X0181150Y0161064D01*
X0181187Y0160989D01*
X0181220Y0160912D01*
X0181249Y0160834D01*
X0181274Y0160755D01*
X0181296Y0160675D01*
X0181313Y0160593D01*
X0181327Y0160511D01*
X0181337Y0160428D01*
X0181343Y0160345D01*
X0181345Y0160262D01*
X0181343Y0160179D01*
X0181337Y0160096D01*
X0181327Y0160013D01*
X0181313Y0159931D01*
X0181296Y0159849D01*
X0181274Y0159769D01*
X0181249Y0159690D01*
X0181220Y0159612D01*
X0181187Y0159535D01*
X0181150Y0159460D01*
X0181111Y0159387D01*
X0181067Y0159316D01*
X0181021Y0159247D01*
X0180971Y0159180D01*
X0180918Y0159116D01*
X0180862Y0159054D01*
X0180803Y0158995D01*
X0180741Y0158939D01*
X0180677Y0158886D01*
X0180610Y0158836D01*
X0180541Y0158790D01*
X0180470Y0158746D01*
X0180397Y0158707D01*
X0180322Y0158670D01*
X0180245Y0158637D01*
X0180167Y0158608D01*
X0180088Y0158583D01*
X0180008Y0158561D01*
X0179926Y0158544D01*
X0179844Y0158530D01*
X0179761Y0158520D01*
X0179678Y0158514D01*
X0179595Y0158512D01*
X0179512Y0158514D01*
X0179429Y0158520D01*
X0179346Y0158530D01*
X0179264Y0158544D01*
X0179182Y0158561D01*
X0179102Y0158583D01*
X0179023Y0158608D01*
X0178945Y0158637D01*
X0178868Y0158670D01*
X0178793Y0158707D01*
X0178720Y0158746D01*
X0178649Y0158790D01*
X0178580Y0158836D01*
X0178513Y0158886D01*
X0178449Y0158939D01*
X0178387Y0158995D01*
X0178328Y0159054D01*
X0178272Y0159116D01*
X0178219Y0159180D01*
X0178169Y0159247D01*
X0178123Y0159316D01*
X0178079Y0159387D01*
X0178040Y0159460D01*
X0178003Y0159535D01*
X0177970Y0159612D01*
X0177941Y0159690D01*
X0177916Y0159769D01*
X0177894Y0159849D01*
X0177877Y0159931D01*
X0177863Y0160013D01*
X0177853Y0160096D01*
X0177847Y0160179D01*
X0177845Y0160262D01*
X0177845Y0170262D02*
X0177847Y0170345D01*
X0177853Y0170428D01*
X0177863Y0170511D01*
X0177877Y0170593D01*
X0177894Y0170675D01*
X0177916Y0170755D01*
X0177941Y0170834D01*
X0177970Y0170912D01*
X0178003Y0170989D01*
X0178040Y0171064D01*
X0178079Y0171137D01*
X0178123Y0171208D01*
X0178169Y0171277D01*
X0178219Y0171344D01*
X0178272Y0171408D01*
X0178328Y0171470D01*
X0178387Y0171529D01*
X0178449Y0171585D01*
X0178513Y0171638D01*
X0178580Y0171688D01*
X0178649Y0171734D01*
X0178720Y0171778D01*
X0178793Y0171817D01*
X0178868Y0171854D01*
X0178945Y0171887D01*
X0179023Y0171916D01*
X0179102Y0171941D01*
X0179182Y0171963D01*
X0179264Y0171980D01*
X0179346Y0171994D01*
X0179429Y0172004D01*
X0179512Y0172010D01*
X0179595Y0172012D01*
X0179678Y0172010D01*
X0179761Y0172004D01*
X0179844Y0171994D01*
X0179926Y0171980D01*
X0180008Y0171963D01*
X0180088Y0171941D01*
X0180167Y0171916D01*
X0180245Y0171887D01*
X0180322Y0171854D01*
X0180397Y0171817D01*
X0180470Y0171778D01*
X0180541Y0171734D01*
X0180610Y0171688D01*
X0180677Y0171638D01*
X0180741Y0171585D01*
X0180803Y0171529D01*
X0180862Y0171470D01*
X0180918Y0171408D01*
X0180971Y0171344D01*
X0181021Y0171277D01*
X0181067Y0171208D01*
X0181111Y0171137D01*
X0181150Y0171064D01*
X0181187Y0170989D01*
X0181220Y0170912D01*
X0181249Y0170834D01*
X0181274Y0170755D01*
X0181296Y0170675D01*
X0181313Y0170593D01*
X0181327Y0170511D01*
X0181337Y0170428D01*
X0181343Y0170345D01*
X0181345Y0170262D01*
X0181343Y0170179D01*
X0181337Y0170096D01*
X0181327Y0170013D01*
X0181313Y0169931D01*
X0181296Y0169849D01*
X0181274Y0169769D01*
X0181249Y0169690D01*
X0181220Y0169612D01*
X0181187Y0169535D01*
X0181150Y0169460D01*
X0181111Y0169387D01*
X0181067Y0169316D01*
X0181021Y0169247D01*
X0180971Y0169180D01*
X0180918Y0169116D01*
X0180862Y0169054D01*
X0180803Y0168995D01*
X0180741Y0168939D01*
X0180677Y0168886D01*
X0180610Y0168836D01*
X0180541Y0168790D01*
X0180470Y0168746D01*
X0180397Y0168707D01*
X0180322Y0168670D01*
X0180245Y0168637D01*
X0180167Y0168608D01*
X0180088Y0168583D01*
X0180008Y0168561D01*
X0179926Y0168544D01*
X0179844Y0168530D01*
X0179761Y0168520D01*
X0179678Y0168514D01*
X0179595Y0168512D01*
X0179512Y0168514D01*
X0179429Y0168520D01*
X0179346Y0168530D01*
X0179264Y0168544D01*
X0179182Y0168561D01*
X0179102Y0168583D01*
X0179023Y0168608D01*
X0178945Y0168637D01*
X0178868Y0168670D01*
X0178793Y0168707D01*
X0178720Y0168746D01*
X0178649Y0168790D01*
X0178580Y0168836D01*
X0178513Y0168886D01*
X0178449Y0168939D01*
X0178387Y0168995D01*
X0178328Y0169054D01*
X0178272Y0169116D01*
X0178219Y0169180D01*
X0178169Y0169247D01*
X0178123Y0169316D01*
X0178079Y0169387D01*
X0178040Y0169460D01*
X0178003Y0169535D01*
X0177970Y0169612D01*
X0177941Y0169690D01*
X0177916Y0169769D01*
X0177894Y0169849D01*
X0177877Y0169931D01*
X0177863Y0170013D01*
X0177853Y0170096D01*
X0177847Y0170179D01*
X0177845Y0170262D01*
X0167845Y0170262D02*
X0167847Y0170345D01*
X0167853Y0170428D01*
X0167863Y0170511D01*
X0167877Y0170593D01*
X0167894Y0170675D01*
X0167916Y0170755D01*
X0167941Y0170834D01*
X0167970Y0170912D01*
X0168003Y0170989D01*
X0168040Y0171064D01*
X0168079Y0171137D01*
X0168123Y0171208D01*
X0168169Y0171277D01*
X0168219Y0171344D01*
X0168272Y0171408D01*
X0168328Y0171470D01*
X0168387Y0171529D01*
X0168449Y0171585D01*
X0168513Y0171638D01*
X0168580Y0171688D01*
X0168649Y0171734D01*
X0168720Y0171778D01*
X0168793Y0171817D01*
X0168868Y0171854D01*
X0168945Y0171887D01*
X0169023Y0171916D01*
X0169102Y0171941D01*
X0169182Y0171963D01*
X0169264Y0171980D01*
X0169346Y0171994D01*
X0169429Y0172004D01*
X0169512Y0172010D01*
X0169595Y0172012D01*
X0169678Y0172010D01*
X0169761Y0172004D01*
X0169844Y0171994D01*
X0169926Y0171980D01*
X0170008Y0171963D01*
X0170088Y0171941D01*
X0170167Y0171916D01*
X0170245Y0171887D01*
X0170322Y0171854D01*
X0170397Y0171817D01*
X0170470Y0171778D01*
X0170541Y0171734D01*
X0170610Y0171688D01*
X0170677Y0171638D01*
X0170741Y0171585D01*
X0170803Y0171529D01*
X0170862Y0171470D01*
X0170918Y0171408D01*
X0170971Y0171344D01*
X0171021Y0171277D01*
X0171067Y0171208D01*
X0171111Y0171137D01*
X0171150Y0171064D01*
X0171187Y0170989D01*
X0171220Y0170912D01*
X0171249Y0170834D01*
X0171274Y0170755D01*
X0171296Y0170675D01*
X0171313Y0170593D01*
X0171327Y0170511D01*
X0171337Y0170428D01*
X0171343Y0170345D01*
X0171345Y0170262D01*
X0171343Y0170179D01*
X0171337Y0170096D01*
X0171327Y0170013D01*
X0171313Y0169931D01*
X0171296Y0169849D01*
X0171274Y0169769D01*
X0171249Y0169690D01*
X0171220Y0169612D01*
X0171187Y0169535D01*
X0171150Y0169460D01*
X0171111Y0169387D01*
X0171067Y0169316D01*
X0171021Y0169247D01*
X0170971Y0169180D01*
X0170918Y0169116D01*
X0170862Y0169054D01*
X0170803Y0168995D01*
X0170741Y0168939D01*
X0170677Y0168886D01*
X0170610Y0168836D01*
X0170541Y0168790D01*
X0170470Y0168746D01*
X0170397Y0168707D01*
X0170322Y0168670D01*
X0170245Y0168637D01*
X0170167Y0168608D01*
X0170088Y0168583D01*
X0170008Y0168561D01*
X0169926Y0168544D01*
X0169844Y0168530D01*
X0169761Y0168520D01*
X0169678Y0168514D01*
X0169595Y0168512D01*
X0169512Y0168514D01*
X0169429Y0168520D01*
X0169346Y0168530D01*
X0169264Y0168544D01*
X0169182Y0168561D01*
X0169102Y0168583D01*
X0169023Y0168608D01*
X0168945Y0168637D01*
X0168868Y0168670D01*
X0168793Y0168707D01*
X0168720Y0168746D01*
X0168649Y0168790D01*
X0168580Y0168836D01*
X0168513Y0168886D01*
X0168449Y0168939D01*
X0168387Y0168995D01*
X0168328Y0169054D01*
X0168272Y0169116D01*
X0168219Y0169180D01*
X0168169Y0169247D01*
X0168123Y0169316D01*
X0168079Y0169387D01*
X0168040Y0169460D01*
X0168003Y0169535D01*
X0167970Y0169612D01*
X0167941Y0169690D01*
X0167916Y0169769D01*
X0167894Y0169849D01*
X0167877Y0169931D01*
X0167863Y0170013D01*
X0167853Y0170096D01*
X0167847Y0170179D01*
X0167845Y0170262D01*
X0167845Y0180262D02*
X0167847Y0180345D01*
X0167853Y0180428D01*
X0167863Y0180511D01*
X0167877Y0180593D01*
X0167894Y0180675D01*
X0167916Y0180755D01*
X0167941Y0180834D01*
X0167970Y0180912D01*
X0168003Y0180989D01*
X0168040Y0181064D01*
X0168079Y0181137D01*
X0168123Y0181208D01*
X0168169Y0181277D01*
X0168219Y0181344D01*
X0168272Y0181408D01*
X0168328Y0181470D01*
X0168387Y0181529D01*
X0168449Y0181585D01*
X0168513Y0181638D01*
X0168580Y0181688D01*
X0168649Y0181734D01*
X0168720Y0181778D01*
X0168793Y0181817D01*
X0168868Y0181854D01*
X0168945Y0181887D01*
X0169023Y0181916D01*
X0169102Y0181941D01*
X0169182Y0181963D01*
X0169264Y0181980D01*
X0169346Y0181994D01*
X0169429Y0182004D01*
X0169512Y0182010D01*
X0169595Y0182012D01*
X0169678Y0182010D01*
X0169761Y0182004D01*
X0169844Y0181994D01*
X0169926Y0181980D01*
X0170008Y0181963D01*
X0170088Y0181941D01*
X0170167Y0181916D01*
X0170245Y0181887D01*
X0170322Y0181854D01*
X0170397Y0181817D01*
X0170470Y0181778D01*
X0170541Y0181734D01*
X0170610Y0181688D01*
X0170677Y0181638D01*
X0170741Y0181585D01*
X0170803Y0181529D01*
X0170862Y0181470D01*
X0170918Y0181408D01*
X0170971Y0181344D01*
X0171021Y0181277D01*
X0171067Y0181208D01*
X0171111Y0181137D01*
X0171150Y0181064D01*
X0171187Y0180989D01*
X0171220Y0180912D01*
X0171249Y0180834D01*
X0171274Y0180755D01*
X0171296Y0180675D01*
X0171313Y0180593D01*
X0171327Y0180511D01*
X0171337Y0180428D01*
X0171343Y0180345D01*
X0171345Y0180262D01*
X0171343Y0180179D01*
X0171337Y0180096D01*
X0171327Y0180013D01*
X0171313Y0179931D01*
X0171296Y0179849D01*
X0171274Y0179769D01*
X0171249Y0179690D01*
X0171220Y0179612D01*
X0171187Y0179535D01*
X0171150Y0179460D01*
X0171111Y0179387D01*
X0171067Y0179316D01*
X0171021Y0179247D01*
X0170971Y0179180D01*
X0170918Y0179116D01*
X0170862Y0179054D01*
X0170803Y0178995D01*
X0170741Y0178939D01*
X0170677Y0178886D01*
X0170610Y0178836D01*
X0170541Y0178790D01*
X0170470Y0178746D01*
X0170397Y0178707D01*
X0170322Y0178670D01*
X0170245Y0178637D01*
X0170167Y0178608D01*
X0170088Y0178583D01*
X0170008Y0178561D01*
X0169926Y0178544D01*
X0169844Y0178530D01*
X0169761Y0178520D01*
X0169678Y0178514D01*
X0169595Y0178512D01*
X0169512Y0178514D01*
X0169429Y0178520D01*
X0169346Y0178530D01*
X0169264Y0178544D01*
X0169182Y0178561D01*
X0169102Y0178583D01*
X0169023Y0178608D01*
X0168945Y0178637D01*
X0168868Y0178670D01*
X0168793Y0178707D01*
X0168720Y0178746D01*
X0168649Y0178790D01*
X0168580Y0178836D01*
X0168513Y0178886D01*
X0168449Y0178939D01*
X0168387Y0178995D01*
X0168328Y0179054D01*
X0168272Y0179116D01*
X0168219Y0179180D01*
X0168169Y0179247D01*
X0168123Y0179316D01*
X0168079Y0179387D01*
X0168040Y0179460D01*
X0168003Y0179535D01*
X0167970Y0179612D01*
X0167941Y0179690D01*
X0167916Y0179769D01*
X0167894Y0179849D01*
X0167877Y0179931D01*
X0167863Y0180013D01*
X0167853Y0180096D01*
X0167847Y0180179D01*
X0167845Y0180262D01*
X0177845Y0180262D02*
X0177847Y0180345D01*
X0177853Y0180428D01*
X0177863Y0180511D01*
X0177877Y0180593D01*
X0177894Y0180675D01*
X0177916Y0180755D01*
X0177941Y0180834D01*
X0177970Y0180912D01*
X0178003Y0180989D01*
X0178040Y0181064D01*
X0178079Y0181137D01*
X0178123Y0181208D01*
X0178169Y0181277D01*
X0178219Y0181344D01*
X0178272Y0181408D01*
X0178328Y0181470D01*
X0178387Y0181529D01*
X0178449Y0181585D01*
X0178513Y0181638D01*
X0178580Y0181688D01*
X0178649Y0181734D01*
X0178720Y0181778D01*
X0178793Y0181817D01*
X0178868Y0181854D01*
X0178945Y0181887D01*
X0179023Y0181916D01*
X0179102Y0181941D01*
X0179182Y0181963D01*
X0179264Y0181980D01*
X0179346Y0181994D01*
X0179429Y0182004D01*
X0179512Y0182010D01*
X0179595Y0182012D01*
X0179678Y0182010D01*
X0179761Y0182004D01*
X0179844Y0181994D01*
X0179926Y0181980D01*
X0180008Y0181963D01*
X0180088Y0181941D01*
X0180167Y0181916D01*
X0180245Y0181887D01*
X0180322Y0181854D01*
X0180397Y0181817D01*
X0180470Y0181778D01*
X0180541Y0181734D01*
X0180610Y0181688D01*
X0180677Y0181638D01*
X0180741Y0181585D01*
X0180803Y0181529D01*
X0180862Y0181470D01*
X0180918Y0181408D01*
X0180971Y0181344D01*
X0181021Y0181277D01*
X0181067Y0181208D01*
X0181111Y0181137D01*
X0181150Y0181064D01*
X0181187Y0180989D01*
X0181220Y0180912D01*
X0181249Y0180834D01*
X0181274Y0180755D01*
X0181296Y0180675D01*
X0181313Y0180593D01*
X0181327Y0180511D01*
X0181337Y0180428D01*
X0181343Y0180345D01*
X0181345Y0180262D01*
X0181343Y0180179D01*
X0181337Y0180096D01*
X0181327Y0180013D01*
X0181313Y0179931D01*
X0181296Y0179849D01*
X0181274Y0179769D01*
X0181249Y0179690D01*
X0181220Y0179612D01*
X0181187Y0179535D01*
X0181150Y0179460D01*
X0181111Y0179387D01*
X0181067Y0179316D01*
X0181021Y0179247D01*
X0180971Y0179180D01*
X0180918Y0179116D01*
X0180862Y0179054D01*
X0180803Y0178995D01*
X0180741Y0178939D01*
X0180677Y0178886D01*
X0180610Y0178836D01*
X0180541Y0178790D01*
X0180470Y0178746D01*
X0180397Y0178707D01*
X0180322Y0178670D01*
X0180245Y0178637D01*
X0180167Y0178608D01*
X0180088Y0178583D01*
X0180008Y0178561D01*
X0179926Y0178544D01*
X0179844Y0178530D01*
X0179761Y0178520D01*
X0179678Y0178514D01*
X0179595Y0178512D01*
X0179512Y0178514D01*
X0179429Y0178520D01*
X0179346Y0178530D01*
X0179264Y0178544D01*
X0179182Y0178561D01*
X0179102Y0178583D01*
X0179023Y0178608D01*
X0178945Y0178637D01*
X0178868Y0178670D01*
X0178793Y0178707D01*
X0178720Y0178746D01*
X0178649Y0178790D01*
X0178580Y0178836D01*
X0178513Y0178886D01*
X0178449Y0178939D01*
X0178387Y0178995D01*
X0178328Y0179054D01*
X0178272Y0179116D01*
X0178219Y0179180D01*
X0178169Y0179247D01*
X0178123Y0179316D01*
X0178079Y0179387D01*
X0178040Y0179460D01*
X0178003Y0179535D01*
X0177970Y0179612D01*
X0177941Y0179690D01*
X0177916Y0179769D01*
X0177894Y0179849D01*
X0177877Y0179931D01*
X0177863Y0180013D01*
X0177853Y0180096D01*
X0177847Y0180179D01*
X0177845Y0180262D01*
X0177845Y0190262D02*
X0177847Y0190345D01*
X0177853Y0190428D01*
X0177863Y0190511D01*
X0177877Y0190593D01*
X0177894Y0190675D01*
X0177916Y0190755D01*
X0177941Y0190834D01*
X0177970Y0190912D01*
X0178003Y0190989D01*
X0178040Y0191064D01*
X0178079Y0191137D01*
X0178123Y0191208D01*
X0178169Y0191277D01*
X0178219Y0191344D01*
X0178272Y0191408D01*
X0178328Y0191470D01*
X0178387Y0191529D01*
X0178449Y0191585D01*
X0178513Y0191638D01*
X0178580Y0191688D01*
X0178649Y0191734D01*
X0178720Y0191778D01*
X0178793Y0191817D01*
X0178868Y0191854D01*
X0178945Y0191887D01*
X0179023Y0191916D01*
X0179102Y0191941D01*
X0179182Y0191963D01*
X0179264Y0191980D01*
X0179346Y0191994D01*
X0179429Y0192004D01*
X0179512Y0192010D01*
X0179595Y0192012D01*
X0179678Y0192010D01*
X0179761Y0192004D01*
X0179844Y0191994D01*
X0179926Y0191980D01*
X0180008Y0191963D01*
X0180088Y0191941D01*
X0180167Y0191916D01*
X0180245Y0191887D01*
X0180322Y0191854D01*
X0180397Y0191817D01*
X0180470Y0191778D01*
X0180541Y0191734D01*
X0180610Y0191688D01*
X0180677Y0191638D01*
X0180741Y0191585D01*
X0180803Y0191529D01*
X0180862Y0191470D01*
X0180918Y0191408D01*
X0180971Y0191344D01*
X0181021Y0191277D01*
X0181067Y0191208D01*
X0181111Y0191137D01*
X0181150Y0191064D01*
X0181187Y0190989D01*
X0181220Y0190912D01*
X0181249Y0190834D01*
X0181274Y0190755D01*
X0181296Y0190675D01*
X0181313Y0190593D01*
X0181327Y0190511D01*
X0181337Y0190428D01*
X0181343Y0190345D01*
X0181345Y0190262D01*
X0181343Y0190179D01*
X0181337Y0190096D01*
X0181327Y0190013D01*
X0181313Y0189931D01*
X0181296Y0189849D01*
X0181274Y0189769D01*
X0181249Y0189690D01*
X0181220Y0189612D01*
X0181187Y0189535D01*
X0181150Y0189460D01*
X0181111Y0189387D01*
X0181067Y0189316D01*
X0181021Y0189247D01*
X0180971Y0189180D01*
X0180918Y0189116D01*
X0180862Y0189054D01*
X0180803Y0188995D01*
X0180741Y0188939D01*
X0180677Y0188886D01*
X0180610Y0188836D01*
X0180541Y0188790D01*
X0180470Y0188746D01*
X0180397Y0188707D01*
X0180322Y0188670D01*
X0180245Y0188637D01*
X0180167Y0188608D01*
X0180088Y0188583D01*
X0180008Y0188561D01*
X0179926Y0188544D01*
X0179844Y0188530D01*
X0179761Y0188520D01*
X0179678Y0188514D01*
X0179595Y0188512D01*
X0179512Y0188514D01*
X0179429Y0188520D01*
X0179346Y0188530D01*
X0179264Y0188544D01*
X0179182Y0188561D01*
X0179102Y0188583D01*
X0179023Y0188608D01*
X0178945Y0188637D01*
X0178868Y0188670D01*
X0178793Y0188707D01*
X0178720Y0188746D01*
X0178649Y0188790D01*
X0178580Y0188836D01*
X0178513Y0188886D01*
X0178449Y0188939D01*
X0178387Y0188995D01*
X0178328Y0189054D01*
X0178272Y0189116D01*
X0178219Y0189180D01*
X0178169Y0189247D01*
X0178123Y0189316D01*
X0178079Y0189387D01*
X0178040Y0189460D01*
X0178003Y0189535D01*
X0177970Y0189612D01*
X0177941Y0189690D01*
X0177916Y0189769D01*
X0177894Y0189849D01*
X0177877Y0189931D01*
X0177863Y0190013D01*
X0177853Y0190096D01*
X0177847Y0190179D01*
X0177845Y0190262D01*
X0167845Y0190262D02*
X0167847Y0190345D01*
X0167853Y0190428D01*
X0167863Y0190511D01*
X0167877Y0190593D01*
X0167894Y0190675D01*
X0167916Y0190755D01*
X0167941Y0190834D01*
X0167970Y0190912D01*
X0168003Y0190989D01*
X0168040Y0191064D01*
X0168079Y0191137D01*
X0168123Y0191208D01*
X0168169Y0191277D01*
X0168219Y0191344D01*
X0168272Y0191408D01*
X0168328Y0191470D01*
X0168387Y0191529D01*
X0168449Y0191585D01*
X0168513Y0191638D01*
X0168580Y0191688D01*
X0168649Y0191734D01*
X0168720Y0191778D01*
X0168793Y0191817D01*
X0168868Y0191854D01*
X0168945Y0191887D01*
X0169023Y0191916D01*
X0169102Y0191941D01*
X0169182Y0191963D01*
X0169264Y0191980D01*
X0169346Y0191994D01*
X0169429Y0192004D01*
X0169512Y0192010D01*
X0169595Y0192012D01*
X0169678Y0192010D01*
X0169761Y0192004D01*
X0169844Y0191994D01*
X0169926Y0191980D01*
X0170008Y0191963D01*
X0170088Y0191941D01*
X0170167Y0191916D01*
X0170245Y0191887D01*
X0170322Y0191854D01*
X0170397Y0191817D01*
X0170470Y0191778D01*
X0170541Y0191734D01*
X0170610Y0191688D01*
X0170677Y0191638D01*
X0170741Y0191585D01*
X0170803Y0191529D01*
X0170862Y0191470D01*
X0170918Y0191408D01*
X0170971Y0191344D01*
X0171021Y0191277D01*
X0171067Y0191208D01*
X0171111Y0191137D01*
X0171150Y0191064D01*
X0171187Y0190989D01*
X0171220Y0190912D01*
X0171249Y0190834D01*
X0171274Y0190755D01*
X0171296Y0190675D01*
X0171313Y0190593D01*
X0171327Y0190511D01*
X0171337Y0190428D01*
X0171343Y0190345D01*
X0171345Y0190262D01*
X0171343Y0190179D01*
X0171337Y0190096D01*
X0171327Y0190013D01*
X0171313Y0189931D01*
X0171296Y0189849D01*
X0171274Y0189769D01*
X0171249Y0189690D01*
X0171220Y0189612D01*
X0171187Y0189535D01*
X0171150Y0189460D01*
X0171111Y0189387D01*
X0171067Y0189316D01*
X0171021Y0189247D01*
X0170971Y0189180D01*
X0170918Y0189116D01*
X0170862Y0189054D01*
X0170803Y0188995D01*
X0170741Y0188939D01*
X0170677Y0188886D01*
X0170610Y0188836D01*
X0170541Y0188790D01*
X0170470Y0188746D01*
X0170397Y0188707D01*
X0170322Y0188670D01*
X0170245Y0188637D01*
X0170167Y0188608D01*
X0170088Y0188583D01*
X0170008Y0188561D01*
X0169926Y0188544D01*
X0169844Y0188530D01*
X0169761Y0188520D01*
X0169678Y0188514D01*
X0169595Y0188512D01*
X0169512Y0188514D01*
X0169429Y0188520D01*
X0169346Y0188530D01*
X0169264Y0188544D01*
X0169182Y0188561D01*
X0169102Y0188583D01*
X0169023Y0188608D01*
X0168945Y0188637D01*
X0168868Y0188670D01*
X0168793Y0188707D01*
X0168720Y0188746D01*
X0168649Y0188790D01*
X0168580Y0188836D01*
X0168513Y0188886D01*
X0168449Y0188939D01*
X0168387Y0188995D01*
X0168328Y0189054D01*
X0168272Y0189116D01*
X0168219Y0189180D01*
X0168169Y0189247D01*
X0168123Y0189316D01*
X0168079Y0189387D01*
X0168040Y0189460D01*
X0168003Y0189535D01*
X0167970Y0189612D01*
X0167941Y0189690D01*
X0167916Y0189769D01*
X0167894Y0189849D01*
X0167877Y0189931D01*
X0167863Y0190013D01*
X0167853Y0190096D01*
X0167847Y0190179D01*
X0167845Y0190262D01*
X0197845Y0190262D02*
X0197847Y0190345D01*
X0197853Y0190428D01*
X0197863Y0190511D01*
X0197877Y0190593D01*
X0197894Y0190675D01*
X0197916Y0190755D01*
X0197941Y0190834D01*
X0197970Y0190912D01*
X0198003Y0190989D01*
X0198040Y0191064D01*
X0198079Y0191137D01*
X0198123Y0191208D01*
X0198169Y0191277D01*
X0198219Y0191344D01*
X0198272Y0191408D01*
X0198328Y0191470D01*
X0198387Y0191529D01*
X0198449Y0191585D01*
X0198513Y0191638D01*
X0198580Y0191688D01*
X0198649Y0191734D01*
X0198720Y0191778D01*
X0198793Y0191817D01*
X0198868Y0191854D01*
X0198945Y0191887D01*
X0199023Y0191916D01*
X0199102Y0191941D01*
X0199182Y0191963D01*
X0199264Y0191980D01*
X0199346Y0191994D01*
X0199429Y0192004D01*
X0199512Y0192010D01*
X0199595Y0192012D01*
X0199678Y0192010D01*
X0199761Y0192004D01*
X0199844Y0191994D01*
X0199926Y0191980D01*
X0200008Y0191963D01*
X0200088Y0191941D01*
X0200167Y0191916D01*
X0200245Y0191887D01*
X0200322Y0191854D01*
X0200397Y0191817D01*
X0200470Y0191778D01*
X0200541Y0191734D01*
X0200610Y0191688D01*
X0200677Y0191638D01*
X0200741Y0191585D01*
X0200803Y0191529D01*
X0200862Y0191470D01*
X0200918Y0191408D01*
X0200971Y0191344D01*
X0201021Y0191277D01*
X0201067Y0191208D01*
X0201111Y0191137D01*
X0201150Y0191064D01*
X0201187Y0190989D01*
X0201220Y0190912D01*
X0201249Y0190834D01*
X0201274Y0190755D01*
X0201296Y0190675D01*
X0201313Y0190593D01*
X0201327Y0190511D01*
X0201337Y0190428D01*
X0201343Y0190345D01*
X0201345Y0190262D01*
X0201343Y0190179D01*
X0201337Y0190096D01*
X0201327Y0190013D01*
X0201313Y0189931D01*
X0201296Y0189849D01*
X0201274Y0189769D01*
X0201249Y0189690D01*
X0201220Y0189612D01*
X0201187Y0189535D01*
X0201150Y0189460D01*
X0201111Y0189387D01*
X0201067Y0189316D01*
X0201021Y0189247D01*
X0200971Y0189180D01*
X0200918Y0189116D01*
X0200862Y0189054D01*
X0200803Y0188995D01*
X0200741Y0188939D01*
X0200677Y0188886D01*
X0200610Y0188836D01*
X0200541Y0188790D01*
X0200470Y0188746D01*
X0200397Y0188707D01*
X0200322Y0188670D01*
X0200245Y0188637D01*
X0200167Y0188608D01*
X0200088Y0188583D01*
X0200008Y0188561D01*
X0199926Y0188544D01*
X0199844Y0188530D01*
X0199761Y0188520D01*
X0199678Y0188514D01*
X0199595Y0188512D01*
X0199512Y0188514D01*
X0199429Y0188520D01*
X0199346Y0188530D01*
X0199264Y0188544D01*
X0199182Y0188561D01*
X0199102Y0188583D01*
X0199023Y0188608D01*
X0198945Y0188637D01*
X0198868Y0188670D01*
X0198793Y0188707D01*
X0198720Y0188746D01*
X0198649Y0188790D01*
X0198580Y0188836D01*
X0198513Y0188886D01*
X0198449Y0188939D01*
X0198387Y0188995D01*
X0198328Y0189054D01*
X0198272Y0189116D01*
X0198219Y0189180D01*
X0198169Y0189247D01*
X0198123Y0189316D01*
X0198079Y0189387D01*
X0198040Y0189460D01*
X0198003Y0189535D01*
X0197970Y0189612D01*
X0197941Y0189690D01*
X0197916Y0189769D01*
X0197894Y0189849D01*
X0197877Y0189931D01*
X0197863Y0190013D01*
X0197853Y0190096D01*
X0197847Y0190179D01*
X0197845Y0190262D01*
X0197845Y0180262D02*
X0197847Y0180345D01*
X0197853Y0180428D01*
X0197863Y0180511D01*
X0197877Y0180593D01*
X0197894Y0180675D01*
X0197916Y0180755D01*
X0197941Y0180834D01*
X0197970Y0180912D01*
X0198003Y0180989D01*
X0198040Y0181064D01*
X0198079Y0181137D01*
X0198123Y0181208D01*
X0198169Y0181277D01*
X0198219Y0181344D01*
X0198272Y0181408D01*
X0198328Y0181470D01*
X0198387Y0181529D01*
X0198449Y0181585D01*
X0198513Y0181638D01*
X0198580Y0181688D01*
X0198649Y0181734D01*
X0198720Y0181778D01*
X0198793Y0181817D01*
X0198868Y0181854D01*
X0198945Y0181887D01*
X0199023Y0181916D01*
X0199102Y0181941D01*
X0199182Y0181963D01*
X0199264Y0181980D01*
X0199346Y0181994D01*
X0199429Y0182004D01*
X0199512Y0182010D01*
X0199595Y0182012D01*
X0199678Y0182010D01*
X0199761Y0182004D01*
X0199844Y0181994D01*
X0199926Y0181980D01*
X0200008Y0181963D01*
X0200088Y0181941D01*
X0200167Y0181916D01*
X0200245Y0181887D01*
X0200322Y0181854D01*
X0200397Y0181817D01*
X0200470Y0181778D01*
X0200541Y0181734D01*
X0200610Y0181688D01*
X0200677Y0181638D01*
X0200741Y0181585D01*
X0200803Y0181529D01*
X0200862Y0181470D01*
X0200918Y0181408D01*
X0200971Y0181344D01*
X0201021Y0181277D01*
X0201067Y0181208D01*
X0201111Y0181137D01*
X0201150Y0181064D01*
X0201187Y0180989D01*
X0201220Y0180912D01*
X0201249Y0180834D01*
X0201274Y0180755D01*
X0201296Y0180675D01*
X0201313Y0180593D01*
X0201327Y0180511D01*
X0201337Y0180428D01*
X0201343Y0180345D01*
X0201345Y0180262D01*
X0201343Y0180179D01*
X0201337Y0180096D01*
X0201327Y0180013D01*
X0201313Y0179931D01*
X0201296Y0179849D01*
X0201274Y0179769D01*
X0201249Y0179690D01*
X0201220Y0179612D01*
X0201187Y0179535D01*
X0201150Y0179460D01*
X0201111Y0179387D01*
X0201067Y0179316D01*
X0201021Y0179247D01*
X0200971Y0179180D01*
X0200918Y0179116D01*
X0200862Y0179054D01*
X0200803Y0178995D01*
X0200741Y0178939D01*
X0200677Y0178886D01*
X0200610Y0178836D01*
X0200541Y0178790D01*
X0200470Y0178746D01*
X0200397Y0178707D01*
X0200322Y0178670D01*
X0200245Y0178637D01*
X0200167Y0178608D01*
X0200088Y0178583D01*
X0200008Y0178561D01*
X0199926Y0178544D01*
X0199844Y0178530D01*
X0199761Y0178520D01*
X0199678Y0178514D01*
X0199595Y0178512D01*
X0199512Y0178514D01*
X0199429Y0178520D01*
X0199346Y0178530D01*
X0199264Y0178544D01*
X0199182Y0178561D01*
X0199102Y0178583D01*
X0199023Y0178608D01*
X0198945Y0178637D01*
X0198868Y0178670D01*
X0198793Y0178707D01*
X0198720Y0178746D01*
X0198649Y0178790D01*
X0198580Y0178836D01*
X0198513Y0178886D01*
X0198449Y0178939D01*
X0198387Y0178995D01*
X0198328Y0179054D01*
X0198272Y0179116D01*
X0198219Y0179180D01*
X0198169Y0179247D01*
X0198123Y0179316D01*
X0198079Y0179387D01*
X0198040Y0179460D01*
X0198003Y0179535D01*
X0197970Y0179612D01*
X0197941Y0179690D01*
X0197916Y0179769D01*
X0197894Y0179849D01*
X0197877Y0179931D01*
X0197863Y0180013D01*
X0197853Y0180096D01*
X0197847Y0180179D01*
X0197845Y0180262D01*
X0207845Y0180262D02*
X0207847Y0180345D01*
X0207853Y0180428D01*
X0207863Y0180511D01*
X0207877Y0180593D01*
X0207894Y0180675D01*
X0207916Y0180755D01*
X0207941Y0180834D01*
X0207970Y0180912D01*
X0208003Y0180989D01*
X0208040Y0181064D01*
X0208079Y0181137D01*
X0208123Y0181208D01*
X0208169Y0181277D01*
X0208219Y0181344D01*
X0208272Y0181408D01*
X0208328Y0181470D01*
X0208387Y0181529D01*
X0208449Y0181585D01*
X0208513Y0181638D01*
X0208580Y0181688D01*
X0208649Y0181734D01*
X0208720Y0181778D01*
X0208793Y0181817D01*
X0208868Y0181854D01*
X0208945Y0181887D01*
X0209023Y0181916D01*
X0209102Y0181941D01*
X0209182Y0181963D01*
X0209264Y0181980D01*
X0209346Y0181994D01*
X0209429Y0182004D01*
X0209512Y0182010D01*
X0209595Y0182012D01*
X0209678Y0182010D01*
X0209761Y0182004D01*
X0209844Y0181994D01*
X0209926Y0181980D01*
X0210008Y0181963D01*
X0210088Y0181941D01*
X0210167Y0181916D01*
X0210245Y0181887D01*
X0210322Y0181854D01*
X0210397Y0181817D01*
X0210470Y0181778D01*
X0210541Y0181734D01*
X0210610Y0181688D01*
X0210677Y0181638D01*
X0210741Y0181585D01*
X0210803Y0181529D01*
X0210862Y0181470D01*
X0210918Y0181408D01*
X0210971Y0181344D01*
X0211021Y0181277D01*
X0211067Y0181208D01*
X0211111Y0181137D01*
X0211150Y0181064D01*
X0211187Y0180989D01*
X0211220Y0180912D01*
X0211249Y0180834D01*
X0211274Y0180755D01*
X0211296Y0180675D01*
X0211313Y0180593D01*
X0211327Y0180511D01*
X0211337Y0180428D01*
X0211343Y0180345D01*
X0211345Y0180262D01*
X0211343Y0180179D01*
X0211337Y0180096D01*
X0211327Y0180013D01*
X0211313Y0179931D01*
X0211296Y0179849D01*
X0211274Y0179769D01*
X0211249Y0179690D01*
X0211220Y0179612D01*
X0211187Y0179535D01*
X0211150Y0179460D01*
X0211111Y0179387D01*
X0211067Y0179316D01*
X0211021Y0179247D01*
X0210971Y0179180D01*
X0210918Y0179116D01*
X0210862Y0179054D01*
X0210803Y0178995D01*
X0210741Y0178939D01*
X0210677Y0178886D01*
X0210610Y0178836D01*
X0210541Y0178790D01*
X0210470Y0178746D01*
X0210397Y0178707D01*
X0210322Y0178670D01*
X0210245Y0178637D01*
X0210167Y0178608D01*
X0210088Y0178583D01*
X0210008Y0178561D01*
X0209926Y0178544D01*
X0209844Y0178530D01*
X0209761Y0178520D01*
X0209678Y0178514D01*
X0209595Y0178512D01*
X0209512Y0178514D01*
X0209429Y0178520D01*
X0209346Y0178530D01*
X0209264Y0178544D01*
X0209182Y0178561D01*
X0209102Y0178583D01*
X0209023Y0178608D01*
X0208945Y0178637D01*
X0208868Y0178670D01*
X0208793Y0178707D01*
X0208720Y0178746D01*
X0208649Y0178790D01*
X0208580Y0178836D01*
X0208513Y0178886D01*
X0208449Y0178939D01*
X0208387Y0178995D01*
X0208328Y0179054D01*
X0208272Y0179116D01*
X0208219Y0179180D01*
X0208169Y0179247D01*
X0208123Y0179316D01*
X0208079Y0179387D01*
X0208040Y0179460D01*
X0208003Y0179535D01*
X0207970Y0179612D01*
X0207941Y0179690D01*
X0207916Y0179769D01*
X0207894Y0179849D01*
X0207877Y0179931D01*
X0207863Y0180013D01*
X0207853Y0180096D01*
X0207847Y0180179D01*
X0207845Y0180262D01*
X0207845Y0190262D02*
X0207847Y0190345D01*
X0207853Y0190428D01*
X0207863Y0190511D01*
X0207877Y0190593D01*
X0207894Y0190675D01*
X0207916Y0190755D01*
X0207941Y0190834D01*
X0207970Y0190912D01*
X0208003Y0190989D01*
X0208040Y0191064D01*
X0208079Y0191137D01*
X0208123Y0191208D01*
X0208169Y0191277D01*
X0208219Y0191344D01*
X0208272Y0191408D01*
X0208328Y0191470D01*
X0208387Y0191529D01*
X0208449Y0191585D01*
X0208513Y0191638D01*
X0208580Y0191688D01*
X0208649Y0191734D01*
X0208720Y0191778D01*
X0208793Y0191817D01*
X0208868Y0191854D01*
X0208945Y0191887D01*
X0209023Y0191916D01*
X0209102Y0191941D01*
X0209182Y0191963D01*
X0209264Y0191980D01*
X0209346Y0191994D01*
X0209429Y0192004D01*
X0209512Y0192010D01*
X0209595Y0192012D01*
X0209678Y0192010D01*
X0209761Y0192004D01*
X0209844Y0191994D01*
X0209926Y0191980D01*
X0210008Y0191963D01*
X0210088Y0191941D01*
X0210167Y0191916D01*
X0210245Y0191887D01*
X0210322Y0191854D01*
X0210397Y0191817D01*
X0210470Y0191778D01*
X0210541Y0191734D01*
X0210610Y0191688D01*
X0210677Y0191638D01*
X0210741Y0191585D01*
X0210803Y0191529D01*
X0210862Y0191470D01*
X0210918Y0191408D01*
X0210971Y0191344D01*
X0211021Y0191277D01*
X0211067Y0191208D01*
X0211111Y0191137D01*
X0211150Y0191064D01*
X0211187Y0190989D01*
X0211220Y0190912D01*
X0211249Y0190834D01*
X0211274Y0190755D01*
X0211296Y0190675D01*
X0211313Y0190593D01*
X0211327Y0190511D01*
X0211337Y0190428D01*
X0211343Y0190345D01*
X0211345Y0190262D01*
X0211343Y0190179D01*
X0211337Y0190096D01*
X0211327Y0190013D01*
X0211313Y0189931D01*
X0211296Y0189849D01*
X0211274Y0189769D01*
X0211249Y0189690D01*
X0211220Y0189612D01*
X0211187Y0189535D01*
X0211150Y0189460D01*
X0211111Y0189387D01*
X0211067Y0189316D01*
X0211021Y0189247D01*
X0210971Y0189180D01*
X0210918Y0189116D01*
X0210862Y0189054D01*
X0210803Y0188995D01*
X0210741Y0188939D01*
X0210677Y0188886D01*
X0210610Y0188836D01*
X0210541Y0188790D01*
X0210470Y0188746D01*
X0210397Y0188707D01*
X0210322Y0188670D01*
X0210245Y0188637D01*
X0210167Y0188608D01*
X0210088Y0188583D01*
X0210008Y0188561D01*
X0209926Y0188544D01*
X0209844Y0188530D01*
X0209761Y0188520D01*
X0209678Y0188514D01*
X0209595Y0188512D01*
X0209512Y0188514D01*
X0209429Y0188520D01*
X0209346Y0188530D01*
X0209264Y0188544D01*
X0209182Y0188561D01*
X0209102Y0188583D01*
X0209023Y0188608D01*
X0208945Y0188637D01*
X0208868Y0188670D01*
X0208793Y0188707D01*
X0208720Y0188746D01*
X0208649Y0188790D01*
X0208580Y0188836D01*
X0208513Y0188886D01*
X0208449Y0188939D01*
X0208387Y0188995D01*
X0208328Y0189054D01*
X0208272Y0189116D01*
X0208219Y0189180D01*
X0208169Y0189247D01*
X0208123Y0189316D01*
X0208079Y0189387D01*
X0208040Y0189460D01*
X0208003Y0189535D01*
X0207970Y0189612D01*
X0207941Y0189690D01*
X0207916Y0189769D01*
X0207894Y0189849D01*
X0207877Y0189931D01*
X0207863Y0190013D01*
X0207853Y0190096D01*
X0207847Y0190179D01*
X0207845Y0190262D01*
X0207845Y0170262D02*
X0207847Y0170345D01*
X0207853Y0170428D01*
X0207863Y0170511D01*
X0207877Y0170593D01*
X0207894Y0170675D01*
X0207916Y0170755D01*
X0207941Y0170834D01*
X0207970Y0170912D01*
X0208003Y0170989D01*
X0208040Y0171064D01*
X0208079Y0171137D01*
X0208123Y0171208D01*
X0208169Y0171277D01*
X0208219Y0171344D01*
X0208272Y0171408D01*
X0208328Y0171470D01*
X0208387Y0171529D01*
X0208449Y0171585D01*
X0208513Y0171638D01*
X0208580Y0171688D01*
X0208649Y0171734D01*
X0208720Y0171778D01*
X0208793Y0171817D01*
X0208868Y0171854D01*
X0208945Y0171887D01*
X0209023Y0171916D01*
X0209102Y0171941D01*
X0209182Y0171963D01*
X0209264Y0171980D01*
X0209346Y0171994D01*
X0209429Y0172004D01*
X0209512Y0172010D01*
X0209595Y0172012D01*
X0209678Y0172010D01*
X0209761Y0172004D01*
X0209844Y0171994D01*
X0209926Y0171980D01*
X0210008Y0171963D01*
X0210088Y0171941D01*
X0210167Y0171916D01*
X0210245Y0171887D01*
X0210322Y0171854D01*
X0210397Y0171817D01*
X0210470Y0171778D01*
X0210541Y0171734D01*
X0210610Y0171688D01*
X0210677Y0171638D01*
X0210741Y0171585D01*
X0210803Y0171529D01*
X0210862Y0171470D01*
X0210918Y0171408D01*
X0210971Y0171344D01*
X0211021Y0171277D01*
X0211067Y0171208D01*
X0211111Y0171137D01*
X0211150Y0171064D01*
X0211187Y0170989D01*
X0211220Y0170912D01*
X0211249Y0170834D01*
X0211274Y0170755D01*
X0211296Y0170675D01*
X0211313Y0170593D01*
X0211327Y0170511D01*
X0211337Y0170428D01*
X0211343Y0170345D01*
X0211345Y0170262D01*
X0211343Y0170179D01*
X0211337Y0170096D01*
X0211327Y0170013D01*
X0211313Y0169931D01*
X0211296Y0169849D01*
X0211274Y0169769D01*
X0211249Y0169690D01*
X0211220Y0169612D01*
X0211187Y0169535D01*
X0211150Y0169460D01*
X0211111Y0169387D01*
X0211067Y0169316D01*
X0211021Y0169247D01*
X0210971Y0169180D01*
X0210918Y0169116D01*
X0210862Y0169054D01*
X0210803Y0168995D01*
X0210741Y0168939D01*
X0210677Y0168886D01*
X0210610Y0168836D01*
X0210541Y0168790D01*
X0210470Y0168746D01*
X0210397Y0168707D01*
X0210322Y0168670D01*
X0210245Y0168637D01*
X0210167Y0168608D01*
X0210088Y0168583D01*
X0210008Y0168561D01*
X0209926Y0168544D01*
X0209844Y0168530D01*
X0209761Y0168520D01*
X0209678Y0168514D01*
X0209595Y0168512D01*
X0209512Y0168514D01*
X0209429Y0168520D01*
X0209346Y0168530D01*
X0209264Y0168544D01*
X0209182Y0168561D01*
X0209102Y0168583D01*
X0209023Y0168608D01*
X0208945Y0168637D01*
X0208868Y0168670D01*
X0208793Y0168707D01*
X0208720Y0168746D01*
X0208649Y0168790D01*
X0208580Y0168836D01*
X0208513Y0168886D01*
X0208449Y0168939D01*
X0208387Y0168995D01*
X0208328Y0169054D01*
X0208272Y0169116D01*
X0208219Y0169180D01*
X0208169Y0169247D01*
X0208123Y0169316D01*
X0208079Y0169387D01*
X0208040Y0169460D01*
X0208003Y0169535D01*
X0207970Y0169612D01*
X0207941Y0169690D01*
X0207916Y0169769D01*
X0207894Y0169849D01*
X0207877Y0169931D01*
X0207863Y0170013D01*
X0207853Y0170096D01*
X0207847Y0170179D01*
X0207845Y0170262D01*
X0197845Y0170262D02*
X0197847Y0170345D01*
X0197853Y0170428D01*
X0197863Y0170511D01*
X0197877Y0170593D01*
X0197894Y0170675D01*
X0197916Y0170755D01*
X0197941Y0170834D01*
X0197970Y0170912D01*
X0198003Y0170989D01*
X0198040Y0171064D01*
X0198079Y0171137D01*
X0198123Y0171208D01*
X0198169Y0171277D01*
X0198219Y0171344D01*
X0198272Y0171408D01*
X0198328Y0171470D01*
X0198387Y0171529D01*
X0198449Y0171585D01*
X0198513Y0171638D01*
X0198580Y0171688D01*
X0198649Y0171734D01*
X0198720Y0171778D01*
X0198793Y0171817D01*
X0198868Y0171854D01*
X0198945Y0171887D01*
X0199023Y0171916D01*
X0199102Y0171941D01*
X0199182Y0171963D01*
X0199264Y0171980D01*
X0199346Y0171994D01*
X0199429Y0172004D01*
X0199512Y0172010D01*
X0199595Y0172012D01*
X0199678Y0172010D01*
X0199761Y0172004D01*
X0199844Y0171994D01*
X0199926Y0171980D01*
X0200008Y0171963D01*
X0200088Y0171941D01*
X0200167Y0171916D01*
X0200245Y0171887D01*
X0200322Y0171854D01*
X0200397Y0171817D01*
X0200470Y0171778D01*
X0200541Y0171734D01*
X0200610Y0171688D01*
X0200677Y0171638D01*
X0200741Y0171585D01*
X0200803Y0171529D01*
X0200862Y0171470D01*
X0200918Y0171408D01*
X0200971Y0171344D01*
X0201021Y0171277D01*
X0201067Y0171208D01*
X0201111Y0171137D01*
X0201150Y0171064D01*
X0201187Y0170989D01*
X0201220Y0170912D01*
X0201249Y0170834D01*
X0201274Y0170755D01*
X0201296Y0170675D01*
X0201313Y0170593D01*
X0201327Y0170511D01*
X0201337Y0170428D01*
X0201343Y0170345D01*
X0201345Y0170262D01*
X0201343Y0170179D01*
X0201337Y0170096D01*
X0201327Y0170013D01*
X0201313Y0169931D01*
X0201296Y0169849D01*
X0201274Y0169769D01*
X0201249Y0169690D01*
X0201220Y0169612D01*
X0201187Y0169535D01*
X0201150Y0169460D01*
X0201111Y0169387D01*
X0201067Y0169316D01*
X0201021Y0169247D01*
X0200971Y0169180D01*
X0200918Y0169116D01*
X0200862Y0169054D01*
X0200803Y0168995D01*
X0200741Y0168939D01*
X0200677Y0168886D01*
X0200610Y0168836D01*
X0200541Y0168790D01*
X0200470Y0168746D01*
X0200397Y0168707D01*
X0200322Y0168670D01*
X0200245Y0168637D01*
X0200167Y0168608D01*
X0200088Y0168583D01*
X0200008Y0168561D01*
X0199926Y0168544D01*
X0199844Y0168530D01*
X0199761Y0168520D01*
X0199678Y0168514D01*
X0199595Y0168512D01*
X0199512Y0168514D01*
X0199429Y0168520D01*
X0199346Y0168530D01*
X0199264Y0168544D01*
X0199182Y0168561D01*
X0199102Y0168583D01*
X0199023Y0168608D01*
X0198945Y0168637D01*
X0198868Y0168670D01*
X0198793Y0168707D01*
X0198720Y0168746D01*
X0198649Y0168790D01*
X0198580Y0168836D01*
X0198513Y0168886D01*
X0198449Y0168939D01*
X0198387Y0168995D01*
X0198328Y0169054D01*
X0198272Y0169116D01*
X0198219Y0169180D01*
X0198169Y0169247D01*
X0198123Y0169316D01*
X0198079Y0169387D01*
X0198040Y0169460D01*
X0198003Y0169535D01*
X0197970Y0169612D01*
X0197941Y0169690D01*
X0197916Y0169769D01*
X0197894Y0169849D01*
X0197877Y0169931D01*
X0197863Y0170013D01*
X0197853Y0170096D01*
X0197847Y0170179D01*
X0197845Y0170262D01*
X0197845Y0160262D02*
X0197847Y0160345D01*
X0197853Y0160428D01*
X0197863Y0160511D01*
X0197877Y0160593D01*
X0197894Y0160675D01*
X0197916Y0160755D01*
X0197941Y0160834D01*
X0197970Y0160912D01*
X0198003Y0160989D01*
X0198040Y0161064D01*
X0198079Y0161137D01*
X0198123Y0161208D01*
X0198169Y0161277D01*
X0198219Y0161344D01*
X0198272Y0161408D01*
X0198328Y0161470D01*
X0198387Y0161529D01*
X0198449Y0161585D01*
X0198513Y0161638D01*
X0198580Y0161688D01*
X0198649Y0161734D01*
X0198720Y0161778D01*
X0198793Y0161817D01*
X0198868Y0161854D01*
X0198945Y0161887D01*
X0199023Y0161916D01*
X0199102Y0161941D01*
X0199182Y0161963D01*
X0199264Y0161980D01*
X0199346Y0161994D01*
X0199429Y0162004D01*
X0199512Y0162010D01*
X0199595Y0162012D01*
X0199678Y0162010D01*
X0199761Y0162004D01*
X0199844Y0161994D01*
X0199926Y0161980D01*
X0200008Y0161963D01*
X0200088Y0161941D01*
X0200167Y0161916D01*
X0200245Y0161887D01*
X0200322Y0161854D01*
X0200397Y0161817D01*
X0200470Y0161778D01*
X0200541Y0161734D01*
X0200610Y0161688D01*
X0200677Y0161638D01*
X0200741Y0161585D01*
X0200803Y0161529D01*
X0200862Y0161470D01*
X0200918Y0161408D01*
X0200971Y0161344D01*
X0201021Y0161277D01*
X0201067Y0161208D01*
X0201111Y0161137D01*
X0201150Y0161064D01*
X0201187Y0160989D01*
X0201220Y0160912D01*
X0201249Y0160834D01*
X0201274Y0160755D01*
X0201296Y0160675D01*
X0201313Y0160593D01*
X0201327Y0160511D01*
X0201337Y0160428D01*
X0201343Y0160345D01*
X0201345Y0160262D01*
X0201343Y0160179D01*
X0201337Y0160096D01*
X0201327Y0160013D01*
X0201313Y0159931D01*
X0201296Y0159849D01*
X0201274Y0159769D01*
X0201249Y0159690D01*
X0201220Y0159612D01*
X0201187Y0159535D01*
X0201150Y0159460D01*
X0201111Y0159387D01*
X0201067Y0159316D01*
X0201021Y0159247D01*
X0200971Y0159180D01*
X0200918Y0159116D01*
X0200862Y0159054D01*
X0200803Y0158995D01*
X0200741Y0158939D01*
X0200677Y0158886D01*
X0200610Y0158836D01*
X0200541Y0158790D01*
X0200470Y0158746D01*
X0200397Y0158707D01*
X0200322Y0158670D01*
X0200245Y0158637D01*
X0200167Y0158608D01*
X0200088Y0158583D01*
X0200008Y0158561D01*
X0199926Y0158544D01*
X0199844Y0158530D01*
X0199761Y0158520D01*
X0199678Y0158514D01*
X0199595Y0158512D01*
X0199512Y0158514D01*
X0199429Y0158520D01*
X0199346Y0158530D01*
X0199264Y0158544D01*
X0199182Y0158561D01*
X0199102Y0158583D01*
X0199023Y0158608D01*
X0198945Y0158637D01*
X0198868Y0158670D01*
X0198793Y0158707D01*
X0198720Y0158746D01*
X0198649Y0158790D01*
X0198580Y0158836D01*
X0198513Y0158886D01*
X0198449Y0158939D01*
X0198387Y0158995D01*
X0198328Y0159054D01*
X0198272Y0159116D01*
X0198219Y0159180D01*
X0198169Y0159247D01*
X0198123Y0159316D01*
X0198079Y0159387D01*
X0198040Y0159460D01*
X0198003Y0159535D01*
X0197970Y0159612D01*
X0197941Y0159690D01*
X0197916Y0159769D01*
X0197894Y0159849D01*
X0197877Y0159931D01*
X0197863Y0160013D01*
X0197853Y0160096D01*
X0197847Y0160179D01*
X0197845Y0160262D01*
X0207845Y0160262D02*
X0207847Y0160345D01*
X0207853Y0160428D01*
X0207863Y0160511D01*
X0207877Y0160593D01*
X0207894Y0160675D01*
X0207916Y0160755D01*
X0207941Y0160834D01*
X0207970Y0160912D01*
X0208003Y0160989D01*
X0208040Y0161064D01*
X0208079Y0161137D01*
X0208123Y0161208D01*
X0208169Y0161277D01*
X0208219Y0161344D01*
X0208272Y0161408D01*
X0208328Y0161470D01*
X0208387Y0161529D01*
X0208449Y0161585D01*
X0208513Y0161638D01*
X0208580Y0161688D01*
X0208649Y0161734D01*
X0208720Y0161778D01*
X0208793Y0161817D01*
X0208868Y0161854D01*
X0208945Y0161887D01*
X0209023Y0161916D01*
X0209102Y0161941D01*
X0209182Y0161963D01*
X0209264Y0161980D01*
X0209346Y0161994D01*
X0209429Y0162004D01*
X0209512Y0162010D01*
X0209595Y0162012D01*
X0209678Y0162010D01*
X0209761Y0162004D01*
X0209844Y0161994D01*
X0209926Y0161980D01*
X0210008Y0161963D01*
X0210088Y0161941D01*
X0210167Y0161916D01*
X0210245Y0161887D01*
X0210322Y0161854D01*
X0210397Y0161817D01*
X0210470Y0161778D01*
X0210541Y0161734D01*
X0210610Y0161688D01*
X0210677Y0161638D01*
X0210741Y0161585D01*
X0210803Y0161529D01*
X0210862Y0161470D01*
X0210918Y0161408D01*
X0210971Y0161344D01*
X0211021Y0161277D01*
X0211067Y0161208D01*
X0211111Y0161137D01*
X0211150Y0161064D01*
X0211187Y0160989D01*
X0211220Y0160912D01*
X0211249Y0160834D01*
X0211274Y0160755D01*
X0211296Y0160675D01*
X0211313Y0160593D01*
X0211327Y0160511D01*
X0211337Y0160428D01*
X0211343Y0160345D01*
X0211345Y0160262D01*
X0211343Y0160179D01*
X0211337Y0160096D01*
X0211327Y0160013D01*
X0211313Y0159931D01*
X0211296Y0159849D01*
X0211274Y0159769D01*
X0211249Y0159690D01*
X0211220Y0159612D01*
X0211187Y0159535D01*
X0211150Y0159460D01*
X0211111Y0159387D01*
X0211067Y0159316D01*
X0211021Y0159247D01*
X0210971Y0159180D01*
X0210918Y0159116D01*
X0210862Y0159054D01*
X0210803Y0158995D01*
X0210741Y0158939D01*
X0210677Y0158886D01*
X0210610Y0158836D01*
X0210541Y0158790D01*
X0210470Y0158746D01*
X0210397Y0158707D01*
X0210322Y0158670D01*
X0210245Y0158637D01*
X0210167Y0158608D01*
X0210088Y0158583D01*
X0210008Y0158561D01*
X0209926Y0158544D01*
X0209844Y0158530D01*
X0209761Y0158520D01*
X0209678Y0158514D01*
X0209595Y0158512D01*
X0209512Y0158514D01*
X0209429Y0158520D01*
X0209346Y0158530D01*
X0209264Y0158544D01*
X0209182Y0158561D01*
X0209102Y0158583D01*
X0209023Y0158608D01*
X0208945Y0158637D01*
X0208868Y0158670D01*
X0208793Y0158707D01*
X0208720Y0158746D01*
X0208649Y0158790D01*
X0208580Y0158836D01*
X0208513Y0158886D01*
X0208449Y0158939D01*
X0208387Y0158995D01*
X0208328Y0159054D01*
X0208272Y0159116D01*
X0208219Y0159180D01*
X0208169Y0159247D01*
X0208123Y0159316D01*
X0208079Y0159387D01*
X0208040Y0159460D01*
X0208003Y0159535D01*
X0207970Y0159612D01*
X0207941Y0159690D01*
X0207916Y0159769D01*
X0207894Y0159849D01*
X0207877Y0159931D01*
X0207863Y0160013D01*
X0207853Y0160096D01*
X0207847Y0160179D01*
X0207845Y0160262D01*
X0207845Y0150262D02*
X0207847Y0150345D01*
X0207853Y0150428D01*
X0207863Y0150511D01*
X0207877Y0150593D01*
X0207894Y0150675D01*
X0207916Y0150755D01*
X0207941Y0150834D01*
X0207970Y0150912D01*
X0208003Y0150989D01*
X0208040Y0151064D01*
X0208079Y0151137D01*
X0208123Y0151208D01*
X0208169Y0151277D01*
X0208219Y0151344D01*
X0208272Y0151408D01*
X0208328Y0151470D01*
X0208387Y0151529D01*
X0208449Y0151585D01*
X0208513Y0151638D01*
X0208580Y0151688D01*
X0208649Y0151734D01*
X0208720Y0151778D01*
X0208793Y0151817D01*
X0208868Y0151854D01*
X0208945Y0151887D01*
X0209023Y0151916D01*
X0209102Y0151941D01*
X0209182Y0151963D01*
X0209264Y0151980D01*
X0209346Y0151994D01*
X0209429Y0152004D01*
X0209512Y0152010D01*
X0209595Y0152012D01*
X0209678Y0152010D01*
X0209761Y0152004D01*
X0209844Y0151994D01*
X0209926Y0151980D01*
X0210008Y0151963D01*
X0210088Y0151941D01*
X0210167Y0151916D01*
X0210245Y0151887D01*
X0210322Y0151854D01*
X0210397Y0151817D01*
X0210470Y0151778D01*
X0210541Y0151734D01*
X0210610Y0151688D01*
X0210677Y0151638D01*
X0210741Y0151585D01*
X0210803Y0151529D01*
X0210862Y0151470D01*
X0210918Y0151408D01*
X0210971Y0151344D01*
X0211021Y0151277D01*
X0211067Y0151208D01*
X0211111Y0151137D01*
X0211150Y0151064D01*
X0211187Y0150989D01*
X0211220Y0150912D01*
X0211249Y0150834D01*
X0211274Y0150755D01*
X0211296Y0150675D01*
X0211313Y0150593D01*
X0211327Y0150511D01*
X0211337Y0150428D01*
X0211343Y0150345D01*
X0211345Y0150262D01*
X0211343Y0150179D01*
X0211337Y0150096D01*
X0211327Y0150013D01*
X0211313Y0149931D01*
X0211296Y0149849D01*
X0211274Y0149769D01*
X0211249Y0149690D01*
X0211220Y0149612D01*
X0211187Y0149535D01*
X0211150Y0149460D01*
X0211111Y0149387D01*
X0211067Y0149316D01*
X0211021Y0149247D01*
X0210971Y0149180D01*
X0210918Y0149116D01*
X0210862Y0149054D01*
X0210803Y0148995D01*
X0210741Y0148939D01*
X0210677Y0148886D01*
X0210610Y0148836D01*
X0210541Y0148790D01*
X0210470Y0148746D01*
X0210397Y0148707D01*
X0210322Y0148670D01*
X0210245Y0148637D01*
X0210167Y0148608D01*
X0210088Y0148583D01*
X0210008Y0148561D01*
X0209926Y0148544D01*
X0209844Y0148530D01*
X0209761Y0148520D01*
X0209678Y0148514D01*
X0209595Y0148512D01*
X0209512Y0148514D01*
X0209429Y0148520D01*
X0209346Y0148530D01*
X0209264Y0148544D01*
X0209182Y0148561D01*
X0209102Y0148583D01*
X0209023Y0148608D01*
X0208945Y0148637D01*
X0208868Y0148670D01*
X0208793Y0148707D01*
X0208720Y0148746D01*
X0208649Y0148790D01*
X0208580Y0148836D01*
X0208513Y0148886D01*
X0208449Y0148939D01*
X0208387Y0148995D01*
X0208328Y0149054D01*
X0208272Y0149116D01*
X0208219Y0149180D01*
X0208169Y0149247D01*
X0208123Y0149316D01*
X0208079Y0149387D01*
X0208040Y0149460D01*
X0208003Y0149535D01*
X0207970Y0149612D01*
X0207941Y0149690D01*
X0207916Y0149769D01*
X0207894Y0149849D01*
X0207877Y0149931D01*
X0207863Y0150013D01*
X0207853Y0150096D01*
X0207847Y0150179D01*
X0207845Y0150262D01*
X0197845Y0150262D02*
X0197847Y0150345D01*
X0197853Y0150428D01*
X0197863Y0150511D01*
X0197877Y0150593D01*
X0197894Y0150675D01*
X0197916Y0150755D01*
X0197941Y0150834D01*
X0197970Y0150912D01*
X0198003Y0150989D01*
X0198040Y0151064D01*
X0198079Y0151137D01*
X0198123Y0151208D01*
X0198169Y0151277D01*
X0198219Y0151344D01*
X0198272Y0151408D01*
X0198328Y0151470D01*
X0198387Y0151529D01*
X0198449Y0151585D01*
X0198513Y0151638D01*
X0198580Y0151688D01*
X0198649Y0151734D01*
X0198720Y0151778D01*
X0198793Y0151817D01*
X0198868Y0151854D01*
X0198945Y0151887D01*
X0199023Y0151916D01*
X0199102Y0151941D01*
X0199182Y0151963D01*
X0199264Y0151980D01*
X0199346Y0151994D01*
X0199429Y0152004D01*
X0199512Y0152010D01*
X0199595Y0152012D01*
X0199678Y0152010D01*
X0199761Y0152004D01*
X0199844Y0151994D01*
X0199926Y0151980D01*
X0200008Y0151963D01*
X0200088Y0151941D01*
X0200167Y0151916D01*
X0200245Y0151887D01*
X0200322Y0151854D01*
X0200397Y0151817D01*
X0200470Y0151778D01*
X0200541Y0151734D01*
X0200610Y0151688D01*
X0200677Y0151638D01*
X0200741Y0151585D01*
X0200803Y0151529D01*
X0200862Y0151470D01*
X0200918Y0151408D01*
X0200971Y0151344D01*
X0201021Y0151277D01*
X0201067Y0151208D01*
X0201111Y0151137D01*
X0201150Y0151064D01*
X0201187Y0150989D01*
X0201220Y0150912D01*
X0201249Y0150834D01*
X0201274Y0150755D01*
X0201296Y0150675D01*
X0201313Y0150593D01*
X0201327Y0150511D01*
X0201337Y0150428D01*
X0201343Y0150345D01*
X0201345Y0150262D01*
X0201343Y0150179D01*
X0201337Y0150096D01*
X0201327Y0150013D01*
X0201313Y0149931D01*
X0201296Y0149849D01*
X0201274Y0149769D01*
X0201249Y0149690D01*
X0201220Y0149612D01*
X0201187Y0149535D01*
X0201150Y0149460D01*
X0201111Y0149387D01*
X0201067Y0149316D01*
X0201021Y0149247D01*
X0200971Y0149180D01*
X0200918Y0149116D01*
X0200862Y0149054D01*
X0200803Y0148995D01*
X0200741Y0148939D01*
X0200677Y0148886D01*
X0200610Y0148836D01*
X0200541Y0148790D01*
X0200470Y0148746D01*
X0200397Y0148707D01*
X0200322Y0148670D01*
X0200245Y0148637D01*
X0200167Y0148608D01*
X0200088Y0148583D01*
X0200008Y0148561D01*
X0199926Y0148544D01*
X0199844Y0148530D01*
X0199761Y0148520D01*
X0199678Y0148514D01*
X0199595Y0148512D01*
X0199512Y0148514D01*
X0199429Y0148520D01*
X0199346Y0148530D01*
X0199264Y0148544D01*
X0199182Y0148561D01*
X0199102Y0148583D01*
X0199023Y0148608D01*
X0198945Y0148637D01*
X0198868Y0148670D01*
X0198793Y0148707D01*
X0198720Y0148746D01*
X0198649Y0148790D01*
X0198580Y0148836D01*
X0198513Y0148886D01*
X0198449Y0148939D01*
X0198387Y0148995D01*
X0198328Y0149054D01*
X0198272Y0149116D01*
X0198219Y0149180D01*
X0198169Y0149247D01*
X0198123Y0149316D01*
X0198079Y0149387D01*
X0198040Y0149460D01*
X0198003Y0149535D01*
X0197970Y0149612D01*
X0197941Y0149690D01*
X0197916Y0149769D01*
X0197894Y0149849D01*
X0197877Y0149931D01*
X0197863Y0150013D01*
X0197853Y0150096D01*
X0197847Y0150179D01*
X0197845Y0150262D01*
X0197845Y0140262D02*
X0197847Y0140345D01*
X0197853Y0140428D01*
X0197863Y0140511D01*
X0197877Y0140593D01*
X0197894Y0140675D01*
X0197916Y0140755D01*
X0197941Y0140834D01*
X0197970Y0140912D01*
X0198003Y0140989D01*
X0198040Y0141064D01*
X0198079Y0141137D01*
X0198123Y0141208D01*
X0198169Y0141277D01*
X0198219Y0141344D01*
X0198272Y0141408D01*
X0198328Y0141470D01*
X0198387Y0141529D01*
X0198449Y0141585D01*
X0198513Y0141638D01*
X0198580Y0141688D01*
X0198649Y0141734D01*
X0198720Y0141778D01*
X0198793Y0141817D01*
X0198868Y0141854D01*
X0198945Y0141887D01*
X0199023Y0141916D01*
X0199102Y0141941D01*
X0199182Y0141963D01*
X0199264Y0141980D01*
X0199346Y0141994D01*
X0199429Y0142004D01*
X0199512Y0142010D01*
X0199595Y0142012D01*
X0199678Y0142010D01*
X0199761Y0142004D01*
X0199844Y0141994D01*
X0199926Y0141980D01*
X0200008Y0141963D01*
X0200088Y0141941D01*
X0200167Y0141916D01*
X0200245Y0141887D01*
X0200322Y0141854D01*
X0200397Y0141817D01*
X0200470Y0141778D01*
X0200541Y0141734D01*
X0200610Y0141688D01*
X0200677Y0141638D01*
X0200741Y0141585D01*
X0200803Y0141529D01*
X0200862Y0141470D01*
X0200918Y0141408D01*
X0200971Y0141344D01*
X0201021Y0141277D01*
X0201067Y0141208D01*
X0201111Y0141137D01*
X0201150Y0141064D01*
X0201187Y0140989D01*
X0201220Y0140912D01*
X0201249Y0140834D01*
X0201274Y0140755D01*
X0201296Y0140675D01*
X0201313Y0140593D01*
X0201327Y0140511D01*
X0201337Y0140428D01*
X0201343Y0140345D01*
X0201345Y0140262D01*
X0201343Y0140179D01*
X0201337Y0140096D01*
X0201327Y0140013D01*
X0201313Y0139931D01*
X0201296Y0139849D01*
X0201274Y0139769D01*
X0201249Y0139690D01*
X0201220Y0139612D01*
X0201187Y0139535D01*
X0201150Y0139460D01*
X0201111Y0139387D01*
X0201067Y0139316D01*
X0201021Y0139247D01*
X0200971Y0139180D01*
X0200918Y0139116D01*
X0200862Y0139054D01*
X0200803Y0138995D01*
X0200741Y0138939D01*
X0200677Y0138886D01*
X0200610Y0138836D01*
X0200541Y0138790D01*
X0200470Y0138746D01*
X0200397Y0138707D01*
X0200322Y0138670D01*
X0200245Y0138637D01*
X0200167Y0138608D01*
X0200088Y0138583D01*
X0200008Y0138561D01*
X0199926Y0138544D01*
X0199844Y0138530D01*
X0199761Y0138520D01*
X0199678Y0138514D01*
X0199595Y0138512D01*
X0199512Y0138514D01*
X0199429Y0138520D01*
X0199346Y0138530D01*
X0199264Y0138544D01*
X0199182Y0138561D01*
X0199102Y0138583D01*
X0199023Y0138608D01*
X0198945Y0138637D01*
X0198868Y0138670D01*
X0198793Y0138707D01*
X0198720Y0138746D01*
X0198649Y0138790D01*
X0198580Y0138836D01*
X0198513Y0138886D01*
X0198449Y0138939D01*
X0198387Y0138995D01*
X0198328Y0139054D01*
X0198272Y0139116D01*
X0198219Y0139180D01*
X0198169Y0139247D01*
X0198123Y0139316D01*
X0198079Y0139387D01*
X0198040Y0139460D01*
X0198003Y0139535D01*
X0197970Y0139612D01*
X0197941Y0139690D01*
X0197916Y0139769D01*
X0197894Y0139849D01*
X0197877Y0139931D01*
X0197863Y0140013D01*
X0197853Y0140096D01*
X0197847Y0140179D01*
X0197845Y0140262D01*
X0207845Y0140262D02*
X0207847Y0140345D01*
X0207853Y0140428D01*
X0207863Y0140511D01*
X0207877Y0140593D01*
X0207894Y0140675D01*
X0207916Y0140755D01*
X0207941Y0140834D01*
X0207970Y0140912D01*
X0208003Y0140989D01*
X0208040Y0141064D01*
X0208079Y0141137D01*
X0208123Y0141208D01*
X0208169Y0141277D01*
X0208219Y0141344D01*
X0208272Y0141408D01*
X0208328Y0141470D01*
X0208387Y0141529D01*
X0208449Y0141585D01*
X0208513Y0141638D01*
X0208580Y0141688D01*
X0208649Y0141734D01*
X0208720Y0141778D01*
X0208793Y0141817D01*
X0208868Y0141854D01*
X0208945Y0141887D01*
X0209023Y0141916D01*
X0209102Y0141941D01*
X0209182Y0141963D01*
X0209264Y0141980D01*
X0209346Y0141994D01*
X0209429Y0142004D01*
X0209512Y0142010D01*
X0209595Y0142012D01*
X0209678Y0142010D01*
X0209761Y0142004D01*
X0209844Y0141994D01*
X0209926Y0141980D01*
X0210008Y0141963D01*
X0210088Y0141941D01*
X0210167Y0141916D01*
X0210245Y0141887D01*
X0210322Y0141854D01*
X0210397Y0141817D01*
X0210470Y0141778D01*
X0210541Y0141734D01*
X0210610Y0141688D01*
X0210677Y0141638D01*
X0210741Y0141585D01*
X0210803Y0141529D01*
X0210862Y0141470D01*
X0210918Y0141408D01*
X0210971Y0141344D01*
X0211021Y0141277D01*
X0211067Y0141208D01*
X0211111Y0141137D01*
X0211150Y0141064D01*
X0211187Y0140989D01*
X0211220Y0140912D01*
X0211249Y0140834D01*
X0211274Y0140755D01*
X0211296Y0140675D01*
X0211313Y0140593D01*
X0211327Y0140511D01*
X0211337Y0140428D01*
X0211343Y0140345D01*
X0211345Y0140262D01*
X0211343Y0140179D01*
X0211337Y0140096D01*
X0211327Y0140013D01*
X0211313Y0139931D01*
X0211296Y0139849D01*
X0211274Y0139769D01*
X0211249Y0139690D01*
X0211220Y0139612D01*
X0211187Y0139535D01*
X0211150Y0139460D01*
X0211111Y0139387D01*
X0211067Y0139316D01*
X0211021Y0139247D01*
X0210971Y0139180D01*
X0210918Y0139116D01*
X0210862Y0139054D01*
X0210803Y0138995D01*
X0210741Y0138939D01*
X0210677Y0138886D01*
X0210610Y0138836D01*
X0210541Y0138790D01*
X0210470Y0138746D01*
X0210397Y0138707D01*
X0210322Y0138670D01*
X0210245Y0138637D01*
X0210167Y0138608D01*
X0210088Y0138583D01*
X0210008Y0138561D01*
X0209926Y0138544D01*
X0209844Y0138530D01*
X0209761Y0138520D01*
X0209678Y0138514D01*
X0209595Y0138512D01*
X0209512Y0138514D01*
X0209429Y0138520D01*
X0209346Y0138530D01*
X0209264Y0138544D01*
X0209182Y0138561D01*
X0209102Y0138583D01*
X0209023Y0138608D01*
X0208945Y0138637D01*
X0208868Y0138670D01*
X0208793Y0138707D01*
X0208720Y0138746D01*
X0208649Y0138790D01*
X0208580Y0138836D01*
X0208513Y0138886D01*
X0208449Y0138939D01*
X0208387Y0138995D01*
X0208328Y0139054D01*
X0208272Y0139116D01*
X0208219Y0139180D01*
X0208169Y0139247D01*
X0208123Y0139316D01*
X0208079Y0139387D01*
X0208040Y0139460D01*
X0208003Y0139535D01*
X0207970Y0139612D01*
X0207941Y0139690D01*
X0207916Y0139769D01*
X0207894Y0139849D01*
X0207877Y0139931D01*
X0207863Y0140013D01*
X0207853Y0140096D01*
X0207847Y0140179D01*
X0207845Y0140262D01*
D11*
X0044595Y0130262D03*
X0044595Y0200262D03*
D12*
X0099595Y0205262D03*
X0109595Y0205262D03*
X0119595Y0205262D03*
X0129595Y0205262D03*
X0139595Y0205262D03*
X0149595Y0205262D03*
X0159595Y0205262D03*
X0169595Y0205262D03*
X0179595Y0205262D03*
X0189595Y0205262D03*
X0199595Y0205262D03*
X0209595Y0205262D03*
X0209595Y0125262D03*
X0199595Y0125262D03*
X0189595Y0125262D03*
X0179595Y0125262D03*
X0169595Y0125262D03*
X0159595Y0125262D03*
X0149595Y0125262D03*
X0139595Y0125262D03*
X0129595Y0125262D03*
X0119595Y0125262D03*
X0109595Y0125262D03*
X0099595Y0125262D03*
X0089595Y0125262D03*
X0079595Y0125262D03*
X0069595Y0125262D03*
X0059595Y0125262D03*
D13*
X0042595Y0152270D03*
X0042595Y0178255D03*
D14*
X0042595Y0182055D01*
X0042221Y0182055D01*
X0041487Y0181909D01*
X0040795Y0181622D01*
X0040173Y0181206D01*
X0039643Y0180677D01*
X0039228Y0180055D01*
X0038941Y0179363D01*
X0038795Y0178629D01*
X0038795Y0178255D01*
X0042595Y0178255D01*
X0042595Y0178255D01*
X0042595Y0182055D01*
X0042969Y0182055D01*
X0043704Y0181909D01*
X0044395Y0181622D01*
X0045017Y0181206D01*
X0045547Y0180677D01*
X0045963Y0180055D01*
X0046249Y0179363D01*
X0046395Y0178629D01*
X0046395Y0178255D01*
X0042595Y0178255D01*
X0042595Y0178255D01*
X0042595Y0178255D01*
X0038795Y0178255D01*
X0038795Y0177880D01*
X0038941Y0177146D01*
X0039228Y0176455D01*
X0039643Y0175832D01*
X0040173Y0175303D01*
X0040795Y0174887D01*
X0041487Y0174601D01*
X0042221Y0174455D01*
X0042595Y0174455D01*
X0042595Y0178254D01*
X0042595Y0178254D01*
X0042595Y0174455D01*
X0042969Y0174455D01*
X0043704Y0174601D01*
X0044395Y0174887D01*
X0045017Y0175303D01*
X0045547Y0175832D01*
X0045963Y0176455D01*
X0046249Y0177146D01*
X0046395Y0177880D01*
X0046395Y0178255D01*
X0042595Y0178255D01*
X0042595Y0177809D02*
X0042595Y0177809D01*
X0042595Y0179407D02*
X0042595Y0179407D01*
X0042595Y0181006D02*
X0042595Y0181006D01*
X0039972Y0181006D02*
X0035895Y0181006D01*
X0035895Y0182604D02*
X0056149Y0182604D01*
X0056149Y0182398D02*
X0057361Y0181187D01*
X0059074Y0181187D01*
X0060285Y0182398D01*
X0060285Y0183155D01*
X0061042Y0183155D01*
X0062253Y0184367D01*
X0062253Y0186080D01*
X0061042Y0187291D01*
X0060285Y0187291D01*
X0060285Y0188048D01*
X0059074Y0189259D01*
X0057361Y0189259D01*
X0056149Y0188048D01*
X0056149Y0186335D01*
X0057262Y0185223D01*
X0056149Y0184111D01*
X0056149Y0182398D01*
X0056241Y0184203D02*
X0035895Y0184203D01*
X0035895Y0185801D02*
X0038967Y0185801D01*
X0038827Y0185941D02*
X0040038Y0184730D01*
X0041751Y0184730D01*
X0042962Y0185941D01*
X0042962Y0187654D01*
X0041751Y0188866D01*
X0040038Y0188866D01*
X0038827Y0187654D01*
X0038827Y0185941D01*
X0038827Y0187400D02*
X0035895Y0187400D01*
X0035895Y0188998D02*
X0057100Y0188998D01*
X0056149Y0187400D02*
X0042962Y0187400D01*
X0042822Y0185801D02*
X0056683Y0185801D01*
X0060285Y0187400D02*
X0131463Y0187400D01*
X0130953Y0187910D02*
X0132164Y0186699D01*
X0133877Y0186699D01*
X0135088Y0187910D01*
X0135088Y0189623D01*
X0133877Y0190834D01*
X0132164Y0190834D01*
X0130953Y0189623D01*
X0130953Y0187910D01*
X0130953Y0188998D02*
X0059335Y0188998D01*
X0062253Y0185801D02*
X0145266Y0185801D01*
X0144732Y0186335D02*
X0145943Y0185124D01*
X0147656Y0185124D01*
X0148868Y0186335D01*
X0148868Y0186699D01*
X0149625Y0186699D01*
X0150836Y0187910D01*
X0150836Y0189623D01*
X0149625Y0190834D01*
X0147912Y0190834D01*
X0146701Y0189623D01*
X0146701Y0189259D01*
X0145943Y0189259D01*
X0144732Y0188048D01*
X0144732Y0186335D01*
X0144732Y0187400D02*
X0134578Y0187400D01*
X0135088Y0188998D02*
X0145683Y0188998D01*
X0147675Y0190597D02*
X0134114Y0190597D01*
X0131927Y0190597D02*
X0111466Y0190597D01*
X0111466Y0190272D02*
X0111466Y0191985D01*
X0110255Y0193196D01*
X0108542Y0193196D01*
X0107331Y0191985D01*
X0107331Y0190272D01*
X0108542Y0189061D01*
X0110255Y0189061D01*
X0111466Y0190272D01*
X0111256Y0192195D02*
X0152606Y0192195D01*
X0152606Y0191453D02*
X0153817Y0190242D01*
X0155530Y0190242D01*
X0156742Y0191453D01*
X0156742Y0193166D01*
X0155530Y0194377D01*
X0153817Y0194377D01*
X0152606Y0193166D01*
X0152606Y0191453D01*
X0153462Y0190597D02*
X0149862Y0190597D01*
X0150836Y0188998D02*
X0155756Y0188998D01*
X0155756Y0189229D02*
X0155756Y0188078D01*
X0154605Y0188078D01*
X0153394Y0186867D01*
X0153394Y0185154D01*
X0154605Y0183943D01*
X0156318Y0183943D01*
X0157529Y0185154D01*
X0157529Y0186305D01*
X0157724Y0186305D01*
X0157724Y0185154D01*
X0158936Y0183943D01*
X0160648Y0183943D01*
X0161860Y0185154D01*
X0161860Y0186867D01*
X0160648Y0188078D01*
X0159891Y0188078D01*
X0159891Y0189229D01*
X0158680Y0190440D01*
X0156967Y0190440D01*
X0155756Y0189229D01*
X0155885Y0190597D02*
X0166545Y0190597D01*
X0166545Y0190869D02*
X0166545Y0189656D01*
X0167009Y0188535D01*
X0167867Y0187677D01*
X0168988Y0187212D01*
X0170202Y0187212D01*
X0171323Y0187677D01*
X0172181Y0188535D01*
X0172645Y0189656D01*
X0172645Y0190869D01*
X0172181Y0191990D01*
X0171323Y0192848D01*
X0170202Y0193312D01*
X0168988Y0193312D01*
X0167867Y0192848D01*
X0167009Y0191990D01*
X0166545Y0190869D01*
X0167215Y0192195D02*
X0156742Y0192195D01*
X0156114Y0193794D02*
X0203628Y0193794D01*
X0203817Y0193984D02*
X0202606Y0192772D01*
X0202606Y0191060D01*
X0203817Y0189848D01*
X0205530Y0189848D01*
X0206545Y0190863D01*
X0206545Y0189656D01*
X0207009Y0188535D01*
X0207867Y0187677D01*
X0208988Y0187212D01*
X0210202Y0187212D01*
X0211323Y0187677D01*
X0212181Y0188535D01*
X0212645Y0189656D01*
X0212645Y0190869D01*
X0212181Y0191990D01*
X0211323Y0192848D01*
X0210202Y0193312D01*
X0208988Y0193312D01*
X0207867Y0192848D01*
X0207009Y0191990D01*
X0206742Y0191343D01*
X0206742Y0192772D01*
X0205530Y0193984D01*
X0203817Y0193984D01*
X0205720Y0193794D02*
X0233295Y0193794D01*
X0233295Y0195392D02*
X0228635Y0195392D01*
X0228164Y0194922D02*
X0229936Y0196694D01*
X0230895Y0199009D01*
X0230895Y0201516D01*
X0229936Y0203831D01*
X0228164Y0205603D01*
X0225848Y0206562D01*
X0223342Y0206562D01*
X0221026Y0205603D01*
X0219254Y0203831D01*
X0218295Y0201516D01*
X0218295Y0199009D01*
X0219254Y0196694D01*
X0221026Y0194922D01*
X0223342Y0193962D01*
X0225848Y0193962D01*
X0228164Y0194922D01*
X0230059Y0196991D02*
X0233295Y0196991D01*
X0233295Y0198590D02*
X0230721Y0198590D01*
X0230895Y0200188D02*
X0233295Y0200188D01*
X0233295Y0200262D02*
X0233295Y0130262D01*
X0233188Y0128901D01*
X0232347Y0126313D01*
X0230747Y0124111D01*
X0228545Y0122511D01*
X0225956Y0121670D01*
X0224595Y0121562D01*
X0212615Y0121562D01*
X0212702Y0121625D01*
X0213232Y0122156D01*
X0213674Y0122763D01*
X0214014Y0123432D01*
X0214246Y0124146D01*
X0214364Y0124887D01*
X0214364Y0125078D01*
X0209779Y0125078D01*
X0209779Y0125447D01*
X0209411Y0125447D01*
X0209411Y0130031D01*
X0209220Y0130031D01*
X0208479Y0129914D01*
X0207765Y0129682D01*
X0207096Y0129341D01*
X0206489Y0128900D01*
X0205958Y0128369D01*
X0205517Y0127762D01*
X0205176Y0127093D01*
X0204944Y0126379D01*
X0204827Y0125638D01*
X0204827Y0125447D01*
X0209411Y0125447D01*
X0209411Y0125078D01*
X0204827Y0125078D01*
X0204827Y0124887D01*
X0204944Y0124146D01*
X0205176Y0123432D01*
X0205517Y0122763D01*
X0205958Y0122156D01*
X0206489Y0121625D01*
X0206575Y0121562D01*
X0201796Y0121562D01*
X0202009Y0121650D01*
X0203207Y0122849D01*
X0203856Y0124415D01*
X0203856Y0126110D01*
X0203207Y0127676D01*
X0202009Y0128874D01*
X0200443Y0129523D01*
X0198748Y0129523D01*
X0197182Y0128874D01*
X0195983Y0127676D01*
X0195335Y0126110D01*
X0195335Y0124415D01*
X0195983Y0122849D01*
X0197182Y0121650D01*
X0197394Y0121562D01*
X0191796Y0121562D01*
X0192009Y0121650D01*
X0193207Y0122849D01*
X0193856Y0124415D01*
X0193856Y0126110D01*
X0193207Y0127676D01*
X0192009Y0128874D01*
X0190443Y0129523D01*
X0188748Y0129523D01*
X0187182Y0128874D01*
X0185983Y0127676D01*
X0185335Y0126110D01*
X0185335Y0124415D01*
X0185983Y0122849D01*
X0187182Y0121650D01*
X0187394Y0121562D01*
X0181796Y0121562D01*
X0182009Y0121650D01*
X0183207Y0122849D01*
X0183856Y0124415D01*
X0183856Y0126110D01*
X0183207Y0127676D01*
X0182009Y0128874D01*
X0180443Y0129523D01*
X0178748Y0129523D01*
X0177182Y0128874D01*
X0175983Y0127676D01*
X0175335Y0126110D01*
X0175335Y0124415D01*
X0175983Y0122849D01*
X0177182Y0121650D01*
X0177394Y0121562D01*
X0171796Y0121562D01*
X0172009Y0121650D01*
X0173207Y0122849D01*
X0173856Y0124415D01*
X0173856Y0126110D01*
X0173207Y0127676D01*
X0172009Y0128874D01*
X0170443Y0129523D01*
X0168748Y0129523D01*
X0167182Y0128874D01*
X0165983Y0127676D01*
X0165335Y0126110D01*
X0165335Y0124415D01*
X0165983Y0122849D01*
X0167182Y0121650D01*
X0167394Y0121562D01*
X0161796Y0121562D01*
X0162009Y0121650D01*
X0163207Y0122849D01*
X0163856Y0124415D01*
X0163856Y0126110D01*
X0163207Y0127676D01*
X0162009Y0128874D01*
X0160443Y0129523D01*
X0158748Y0129523D01*
X0157182Y0128874D01*
X0155983Y0127676D01*
X0155335Y0126110D01*
X0155335Y0124415D01*
X0155983Y0122849D01*
X0157182Y0121650D01*
X0157394Y0121562D01*
X0151796Y0121562D01*
X0152009Y0121650D01*
X0153207Y0122849D01*
X0153856Y0124415D01*
X0153856Y0126110D01*
X0153207Y0127676D01*
X0152009Y0128874D01*
X0150443Y0129523D01*
X0148748Y0129523D01*
X0147182Y0128874D01*
X0145983Y0127676D01*
X0145335Y0126110D01*
X0145335Y0124415D01*
X0145983Y0122849D01*
X0147182Y0121650D01*
X0147394Y0121562D01*
X0141796Y0121562D01*
X0142009Y0121650D01*
X0143207Y0122849D01*
X0143856Y0124415D01*
X0143856Y0126110D01*
X0143207Y0127676D01*
X0142009Y0128874D01*
X0140443Y0129523D01*
X0138748Y0129523D01*
X0137182Y0128874D01*
X0135983Y0127676D01*
X0135335Y0126110D01*
X0135335Y0124415D01*
X0135983Y0122849D01*
X0137182Y0121650D01*
X0137394Y0121562D01*
X0131796Y0121562D01*
X0132009Y0121650D01*
X0133207Y0122849D01*
X0133856Y0124415D01*
X0133856Y0126110D01*
X0133207Y0127676D01*
X0132009Y0128874D01*
X0130443Y0129523D01*
X0128748Y0129523D01*
X0127182Y0128874D01*
X0125983Y0127676D01*
X0125335Y0126110D01*
X0125335Y0124415D01*
X0125983Y0122849D01*
X0127182Y0121650D01*
X0127394Y0121562D01*
X0121796Y0121562D01*
X0122009Y0121650D01*
X0123207Y0122849D01*
X0123856Y0124415D01*
X0123856Y0126110D01*
X0123207Y0127676D01*
X0122009Y0128874D01*
X0120443Y0129523D01*
X0118748Y0129523D01*
X0117182Y0128874D01*
X0115983Y0127676D01*
X0115335Y0126110D01*
X0115335Y0124415D01*
X0115983Y0122849D01*
X0117182Y0121650D01*
X0117394Y0121562D01*
X0111796Y0121562D01*
X0112009Y0121650D01*
X0113207Y0122849D01*
X0113856Y0124415D01*
X0113856Y0126110D01*
X0113207Y0127676D01*
X0112009Y0128874D01*
X0110443Y0129523D01*
X0108748Y0129523D01*
X0107182Y0128874D01*
X0105983Y0127676D01*
X0105335Y0126110D01*
X0105335Y0124415D01*
X0105983Y0122849D01*
X0107182Y0121650D01*
X0107394Y0121562D01*
X0101796Y0121562D01*
X0102009Y0121650D01*
X0103207Y0122849D01*
X0103856Y0124415D01*
X0103856Y0126110D01*
X0103207Y0127676D01*
X0102009Y0128874D01*
X0100443Y0129523D01*
X0098748Y0129523D01*
X0097182Y0128874D01*
X0095983Y0127676D01*
X0095335Y0126110D01*
X0095335Y0124415D01*
X0095983Y0122849D01*
X0097182Y0121650D01*
X0097394Y0121562D01*
X0092615Y0121562D01*
X0092702Y0121625D01*
X0093232Y0122156D01*
X0093674Y0122763D01*
X0094014Y0123432D01*
X0094246Y0124146D01*
X0094364Y0124887D01*
X0094364Y0125078D01*
X0089779Y0125078D01*
X0089779Y0125447D01*
X0089411Y0125447D01*
X0089411Y0130031D01*
X0089220Y0130031D01*
X0088479Y0129914D01*
X0087765Y0129682D01*
X0087096Y0129341D01*
X0086489Y0128900D01*
X0085958Y0128369D01*
X0085517Y0127762D01*
X0085176Y0127093D01*
X0084944Y0126379D01*
X0084827Y0125638D01*
X0084827Y0125447D01*
X0089411Y0125447D01*
X0089411Y0125078D01*
X0084827Y0125078D01*
X0084827Y0124887D01*
X0084944Y0124146D01*
X0085176Y0123432D01*
X0085517Y0122763D01*
X0085958Y0122156D01*
X0086489Y0121625D01*
X0086575Y0121562D01*
X0081796Y0121562D01*
X0082009Y0121650D01*
X0083207Y0122849D01*
X0083856Y0124415D01*
X0083856Y0126110D01*
X0083207Y0127676D01*
X0082009Y0128874D01*
X0080443Y0129523D01*
X0078748Y0129523D01*
X0077182Y0128874D01*
X0075983Y0127676D01*
X0075335Y0126110D01*
X0075335Y0124415D01*
X0075983Y0122849D01*
X0077182Y0121650D01*
X0077394Y0121562D01*
X0071796Y0121562D01*
X0072009Y0121650D01*
X0073207Y0122849D01*
X0073856Y0124415D01*
X0073856Y0126110D01*
X0073207Y0127676D01*
X0072009Y0128874D01*
X0070443Y0129523D01*
X0068748Y0129523D01*
X0067182Y0128874D01*
X0065983Y0127676D01*
X0065335Y0126110D01*
X0065335Y0124415D01*
X0065983Y0122849D01*
X0067182Y0121650D01*
X0067394Y0121562D01*
X0061796Y0121562D01*
X0062009Y0121650D01*
X0063207Y0122849D01*
X0063856Y0124415D01*
X0063856Y0126110D01*
X0063207Y0127676D01*
X0062009Y0128874D01*
X0060443Y0129523D01*
X0058748Y0129523D01*
X0057182Y0128874D01*
X0055983Y0127676D01*
X0055335Y0126110D01*
X0055335Y0124415D01*
X0055983Y0122849D01*
X0057182Y0121650D01*
X0057394Y0121562D01*
X0044595Y0121562D01*
X0043234Y0121670D01*
X0040645Y0122511D01*
X0038443Y0124111D01*
X0036843Y0126313D01*
X0036002Y0128901D01*
X0035895Y0130262D01*
X0035895Y0154724D01*
X0037895Y0156724D01*
X0037895Y0173801D01*
X0037134Y0174562D01*
X0035895Y0175801D01*
X0035895Y0200262D01*
X0036002Y0201623D01*
X0036843Y0204212D01*
X0038443Y0206414D01*
X0040645Y0208014D01*
X0043234Y0208855D01*
X0044595Y0208962D01*
X0097394Y0208962D01*
X0097182Y0208874D01*
X0095983Y0207676D01*
X0095335Y0206110D01*
X0095335Y0204415D01*
X0095983Y0202849D01*
X0097182Y0201650D01*
X0098748Y0201002D01*
X0100443Y0201002D01*
X0102009Y0201650D01*
X0103207Y0202849D01*
X0103856Y0204415D01*
X0103856Y0206110D01*
X0103207Y0207676D01*
X0102009Y0208874D01*
X0101796Y0208962D01*
X0107394Y0208962D01*
X0107182Y0208874D01*
X0105983Y0207676D01*
X0105335Y0206110D01*
X0105335Y0204415D01*
X0105983Y0202849D01*
X0107182Y0201650D01*
X0108748Y0201002D01*
X0110443Y0201002D01*
X0112009Y0201650D01*
X0113207Y0202849D01*
X0113856Y0204415D01*
X0113856Y0206110D01*
X0113207Y0207676D01*
X0112009Y0208874D01*
X0111796Y0208962D01*
X0117394Y0208962D01*
X0117182Y0208874D01*
X0115983Y0207676D01*
X0115335Y0206110D01*
X0115335Y0204415D01*
X0115983Y0202849D01*
X0117182Y0201650D01*
X0118748Y0201002D01*
X0120443Y0201002D01*
X0122009Y0201650D01*
X0123207Y0202849D01*
X0123856Y0204415D01*
X0123856Y0206110D01*
X0123207Y0207676D01*
X0122009Y0208874D01*
X0121796Y0208962D01*
X0127394Y0208962D01*
X0127182Y0208874D01*
X0125983Y0207676D01*
X0125335Y0206110D01*
X0125335Y0204415D01*
X0125983Y0202849D01*
X0127182Y0201650D01*
X0128748Y0201002D01*
X0130443Y0201002D01*
X0132009Y0201650D01*
X0133207Y0202849D01*
X0133856Y0204415D01*
X0133856Y0206110D01*
X0133207Y0207676D01*
X0132009Y0208874D01*
X0131796Y0208962D01*
X0137394Y0208962D01*
X0137182Y0208874D01*
X0135983Y0207676D01*
X0135335Y0206110D01*
X0135335Y0204415D01*
X0135983Y0202849D01*
X0137182Y0201650D01*
X0138748Y0201002D01*
X0140443Y0201002D01*
X0142009Y0201650D01*
X0143207Y0202849D01*
X0143856Y0204415D01*
X0143856Y0206110D01*
X0143207Y0207676D01*
X0142009Y0208874D01*
X0141796Y0208962D01*
X0147394Y0208962D01*
X0147182Y0208874D01*
X0145983Y0207676D01*
X0145335Y0206110D01*
X0145335Y0204415D01*
X0145983Y0202849D01*
X0147182Y0201650D01*
X0148748Y0201002D01*
X0150443Y0201002D01*
X0152009Y0201650D01*
X0153207Y0202849D01*
X0153856Y0204415D01*
X0153856Y0206110D01*
X0153207Y0207676D01*
X0152009Y0208874D01*
X0151796Y0208962D01*
X0157394Y0208962D01*
X0157182Y0208874D01*
X0155983Y0207676D01*
X0155335Y0206110D01*
X0155335Y0204415D01*
X0155983Y0202849D01*
X0157182Y0201650D01*
X0158748Y0201002D01*
X0160443Y0201002D01*
X0162009Y0201650D01*
X0163207Y0202849D01*
X0163856Y0204415D01*
X0163856Y0206110D01*
X0163207Y0207676D01*
X0162009Y0208874D01*
X0161796Y0208962D01*
X0167394Y0208962D01*
X0167182Y0208874D01*
X0165983Y0207676D01*
X0165335Y0206110D01*
X0165335Y0204415D01*
X0165983Y0202849D01*
X0167182Y0201650D01*
X0168748Y0201002D01*
X0170443Y0201002D01*
X0170716Y0201115D01*
X0170716Y0199721D01*
X0171928Y0198510D01*
X0173641Y0198510D01*
X0174852Y0199721D01*
X0174852Y0201434D01*
X0173641Y0202645D01*
X0173003Y0202645D01*
X0173207Y0202849D01*
X0173856Y0204415D01*
X0173856Y0206110D01*
X0173207Y0207676D01*
X0172009Y0208874D01*
X0171796Y0208962D01*
X0177394Y0208962D01*
X0177182Y0208874D01*
X0175983Y0207676D01*
X0175335Y0206110D01*
X0175335Y0204415D01*
X0175983Y0202849D01*
X0177182Y0201650D01*
X0178748Y0201002D01*
X0180443Y0201002D01*
X0182009Y0201650D01*
X0183207Y0202849D01*
X0183856Y0204415D01*
X0183856Y0206110D01*
X0183207Y0207676D01*
X0182009Y0208874D01*
X0181796Y0208962D01*
X0187394Y0208962D01*
X0187182Y0208874D01*
X0185983Y0207676D01*
X0185335Y0206110D01*
X0185335Y0204415D01*
X0185983Y0202849D01*
X0187182Y0201650D01*
X0188748Y0201002D01*
X0190443Y0201002D01*
X0192009Y0201650D01*
X0193207Y0202849D01*
X0193856Y0204415D01*
X0193856Y0206110D01*
X0193207Y0207676D01*
X0192009Y0208874D01*
X0191796Y0208962D01*
X0197394Y0208962D01*
X0197182Y0208874D01*
X0195983Y0207676D01*
X0195335Y0206110D01*
X0195335Y0204415D01*
X0195983Y0202849D01*
X0197182Y0201650D01*
X0198748Y0201002D01*
X0200443Y0201002D01*
X0202009Y0201650D01*
X0203207Y0202849D01*
X0203856Y0204415D01*
X0203856Y0206110D01*
X0203207Y0207676D01*
X0202009Y0208874D01*
X0201796Y0208962D01*
X0207394Y0208962D01*
X0207182Y0208874D01*
X0205983Y0207676D01*
X0205335Y0206110D01*
X0205335Y0204415D01*
X0205983Y0202849D01*
X0207182Y0201650D01*
X0208748Y0201002D01*
X0210443Y0201002D01*
X0212009Y0201650D01*
X0213207Y0202849D01*
X0213856Y0204415D01*
X0213856Y0206110D01*
X0213207Y0207676D01*
X0212009Y0208874D01*
X0211796Y0208962D01*
X0224595Y0208962D01*
X0225956Y0208855D01*
X0228545Y0208014D01*
X0230747Y0206414D01*
X0232347Y0204212D01*
X0233188Y0201623D01*
X0233295Y0200262D01*
X0233135Y0201787D02*
X0230783Y0201787D01*
X0230121Y0203385D02*
X0232616Y0203385D01*
X0231786Y0204984D02*
X0228784Y0204984D01*
X0230516Y0206582D02*
X0213660Y0206582D01*
X0213856Y0204984D02*
X0220407Y0204984D01*
X0219070Y0203385D02*
X0213429Y0203385D01*
X0212145Y0201787D02*
X0218407Y0201787D01*
X0218295Y0200188D02*
X0174852Y0200188D01*
X0174499Y0201787D02*
X0177046Y0201787D01*
X0175761Y0203385D02*
X0173429Y0203385D01*
X0173856Y0204984D02*
X0175335Y0204984D01*
X0175530Y0206582D02*
X0173660Y0206582D01*
X0172702Y0208181D02*
X0176488Y0208181D01*
X0166488Y0208181D02*
X0162702Y0208181D01*
X0163660Y0206582D02*
X0165530Y0206582D01*
X0165335Y0204984D02*
X0163856Y0204984D01*
X0163429Y0203385D02*
X0165761Y0203385D01*
X0167046Y0201787D02*
X0162145Y0201787D01*
X0157046Y0201787D02*
X0152145Y0201787D01*
X0153429Y0203385D02*
X0155761Y0203385D01*
X0155335Y0204984D02*
X0153856Y0204984D01*
X0153660Y0206582D02*
X0155530Y0206582D01*
X0156488Y0208181D02*
X0152702Y0208181D01*
X0146488Y0208181D02*
X0142702Y0208181D01*
X0143660Y0206582D02*
X0145530Y0206582D01*
X0145335Y0204984D02*
X0143856Y0204984D01*
X0143429Y0203385D02*
X0145761Y0203385D01*
X0147046Y0201787D02*
X0142145Y0201787D01*
X0137046Y0201787D02*
X0132145Y0201787D01*
X0133429Y0203385D02*
X0135761Y0203385D01*
X0135335Y0204984D02*
X0133856Y0204984D01*
X0133660Y0206582D02*
X0135530Y0206582D01*
X0136488Y0208181D02*
X0132702Y0208181D01*
X0126488Y0208181D02*
X0122702Y0208181D01*
X0123660Y0206582D02*
X0125530Y0206582D01*
X0125335Y0204984D02*
X0123856Y0204984D01*
X0123429Y0203385D02*
X0125761Y0203385D01*
X0127046Y0201787D02*
X0122145Y0201787D01*
X0117046Y0201787D02*
X0112145Y0201787D01*
X0113429Y0203385D02*
X0115761Y0203385D01*
X0115335Y0204984D02*
X0113856Y0204984D01*
X0113660Y0206582D02*
X0115530Y0206582D01*
X0116488Y0208181D02*
X0112702Y0208181D01*
X0106488Y0208181D02*
X0102702Y0208181D01*
X0103660Y0206582D02*
X0105530Y0206582D01*
X0105335Y0204984D02*
X0103856Y0204984D01*
X0103429Y0203385D02*
X0105761Y0203385D01*
X0106318Y0201858D02*
X0104605Y0201858D01*
X0103394Y0200646D01*
X0103394Y0198934D01*
X0104605Y0197722D01*
X0106318Y0197722D01*
X0107529Y0198934D01*
X0107529Y0200646D01*
X0106318Y0201858D01*
X0106389Y0201787D02*
X0107046Y0201787D01*
X0107529Y0200188D02*
X0170716Y0200188D01*
X0171848Y0198590D02*
X0107185Y0198590D01*
X0103738Y0198590D02*
X0096161Y0198590D01*
X0096505Y0198934D02*
X0095294Y0197722D01*
X0093581Y0197722D01*
X0092370Y0198934D01*
X0092370Y0200646D01*
X0093581Y0201858D01*
X0095294Y0201858D01*
X0096505Y0200646D01*
X0096505Y0198934D01*
X0096505Y0200188D02*
X0103394Y0200188D01*
X0104534Y0201787D02*
X0102145Y0201787D01*
X0097046Y0201787D02*
X0095365Y0201787D01*
X0095761Y0203385D02*
X0052192Y0203385D01*
X0052809Y0201896D02*
X0051558Y0204915D01*
X0049248Y0207225D01*
X0046229Y0208476D01*
X0042961Y0208476D01*
X0039943Y0207225D01*
X0037632Y0204915D01*
X0036382Y0201896D01*
X0036382Y0198629D01*
X0037632Y0195610D01*
X0039943Y0193299D01*
X0042961Y0192049D01*
X0046229Y0192049D01*
X0049248Y0193299D01*
X0051558Y0195610D01*
X0052809Y0198629D01*
X0052809Y0201896D01*
X0052809Y0201787D02*
X0093510Y0201787D01*
X0092370Y0200188D02*
X0052809Y0200188D01*
X0052792Y0198590D02*
X0092714Y0198590D01*
X0095335Y0204984D02*
X0051490Y0204984D01*
X0049891Y0206582D02*
X0095530Y0206582D01*
X0096488Y0208181D02*
X0046942Y0208181D01*
X0042249Y0208181D02*
X0041157Y0208181D01*
X0039299Y0206582D02*
X0038674Y0206582D01*
X0037701Y0204984D02*
X0037404Y0204984D01*
X0036998Y0203385D02*
X0036575Y0203385D01*
X0036382Y0201787D02*
X0036055Y0201787D01*
X0035895Y0200188D02*
X0036382Y0200188D01*
X0036398Y0198590D02*
X0035895Y0198590D01*
X0035895Y0196991D02*
X0037060Y0196991D01*
X0037850Y0195392D02*
X0035895Y0195392D01*
X0035895Y0193794D02*
X0039448Y0193794D01*
X0042608Y0192195D02*
X0035895Y0192195D01*
X0035895Y0190597D02*
X0107331Y0190597D01*
X0107541Y0192195D02*
X0046582Y0192195D01*
X0049742Y0193794D02*
X0153234Y0193794D01*
X0159891Y0188998D02*
X0166817Y0188998D01*
X0168536Y0187400D02*
X0161327Y0187400D01*
X0161860Y0185801D02*
X0202606Y0185801D01*
X0202606Y0186473D02*
X0202606Y0184760D01*
X0203817Y0183549D01*
X0205530Y0183549D01*
X0206742Y0184760D01*
X0206742Y0186473D01*
X0205530Y0187684D01*
X0203817Y0187684D01*
X0202606Y0186473D01*
X0203533Y0187400D02*
X0200654Y0187400D01*
X0200202Y0187212D02*
X0201323Y0187677D01*
X0202181Y0188535D01*
X0202645Y0189656D01*
X0202645Y0190869D01*
X0202181Y0191990D01*
X0201323Y0192848D01*
X0200202Y0193312D01*
X0198988Y0193312D01*
X0197867Y0192848D01*
X0197009Y0191990D01*
X0196545Y0190869D01*
X0196545Y0189656D01*
X0197009Y0188535D01*
X0197867Y0187677D01*
X0198988Y0187212D01*
X0200202Y0187212D01*
X0198536Y0187400D02*
X0180654Y0187400D01*
X0180202Y0187212D02*
X0181323Y0187677D01*
X0182181Y0188535D01*
X0182645Y0189656D01*
X0182645Y0190869D01*
X0182181Y0191990D01*
X0181323Y0192848D01*
X0180202Y0193312D01*
X0178988Y0193312D01*
X0177867Y0192848D01*
X0177009Y0191990D01*
X0176545Y0190869D01*
X0176545Y0189656D01*
X0177009Y0188535D01*
X0177867Y0187677D01*
X0178988Y0187212D01*
X0180202Y0187212D01*
X0178536Y0187400D02*
X0170654Y0187400D01*
X0172373Y0188998D02*
X0176817Y0188998D01*
X0176545Y0190597D02*
X0172645Y0190597D01*
X0171975Y0192195D02*
X0177215Y0192195D01*
X0181975Y0192195D02*
X0197215Y0192195D01*
X0196545Y0190597D02*
X0182645Y0190597D01*
X0182373Y0188998D02*
X0196817Y0188998D01*
X0202373Y0188998D02*
X0206817Y0188998D01*
X0206545Y0190597D02*
X0206279Y0190597D01*
X0206742Y0192195D02*
X0207215Y0192195D01*
X0203069Y0190597D02*
X0202645Y0190597D01*
X0202606Y0192195D02*
X0201975Y0192195D01*
X0205815Y0187400D02*
X0208536Y0187400D01*
X0210654Y0187400D02*
X0233295Y0187400D01*
X0233295Y0188998D02*
X0212373Y0188998D01*
X0212645Y0190597D02*
X0233295Y0190597D01*
X0233295Y0192195D02*
X0211975Y0192195D01*
X0206742Y0185801D02*
X0233295Y0185801D01*
X0233295Y0184203D02*
X0206184Y0184203D01*
X0205924Y0182960D02*
X0204211Y0182960D01*
X0203000Y0181749D01*
X0203000Y0180036D01*
X0203718Y0179318D01*
X0202606Y0178206D01*
X0202606Y0176493D01*
X0203817Y0175281D01*
X0205530Y0175281D01*
X0206742Y0176493D01*
X0206742Y0178206D01*
X0206023Y0178924D01*
X0206607Y0179507D01*
X0207009Y0178535D01*
X0207867Y0177677D01*
X0208419Y0177448D01*
X0208148Y0177448D01*
X0206937Y0176237D01*
X0206937Y0174524D01*
X0208148Y0173313D01*
X0209861Y0173313D01*
X0211072Y0174524D01*
X0211072Y0176237D01*
X0210097Y0177212D01*
X0210202Y0177212D01*
X0211323Y0177677D01*
X0212181Y0178535D01*
X0212645Y0179656D01*
X0212645Y0180869D01*
X0212181Y0181990D01*
X0211323Y0182848D01*
X0210202Y0183312D01*
X0208988Y0183312D01*
X0207867Y0182848D01*
X0207009Y0181990D01*
X0206976Y0181908D01*
X0205924Y0182960D01*
X0206280Y0182604D02*
X0207624Y0182604D01*
X0206648Y0179407D02*
X0206507Y0179407D01*
X0206742Y0177809D02*
X0207735Y0177809D01*
X0206937Y0176210D02*
X0206459Y0176210D01*
X0206937Y0174612D02*
X0159192Y0174612D01*
X0158680Y0174100D02*
X0159891Y0175311D01*
X0159891Y0177024D01*
X0158680Y0178236D01*
X0156967Y0178236D01*
X0155756Y0177024D01*
X0155756Y0175311D01*
X0156967Y0174100D01*
X0158680Y0174100D01*
X0158680Y0173511D02*
X0156967Y0173511D01*
X0155756Y0172300D01*
X0155756Y0170587D01*
X0156967Y0169376D01*
X0158680Y0169376D01*
X0159891Y0170587D01*
X0159891Y0172300D01*
X0158680Y0173511D01*
X0159178Y0173013D02*
X0168266Y0173013D01*
X0167867Y0172848D02*
X0167009Y0171990D01*
X0166545Y0170869D01*
X0166545Y0169656D01*
X0167009Y0168535D01*
X0167867Y0167677D01*
X0168988Y0167212D01*
X0170202Y0167212D01*
X0171323Y0167677D01*
X0172181Y0168535D01*
X0172645Y0169656D01*
X0172645Y0170869D01*
X0172181Y0171990D01*
X0171323Y0172848D01*
X0170202Y0173312D01*
X0168988Y0173312D01*
X0167867Y0172848D01*
X0166771Y0171415D02*
X0159891Y0171415D01*
X0159120Y0169816D02*
X0166545Y0169816D01*
X0167326Y0168218D02*
X0146892Y0168218D01*
X0146771Y0168097D02*
X0147293Y0168619D01*
X0147293Y0170332D01*
X0146082Y0171543D01*
X0144369Y0171543D01*
X0143157Y0170332D01*
X0143157Y0168619D01*
X0143679Y0168097D01*
X0143157Y0167576D01*
X0143157Y0167380D01*
X0142145Y0168393D01*
X0140432Y0168393D01*
X0139220Y0167182D01*
X0139220Y0165469D01*
X0140432Y0164258D01*
X0142145Y0164258D01*
X0143356Y0165469D01*
X0143356Y0165664D01*
X0144369Y0164651D01*
X0146082Y0164651D01*
X0147293Y0165863D01*
X0147293Y0167576D01*
X0146771Y0168097D01*
X0147293Y0166619D02*
X0191189Y0166619D01*
X0191189Y0166256D02*
X0192400Y0165045D01*
X0194113Y0165045D01*
X0195324Y0166256D01*
X0195324Y0167969D01*
X0194113Y0169181D01*
X0192400Y0169181D01*
X0191189Y0167969D01*
X0191189Y0166256D01*
X0191437Y0168218D02*
X0181864Y0168218D01*
X0182181Y0168535D02*
X0181323Y0167677D01*
X0180202Y0167212D01*
X0178988Y0167212D01*
X0177867Y0167677D01*
X0177009Y0168535D01*
X0176545Y0169656D01*
X0176545Y0170869D01*
X0177009Y0171990D01*
X0177867Y0172848D01*
X0178988Y0173312D01*
X0180202Y0173312D01*
X0181323Y0172848D01*
X0182181Y0171990D01*
X0182645Y0170869D01*
X0182645Y0169656D01*
X0182181Y0168535D01*
X0182645Y0169816D02*
X0196545Y0169816D01*
X0196545Y0169656D02*
X0197009Y0168535D01*
X0197867Y0167677D01*
X0198988Y0167212D01*
X0200202Y0167212D01*
X0201323Y0167677D01*
X0202181Y0168535D01*
X0202645Y0169656D01*
X0202645Y0170869D01*
X0202181Y0171990D01*
X0201323Y0172848D01*
X0200202Y0173312D01*
X0198988Y0173312D01*
X0197867Y0172848D01*
X0197009Y0171990D01*
X0196545Y0170869D01*
X0196545Y0169656D01*
X0197326Y0168218D02*
X0195076Y0168218D01*
X0195324Y0166619D02*
X0229603Y0166619D01*
X0230195Y0167212D02*
X0228984Y0166001D01*
X0228984Y0164288D01*
X0230195Y0163077D01*
X0231908Y0163077D01*
X0233120Y0164288D01*
X0233120Y0166001D01*
X0231908Y0167212D01*
X0230195Y0167212D01*
X0232501Y0166619D02*
X0233295Y0166619D01*
X0233295Y0165021D02*
X0233120Y0165021D01*
X0233295Y0163422D02*
X0232254Y0163422D01*
X0233295Y0161824D02*
X0212250Y0161824D01*
X0212181Y0161990D02*
X0211323Y0162848D01*
X0210202Y0163312D01*
X0208988Y0163312D01*
X0207867Y0162848D01*
X0207009Y0161990D01*
X0206545Y0160869D01*
X0206545Y0159656D01*
X0207009Y0158535D01*
X0207867Y0157677D01*
X0208988Y0157212D01*
X0210202Y0157212D01*
X0211323Y0157677D01*
X0212181Y0158535D01*
X0212645Y0159656D01*
X0212645Y0160869D01*
X0212181Y0161990D01*
X0212645Y0160225D02*
X0233295Y0160225D01*
X0233295Y0158627D02*
X0212219Y0158627D01*
X0206971Y0158627D02*
X0202219Y0158627D01*
X0202181Y0158535D02*
X0202645Y0159656D01*
X0202645Y0160869D01*
X0202181Y0161990D01*
X0201323Y0162848D01*
X0200202Y0163312D01*
X0198988Y0163312D01*
X0197867Y0162848D01*
X0197009Y0161990D01*
X0196545Y0160869D01*
X0196545Y0159656D01*
X0197009Y0158535D01*
X0197867Y0157677D01*
X0198988Y0157212D01*
X0200202Y0157212D01*
X0201323Y0157677D01*
X0202181Y0158535D01*
X0202645Y0160225D02*
X0206545Y0160225D01*
X0206941Y0161824D02*
X0202250Y0161824D01*
X0196941Y0161824D02*
X0182250Y0161824D01*
X0182181Y0161990D02*
X0181323Y0162848D01*
X0180202Y0163312D01*
X0178988Y0163312D01*
X0177867Y0162848D01*
X0177009Y0161990D01*
X0176545Y0160869D01*
X0176545Y0159656D01*
X0177009Y0158535D01*
X0177867Y0157677D01*
X0178988Y0157212D01*
X0180202Y0157212D01*
X0181323Y0157677D01*
X0182181Y0158535D01*
X0182645Y0159656D01*
X0182645Y0160869D01*
X0182181Y0161990D01*
X0182645Y0160225D02*
X0196545Y0160225D01*
X0196971Y0158627D02*
X0193643Y0158627D01*
X0193326Y0158944D02*
X0191613Y0158944D01*
X0190401Y0157733D01*
X0190401Y0156020D01*
X0191613Y0154809D01*
X0193326Y0154809D01*
X0194537Y0156020D01*
X0194537Y0157733D01*
X0193326Y0158944D01*
X0191295Y0158627D02*
X0182219Y0158627D01*
X0176971Y0158627D02*
X0172219Y0158627D01*
X0172181Y0158535D02*
X0172645Y0159656D01*
X0172645Y0160869D01*
X0172181Y0161990D01*
X0171323Y0162848D01*
X0170202Y0163312D01*
X0168988Y0163312D01*
X0167867Y0162848D01*
X0167009Y0161990D01*
X0166545Y0160869D01*
X0166545Y0159656D01*
X0167009Y0158535D01*
X0167867Y0157677D01*
X0168988Y0157212D01*
X0170202Y0157212D01*
X0171323Y0157677D01*
X0172181Y0158535D01*
X0172645Y0160225D02*
X0176545Y0160225D01*
X0176941Y0161824D02*
X0172250Y0161824D01*
X0166941Y0161824D02*
X0159891Y0161824D01*
X0159891Y0161138D02*
X0158680Y0159927D01*
X0156967Y0159927D01*
X0155756Y0161138D01*
X0155756Y0162851D01*
X0156967Y0164062D01*
X0158680Y0164062D01*
X0159891Y0162851D01*
X0159891Y0161138D01*
X0158978Y0160225D02*
X0166545Y0160225D01*
X0166971Y0158627D02*
X0155061Y0158627D01*
X0155167Y0158521D02*
X0153956Y0159732D01*
X0152411Y0159732D01*
X0152411Y0161276D01*
X0151200Y0162488D01*
X0149487Y0162488D01*
X0148275Y0161276D01*
X0148275Y0159563D01*
X0149487Y0158352D01*
X0151031Y0158352D01*
X0151031Y0156808D01*
X0152243Y0155596D01*
X0153956Y0155596D01*
X0155167Y0156808D01*
X0155167Y0158521D01*
X0155167Y0157028D02*
X0190401Y0157028D01*
X0190992Y0155430D02*
X0138144Y0155430D01*
X0137878Y0155696D02*
X0138722Y0156539D01*
X0138722Y0158001D01*
X0138665Y0158058D01*
X0138722Y0158114D01*
X0138722Y0159576D01*
X0137688Y0160610D01*
X0137147Y0160610D01*
X0137147Y0161151D01*
X0136303Y0161995D01*
X0137147Y0162839D01*
X0137147Y0164300D01*
X0136113Y0165334D01*
X0134652Y0165334D01*
X0134595Y0165278D01*
X0134539Y0165334D01*
X0133077Y0165334D01*
X0133020Y0165278D01*
X0132964Y0165334D01*
X0131502Y0165334D01*
X0130658Y0164490D01*
X0129814Y0165334D01*
X0128352Y0165334D01*
X0127319Y0164300D01*
X0127319Y0162839D01*
X0127375Y0162782D01*
X0127319Y0162726D01*
X0127319Y0161264D01*
X0128163Y0160420D01*
X0127319Y0159576D01*
X0127319Y0158114D01*
X0128352Y0157081D01*
X0129814Y0157081D01*
X0130468Y0157735D01*
X0130468Y0156539D01*
X0130525Y0156483D01*
X0130468Y0156426D01*
X0130468Y0154965D01*
X0131502Y0153931D01*
X0132964Y0153931D01*
X0133020Y0153987D01*
X0133077Y0153931D01*
X0134539Y0153931D01*
X0135193Y0154585D01*
X0135193Y0153390D01*
X0136226Y0152356D01*
X0137688Y0152356D01*
X0138722Y0153390D01*
X0138722Y0154852D01*
X0137878Y0155696D01*
X0138722Y0157028D02*
X0151031Y0157028D01*
X0149212Y0158627D02*
X0146356Y0158627D01*
X0146082Y0158352D02*
X0147293Y0159563D01*
X0147293Y0161276D01*
X0146082Y0162488D01*
X0144369Y0162488D01*
X0143157Y0161276D01*
X0143157Y0159563D01*
X0144369Y0158352D01*
X0146082Y0158352D01*
X0144094Y0158627D02*
X0138722Y0158627D01*
X0138073Y0160225D02*
X0143157Y0160225D01*
X0143705Y0161824D02*
X0136474Y0161824D01*
X0137147Y0163422D02*
X0156327Y0163422D01*
X0155756Y0161824D02*
X0151864Y0161824D01*
X0152411Y0160225D02*
X0156669Y0160225D01*
X0159320Y0163422D02*
X0229850Y0163422D01*
X0228984Y0165021D02*
X0146451Y0165021D01*
X0143999Y0165021D02*
X0142908Y0165021D01*
X0139669Y0165021D02*
X0136427Y0165021D01*
X0136239Y0168195D02*
X0137450Y0169406D01*
X0137450Y0171119D01*
X0136239Y0172330D01*
X0134526Y0172330D01*
X0133315Y0171119D01*
X0133315Y0169406D01*
X0134526Y0168195D01*
X0136239Y0168195D01*
X0136262Y0168218D02*
X0140256Y0168218D01*
X0139220Y0166619D02*
X0121477Y0166619D01*
X0120885Y0167212D02*
X0119734Y0167212D01*
X0119734Y0168363D01*
X0118522Y0169574D01*
X0117372Y0169574D01*
X0117372Y0170332D01*
X0116160Y0171543D01*
X0114447Y0171543D01*
X0114123Y0171218D01*
X0113798Y0171543D01*
X0112085Y0171543D01*
X0111760Y0171218D01*
X0111436Y0171543D01*
X0109982Y0171543D01*
X0109982Y0172568D01*
X0109925Y0172625D01*
X0109982Y0172681D01*
X0109982Y0174143D01*
X0108948Y0175177D01*
X0107486Y0175177D01*
X0106832Y0174522D01*
X0106832Y0175718D01*
X0105798Y0176751D01*
X0104773Y0176751D01*
X0104773Y0178206D01*
X0103562Y0179417D01*
X0101849Y0179417D01*
X0100638Y0178206D01*
X0100638Y0176493D01*
X0101849Y0175281D01*
X0103303Y0175281D01*
X0103303Y0174256D01*
X0104147Y0173412D01*
X0103303Y0172568D01*
X0103303Y0171106D01*
X0103933Y0170477D01*
X0103787Y0170332D01*
X0103787Y0169574D01*
X0102243Y0169574D01*
X0101031Y0168363D01*
X0101031Y0166650D01*
X0102243Y0165439D01*
X0103956Y0165439D01*
X0105167Y0166650D01*
X0105167Y0167407D01*
X0106711Y0167407D01*
X0107923Y0168619D01*
X0107923Y0170073D01*
X0108512Y0170073D01*
X0108512Y0168619D01*
X0109693Y0167437D01*
X0109693Y0166650D01*
X0110904Y0165439D01*
X0112617Y0165439D01*
X0113828Y0166650D01*
X0113828Y0167437D01*
X0114123Y0167732D01*
X0114447Y0167407D01*
X0115598Y0167407D01*
X0115598Y0166650D01*
X0115923Y0166325D01*
X0115598Y0166001D01*
X0115598Y0164288D01*
X0116810Y0163077D01*
X0118522Y0163077D01*
X0118847Y0163401D01*
X0119172Y0163077D01*
X0120885Y0163077D01*
X0122096Y0164288D01*
X0122096Y0166001D01*
X0120885Y0167212D01*
X0119734Y0168218D02*
X0122692Y0168218D01*
X0122715Y0168195D02*
X0123079Y0168195D01*
X0123079Y0167831D01*
X0124290Y0166620D01*
X0126003Y0166620D01*
X0127214Y0167831D01*
X0127214Y0169544D01*
X0126003Y0170755D01*
X0125639Y0170755D01*
X0125639Y0171119D01*
X0124428Y0172330D01*
X0122715Y0172330D01*
X0121504Y0171119D01*
X0121504Y0169406D01*
X0122715Y0168195D01*
X0121504Y0169816D02*
X0117372Y0169816D01*
X0116288Y0171415D02*
X0121800Y0171415D01*
X0125343Y0171415D02*
X0133611Y0171415D01*
X0133315Y0169816D02*
X0126942Y0169816D01*
X0127214Y0168218D02*
X0134503Y0168218D01*
X0137450Y0169816D02*
X0143157Y0169816D01*
X0141751Y0170557D02*
X0142962Y0171768D01*
X0142962Y0173481D01*
X0142175Y0174269D01*
X0142175Y0175450D01*
X0140963Y0176661D01*
X0139812Y0176661D01*
X0139812Y0177024D01*
X0138601Y0178236D01*
X0136888Y0178236D01*
X0136101Y0177448D01*
X0134920Y0177448D01*
X0134005Y0176533D01*
X0133976Y0176562D01*
X0134301Y0176886D01*
X0134301Y0178599D01*
X0133089Y0179810D01*
X0131376Y0179810D01*
X0130165Y0178599D01*
X0130165Y0176886D01*
X0130490Y0176562D01*
X0130165Y0176237D01*
X0130165Y0174524D01*
X0131376Y0173313D01*
X0133089Y0173313D01*
X0134005Y0174228D01*
X0134920Y0173313D01*
X0136633Y0173313D01*
X0137420Y0174100D01*
X0138039Y0174100D01*
X0138039Y0173737D01*
X0138827Y0172949D01*
X0138827Y0171768D01*
X0140038Y0170557D01*
X0141751Y0170557D01*
X0142609Y0171415D02*
X0144241Y0171415D01*
X0146209Y0171415D02*
X0155756Y0171415D01*
X0156469Y0173013D02*
X0142962Y0173013D01*
X0142175Y0174612D02*
X0156455Y0174612D01*
X0155756Y0176210D02*
X0146617Y0176210D01*
X0146082Y0175675D02*
X0147293Y0176886D01*
X0147293Y0178599D01*
X0146082Y0179810D01*
X0144369Y0179810D01*
X0143157Y0178599D01*
X0143157Y0176886D01*
X0144369Y0175675D01*
X0146082Y0175675D01*
X0143833Y0176210D02*
X0141414Y0176210D01*
X0143157Y0177809D02*
X0139028Y0177809D01*
X0136461Y0177809D02*
X0134301Y0177809D01*
X0133493Y0179407D02*
X0143965Y0179407D01*
X0144369Y0180399D02*
X0146082Y0180399D01*
X0147293Y0181611D01*
X0147293Y0183324D01*
X0146082Y0184535D01*
X0144369Y0184535D01*
X0143157Y0183324D01*
X0143157Y0181611D01*
X0144369Y0180399D01*
X0143762Y0181006D02*
X0121309Y0181006D01*
X0121309Y0181749D02*
X0120097Y0182960D01*
X0118384Y0182960D01*
X0118060Y0182635D01*
X0117735Y0182960D01*
X0116022Y0182960D01*
X0114811Y0181749D01*
X0114811Y0180036D01*
X0116022Y0178825D01*
X0117735Y0178825D01*
X0118060Y0179149D01*
X0118384Y0178825D01*
X0120097Y0178825D01*
X0121309Y0180036D01*
X0121309Y0181749D01*
X0120453Y0182604D02*
X0143157Y0182604D01*
X0144037Y0184203D02*
X0062090Y0184203D01*
X0060285Y0182604D02*
X0108186Y0182604D01*
X0108118Y0182536D02*
X0108118Y0180823D01*
X0109329Y0179612D01*
X0110480Y0179612D01*
X0110480Y0178067D01*
X0111691Y0176856D01*
X0113404Y0176856D01*
X0114616Y0178067D01*
X0114616Y0179780D01*
X0113404Y0180992D01*
X0112253Y0180992D01*
X0112253Y0182536D01*
X0111042Y0183747D01*
X0109329Y0183747D01*
X0108118Y0182536D01*
X0108118Y0181006D02*
X0094492Y0181006D01*
X0094537Y0180961D02*
X0093326Y0182173D01*
X0091613Y0182173D01*
X0090401Y0180961D01*
X0090401Y0179248D01*
X0091613Y0178037D01*
X0093326Y0178037D01*
X0094537Y0179248D01*
X0094537Y0180961D01*
X0094537Y0179407D02*
X0101839Y0179407D01*
X0103571Y0179407D02*
X0110480Y0179407D01*
X0110739Y0177809D02*
X0104773Y0177809D01*
X0106340Y0176210D02*
X0113630Y0176210D01*
X0113630Y0176237D02*
X0113630Y0174524D01*
X0114841Y0173313D01*
X0116554Y0173313D01*
X0117765Y0174524D01*
X0117765Y0176237D01*
X0116554Y0177448D01*
X0114841Y0177448D01*
X0113630Y0176237D01*
X0113630Y0174612D02*
X0109513Y0174612D01*
X0109982Y0173013D02*
X0138763Y0173013D01*
X0139180Y0171415D02*
X0137154Y0171415D01*
X0142320Y0168218D02*
X0143558Y0168218D01*
X0147293Y0169816D02*
X0156527Y0169816D01*
X0170924Y0173013D02*
X0178266Y0173013D01*
X0176771Y0171415D02*
X0172419Y0171415D01*
X0172645Y0169816D02*
X0176545Y0169816D01*
X0177326Y0168218D02*
X0171864Y0168218D01*
X0180924Y0173013D02*
X0198266Y0173013D01*
X0196771Y0171415D02*
X0182419Y0171415D01*
X0180202Y0177212D02*
X0181323Y0177677D01*
X0182181Y0178535D01*
X0182645Y0179656D01*
X0182645Y0180869D01*
X0182181Y0181990D01*
X0181323Y0182848D01*
X0180202Y0183312D01*
X0178988Y0183312D01*
X0177867Y0182848D01*
X0177009Y0181990D01*
X0176545Y0180869D01*
X0176545Y0179656D01*
X0177009Y0178535D01*
X0177867Y0177677D01*
X0178988Y0177212D01*
X0180202Y0177212D01*
X0181455Y0177809D02*
X0197735Y0177809D01*
X0197867Y0177677D02*
X0197009Y0178535D01*
X0196545Y0179656D01*
X0196545Y0180869D01*
X0197009Y0181990D01*
X0197867Y0182848D01*
X0198988Y0183312D01*
X0200202Y0183312D01*
X0201323Y0182848D01*
X0202181Y0181990D01*
X0202645Y0180869D01*
X0202645Y0179656D01*
X0202181Y0178535D01*
X0201323Y0177677D01*
X0200202Y0177212D01*
X0198988Y0177212D01*
X0197867Y0177677D01*
X0196648Y0179407D02*
X0182542Y0179407D01*
X0182588Y0181006D02*
X0196602Y0181006D01*
X0197624Y0182604D02*
X0193168Y0182604D01*
X0193356Y0182792D02*
X0192145Y0181581D01*
X0190432Y0181581D01*
X0189220Y0182792D01*
X0189220Y0184505D01*
X0190432Y0185716D01*
X0192145Y0185716D01*
X0193356Y0184505D01*
X0193356Y0182792D01*
X0193356Y0184203D02*
X0203164Y0184203D01*
X0203855Y0182604D02*
X0201567Y0182604D01*
X0202588Y0181006D02*
X0203000Y0181006D01*
X0202542Y0179407D02*
X0203628Y0179407D01*
X0202606Y0177809D02*
X0201455Y0177809D01*
X0202888Y0176210D02*
X0159891Y0176210D01*
X0159107Y0177809D02*
X0167735Y0177809D01*
X0167867Y0177677D02*
X0167009Y0178535D01*
X0166545Y0179656D01*
X0166545Y0180869D01*
X0167009Y0181990D01*
X0167867Y0182848D01*
X0168988Y0183312D01*
X0170202Y0183312D01*
X0171323Y0182848D01*
X0172181Y0181990D01*
X0172645Y0180869D01*
X0172645Y0179656D01*
X0172181Y0178535D01*
X0171323Y0177677D01*
X0170202Y0177212D01*
X0168988Y0177212D01*
X0167867Y0177677D01*
X0166648Y0179407D02*
X0159656Y0179407D01*
X0159891Y0179642D02*
X0158680Y0178431D01*
X0156967Y0178431D01*
X0155756Y0179642D01*
X0155756Y0181355D01*
X0156967Y0182566D01*
X0158680Y0182566D01*
X0159891Y0181355D01*
X0159891Y0179642D01*
X0159891Y0181006D02*
X0166602Y0181006D01*
X0167624Y0182604D02*
X0151949Y0182604D01*
X0152411Y0182143D02*
X0151200Y0183354D01*
X0149487Y0183354D01*
X0148275Y0182143D01*
X0148275Y0180430D01*
X0149487Y0179218D01*
X0151200Y0179218D01*
X0152411Y0180430D01*
X0152411Y0182143D01*
X0152411Y0181006D02*
X0155756Y0181006D01*
X0155991Y0179407D02*
X0151389Y0179407D01*
X0149298Y0179407D02*
X0146485Y0179407D01*
X0146688Y0181006D02*
X0148275Y0181006D01*
X0148737Y0182604D02*
X0147293Y0182604D01*
X0146414Y0184203D02*
X0154345Y0184203D01*
X0153394Y0185801D02*
X0148334Y0185801D01*
X0150326Y0187400D02*
X0153927Y0187400D01*
X0157529Y0185801D02*
X0157724Y0185801D01*
X0158675Y0184203D02*
X0156578Y0184203D01*
X0160909Y0184203D02*
X0189220Y0184203D01*
X0189408Y0182604D02*
X0181567Y0182604D01*
X0177624Y0182604D02*
X0171567Y0182604D01*
X0172588Y0181006D02*
X0176602Y0181006D01*
X0176648Y0179407D02*
X0172542Y0179407D01*
X0171455Y0177809D02*
X0177735Y0177809D01*
X0156540Y0177809D02*
X0147293Y0177809D01*
X0130973Y0179407D02*
X0126800Y0179407D01*
X0126396Y0179810D02*
X0124684Y0179810D01*
X0123472Y0178599D01*
X0123472Y0176886D01*
X0124684Y0175675D01*
X0126396Y0175675D01*
X0127608Y0176886D01*
X0127608Y0178599D01*
X0126396Y0179810D01*
X0124280Y0179407D02*
X0120680Y0179407D01*
X0123472Y0177809D02*
X0114357Y0177809D01*
X0114616Y0179407D02*
X0115439Y0179407D01*
X0114811Y0181006D02*
X0112253Y0181006D01*
X0112185Y0182604D02*
X0115666Y0182604D01*
X0117765Y0176210D02*
X0124148Y0176210D01*
X0126932Y0176210D02*
X0130165Y0176210D01*
X0130165Y0174612D02*
X0117765Y0174612D01*
X0114319Y0171415D02*
X0113926Y0171415D01*
X0111957Y0171415D02*
X0111564Y0171415D01*
X0108512Y0169816D02*
X0107923Y0169816D01*
X0107522Y0168218D02*
X0108912Y0168218D01*
X0109724Y0166619D02*
X0105136Y0166619D01*
X0103787Y0169816D02*
X0099655Y0169816D01*
X0099655Y0169406D02*
X0099655Y0171119D01*
X0099527Y0171247D01*
X0100049Y0171768D01*
X0100049Y0173481D01*
X0099527Y0174003D01*
X0099655Y0174130D01*
X0099655Y0175843D01*
X0098444Y0177055D01*
X0096731Y0177055D01*
X0095520Y0175843D01*
X0095520Y0174130D01*
X0096041Y0173609D01*
X0095913Y0173481D01*
X0095913Y0171768D01*
X0096041Y0171640D01*
X0095520Y0171119D01*
X0095520Y0169406D01*
X0096238Y0168688D01*
X0095913Y0168363D01*
X0095913Y0166650D01*
X0097124Y0165439D01*
X0098837Y0165439D01*
X0100049Y0166650D01*
X0100049Y0168363D01*
X0099330Y0169081D01*
X0099655Y0169406D01*
X0100049Y0168218D02*
X0101031Y0168218D01*
X0101062Y0166619D02*
X0100018Y0166619D01*
X0095944Y0166619D02*
X0090994Y0166619D01*
X0090994Y0166788D02*
X0089782Y0167999D01*
X0088069Y0167999D01*
X0086858Y0166788D01*
X0086858Y0165637D01*
X0086495Y0165637D01*
X0085283Y0164426D01*
X0085283Y0162713D01*
X0086495Y0161502D01*
X0088208Y0161502D01*
X0089419Y0162713D01*
X0089419Y0163864D01*
X0089782Y0163864D01*
X0090994Y0165075D01*
X0090994Y0166788D01*
X0090939Y0165021D02*
X0115598Y0165021D01*
X0115629Y0166619D02*
X0113797Y0166619D01*
X0116464Y0163422D02*
X0089419Y0163422D01*
X0088529Y0161824D02*
X0127319Y0161824D01*
X0127319Y0163422D02*
X0121230Y0163422D01*
X0122096Y0165021D02*
X0128039Y0165021D01*
X0130128Y0165021D02*
X0131189Y0165021D01*
X0127968Y0160225D02*
X0124852Y0160225D01*
X0124852Y0160489D02*
X0123641Y0161700D01*
X0121928Y0161700D01*
X0120716Y0160489D01*
X0120716Y0158776D01*
X0121928Y0157565D01*
X0123641Y0157565D01*
X0124852Y0158776D01*
X0124852Y0160489D01*
X0124702Y0158627D02*
X0127319Y0158627D01*
X0130468Y0157028D02*
X0037895Y0157028D01*
X0037895Y0158627D02*
X0120866Y0158627D01*
X0120716Y0160225D02*
X0037895Y0160225D01*
X0037895Y0161824D02*
X0086173Y0161824D01*
X0085283Y0163422D02*
X0051557Y0163422D01*
X0051557Y0163300D02*
X0050345Y0162088D01*
X0048632Y0162088D01*
X0047421Y0163300D01*
X0047421Y0165013D01*
X0047868Y0165459D01*
X0047421Y0165906D01*
X0047421Y0167619D01*
X0048632Y0168830D01*
X0050345Y0168830D01*
X0051557Y0167619D01*
X0051557Y0165906D01*
X0051110Y0165459D01*
X0051557Y0165013D01*
X0051557Y0163300D01*
X0051548Y0165021D02*
X0085878Y0165021D01*
X0086858Y0166619D02*
X0051557Y0166619D01*
X0050958Y0168218D02*
X0084503Y0168218D01*
X0084920Y0167801D02*
X0086633Y0167801D01*
X0087844Y0169012D01*
X0087844Y0170725D01*
X0086633Y0171936D01*
X0084920Y0171936D01*
X0083709Y0170725D01*
X0083709Y0169012D01*
X0084920Y0167801D01*
X0087049Y0168218D02*
X0095913Y0168218D01*
X0095520Y0169816D02*
X0087844Y0169816D01*
X0087154Y0171415D02*
X0095815Y0171415D01*
X0095913Y0173013D02*
X0037895Y0173013D01*
X0037895Y0171415D02*
X0084398Y0171415D01*
X0083709Y0169816D02*
X0037895Y0169816D01*
X0037895Y0168218D02*
X0048020Y0168218D01*
X0047421Y0166619D02*
X0037895Y0166619D01*
X0037895Y0165021D02*
X0047429Y0165021D01*
X0047421Y0163422D02*
X0037895Y0163422D01*
X0036601Y0155430D02*
X0040484Y0155430D01*
X0040795Y0155638D02*
X0040173Y0155222D01*
X0039643Y0154693D01*
X0039228Y0154070D01*
X0038941Y0153379D01*
X0038795Y0152645D01*
X0038795Y0152270D01*
X0038795Y0151896D01*
X0038941Y0151162D01*
X0039228Y0150470D01*
X0039643Y0149848D01*
X0040173Y0149319D01*
X0040795Y0148903D01*
X0041487Y0148616D01*
X0042221Y0148470D01*
X0042595Y0148470D01*
X0042595Y0152270D01*
X0042595Y0152270D01*
X0042595Y0148470D01*
X0042969Y0148470D01*
X0043704Y0148616D01*
X0044395Y0148903D01*
X0045017Y0149319D01*
X0045547Y0149848D01*
X0045963Y0150470D01*
X0046249Y0151162D01*
X0046395Y0151896D01*
X0046395Y0152270D01*
X0042595Y0152270D01*
X0038795Y0152270D01*
X0042595Y0152270D01*
X0042595Y0152270D01*
X0042595Y0152270D01*
X0046395Y0152270D01*
X0046395Y0152645D01*
X0046249Y0153379D01*
X0045963Y0154070D01*
X0045547Y0154693D01*
X0045017Y0155222D01*
X0044395Y0155638D01*
X0043704Y0155924D01*
X0042969Y0156070D01*
X0042595Y0156070D01*
X0042221Y0156070D01*
X0041487Y0155924D01*
X0040795Y0155638D01*
X0042595Y0155430D02*
X0042595Y0155430D01*
X0042595Y0156070D02*
X0042595Y0152270D01*
X0042595Y0152270D01*
X0042595Y0156070D01*
X0044707Y0155430D02*
X0110086Y0155430D01*
X0110086Y0155765D02*
X0110086Y0154052D01*
X0111298Y0152840D01*
X0113011Y0152840D01*
X0114222Y0154052D01*
X0114222Y0155765D01*
X0113011Y0156976D01*
X0111298Y0156976D01*
X0110086Y0155765D01*
X0110307Y0153831D02*
X0046062Y0153831D01*
X0046395Y0152233D02*
X0128996Y0152233D01*
X0129014Y0152251D02*
X0127803Y0151040D01*
X0127803Y0149327D01*
X0129014Y0148116D01*
X0130727Y0148116D01*
X0131938Y0149327D01*
X0131938Y0151040D01*
X0130727Y0152251D01*
X0129014Y0152251D01*
X0130746Y0152233D02*
X0167252Y0152233D01*
X0167009Y0151990D02*
X0166545Y0150869D01*
X0166545Y0149656D01*
X0167009Y0148535D01*
X0167867Y0147677D01*
X0168988Y0147212D01*
X0170202Y0147212D01*
X0171323Y0147677D01*
X0172181Y0148535D01*
X0172330Y0148895D01*
X0173502Y0147722D01*
X0175215Y0147722D01*
X0176427Y0148934D01*
X0176427Y0150646D01*
X0175215Y0151858D01*
X0173502Y0151858D01*
X0172607Y0150962D01*
X0172181Y0151990D01*
X0171323Y0152848D01*
X0170202Y0153312D01*
X0168988Y0153312D01*
X0167867Y0152848D01*
X0167009Y0151990D01*
X0166545Y0150634D02*
X0157541Y0150634D01*
X0157499Y0150677D02*
X0155786Y0150677D01*
X0154575Y0149465D01*
X0154575Y0147752D01*
X0155786Y0146541D01*
X0157499Y0146541D01*
X0158710Y0147752D01*
X0158710Y0149465D01*
X0157499Y0150677D01*
X0155743Y0150634D02*
X0131938Y0150634D01*
X0131647Y0149036D02*
X0154575Y0149036D01*
X0154890Y0147437D02*
X0125246Y0147437D01*
X0125246Y0147359D02*
X0124921Y0147034D01*
X0125246Y0146709D01*
X0125246Y0144997D01*
X0124133Y0143885D01*
X0125246Y0142772D01*
X0125246Y0141060D01*
X0124034Y0139848D01*
X0122658Y0139848D01*
X0122883Y0139623D01*
X0122883Y0137910D01*
X0121702Y0136729D01*
X0121702Y0135941D01*
X0120491Y0134730D01*
X0118778Y0134730D01*
X0117567Y0135941D01*
X0117567Y0137654D01*
X0118748Y0138835D01*
X0118748Y0139623D01*
X0119959Y0140834D01*
X0121336Y0140834D01*
X0121110Y0141060D01*
X0121110Y0142772D01*
X0122222Y0143885D01*
X0121997Y0144110D01*
X0121672Y0143785D01*
X0119959Y0143785D01*
X0118748Y0144997D01*
X0118748Y0146709D01*
X0119959Y0147921D01*
X0121110Y0147921D01*
X0121110Y0149072D01*
X0122321Y0150283D01*
X0124034Y0150283D01*
X0125246Y0149072D01*
X0125246Y0147359D01*
X0125246Y0145839D02*
X0233295Y0145839D01*
X0233295Y0147437D02*
X0210744Y0147437D01*
X0210202Y0147212D02*
X0211323Y0147677D01*
X0212181Y0148535D01*
X0212645Y0149656D01*
X0212645Y0150869D01*
X0212181Y0151990D01*
X0211323Y0152848D01*
X0210202Y0153312D01*
X0208988Y0153312D01*
X0207867Y0152848D01*
X0207009Y0151990D01*
X0206545Y0150869D01*
X0206545Y0149656D01*
X0207009Y0148535D01*
X0207867Y0147677D01*
X0208988Y0147212D01*
X0210202Y0147212D01*
X0208446Y0147437D02*
X0200744Y0147437D01*
X0200202Y0147212D02*
X0201323Y0147677D01*
X0202181Y0148535D01*
X0202645Y0149656D01*
X0202645Y0150869D01*
X0202181Y0151990D01*
X0201323Y0152848D01*
X0200202Y0153312D01*
X0200049Y0153312D01*
X0200049Y0154584D01*
X0198837Y0155795D01*
X0197124Y0155795D01*
X0195913Y0154584D01*
X0195913Y0152871D01*
X0196946Y0151838D01*
X0196545Y0150869D01*
X0196545Y0149656D01*
X0197009Y0148535D01*
X0197867Y0147677D01*
X0198988Y0147212D01*
X0200202Y0147212D01*
X0198446Y0147437D02*
X0180744Y0147437D01*
X0180202Y0147212D02*
X0181323Y0147677D01*
X0182181Y0148535D01*
X0182645Y0149656D01*
X0182645Y0150869D01*
X0182181Y0151990D01*
X0181323Y0152848D01*
X0180202Y0153312D01*
X0178988Y0153312D01*
X0177867Y0152848D01*
X0177009Y0151990D01*
X0176545Y0150869D01*
X0176545Y0149656D01*
X0177009Y0148535D01*
X0177867Y0147677D01*
X0178988Y0147212D01*
X0180202Y0147212D01*
X0178446Y0147437D02*
X0170744Y0147437D01*
X0168446Y0147437D02*
X0158395Y0147437D01*
X0158710Y0149036D02*
X0166802Y0149036D01*
X0171938Y0152233D02*
X0177252Y0152233D01*
X0176545Y0150634D02*
X0176427Y0150634D01*
X0176427Y0149036D02*
X0176802Y0149036D01*
X0182388Y0149036D02*
X0196802Y0149036D01*
X0196545Y0150634D02*
X0182645Y0150634D01*
X0181938Y0152233D02*
X0196551Y0152233D01*
X0195913Y0153831D02*
X0138722Y0153831D01*
X0135193Y0153831D02*
X0114001Y0153831D01*
X0114222Y0155430D02*
X0130468Y0155430D01*
X0127803Y0150634D02*
X0046030Y0150634D01*
X0044594Y0149036D02*
X0121110Y0149036D01*
X0119476Y0147437D02*
X0035895Y0147437D01*
X0035895Y0145839D02*
X0118748Y0145839D01*
X0119504Y0144240D02*
X0035895Y0144240D01*
X0035895Y0142642D02*
X0121110Y0142642D01*
X0121127Y0141043D02*
X0035895Y0141043D01*
X0035895Y0139445D02*
X0084318Y0139445D01*
X0084920Y0140047D02*
X0083709Y0138835D01*
X0083709Y0137123D01*
X0084920Y0135911D01*
X0086633Y0135911D01*
X0087844Y0137123D01*
X0087844Y0138835D01*
X0086633Y0140047D01*
X0084920Y0140047D01*
X0087235Y0139445D02*
X0118748Y0139445D01*
X0117759Y0137846D02*
X0087844Y0137846D01*
X0086969Y0136248D02*
X0112695Y0136248D01*
X0112527Y0136080D02*
X0112527Y0135412D01*
X0112223Y0135716D01*
X0110510Y0135716D01*
X0109299Y0134505D01*
X0109299Y0132792D01*
X0110510Y0131581D01*
X0112223Y0131581D01*
X0113434Y0132792D01*
X0113434Y0133460D01*
X0113739Y0133155D01*
X0115452Y0133155D01*
X0116663Y0134367D01*
X0116663Y0136080D01*
X0115452Y0137291D01*
X0113739Y0137291D01*
X0112527Y0136080D01*
X0113434Y0133051D02*
X0127136Y0133051D01*
X0127016Y0132930D02*
X0127016Y0131217D01*
X0128227Y0130006D01*
X0129940Y0130006D01*
X0131151Y0131217D01*
X0131151Y0132930D01*
X0129940Y0134141D01*
X0128227Y0134141D01*
X0127016Y0132930D01*
X0127016Y0131452D02*
X0103592Y0131452D01*
X0103739Y0131581D02*
X0105452Y0131581D01*
X0106663Y0132792D01*
X0106663Y0134505D01*
X0105452Y0135716D01*
X0103739Y0135716D01*
X0102527Y0134505D01*
X0102527Y0133995D01*
X0102381Y0134141D01*
X0100668Y0134141D01*
X0099457Y0132930D01*
X0099457Y0131217D01*
X0100668Y0130006D01*
X0102381Y0130006D01*
X0103592Y0131217D01*
X0103592Y0131727D01*
X0103739Y0131581D01*
X0106663Y0133051D02*
X0109299Y0133051D01*
X0109443Y0134649D02*
X0106519Y0134649D01*
X0102672Y0134649D02*
X0051668Y0134649D01*
X0051558Y0134915D02*
X0049248Y0137225D01*
X0046229Y0138476D01*
X0042961Y0138476D01*
X0039943Y0137225D01*
X0037632Y0134915D01*
X0036382Y0131896D01*
X0036382Y0128629D01*
X0037632Y0125610D01*
X0039943Y0123299D01*
X0042961Y0122049D01*
X0046229Y0122049D01*
X0049248Y0123299D01*
X0051558Y0125610D01*
X0052809Y0128629D01*
X0052809Y0131896D01*
X0051558Y0134915D01*
X0050225Y0136248D02*
X0084583Y0136248D01*
X0083709Y0137846D02*
X0047749Y0137846D01*
X0041441Y0137846D02*
X0035895Y0137846D01*
X0035895Y0136248D02*
X0038965Y0136248D01*
X0037522Y0134649D02*
X0035895Y0134649D01*
X0035895Y0133051D02*
X0036860Y0133051D01*
X0036382Y0131452D02*
X0035895Y0131452D01*
X0035927Y0129854D02*
X0036382Y0129854D01*
X0036537Y0128255D02*
X0036212Y0128255D01*
X0036732Y0126657D02*
X0037199Y0126657D01*
X0037755Y0125058D02*
X0038184Y0125058D01*
X0039340Y0123459D02*
X0039783Y0123459D01*
X0040645Y0122511D02*
X0040645Y0122511D01*
X0042645Y0121861D02*
X0056971Y0121861D01*
X0055730Y0123459D02*
X0049408Y0123459D01*
X0051006Y0125058D02*
X0055335Y0125058D01*
X0055561Y0126657D02*
X0051992Y0126657D01*
X0052654Y0128255D02*
X0056562Y0128255D01*
X0052809Y0129854D02*
X0088294Y0129854D01*
X0089411Y0129854D02*
X0089779Y0129854D01*
X0089779Y0130031D02*
X0089779Y0125447D01*
X0094364Y0125447D01*
X0094364Y0125638D01*
X0094246Y0126379D01*
X0094014Y0127093D01*
X0093674Y0127762D01*
X0093232Y0128369D01*
X0092702Y0128900D01*
X0092094Y0129341D01*
X0091426Y0129682D01*
X0090712Y0129914D01*
X0089970Y0130031D01*
X0089779Y0130031D01*
X0090896Y0129854D02*
X0208294Y0129854D01*
X0209411Y0129854D02*
X0209779Y0129854D01*
X0209779Y0130031D02*
X0209779Y0125447D01*
X0214364Y0125447D01*
X0214364Y0125638D01*
X0214246Y0126379D01*
X0214014Y0127093D01*
X0213674Y0127762D01*
X0213232Y0128369D01*
X0212702Y0128900D01*
X0212094Y0129341D01*
X0211426Y0129682D01*
X0210712Y0129914D01*
X0209970Y0130031D01*
X0209779Y0130031D01*
X0210896Y0129854D02*
X0218295Y0129854D01*
X0218295Y0129009D02*
X0218295Y0131516D01*
X0219254Y0133831D01*
X0221026Y0135603D01*
X0223342Y0136562D01*
X0225848Y0136562D01*
X0228164Y0135603D01*
X0229936Y0133831D01*
X0230895Y0131516D01*
X0230895Y0129009D01*
X0229936Y0126694D01*
X0228164Y0124922D01*
X0225848Y0123962D01*
X0223342Y0123962D01*
X0221026Y0124922D01*
X0219254Y0126694D01*
X0218295Y0129009D01*
X0218608Y0128255D02*
X0213315Y0128255D01*
X0214156Y0126657D02*
X0219292Y0126657D01*
X0220890Y0125058D02*
X0214364Y0125058D01*
X0214023Y0123459D02*
X0229851Y0123459D01*
X0228300Y0125058D02*
X0231435Y0125058D01*
X0232459Y0126657D02*
X0229899Y0126657D01*
X0230583Y0128255D02*
X0232978Y0128255D01*
X0233263Y0129854D02*
X0230895Y0129854D01*
X0230895Y0131452D02*
X0233295Y0131452D01*
X0233295Y0133051D02*
X0230259Y0133051D01*
X0229118Y0134649D02*
X0233295Y0134649D01*
X0233295Y0136248D02*
X0226608Y0136248D01*
X0222582Y0136248D02*
X0160985Y0136248D01*
X0161466Y0136729D02*
X0161466Y0138442D01*
X0160945Y0138963D01*
X0161466Y0139485D01*
X0161466Y0141198D01*
X0160945Y0141719D01*
X0161466Y0142241D01*
X0161466Y0143954D01*
X0160255Y0145165D01*
X0158542Y0145165D01*
X0157331Y0143954D01*
X0157331Y0142241D01*
X0157852Y0141719D01*
X0157331Y0141198D01*
X0157331Y0139485D01*
X0157852Y0138963D01*
X0157331Y0138442D01*
X0157331Y0136729D01*
X0158542Y0135518D01*
X0160255Y0135518D01*
X0161466Y0136729D01*
X0161466Y0137846D02*
X0167698Y0137846D01*
X0167867Y0137677D02*
X0168988Y0137212D01*
X0170202Y0137212D01*
X0171323Y0137677D01*
X0172181Y0138535D01*
X0172645Y0139656D01*
X0172645Y0140869D01*
X0172181Y0141990D01*
X0171323Y0142848D01*
X0170202Y0143312D01*
X0168988Y0143312D01*
X0167867Y0142848D01*
X0167009Y0141990D01*
X0166545Y0140869D01*
X0166545Y0139656D01*
X0167009Y0138535D01*
X0167867Y0137677D01*
X0166633Y0139445D02*
X0161426Y0139445D01*
X0161466Y0141043D02*
X0166617Y0141043D01*
X0167661Y0142642D02*
X0161466Y0142642D01*
X0161179Y0144240D02*
X0233295Y0144240D01*
X0233295Y0142642D02*
X0211529Y0142642D01*
X0211323Y0142848D02*
X0210202Y0143312D01*
X0208988Y0143312D01*
X0207867Y0142848D01*
X0207009Y0141990D01*
X0206545Y0140869D01*
X0206545Y0139656D01*
X0207009Y0138535D01*
X0207867Y0137677D01*
X0208988Y0137212D01*
X0210202Y0137212D01*
X0211323Y0137677D01*
X0212181Y0138535D01*
X0212645Y0139656D01*
X0212645Y0140869D01*
X0212181Y0141990D01*
X0211323Y0142848D01*
X0212573Y0141043D02*
X0233295Y0141043D01*
X0233295Y0139445D02*
X0212558Y0139445D01*
X0211492Y0137846D02*
X0233295Y0137846D01*
X0220072Y0134649D02*
X0138520Y0134649D01*
X0138208Y0134336D02*
X0139419Y0135548D01*
X0139419Y0137261D01*
X0138208Y0138472D01*
X0136495Y0138472D01*
X0135283Y0137261D01*
X0135283Y0135548D01*
X0136495Y0134336D01*
X0138208Y0134336D01*
X0137814Y0134141D02*
X0136101Y0134141D01*
X0134890Y0132930D01*
X0134890Y0131217D01*
X0136101Y0130006D01*
X0137814Y0130006D01*
X0139025Y0131217D01*
X0139025Y0132930D01*
X0137814Y0134141D01*
X0138904Y0133051D02*
X0213750Y0133051D01*
X0213630Y0132930D02*
X0213630Y0131217D01*
X0214841Y0130006D01*
X0216554Y0130006D01*
X0217765Y0131217D01*
X0217765Y0132930D01*
X0216554Y0134141D01*
X0214841Y0134141D01*
X0213630Y0132930D01*
X0213630Y0131452D02*
X0139025Y0131452D01*
X0136562Y0128255D02*
X0132628Y0128255D01*
X0133629Y0126657D02*
X0135561Y0126657D01*
X0135335Y0125058D02*
X0133856Y0125058D01*
X0133460Y0123459D02*
X0135730Y0123459D01*
X0136971Y0121861D02*
X0132219Y0121861D01*
X0126971Y0121861D02*
X0122219Y0121861D01*
X0123460Y0123459D02*
X0125730Y0123459D01*
X0125335Y0125058D02*
X0123856Y0125058D01*
X0123629Y0126657D02*
X0125561Y0126657D01*
X0126562Y0128255D02*
X0122628Y0128255D01*
X0116562Y0128255D02*
X0112628Y0128255D01*
X0113629Y0126657D02*
X0115561Y0126657D01*
X0115335Y0125058D02*
X0113856Y0125058D01*
X0113460Y0123459D02*
X0115730Y0123459D01*
X0116971Y0121861D02*
X0112219Y0121861D01*
X0106971Y0121861D02*
X0102219Y0121861D01*
X0103460Y0123459D02*
X0105730Y0123459D01*
X0105335Y0125058D02*
X0103856Y0125058D01*
X0103629Y0126657D02*
X0105561Y0126657D01*
X0106562Y0128255D02*
X0102628Y0128255D01*
X0099457Y0131452D02*
X0052809Y0131452D01*
X0052330Y0133051D02*
X0099577Y0133051D01*
X0096562Y0128255D02*
X0093315Y0128255D01*
X0094156Y0126657D02*
X0095561Y0126657D01*
X0095335Y0125058D02*
X0094364Y0125058D01*
X0094023Y0123459D02*
X0095730Y0123459D01*
X0096971Y0121861D02*
X0092937Y0121861D01*
X0089779Y0126657D02*
X0089411Y0126657D01*
X0089411Y0128255D02*
X0089779Y0128255D01*
X0085875Y0128255D02*
X0082628Y0128255D01*
X0083629Y0126657D02*
X0085034Y0126657D01*
X0084827Y0125058D02*
X0083856Y0125058D01*
X0083460Y0123459D02*
X0085167Y0123459D01*
X0086253Y0121861D02*
X0082219Y0121861D01*
X0076971Y0121861D02*
X0072219Y0121861D01*
X0073460Y0123459D02*
X0075730Y0123459D01*
X0075335Y0125058D02*
X0073856Y0125058D01*
X0073629Y0126657D02*
X0075561Y0126657D01*
X0076562Y0128255D02*
X0072628Y0128255D01*
X0066562Y0128255D02*
X0062628Y0128255D01*
X0063629Y0126657D02*
X0065561Y0126657D01*
X0065335Y0125058D02*
X0063856Y0125058D01*
X0063460Y0123459D02*
X0065730Y0123459D01*
X0066971Y0121861D02*
X0062219Y0121861D01*
X0042595Y0149036D02*
X0042595Y0149036D01*
X0042595Y0150634D02*
X0042595Y0150634D01*
X0042595Y0152233D02*
X0042595Y0152233D01*
X0042595Y0153831D02*
X0042595Y0153831D01*
X0039129Y0153831D02*
X0035895Y0153831D01*
X0035895Y0152233D02*
X0038795Y0152233D01*
X0039160Y0150634D02*
X0035895Y0150634D01*
X0035895Y0149036D02*
X0040596Y0149036D01*
X0041460Y0174612D02*
X0037084Y0174612D01*
X0035895Y0176210D02*
X0039391Y0176210D01*
X0038809Y0177809D02*
X0035895Y0177809D01*
X0035895Y0179407D02*
X0038960Y0179407D01*
X0042595Y0176210D02*
X0042595Y0176210D01*
X0042595Y0174612D02*
X0042595Y0174612D01*
X0043731Y0174612D02*
X0095520Y0174612D01*
X0095887Y0176210D02*
X0045799Y0176210D01*
X0046381Y0177809D02*
X0100638Y0177809D01*
X0100920Y0176210D02*
X0099288Y0176210D01*
X0099655Y0174612D02*
X0103303Y0174612D01*
X0103748Y0173013D02*
X0100049Y0173013D01*
X0099695Y0171415D02*
X0103303Y0171415D01*
X0106832Y0174612D02*
X0106922Y0174612D01*
X0090401Y0179407D02*
X0046231Y0179407D01*
X0045218Y0181006D02*
X0090446Y0181006D01*
X0127608Y0177809D02*
X0130165Y0177809D01*
X0146745Y0161824D02*
X0148823Y0161824D01*
X0148275Y0160225D02*
X0147293Y0160225D01*
X0128095Y0149036D02*
X0125246Y0149036D01*
X0124489Y0144240D02*
X0139507Y0144240D01*
X0139220Y0143954D02*
X0140432Y0145165D01*
X0142145Y0145165D01*
X0143356Y0143954D01*
X0143356Y0142241D01*
X0142145Y0141029D01*
X0140432Y0141029D01*
X0139220Y0142241D01*
X0139220Y0143954D01*
X0139220Y0142642D02*
X0125246Y0142642D01*
X0125229Y0141043D02*
X0140418Y0141043D01*
X0142006Y0140440D02*
X0140795Y0139229D01*
X0140795Y0137516D01*
X0142006Y0136305D01*
X0143719Y0136305D01*
X0144931Y0137516D01*
X0144931Y0139229D01*
X0143719Y0140440D01*
X0142006Y0140440D01*
X0142158Y0141043D02*
X0157331Y0141043D01*
X0157331Y0142642D02*
X0143356Y0142642D01*
X0143069Y0144240D02*
X0157617Y0144240D01*
X0157371Y0139445D02*
X0144715Y0139445D01*
X0144931Y0137846D02*
X0157331Y0137846D01*
X0157812Y0136248D02*
X0139419Y0136248D01*
X0138833Y0137846D02*
X0140795Y0137846D01*
X0141011Y0139445D02*
X0122883Y0139445D01*
X0122819Y0137846D02*
X0135869Y0137846D01*
X0135283Y0136248D02*
X0121702Y0136248D01*
X0117567Y0136248D02*
X0116495Y0136248D01*
X0116663Y0134649D02*
X0136182Y0134649D01*
X0135010Y0133051D02*
X0131030Y0133051D01*
X0131151Y0131452D02*
X0134890Y0131452D01*
X0142628Y0128255D02*
X0146562Y0128255D01*
X0145561Y0126657D02*
X0143629Y0126657D01*
X0143856Y0125058D02*
X0145335Y0125058D01*
X0145730Y0123459D02*
X0143460Y0123459D01*
X0142219Y0121861D02*
X0146971Y0121861D01*
X0152219Y0121861D02*
X0156971Y0121861D01*
X0155730Y0123459D02*
X0153460Y0123459D01*
X0153856Y0125058D02*
X0155335Y0125058D01*
X0155561Y0126657D02*
X0153629Y0126657D01*
X0152628Y0128255D02*
X0156562Y0128255D01*
X0162628Y0128255D02*
X0166562Y0128255D01*
X0165561Y0126657D02*
X0163629Y0126657D01*
X0163856Y0125058D02*
X0165335Y0125058D01*
X0165730Y0123459D02*
X0163460Y0123459D01*
X0162219Y0121861D02*
X0166971Y0121861D01*
X0172219Y0121861D02*
X0176971Y0121861D01*
X0175730Y0123459D02*
X0173460Y0123459D01*
X0173856Y0125058D02*
X0175335Y0125058D01*
X0175561Y0126657D02*
X0173629Y0126657D01*
X0172628Y0128255D02*
X0176562Y0128255D01*
X0182628Y0128255D02*
X0186562Y0128255D01*
X0185561Y0126657D02*
X0183629Y0126657D01*
X0183856Y0125058D02*
X0185335Y0125058D01*
X0185730Y0123459D02*
X0183460Y0123459D01*
X0182219Y0121861D02*
X0186971Y0121861D01*
X0192219Y0121861D02*
X0196971Y0121861D01*
X0195730Y0123459D02*
X0193460Y0123459D01*
X0193856Y0125058D02*
X0195335Y0125058D01*
X0195561Y0126657D02*
X0193629Y0126657D01*
X0192628Y0128255D02*
X0196562Y0128255D01*
X0202628Y0128255D02*
X0205875Y0128255D01*
X0205034Y0126657D02*
X0203629Y0126657D01*
X0203856Y0125058D02*
X0204827Y0125058D01*
X0205167Y0123459D02*
X0203460Y0123459D01*
X0202219Y0121861D02*
X0206253Y0121861D01*
X0209411Y0126657D02*
X0209779Y0126657D01*
X0209779Y0128255D02*
X0209411Y0128255D01*
X0217765Y0131452D02*
X0218295Y0131452D01*
X0218931Y0133051D02*
X0217645Y0133051D01*
X0207698Y0137846D02*
X0201492Y0137846D01*
X0201323Y0137677D02*
X0202181Y0138535D01*
X0202645Y0139656D01*
X0202645Y0140869D01*
X0202181Y0141990D01*
X0201323Y0142848D01*
X0200202Y0143312D01*
X0198988Y0143312D01*
X0197867Y0142848D01*
X0197009Y0141990D01*
X0196545Y0140869D01*
X0196545Y0139656D01*
X0197009Y0138535D01*
X0197867Y0137677D01*
X0198988Y0137212D01*
X0200202Y0137212D01*
X0201323Y0137677D01*
X0202558Y0139445D02*
X0206633Y0139445D01*
X0206617Y0141043D02*
X0202573Y0141043D01*
X0201529Y0142642D02*
X0207661Y0142642D01*
X0206802Y0149036D02*
X0202388Y0149036D01*
X0202645Y0150634D02*
X0206545Y0150634D01*
X0207252Y0152233D02*
X0201938Y0152233D01*
X0200049Y0153831D02*
X0233295Y0153831D01*
X0233295Y0152233D02*
X0211938Y0152233D01*
X0212645Y0150634D02*
X0233295Y0150634D01*
X0233295Y0149036D02*
X0212388Y0149036D01*
X0199202Y0155430D02*
X0233295Y0155430D01*
X0233295Y0157028D02*
X0194537Y0157028D01*
X0193946Y0155430D02*
X0196759Y0155430D01*
X0204605Y0167014D02*
X0206318Y0167014D01*
X0207424Y0168120D01*
X0207867Y0167677D01*
X0208988Y0167212D01*
X0210202Y0167212D01*
X0211323Y0167677D01*
X0212181Y0168535D01*
X0212645Y0169656D01*
X0212645Y0170869D01*
X0212181Y0171990D01*
X0211323Y0172848D01*
X0210202Y0173312D01*
X0208988Y0173312D01*
X0207867Y0172848D01*
X0207009Y0171990D01*
X0206561Y0170906D01*
X0206318Y0171149D01*
X0204605Y0171149D01*
X0203394Y0169938D01*
X0203394Y0168225D01*
X0204605Y0167014D01*
X0203401Y0168218D02*
X0201864Y0168218D01*
X0202645Y0169816D02*
X0203394Y0169816D01*
X0202419Y0171415D02*
X0206771Y0171415D01*
X0208266Y0173013D02*
X0200924Y0173013D01*
X0210924Y0173013D02*
X0233295Y0173013D01*
X0233295Y0171415D02*
X0212419Y0171415D01*
X0212645Y0169816D02*
X0233295Y0169816D01*
X0233295Y0168218D02*
X0211864Y0168218D01*
X0211072Y0174612D02*
X0233295Y0174612D01*
X0233295Y0176210D02*
X0211072Y0176210D01*
X0211455Y0177809D02*
X0233295Y0177809D01*
X0233295Y0179407D02*
X0212542Y0179407D01*
X0212588Y0181006D02*
X0233295Y0181006D01*
X0233295Y0182604D02*
X0211567Y0182604D01*
X0220556Y0195392D02*
X0051341Y0195392D01*
X0052130Y0196991D02*
X0219131Y0196991D01*
X0218469Y0198590D02*
X0173720Y0198590D01*
X0182145Y0201787D02*
X0187046Y0201787D01*
X0185761Y0203385D02*
X0183429Y0203385D01*
X0183856Y0204984D02*
X0185335Y0204984D01*
X0185530Y0206582D02*
X0183660Y0206582D01*
X0182702Y0208181D02*
X0186488Y0208181D01*
X0192702Y0208181D02*
X0196488Y0208181D01*
X0195530Y0206582D02*
X0193660Y0206582D01*
X0193856Y0204984D02*
X0195335Y0204984D01*
X0195761Y0203385D02*
X0193429Y0203385D01*
X0192145Y0201787D02*
X0197046Y0201787D01*
X0202145Y0201787D02*
X0207046Y0201787D01*
X0205761Y0203385D02*
X0203429Y0203385D01*
X0203856Y0204984D02*
X0205335Y0204984D01*
X0205530Y0206582D02*
X0203660Y0206582D01*
X0202702Y0208181D02*
X0206488Y0208181D01*
X0212702Y0208181D02*
X0228033Y0208181D01*
X0197661Y0142642D02*
X0181529Y0142642D01*
X0181323Y0142848D02*
X0180202Y0143312D01*
X0178988Y0143312D01*
X0177867Y0142848D01*
X0177009Y0141990D01*
X0176545Y0140869D01*
X0176545Y0139656D01*
X0177009Y0138535D01*
X0177867Y0137677D01*
X0178988Y0137212D01*
X0180202Y0137212D01*
X0181323Y0137677D01*
X0182181Y0138535D01*
X0182645Y0139656D01*
X0182645Y0140869D01*
X0182181Y0141990D01*
X0181323Y0142848D01*
X0182573Y0141043D02*
X0196617Y0141043D01*
X0196633Y0139445D02*
X0182558Y0139445D01*
X0181492Y0137846D02*
X0197698Y0137846D01*
X0177698Y0137846D02*
X0171492Y0137846D01*
X0172558Y0139445D02*
X0176633Y0139445D01*
X0176617Y0141043D02*
X0172573Y0141043D01*
X0171529Y0142642D02*
X0177661Y0142642D01*
X0212937Y0121861D02*
X0226545Y0121861D01*
D15*
X0215698Y0132073D03*
X0220028Y0150184D03*
X0222489Y0155262D03*
X0231052Y0165144D03*
X0222489Y0175262D03*
X0209005Y0175381D03*
X0204674Y0177349D03*
X0205068Y0180892D03*
X0204674Y0185617D03*
X0204674Y0191916D03*
X0191288Y0183648D03*
X0205461Y0169081D03*
X0193257Y0167113D03*
X0192469Y0156877D03*
X0197981Y0153727D03*
X0189615Y0150184D03*
X0174359Y0149790D03*
X0159005Y0150184D03*
X0156642Y0148609D03*
X0159398Y0143097D03*
X0159398Y0140341D03*
X0159398Y0137585D03*
X0152312Y0140341D03*
X0142863Y0138373D03*
X0137351Y0136404D03*
X0136957Y0132073D03*
X0129083Y0132073D03*
X0119635Y0136798D03*
X0120816Y0138766D03*
X0123178Y0141916D03*
X0125540Y0143097D03*
X0123178Y0145853D03*
X0123178Y0148215D03*
X0120816Y0145853D03*
X0129871Y0150184D03*
X0139320Y0151759D03*
X0141288Y0143097D03*
X0137351Y0143097D03*
X0114595Y0135223D03*
X0111367Y0133648D03*
X0104595Y0133648D03*
X0101524Y0132073D03*
X0085776Y0137979D03*
X0064516Y0149003D03*
X0071997Y0153727D03*
X0064910Y0162388D03*
X0073965Y0164751D03*
X0085776Y0169869D03*
X0088926Y0165932D03*
X0087351Y0163570D03*
X0098375Y0164357D03*
X0097981Y0167507D03*
X0103099Y0167507D03*
X0103099Y0164357D03*
X0111760Y0164357D03*
X0111760Y0167507D03*
X0110579Y0169475D03*
X0112942Y0169475D03*
X0115304Y0169475D03*
X0117666Y0167507D03*
X0117666Y0165144D03*
X0120028Y0165144D03*
X0125146Y0168688D03*
X0123572Y0170262D03*
X0132233Y0170262D03*
X0135383Y0170262D03*
X0140894Y0172625D03*
X0140107Y0174593D03*
X0137745Y0176168D03*
X0135776Y0175381D03*
X0132233Y0175381D03*
X0132233Y0177743D03*
X0125540Y0177743D03*
X0120422Y0175381D03*
X0115698Y0175381D03*
X0112548Y0178924D03*
X0110186Y0181680D03*
X0116879Y0180892D03*
X0119241Y0180892D03*
X0112942Y0188373D03*
X0109398Y0191129D03*
X0105855Y0188766D03*
X0095619Y0182467D03*
X0092469Y0180105D03*
X0095619Y0177743D03*
X0097587Y0174987D03*
X0097981Y0172625D03*
X0097587Y0170262D03*
X0102705Y0172625D03*
X0102705Y0177349D03*
X0105855Y0169475D03*
X0115698Y0159239D03*
X0112154Y0154908D03*
X0101918Y0155302D03*
X0122784Y0159633D03*
X0125146Y0158058D03*
X0141288Y0166325D03*
X0145225Y0166719D03*
X0145225Y0169475D03*
X0145225Y0163570D03*
X0145225Y0160420D03*
X0150343Y0160420D03*
X0153099Y0157664D03*
X0157823Y0161995D03*
X0157823Y0171444D03*
X0157823Y0176168D03*
X0157823Y0180499D03*
X0150343Y0181286D03*
X0145225Y0182467D03*
X0145225Y0177743D03*
X0146800Y0187192D03*
X0148768Y0188766D03*
X0154674Y0192310D03*
X0157823Y0188373D03*
X0159792Y0186010D03*
X0155461Y0186010D03*
X0133020Y0188766D03*
X0105461Y0199790D03*
X0094438Y0199790D03*
X0060186Y0185223D03*
X0058217Y0183255D03*
X0058217Y0187192D03*
X0058217Y0178924D03*
X0052312Y0173412D03*
X0049489Y0166762D03*
X0049489Y0164156D03*
X0053099Y0158058D03*
X0042095Y0165262D03*
X0040894Y0186798D03*
X0172784Y0200577D03*
D16*
X0108217Y0174987D03*
X0106642Y0174987D03*
X0105068Y0174987D03*
X0105068Y0171837D03*
X0108217Y0171837D03*
X0108217Y0173412D03*
X0129083Y0163570D03*
X0129083Y0161995D03*
X0130658Y0161995D03*
X0130658Y0160420D03*
X0132233Y0160420D03*
X0133808Y0160420D03*
X0135383Y0160420D03*
X0135383Y0158845D03*
X0136957Y0158845D03*
X0136957Y0157270D03*
X0135383Y0157270D03*
X0133808Y0157270D03*
X0133808Y0155696D03*
X0132233Y0155696D03*
X0132233Y0157270D03*
X0132233Y0158845D03*
X0129083Y0158845D03*
X0127509Y0155696D03*
X0136957Y0154121D03*
X0135383Y0163570D03*
X0133808Y0163570D03*
X0132233Y0163570D03*
M02*
