G75*
%MOIN*%
%OFA0B0*%
%FSLAX25Y25*%
%IPPOS*%
%LPD*%
%AMOC8*
5,1,8,0,0,1.08239X$1,22.5*
%
%ADD10C,0.00000*%
%ADD11C,0.00400*%
%ADD12C,0.00500*%
%ADD13C,0.00800*%
%ADD14C,0.01181*%
%ADD15C,0.00394*%
%ADD16C,0.01378*%
%ADD17C,0.01500*%
%ADD18C,0.01200*%
%ADD19C,0.00600*%
D10*
X0044595Y0120262D02*
X0224595Y0120262D01*
X0219595Y0130262D02*
X0219597Y0130403D01*
X0219603Y0130544D01*
X0219613Y0130684D01*
X0219627Y0130824D01*
X0219645Y0130964D01*
X0219666Y0131103D01*
X0219692Y0131242D01*
X0219721Y0131380D01*
X0219755Y0131516D01*
X0219792Y0131652D01*
X0219833Y0131787D01*
X0219878Y0131921D01*
X0219927Y0132053D01*
X0219979Y0132184D01*
X0220035Y0132313D01*
X0220095Y0132440D01*
X0220158Y0132566D01*
X0220224Y0132690D01*
X0220295Y0132813D01*
X0220368Y0132933D01*
X0220445Y0133051D01*
X0220525Y0133167D01*
X0220609Y0133280D01*
X0220695Y0133391D01*
X0220785Y0133500D01*
X0220878Y0133606D01*
X0220973Y0133709D01*
X0221072Y0133810D01*
X0221173Y0133908D01*
X0221277Y0134003D01*
X0221384Y0134095D01*
X0221493Y0134184D01*
X0221605Y0134269D01*
X0221719Y0134352D01*
X0221835Y0134432D01*
X0221954Y0134508D01*
X0222075Y0134580D01*
X0222197Y0134650D01*
X0222322Y0134715D01*
X0222448Y0134778D01*
X0222576Y0134836D01*
X0222706Y0134891D01*
X0222837Y0134943D01*
X0222970Y0134990D01*
X0223104Y0135034D01*
X0223239Y0135075D01*
X0223375Y0135111D01*
X0223512Y0135143D01*
X0223650Y0135172D01*
X0223788Y0135197D01*
X0223928Y0135217D01*
X0224068Y0135234D01*
X0224208Y0135247D01*
X0224349Y0135256D01*
X0224489Y0135261D01*
X0224630Y0135262D01*
X0224771Y0135259D01*
X0224912Y0135252D01*
X0225052Y0135241D01*
X0225192Y0135226D01*
X0225332Y0135207D01*
X0225471Y0135185D01*
X0225609Y0135158D01*
X0225747Y0135128D01*
X0225883Y0135093D01*
X0226019Y0135055D01*
X0226153Y0135013D01*
X0226287Y0134967D01*
X0226419Y0134918D01*
X0226549Y0134864D01*
X0226678Y0134807D01*
X0226805Y0134747D01*
X0226931Y0134683D01*
X0227054Y0134615D01*
X0227176Y0134544D01*
X0227296Y0134470D01*
X0227413Y0134392D01*
X0227528Y0134311D01*
X0227641Y0134227D01*
X0227752Y0134140D01*
X0227860Y0134049D01*
X0227965Y0133956D01*
X0228068Y0133859D01*
X0228168Y0133760D01*
X0228265Y0133658D01*
X0228359Y0133553D01*
X0228450Y0133446D01*
X0228538Y0133336D01*
X0228623Y0133224D01*
X0228705Y0133109D01*
X0228784Y0132992D01*
X0228859Y0132873D01*
X0228931Y0132752D01*
X0228999Y0132629D01*
X0229064Y0132504D01*
X0229126Y0132377D01*
X0229183Y0132248D01*
X0229238Y0132118D01*
X0229288Y0131987D01*
X0229335Y0131854D01*
X0229378Y0131720D01*
X0229417Y0131584D01*
X0229452Y0131448D01*
X0229484Y0131311D01*
X0229511Y0131173D01*
X0229535Y0131034D01*
X0229555Y0130894D01*
X0229571Y0130754D01*
X0229583Y0130614D01*
X0229591Y0130473D01*
X0229595Y0130332D01*
X0229595Y0130192D01*
X0229591Y0130051D01*
X0229583Y0129910D01*
X0229571Y0129770D01*
X0229555Y0129630D01*
X0229535Y0129490D01*
X0229511Y0129351D01*
X0229484Y0129213D01*
X0229452Y0129076D01*
X0229417Y0128940D01*
X0229378Y0128804D01*
X0229335Y0128670D01*
X0229288Y0128537D01*
X0229238Y0128406D01*
X0229183Y0128276D01*
X0229126Y0128147D01*
X0229064Y0128020D01*
X0228999Y0127895D01*
X0228931Y0127772D01*
X0228859Y0127651D01*
X0228784Y0127532D01*
X0228705Y0127415D01*
X0228623Y0127300D01*
X0228538Y0127188D01*
X0228450Y0127078D01*
X0228359Y0126971D01*
X0228265Y0126866D01*
X0228168Y0126764D01*
X0228068Y0126665D01*
X0227965Y0126568D01*
X0227860Y0126475D01*
X0227752Y0126384D01*
X0227641Y0126297D01*
X0227528Y0126213D01*
X0227413Y0126132D01*
X0227296Y0126054D01*
X0227176Y0125980D01*
X0227054Y0125909D01*
X0226931Y0125841D01*
X0226805Y0125777D01*
X0226678Y0125717D01*
X0226549Y0125660D01*
X0226419Y0125606D01*
X0226287Y0125557D01*
X0226153Y0125511D01*
X0226019Y0125469D01*
X0225883Y0125431D01*
X0225747Y0125396D01*
X0225609Y0125366D01*
X0225471Y0125339D01*
X0225332Y0125317D01*
X0225192Y0125298D01*
X0225052Y0125283D01*
X0224912Y0125272D01*
X0224771Y0125265D01*
X0224630Y0125262D01*
X0224489Y0125263D01*
X0224349Y0125268D01*
X0224208Y0125277D01*
X0224068Y0125290D01*
X0223928Y0125307D01*
X0223788Y0125327D01*
X0223650Y0125352D01*
X0223512Y0125381D01*
X0223375Y0125413D01*
X0223239Y0125449D01*
X0223104Y0125490D01*
X0222970Y0125534D01*
X0222837Y0125581D01*
X0222706Y0125633D01*
X0222576Y0125688D01*
X0222448Y0125746D01*
X0222322Y0125809D01*
X0222197Y0125874D01*
X0222075Y0125944D01*
X0221954Y0126016D01*
X0221835Y0126092D01*
X0221719Y0126172D01*
X0221605Y0126255D01*
X0221493Y0126340D01*
X0221384Y0126429D01*
X0221277Y0126521D01*
X0221173Y0126616D01*
X0221072Y0126714D01*
X0220973Y0126815D01*
X0220878Y0126918D01*
X0220785Y0127024D01*
X0220695Y0127133D01*
X0220609Y0127244D01*
X0220525Y0127357D01*
X0220445Y0127473D01*
X0220368Y0127591D01*
X0220295Y0127711D01*
X0220224Y0127834D01*
X0220158Y0127958D01*
X0220095Y0128084D01*
X0220035Y0128211D01*
X0219979Y0128340D01*
X0219927Y0128471D01*
X0219878Y0128603D01*
X0219833Y0128737D01*
X0219792Y0128872D01*
X0219755Y0129008D01*
X0219721Y0129144D01*
X0219692Y0129282D01*
X0219666Y0129421D01*
X0219645Y0129560D01*
X0219627Y0129700D01*
X0219613Y0129840D01*
X0219603Y0129980D01*
X0219597Y0130121D01*
X0219595Y0130262D01*
X0224595Y0120262D02*
X0224837Y0120265D01*
X0225078Y0120274D01*
X0225319Y0120288D01*
X0225560Y0120309D01*
X0225800Y0120335D01*
X0226040Y0120367D01*
X0226279Y0120405D01*
X0226516Y0120448D01*
X0226753Y0120498D01*
X0226988Y0120553D01*
X0227222Y0120613D01*
X0227454Y0120680D01*
X0227685Y0120751D01*
X0227914Y0120829D01*
X0228141Y0120912D01*
X0228366Y0121000D01*
X0228589Y0121094D01*
X0228809Y0121193D01*
X0229027Y0121298D01*
X0229242Y0121407D01*
X0229455Y0121522D01*
X0229665Y0121642D01*
X0229871Y0121767D01*
X0230075Y0121897D01*
X0230276Y0122032D01*
X0230473Y0122172D01*
X0230667Y0122316D01*
X0230857Y0122465D01*
X0231043Y0122619D01*
X0231226Y0122777D01*
X0231405Y0122939D01*
X0231580Y0123106D01*
X0231751Y0123277D01*
X0231918Y0123452D01*
X0232080Y0123631D01*
X0232238Y0123814D01*
X0232392Y0124000D01*
X0232541Y0124190D01*
X0232685Y0124384D01*
X0232825Y0124581D01*
X0232960Y0124782D01*
X0233090Y0124986D01*
X0233215Y0125192D01*
X0233335Y0125402D01*
X0233450Y0125615D01*
X0233559Y0125830D01*
X0233664Y0126048D01*
X0233763Y0126268D01*
X0233857Y0126491D01*
X0233945Y0126716D01*
X0234028Y0126943D01*
X0234106Y0127172D01*
X0234177Y0127403D01*
X0234244Y0127635D01*
X0234304Y0127869D01*
X0234359Y0128104D01*
X0234409Y0128341D01*
X0234452Y0128578D01*
X0234490Y0128817D01*
X0234522Y0129057D01*
X0234548Y0129297D01*
X0234569Y0129538D01*
X0234583Y0129779D01*
X0234592Y0130020D01*
X0234595Y0130262D01*
X0234595Y0200262D01*
X0219595Y0200262D02*
X0219597Y0200403D01*
X0219603Y0200544D01*
X0219613Y0200684D01*
X0219627Y0200824D01*
X0219645Y0200964D01*
X0219666Y0201103D01*
X0219692Y0201242D01*
X0219721Y0201380D01*
X0219755Y0201516D01*
X0219792Y0201652D01*
X0219833Y0201787D01*
X0219878Y0201921D01*
X0219927Y0202053D01*
X0219979Y0202184D01*
X0220035Y0202313D01*
X0220095Y0202440D01*
X0220158Y0202566D01*
X0220224Y0202690D01*
X0220295Y0202813D01*
X0220368Y0202933D01*
X0220445Y0203051D01*
X0220525Y0203167D01*
X0220609Y0203280D01*
X0220695Y0203391D01*
X0220785Y0203500D01*
X0220878Y0203606D01*
X0220973Y0203709D01*
X0221072Y0203810D01*
X0221173Y0203908D01*
X0221277Y0204003D01*
X0221384Y0204095D01*
X0221493Y0204184D01*
X0221605Y0204269D01*
X0221719Y0204352D01*
X0221835Y0204432D01*
X0221954Y0204508D01*
X0222075Y0204580D01*
X0222197Y0204650D01*
X0222322Y0204715D01*
X0222448Y0204778D01*
X0222576Y0204836D01*
X0222706Y0204891D01*
X0222837Y0204943D01*
X0222970Y0204990D01*
X0223104Y0205034D01*
X0223239Y0205075D01*
X0223375Y0205111D01*
X0223512Y0205143D01*
X0223650Y0205172D01*
X0223788Y0205197D01*
X0223928Y0205217D01*
X0224068Y0205234D01*
X0224208Y0205247D01*
X0224349Y0205256D01*
X0224489Y0205261D01*
X0224630Y0205262D01*
X0224771Y0205259D01*
X0224912Y0205252D01*
X0225052Y0205241D01*
X0225192Y0205226D01*
X0225332Y0205207D01*
X0225471Y0205185D01*
X0225609Y0205158D01*
X0225747Y0205128D01*
X0225883Y0205093D01*
X0226019Y0205055D01*
X0226153Y0205013D01*
X0226287Y0204967D01*
X0226419Y0204918D01*
X0226549Y0204864D01*
X0226678Y0204807D01*
X0226805Y0204747D01*
X0226931Y0204683D01*
X0227054Y0204615D01*
X0227176Y0204544D01*
X0227296Y0204470D01*
X0227413Y0204392D01*
X0227528Y0204311D01*
X0227641Y0204227D01*
X0227752Y0204140D01*
X0227860Y0204049D01*
X0227965Y0203956D01*
X0228068Y0203859D01*
X0228168Y0203760D01*
X0228265Y0203658D01*
X0228359Y0203553D01*
X0228450Y0203446D01*
X0228538Y0203336D01*
X0228623Y0203224D01*
X0228705Y0203109D01*
X0228784Y0202992D01*
X0228859Y0202873D01*
X0228931Y0202752D01*
X0228999Y0202629D01*
X0229064Y0202504D01*
X0229126Y0202377D01*
X0229183Y0202248D01*
X0229238Y0202118D01*
X0229288Y0201987D01*
X0229335Y0201854D01*
X0229378Y0201720D01*
X0229417Y0201584D01*
X0229452Y0201448D01*
X0229484Y0201311D01*
X0229511Y0201173D01*
X0229535Y0201034D01*
X0229555Y0200894D01*
X0229571Y0200754D01*
X0229583Y0200614D01*
X0229591Y0200473D01*
X0229595Y0200332D01*
X0229595Y0200192D01*
X0229591Y0200051D01*
X0229583Y0199910D01*
X0229571Y0199770D01*
X0229555Y0199630D01*
X0229535Y0199490D01*
X0229511Y0199351D01*
X0229484Y0199213D01*
X0229452Y0199076D01*
X0229417Y0198940D01*
X0229378Y0198804D01*
X0229335Y0198670D01*
X0229288Y0198537D01*
X0229238Y0198406D01*
X0229183Y0198276D01*
X0229126Y0198147D01*
X0229064Y0198020D01*
X0228999Y0197895D01*
X0228931Y0197772D01*
X0228859Y0197651D01*
X0228784Y0197532D01*
X0228705Y0197415D01*
X0228623Y0197300D01*
X0228538Y0197188D01*
X0228450Y0197078D01*
X0228359Y0196971D01*
X0228265Y0196866D01*
X0228168Y0196764D01*
X0228068Y0196665D01*
X0227965Y0196568D01*
X0227860Y0196475D01*
X0227752Y0196384D01*
X0227641Y0196297D01*
X0227528Y0196213D01*
X0227413Y0196132D01*
X0227296Y0196054D01*
X0227176Y0195980D01*
X0227054Y0195909D01*
X0226931Y0195841D01*
X0226805Y0195777D01*
X0226678Y0195717D01*
X0226549Y0195660D01*
X0226419Y0195606D01*
X0226287Y0195557D01*
X0226153Y0195511D01*
X0226019Y0195469D01*
X0225883Y0195431D01*
X0225747Y0195396D01*
X0225609Y0195366D01*
X0225471Y0195339D01*
X0225332Y0195317D01*
X0225192Y0195298D01*
X0225052Y0195283D01*
X0224912Y0195272D01*
X0224771Y0195265D01*
X0224630Y0195262D01*
X0224489Y0195263D01*
X0224349Y0195268D01*
X0224208Y0195277D01*
X0224068Y0195290D01*
X0223928Y0195307D01*
X0223788Y0195327D01*
X0223650Y0195352D01*
X0223512Y0195381D01*
X0223375Y0195413D01*
X0223239Y0195449D01*
X0223104Y0195490D01*
X0222970Y0195534D01*
X0222837Y0195581D01*
X0222706Y0195633D01*
X0222576Y0195688D01*
X0222448Y0195746D01*
X0222322Y0195809D01*
X0222197Y0195874D01*
X0222075Y0195944D01*
X0221954Y0196016D01*
X0221835Y0196092D01*
X0221719Y0196172D01*
X0221605Y0196255D01*
X0221493Y0196340D01*
X0221384Y0196429D01*
X0221277Y0196521D01*
X0221173Y0196616D01*
X0221072Y0196714D01*
X0220973Y0196815D01*
X0220878Y0196918D01*
X0220785Y0197024D01*
X0220695Y0197133D01*
X0220609Y0197244D01*
X0220525Y0197357D01*
X0220445Y0197473D01*
X0220368Y0197591D01*
X0220295Y0197711D01*
X0220224Y0197834D01*
X0220158Y0197958D01*
X0220095Y0198084D01*
X0220035Y0198211D01*
X0219979Y0198340D01*
X0219927Y0198471D01*
X0219878Y0198603D01*
X0219833Y0198737D01*
X0219792Y0198872D01*
X0219755Y0199008D01*
X0219721Y0199144D01*
X0219692Y0199282D01*
X0219666Y0199421D01*
X0219645Y0199560D01*
X0219627Y0199700D01*
X0219613Y0199840D01*
X0219603Y0199980D01*
X0219597Y0200121D01*
X0219595Y0200262D01*
X0224595Y0210262D02*
X0224837Y0210259D01*
X0225078Y0210250D01*
X0225319Y0210236D01*
X0225560Y0210215D01*
X0225800Y0210189D01*
X0226040Y0210157D01*
X0226279Y0210119D01*
X0226516Y0210076D01*
X0226753Y0210026D01*
X0226988Y0209971D01*
X0227222Y0209911D01*
X0227454Y0209844D01*
X0227685Y0209773D01*
X0227914Y0209695D01*
X0228141Y0209612D01*
X0228366Y0209524D01*
X0228589Y0209430D01*
X0228809Y0209331D01*
X0229027Y0209226D01*
X0229242Y0209117D01*
X0229455Y0209002D01*
X0229665Y0208882D01*
X0229871Y0208757D01*
X0230075Y0208627D01*
X0230276Y0208492D01*
X0230473Y0208352D01*
X0230667Y0208208D01*
X0230857Y0208059D01*
X0231043Y0207905D01*
X0231226Y0207747D01*
X0231405Y0207585D01*
X0231580Y0207418D01*
X0231751Y0207247D01*
X0231918Y0207072D01*
X0232080Y0206893D01*
X0232238Y0206710D01*
X0232392Y0206524D01*
X0232541Y0206334D01*
X0232685Y0206140D01*
X0232825Y0205943D01*
X0232960Y0205742D01*
X0233090Y0205538D01*
X0233215Y0205332D01*
X0233335Y0205122D01*
X0233450Y0204909D01*
X0233559Y0204694D01*
X0233664Y0204476D01*
X0233763Y0204256D01*
X0233857Y0204033D01*
X0233945Y0203808D01*
X0234028Y0203581D01*
X0234106Y0203352D01*
X0234177Y0203121D01*
X0234244Y0202889D01*
X0234304Y0202655D01*
X0234359Y0202420D01*
X0234409Y0202183D01*
X0234452Y0201946D01*
X0234490Y0201707D01*
X0234522Y0201467D01*
X0234548Y0201227D01*
X0234569Y0200986D01*
X0234583Y0200745D01*
X0234592Y0200504D01*
X0234595Y0200262D01*
X0224595Y0210262D02*
X0044595Y0210262D01*
X0044353Y0210259D01*
X0044112Y0210250D01*
X0043871Y0210236D01*
X0043630Y0210215D01*
X0043390Y0210189D01*
X0043150Y0210157D01*
X0042911Y0210119D01*
X0042674Y0210076D01*
X0042437Y0210026D01*
X0042202Y0209971D01*
X0041968Y0209911D01*
X0041736Y0209844D01*
X0041505Y0209773D01*
X0041276Y0209695D01*
X0041049Y0209612D01*
X0040824Y0209524D01*
X0040601Y0209430D01*
X0040381Y0209331D01*
X0040163Y0209226D01*
X0039948Y0209117D01*
X0039735Y0209002D01*
X0039525Y0208882D01*
X0039319Y0208757D01*
X0039115Y0208627D01*
X0038914Y0208492D01*
X0038717Y0208352D01*
X0038523Y0208208D01*
X0038333Y0208059D01*
X0038147Y0207905D01*
X0037964Y0207747D01*
X0037785Y0207585D01*
X0037610Y0207418D01*
X0037439Y0207247D01*
X0037272Y0207072D01*
X0037110Y0206893D01*
X0036952Y0206710D01*
X0036798Y0206524D01*
X0036649Y0206334D01*
X0036505Y0206140D01*
X0036365Y0205943D01*
X0036230Y0205742D01*
X0036100Y0205538D01*
X0035975Y0205332D01*
X0035855Y0205122D01*
X0035740Y0204909D01*
X0035631Y0204694D01*
X0035526Y0204476D01*
X0035427Y0204256D01*
X0035333Y0204033D01*
X0035245Y0203808D01*
X0035162Y0203581D01*
X0035084Y0203352D01*
X0035013Y0203121D01*
X0034946Y0202889D01*
X0034886Y0202655D01*
X0034831Y0202420D01*
X0034781Y0202183D01*
X0034738Y0201946D01*
X0034700Y0201707D01*
X0034668Y0201467D01*
X0034642Y0201227D01*
X0034621Y0200986D01*
X0034607Y0200745D01*
X0034598Y0200504D01*
X0034595Y0200262D01*
X0034595Y0175262D01*
X0036595Y0173262D01*
X0036595Y0157262D01*
X0034595Y0155262D01*
X0034595Y0130262D01*
X0034598Y0130020D01*
X0034607Y0129779D01*
X0034621Y0129538D01*
X0034642Y0129297D01*
X0034668Y0129057D01*
X0034700Y0128817D01*
X0034738Y0128578D01*
X0034781Y0128341D01*
X0034831Y0128104D01*
X0034886Y0127869D01*
X0034946Y0127635D01*
X0035013Y0127403D01*
X0035084Y0127172D01*
X0035162Y0126943D01*
X0035245Y0126716D01*
X0035333Y0126491D01*
X0035427Y0126268D01*
X0035526Y0126048D01*
X0035631Y0125830D01*
X0035740Y0125615D01*
X0035855Y0125402D01*
X0035975Y0125192D01*
X0036100Y0124986D01*
X0036230Y0124782D01*
X0036365Y0124581D01*
X0036505Y0124384D01*
X0036649Y0124190D01*
X0036798Y0124000D01*
X0036952Y0123814D01*
X0037110Y0123631D01*
X0037272Y0123452D01*
X0037439Y0123277D01*
X0037610Y0123106D01*
X0037785Y0122939D01*
X0037964Y0122777D01*
X0038147Y0122619D01*
X0038333Y0122465D01*
X0038523Y0122316D01*
X0038717Y0122172D01*
X0038914Y0122032D01*
X0039115Y0121897D01*
X0039319Y0121767D01*
X0039525Y0121642D01*
X0039735Y0121522D01*
X0039948Y0121407D01*
X0040163Y0121298D01*
X0040381Y0121193D01*
X0040601Y0121094D01*
X0040824Y0121000D01*
X0041049Y0120912D01*
X0041276Y0120829D01*
X0041505Y0120751D01*
X0041736Y0120680D01*
X0041968Y0120613D01*
X0042202Y0120553D01*
X0042437Y0120498D01*
X0042674Y0120448D01*
X0042911Y0120405D01*
X0043150Y0120367D01*
X0043390Y0120335D01*
X0043630Y0120309D01*
X0043871Y0120288D01*
X0044112Y0120274D01*
X0044353Y0120265D01*
X0044595Y0120262D01*
X0167845Y0140262D02*
X0167847Y0140345D01*
X0167853Y0140428D01*
X0167863Y0140511D01*
X0167877Y0140593D01*
X0167894Y0140675D01*
X0167916Y0140755D01*
X0167941Y0140834D01*
X0167970Y0140912D01*
X0168003Y0140989D01*
X0168040Y0141064D01*
X0168079Y0141137D01*
X0168123Y0141208D01*
X0168169Y0141277D01*
X0168219Y0141344D01*
X0168272Y0141408D01*
X0168328Y0141470D01*
X0168387Y0141529D01*
X0168449Y0141585D01*
X0168513Y0141638D01*
X0168580Y0141688D01*
X0168649Y0141734D01*
X0168720Y0141778D01*
X0168793Y0141817D01*
X0168868Y0141854D01*
X0168945Y0141887D01*
X0169023Y0141916D01*
X0169102Y0141941D01*
X0169182Y0141963D01*
X0169264Y0141980D01*
X0169346Y0141994D01*
X0169429Y0142004D01*
X0169512Y0142010D01*
X0169595Y0142012D01*
X0169678Y0142010D01*
X0169761Y0142004D01*
X0169844Y0141994D01*
X0169926Y0141980D01*
X0170008Y0141963D01*
X0170088Y0141941D01*
X0170167Y0141916D01*
X0170245Y0141887D01*
X0170322Y0141854D01*
X0170397Y0141817D01*
X0170470Y0141778D01*
X0170541Y0141734D01*
X0170610Y0141688D01*
X0170677Y0141638D01*
X0170741Y0141585D01*
X0170803Y0141529D01*
X0170862Y0141470D01*
X0170918Y0141408D01*
X0170971Y0141344D01*
X0171021Y0141277D01*
X0171067Y0141208D01*
X0171111Y0141137D01*
X0171150Y0141064D01*
X0171187Y0140989D01*
X0171220Y0140912D01*
X0171249Y0140834D01*
X0171274Y0140755D01*
X0171296Y0140675D01*
X0171313Y0140593D01*
X0171327Y0140511D01*
X0171337Y0140428D01*
X0171343Y0140345D01*
X0171345Y0140262D01*
X0171343Y0140179D01*
X0171337Y0140096D01*
X0171327Y0140013D01*
X0171313Y0139931D01*
X0171296Y0139849D01*
X0171274Y0139769D01*
X0171249Y0139690D01*
X0171220Y0139612D01*
X0171187Y0139535D01*
X0171150Y0139460D01*
X0171111Y0139387D01*
X0171067Y0139316D01*
X0171021Y0139247D01*
X0170971Y0139180D01*
X0170918Y0139116D01*
X0170862Y0139054D01*
X0170803Y0138995D01*
X0170741Y0138939D01*
X0170677Y0138886D01*
X0170610Y0138836D01*
X0170541Y0138790D01*
X0170470Y0138746D01*
X0170397Y0138707D01*
X0170322Y0138670D01*
X0170245Y0138637D01*
X0170167Y0138608D01*
X0170088Y0138583D01*
X0170008Y0138561D01*
X0169926Y0138544D01*
X0169844Y0138530D01*
X0169761Y0138520D01*
X0169678Y0138514D01*
X0169595Y0138512D01*
X0169512Y0138514D01*
X0169429Y0138520D01*
X0169346Y0138530D01*
X0169264Y0138544D01*
X0169182Y0138561D01*
X0169102Y0138583D01*
X0169023Y0138608D01*
X0168945Y0138637D01*
X0168868Y0138670D01*
X0168793Y0138707D01*
X0168720Y0138746D01*
X0168649Y0138790D01*
X0168580Y0138836D01*
X0168513Y0138886D01*
X0168449Y0138939D01*
X0168387Y0138995D01*
X0168328Y0139054D01*
X0168272Y0139116D01*
X0168219Y0139180D01*
X0168169Y0139247D01*
X0168123Y0139316D01*
X0168079Y0139387D01*
X0168040Y0139460D01*
X0168003Y0139535D01*
X0167970Y0139612D01*
X0167941Y0139690D01*
X0167916Y0139769D01*
X0167894Y0139849D01*
X0167877Y0139931D01*
X0167863Y0140013D01*
X0167853Y0140096D01*
X0167847Y0140179D01*
X0167845Y0140262D01*
X0177845Y0140262D02*
X0177847Y0140345D01*
X0177853Y0140428D01*
X0177863Y0140511D01*
X0177877Y0140593D01*
X0177894Y0140675D01*
X0177916Y0140755D01*
X0177941Y0140834D01*
X0177970Y0140912D01*
X0178003Y0140989D01*
X0178040Y0141064D01*
X0178079Y0141137D01*
X0178123Y0141208D01*
X0178169Y0141277D01*
X0178219Y0141344D01*
X0178272Y0141408D01*
X0178328Y0141470D01*
X0178387Y0141529D01*
X0178449Y0141585D01*
X0178513Y0141638D01*
X0178580Y0141688D01*
X0178649Y0141734D01*
X0178720Y0141778D01*
X0178793Y0141817D01*
X0178868Y0141854D01*
X0178945Y0141887D01*
X0179023Y0141916D01*
X0179102Y0141941D01*
X0179182Y0141963D01*
X0179264Y0141980D01*
X0179346Y0141994D01*
X0179429Y0142004D01*
X0179512Y0142010D01*
X0179595Y0142012D01*
X0179678Y0142010D01*
X0179761Y0142004D01*
X0179844Y0141994D01*
X0179926Y0141980D01*
X0180008Y0141963D01*
X0180088Y0141941D01*
X0180167Y0141916D01*
X0180245Y0141887D01*
X0180322Y0141854D01*
X0180397Y0141817D01*
X0180470Y0141778D01*
X0180541Y0141734D01*
X0180610Y0141688D01*
X0180677Y0141638D01*
X0180741Y0141585D01*
X0180803Y0141529D01*
X0180862Y0141470D01*
X0180918Y0141408D01*
X0180971Y0141344D01*
X0181021Y0141277D01*
X0181067Y0141208D01*
X0181111Y0141137D01*
X0181150Y0141064D01*
X0181187Y0140989D01*
X0181220Y0140912D01*
X0181249Y0140834D01*
X0181274Y0140755D01*
X0181296Y0140675D01*
X0181313Y0140593D01*
X0181327Y0140511D01*
X0181337Y0140428D01*
X0181343Y0140345D01*
X0181345Y0140262D01*
X0181343Y0140179D01*
X0181337Y0140096D01*
X0181327Y0140013D01*
X0181313Y0139931D01*
X0181296Y0139849D01*
X0181274Y0139769D01*
X0181249Y0139690D01*
X0181220Y0139612D01*
X0181187Y0139535D01*
X0181150Y0139460D01*
X0181111Y0139387D01*
X0181067Y0139316D01*
X0181021Y0139247D01*
X0180971Y0139180D01*
X0180918Y0139116D01*
X0180862Y0139054D01*
X0180803Y0138995D01*
X0180741Y0138939D01*
X0180677Y0138886D01*
X0180610Y0138836D01*
X0180541Y0138790D01*
X0180470Y0138746D01*
X0180397Y0138707D01*
X0180322Y0138670D01*
X0180245Y0138637D01*
X0180167Y0138608D01*
X0180088Y0138583D01*
X0180008Y0138561D01*
X0179926Y0138544D01*
X0179844Y0138530D01*
X0179761Y0138520D01*
X0179678Y0138514D01*
X0179595Y0138512D01*
X0179512Y0138514D01*
X0179429Y0138520D01*
X0179346Y0138530D01*
X0179264Y0138544D01*
X0179182Y0138561D01*
X0179102Y0138583D01*
X0179023Y0138608D01*
X0178945Y0138637D01*
X0178868Y0138670D01*
X0178793Y0138707D01*
X0178720Y0138746D01*
X0178649Y0138790D01*
X0178580Y0138836D01*
X0178513Y0138886D01*
X0178449Y0138939D01*
X0178387Y0138995D01*
X0178328Y0139054D01*
X0178272Y0139116D01*
X0178219Y0139180D01*
X0178169Y0139247D01*
X0178123Y0139316D01*
X0178079Y0139387D01*
X0178040Y0139460D01*
X0178003Y0139535D01*
X0177970Y0139612D01*
X0177941Y0139690D01*
X0177916Y0139769D01*
X0177894Y0139849D01*
X0177877Y0139931D01*
X0177863Y0140013D01*
X0177853Y0140096D01*
X0177847Y0140179D01*
X0177845Y0140262D01*
X0177845Y0150262D02*
X0177847Y0150345D01*
X0177853Y0150428D01*
X0177863Y0150511D01*
X0177877Y0150593D01*
X0177894Y0150675D01*
X0177916Y0150755D01*
X0177941Y0150834D01*
X0177970Y0150912D01*
X0178003Y0150989D01*
X0178040Y0151064D01*
X0178079Y0151137D01*
X0178123Y0151208D01*
X0178169Y0151277D01*
X0178219Y0151344D01*
X0178272Y0151408D01*
X0178328Y0151470D01*
X0178387Y0151529D01*
X0178449Y0151585D01*
X0178513Y0151638D01*
X0178580Y0151688D01*
X0178649Y0151734D01*
X0178720Y0151778D01*
X0178793Y0151817D01*
X0178868Y0151854D01*
X0178945Y0151887D01*
X0179023Y0151916D01*
X0179102Y0151941D01*
X0179182Y0151963D01*
X0179264Y0151980D01*
X0179346Y0151994D01*
X0179429Y0152004D01*
X0179512Y0152010D01*
X0179595Y0152012D01*
X0179678Y0152010D01*
X0179761Y0152004D01*
X0179844Y0151994D01*
X0179926Y0151980D01*
X0180008Y0151963D01*
X0180088Y0151941D01*
X0180167Y0151916D01*
X0180245Y0151887D01*
X0180322Y0151854D01*
X0180397Y0151817D01*
X0180470Y0151778D01*
X0180541Y0151734D01*
X0180610Y0151688D01*
X0180677Y0151638D01*
X0180741Y0151585D01*
X0180803Y0151529D01*
X0180862Y0151470D01*
X0180918Y0151408D01*
X0180971Y0151344D01*
X0181021Y0151277D01*
X0181067Y0151208D01*
X0181111Y0151137D01*
X0181150Y0151064D01*
X0181187Y0150989D01*
X0181220Y0150912D01*
X0181249Y0150834D01*
X0181274Y0150755D01*
X0181296Y0150675D01*
X0181313Y0150593D01*
X0181327Y0150511D01*
X0181337Y0150428D01*
X0181343Y0150345D01*
X0181345Y0150262D01*
X0181343Y0150179D01*
X0181337Y0150096D01*
X0181327Y0150013D01*
X0181313Y0149931D01*
X0181296Y0149849D01*
X0181274Y0149769D01*
X0181249Y0149690D01*
X0181220Y0149612D01*
X0181187Y0149535D01*
X0181150Y0149460D01*
X0181111Y0149387D01*
X0181067Y0149316D01*
X0181021Y0149247D01*
X0180971Y0149180D01*
X0180918Y0149116D01*
X0180862Y0149054D01*
X0180803Y0148995D01*
X0180741Y0148939D01*
X0180677Y0148886D01*
X0180610Y0148836D01*
X0180541Y0148790D01*
X0180470Y0148746D01*
X0180397Y0148707D01*
X0180322Y0148670D01*
X0180245Y0148637D01*
X0180167Y0148608D01*
X0180088Y0148583D01*
X0180008Y0148561D01*
X0179926Y0148544D01*
X0179844Y0148530D01*
X0179761Y0148520D01*
X0179678Y0148514D01*
X0179595Y0148512D01*
X0179512Y0148514D01*
X0179429Y0148520D01*
X0179346Y0148530D01*
X0179264Y0148544D01*
X0179182Y0148561D01*
X0179102Y0148583D01*
X0179023Y0148608D01*
X0178945Y0148637D01*
X0178868Y0148670D01*
X0178793Y0148707D01*
X0178720Y0148746D01*
X0178649Y0148790D01*
X0178580Y0148836D01*
X0178513Y0148886D01*
X0178449Y0148939D01*
X0178387Y0148995D01*
X0178328Y0149054D01*
X0178272Y0149116D01*
X0178219Y0149180D01*
X0178169Y0149247D01*
X0178123Y0149316D01*
X0178079Y0149387D01*
X0178040Y0149460D01*
X0178003Y0149535D01*
X0177970Y0149612D01*
X0177941Y0149690D01*
X0177916Y0149769D01*
X0177894Y0149849D01*
X0177877Y0149931D01*
X0177863Y0150013D01*
X0177853Y0150096D01*
X0177847Y0150179D01*
X0177845Y0150262D01*
X0167845Y0150262D02*
X0167847Y0150345D01*
X0167853Y0150428D01*
X0167863Y0150511D01*
X0167877Y0150593D01*
X0167894Y0150675D01*
X0167916Y0150755D01*
X0167941Y0150834D01*
X0167970Y0150912D01*
X0168003Y0150989D01*
X0168040Y0151064D01*
X0168079Y0151137D01*
X0168123Y0151208D01*
X0168169Y0151277D01*
X0168219Y0151344D01*
X0168272Y0151408D01*
X0168328Y0151470D01*
X0168387Y0151529D01*
X0168449Y0151585D01*
X0168513Y0151638D01*
X0168580Y0151688D01*
X0168649Y0151734D01*
X0168720Y0151778D01*
X0168793Y0151817D01*
X0168868Y0151854D01*
X0168945Y0151887D01*
X0169023Y0151916D01*
X0169102Y0151941D01*
X0169182Y0151963D01*
X0169264Y0151980D01*
X0169346Y0151994D01*
X0169429Y0152004D01*
X0169512Y0152010D01*
X0169595Y0152012D01*
X0169678Y0152010D01*
X0169761Y0152004D01*
X0169844Y0151994D01*
X0169926Y0151980D01*
X0170008Y0151963D01*
X0170088Y0151941D01*
X0170167Y0151916D01*
X0170245Y0151887D01*
X0170322Y0151854D01*
X0170397Y0151817D01*
X0170470Y0151778D01*
X0170541Y0151734D01*
X0170610Y0151688D01*
X0170677Y0151638D01*
X0170741Y0151585D01*
X0170803Y0151529D01*
X0170862Y0151470D01*
X0170918Y0151408D01*
X0170971Y0151344D01*
X0171021Y0151277D01*
X0171067Y0151208D01*
X0171111Y0151137D01*
X0171150Y0151064D01*
X0171187Y0150989D01*
X0171220Y0150912D01*
X0171249Y0150834D01*
X0171274Y0150755D01*
X0171296Y0150675D01*
X0171313Y0150593D01*
X0171327Y0150511D01*
X0171337Y0150428D01*
X0171343Y0150345D01*
X0171345Y0150262D01*
X0171343Y0150179D01*
X0171337Y0150096D01*
X0171327Y0150013D01*
X0171313Y0149931D01*
X0171296Y0149849D01*
X0171274Y0149769D01*
X0171249Y0149690D01*
X0171220Y0149612D01*
X0171187Y0149535D01*
X0171150Y0149460D01*
X0171111Y0149387D01*
X0171067Y0149316D01*
X0171021Y0149247D01*
X0170971Y0149180D01*
X0170918Y0149116D01*
X0170862Y0149054D01*
X0170803Y0148995D01*
X0170741Y0148939D01*
X0170677Y0148886D01*
X0170610Y0148836D01*
X0170541Y0148790D01*
X0170470Y0148746D01*
X0170397Y0148707D01*
X0170322Y0148670D01*
X0170245Y0148637D01*
X0170167Y0148608D01*
X0170088Y0148583D01*
X0170008Y0148561D01*
X0169926Y0148544D01*
X0169844Y0148530D01*
X0169761Y0148520D01*
X0169678Y0148514D01*
X0169595Y0148512D01*
X0169512Y0148514D01*
X0169429Y0148520D01*
X0169346Y0148530D01*
X0169264Y0148544D01*
X0169182Y0148561D01*
X0169102Y0148583D01*
X0169023Y0148608D01*
X0168945Y0148637D01*
X0168868Y0148670D01*
X0168793Y0148707D01*
X0168720Y0148746D01*
X0168649Y0148790D01*
X0168580Y0148836D01*
X0168513Y0148886D01*
X0168449Y0148939D01*
X0168387Y0148995D01*
X0168328Y0149054D01*
X0168272Y0149116D01*
X0168219Y0149180D01*
X0168169Y0149247D01*
X0168123Y0149316D01*
X0168079Y0149387D01*
X0168040Y0149460D01*
X0168003Y0149535D01*
X0167970Y0149612D01*
X0167941Y0149690D01*
X0167916Y0149769D01*
X0167894Y0149849D01*
X0167877Y0149931D01*
X0167863Y0150013D01*
X0167853Y0150096D01*
X0167847Y0150179D01*
X0167845Y0150262D01*
X0167845Y0160262D02*
X0167847Y0160345D01*
X0167853Y0160428D01*
X0167863Y0160511D01*
X0167877Y0160593D01*
X0167894Y0160675D01*
X0167916Y0160755D01*
X0167941Y0160834D01*
X0167970Y0160912D01*
X0168003Y0160989D01*
X0168040Y0161064D01*
X0168079Y0161137D01*
X0168123Y0161208D01*
X0168169Y0161277D01*
X0168219Y0161344D01*
X0168272Y0161408D01*
X0168328Y0161470D01*
X0168387Y0161529D01*
X0168449Y0161585D01*
X0168513Y0161638D01*
X0168580Y0161688D01*
X0168649Y0161734D01*
X0168720Y0161778D01*
X0168793Y0161817D01*
X0168868Y0161854D01*
X0168945Y0161887D01*
X0169023Y0161916D01*
X0169102Y0161941D01*
X0169182Y0161963D01*
X0169264Y0161980D01*
X0169346Y0161994D01*
X0169429Y0162004D01*
X0169512Y0162010D01*
X0169595Y0162012D01*
X0169678Y0162010D01*
X0169761Y0162004D01*
X0169844Y0161994D01*
X0169926Y0161980D01*
X0170008Y0161963D01*
X0170088Y0161941D01*
X0170167Y0161916D01*
X0170245Y0161887D01*
X0170322Y0161854D01*
X0170397Y0161817D01*
X0170470Y0161778D01*
X0170541Y0161734D01*
X0170610Y0161688D01*
X0170677Y0161638D01*
X0170741Y0161585D01*
X0170803Y0161529D01*
X0170862Y0161470D01*
X0170918Y0161408D01*
X0170971Y0161344D01*
X0171021Y0161277D01*
X0171067Y0161208D01*
X0171111Y0161137D01*
X0171150Y0161064D01*
X0171187Y0160989D01*
X0171220Y0160912D01*
X0171249Y0160834D01*
X0171274Y0160755D01*
X0171296Y0160675D01*
X0171313Y0160593D01*
X0171327Y0160511D01*
X0171337Y0160428D01*
X0171343Y0160345D01*
X0171345Y0160262D01*
X0171343Y0160179D01*
X0171337Y0160096D01*
X0171327Y0160013D01*
X0171313Y0159931D01*
X0171296Y0159849D01*
X0171274Y0159769D01*
X0171249Y0159690D01*
X0171220Y0159612D01*
X0171187Y0159535D01*
X0171150Y0159460D01*
X0171111Y0159387D01*
X0171067Y0159316D01*
X0171021Y0159247D01*
X0170971Y0159180D01*
X0170918Y0159116D01*
X0170862Y0159054D01*
X0170803Y0158995D01*
X0170741Y0158939D01*
X0170677Y0158886D01*
X0170610Y0158836D01*
X0170541Y0158790D01*
X0170470Y0158746D01*
X0170397Y0158707D01*
X0170322Y0158670D01*
X0170245Y0158637D01*
X0170167Y0158608D01*
X0170088Y0158583D01*
X0170008Y0158561D01*
X0169926Y0158544D01*
X0169844Y0158530D01*
X0169761Y0158520D01*
X0169678Y0158514D01*
X0169595Y0158512D01*
X0169512Y0158514D01*
X0169429Y0158520D01*
X0169346Y0158530D01*
X0169264Y0158544D01*
X0169182Y0158561D01*
X0169102Y0158583D01*
X0169023Y0158608D01*
X0168945Y0158637D01*
X0168868Y0158670D01*
X0168793Y0158707D01*
X0168720Y0158746D01*
X0168649Y0158790D01*
X0168580Y0158836D01*
X0168513Y0158886D01*
X0168449Y0158939D01*
X0168387Y0158995D01*
X0168328Y0159054D01*
X0168272Y0159116D01*
X0168219Y0159180D01*
X0168169Y0159247D01*
X0168123Y0159316D01*
X0168079Y0159387D01*
X0168040Y0159460D01*
X0168003Y0159535D01*
X0167970Y0159612D01*
X0167941Y0159690D01*
X0167916Y0159769D01*
X0167894Y0159849D01*
X0167877Y0159931D01*
X0167863Y0160013D01*
X0167853Y0160096D01*
X0167847Y0160179D01*
X0167845Y0160262D01*
X0177845Y0160262D02*
X0177847Y0160345D01*
X0177853Y0160428D01*
X0177863Y0160511D01*
X0177877Y0160593D01*
X0177894Y0160675D01*
X0177916Y0160755D01*
X0177941Y0160834D01*
X0177970Y0160912D01*
X0178003Y0160989D01*
X0178040Y0161064D01*
X0178079Y0161137D01*
X0178123Y0161208D01*
X0178169Y0161277D01*
X0178219Y0161344D01*
X0178272Y0161408D01*
X0178328Y0161470D01*
X0178387Y0161529D01*
X0178449Y0161585D01*
X0178513Y0161638D01*
X0178580Y0161688D01*
X0178649Y0161734D01*
X0178720Y0161778D01*
X0178793Y0161817D01*
X0178868Y0161854D01*
X0178945Y0161887D01*
X0179023Y0161916D01*
X0179102Y0161941D01*
X0179182Y0161963D01*
X0179264Y0161980D01*
X0179346Y0161994D01*
X0179429Y0162004D01*
X0179512Y0162010D01*
X0179595Y0162012D01*
X0179678Y0162010D01*
X0179761Y0162004D01*
X0179844Y0161994D01*
X0179926Y0161980D01*
X0180008Y0161963D01*
X0180088Y0161941D01*
X0180167Y0161916D01*
X0180245Y0161887D01*
X0180322Y0161854D01*
X0180397Y0161817D01*
X0180470Y0161778D01*
X0180541Y0161734D01*
X0180610Y0161688D01*
X0180677Y0161638D01*
X0180741Y0161585D01*
X0180803Y0161529D01*
X0180862Y0161470D01*
X0180918Y0161408D01*
X0180971Y0161344D01*
X0181021Y0161277D01*
X0181067Y0161208D01*
X0181111Y0161137D01*
X0181150Y0161064D01*
X0181187Y0160989D01*
X0181220Y0160912D01*
X0181249Y0160834D01*
X0181274Y0160755D01*
X0181296Y0160675D01*
X0181313Y0160593D01*
X0181327Y0160511D01*
X0181337Y0160428D01*
X0181343Y0160345D01*
X0181345Y0160262D01*
X0181343Y0160179D01*
X0181337Y0160096D01*
X0181327Y0160013D01*
X0181313Y0159931D01*
X0181296Y0159849D01*
X0181274Y0159769D01*
X0181249Y0159690D01*
X0181220Y0159612D01*
X0181187Y0159535D01*
X0181150Y0159460D01*
X0181111Y0159387D01*
X0181067Y0159316D01*
X0181021Y0159247D01*
X0180971Y0159180D01*
X0180918Y0159116D01*
X0180862Y0159054D01*
X0180803Y0158995D01*
X0180741Y0158939D01*
X0180677Y0158886D01*
X0180610Y0158836D01*
X0180541Y0158790D01*
X0180470Y0158746D01*
X0180397Y0158707D01*
X0180322Y0158670D01*
X0180245Y0158637D01*
X0180167Y0158608D01*
X0180088Y0158583D01*
X0180008Y0158561D01*
X0179926Y0158544D01*
X0179844Y0158530D01*
X0179761Y0158520D01*
X0179678Y0158514D01*
X0179595Y0158512D01*
X0179512Y0158514D01*
X0179429Y0158520D01*
X0179346Y0158530D01*
X0179264Y0158544D01*
X0179182Y0158561D01*
X0179102Y0158583D01*
X0179023Y0158608D01*
X0178945Y0158637D01*
X0178868Y0158670D01*
X0178793Y0158707D01*
X0178720Y0158746D01*
X0178649Y0158790D01*
X0178580Y0158836D01*
X0178513Y0158886D01*
X0178449Y0158939D01*
X0178387Y0158995D01*
X0178328Y0159054D01*
X0178272Y0159116D01*
X0178219Y0159180D01*
X0178169Y0159247D01*
X0178123Y0159316D01*
X0178079Y0159387D01*
X0178040Y0159460D01*
X0178003Y0159535D01*
X0177970Y0159612D01*
X0177941Y0159690D01*
X0177916Y0159769D01*
X0177894Y0159849D01*
X0177877Y0159931D01*
X0177863Y0160013D01*
X0177853Y0160096D01*
X0177847Y0160179D01*
X0177845Y0160262D01*
X0177845Y0170262D02*
X0177847Y0170345D01*
X0177853Y0170428D01*
X0177863Y0170511D01*
X0177877Y0170593D01*
X0177894Y0170675D01*
X0177916Y0170755D01*
X0177941Y0170834D01*
X0177970Y0170912D01*
X0178003Y0170989D01*
X0178040Y0171064D01*
X0178079Y0171137D01*
X0178123Y0171208D01*
X0178169Y0171277D01*
X0178219Y0171344D01*
X0178272Y0171408D01*
X0178328Y0171470D01*
X0178387Y0171529D01*
X0178449Y0171585D01*
X0178513Y0171638D01*
X0178580Y0171688D01*
X0178649Y0171734D01*
X0178720Y0171778D01*
X0178793Y0171817D01*
X0178868Y0171854D01*
X0178945Y0171887D01*
X0179023Y0171916D01*
X0179102Y0171941D01*
X0179182Y0171963D01*
X0179264Y0171980D01*
X0179346Y0171994D01*
X0179429Y0172004D01*
X0179512Y0172010D01*
X0179595Y0172012D01*
X0179678Y0172010D01*
X0179761Y0172004D01*
X0179844Y0171994D01*
X0179926Y0171980D01*
X0180008Y0171963D01*
X0180088Y0171941D01*
X0180167Y0171916D01*
X0180245Y0171887D01*
X0180322Y0171854D01*
X0180397Y0171817D01*
X0180470Y0171778D01*
X0180541Y0171734D01*
X0180610Y0171688D01*
X0180677Y0171638D01*
X0180741Y0171585D01*
X0180803Y0171529D01*
X0180862Y0171470D01*
X0180918Y0171408D01*
X0180971Y0171344D01*
X0181021Y0171277D01*
X0181067Y0171208D01*
X0181111Y0171137D01*
X0181150Y0171064D01*
X0181187Y0170989D01*
X0181220Y0170912D01*
X0181249Y0170834D01*
X0181274Y0170755D01*
X0181296Y0170675D01*
X0181313Y0170593D01*
X0181327Y0170511D01*
X0181337Y0170428D01*
X0181343Y0170345D01*
X0181345Y0170262D01*
X0181343Y0170179D01*
X0181337Y0170096D01*
X0181327Y0170013D01*
X0181313Y0169931D01*
X0181296Y0169849D01*
X0181274Y0169769D01*
X0181249Y0169690D01*
X0181220Y0169612D01*
X0181187Y0169535D01*
X0181150Y0169460D01*
X0181111Y0169387D01*
X0181067Y0169316D01*
X0181021Y0169247D01*
X0180971Y0169180D01*
X0180918Y0169116D01*
X0180862Y0169054D01*
X0180803Y0168995D01*
X0180741Y0168939D01*
X0180677Y0168886D01*
X0180610Y0168836D01*
X0180541Y0168790D01*
X0180470Y0168746D01*
X0180397Y0168707D01*
X0180322Y0168670D01*
X0180245Y0168637D01*
X0180167Y0168608D01*
X0180088Y0168583D01*
X0180008Y0168561D01*
X0179926Y0168544D01*
X0179844Y0168530D01*
X0179761Y0168520D01*
X0179678Y0168514D01*
X0179595Y0168512D01*
X0179512Y0168514D01*
X0179429Y0168520D01*
X0179346Y0168530D01*
X0179264Y0168544D01*
X0179182Y0168561D01*
X0179102Y0168583D01*
X0179023Y0168608D01*
X0178945Y0168637D01*
X0178868Y0168670D01*
X0178793Y0168707D01*
X0178720Y0168746D01*
X0178649Y0168790D01*
X0178580Y0168836D01*
X0178513Y0168886D01*
X0178449Y0168939D01*
X0178387Y0168995D01*
X0178328Y0169054D01*
X0178272Y0169116D01*
X0178219Y0169180D01*
X0178169Y0169247D01*
X0178123Y0169316D01*
X0178079Y0169387D01*
X0178040Y0169460D01*
X0178003Y0169535D01*
X0177970Y0169612D01*
X0177941Y0169690D01*
X0177916Y0169769D01*
X0177894Y0169849D01*
X0177877Y0169931D01*
X0177863Y0170013D01*
X0177853Y0170096D01*
X0177847Y0170179D01*
X0177845Y0170262D01*
X0167845Y0170262D02*
X0167847Y0170345D01*
X0167853Y0170428D01*
X0167863Y0170511D01*
X0167877Y0170593D01*
X0167894Y0170675D01*
X0167916Y0170755D01*
X0167941Y0170834D01*
X0167970Y0170912D01*
X0168003Y0170989D01*
X0168040Y0171064D01*
X0168079Y0171137D01*
X0168123Y0171208D01*
X0168169Y0171277D01*
X0168219Y0171344D01*
X0168272Y0171408D01*
X0168328Y0171470D01*
X0168387Y0171529D01*
X0168449Y0171585D01*
X0168513Y0171638D01*
X0168580Y0171688D01*
X0168649Y0171734D01*
X0168720Y0171778D01*
X0168793Y0171817D01*
X0168868Y0171854D01*
X0168945Y0171887D01*
X0169023Y0171916D01*
X0169102Y0171941D01*
X0169182Y0171963D01*
X0169264Y0171980D01*
X0169346Y0171994D01*
X0169429Y0172004D01*
X0169512Y0172010D01*
X0169595Y0172012D01*
X0169678Y0172010D01*
X0169761Y0172004D01*
X0169844Y0171994D01*
X0169926Y0171980D01*
X0170008Y0171963D01*
X0170088Y0171941D01*
X0170167Y0171916D01*
X0170245Y0171887D01*
X0170322Y0171854D01*
X0170397Y0171817D01*
X0170470Y0171778D01*
X0170541Y0171734D01*
X0170610Y0171688D01*
X0170677Y0171638D01*
X0170741Y0171585D01*
X0170803Y0171529D01*
X0170862Y0171470D01*
X0170918Y0171408D01*
X0170971Y0171344D01*
X0171021Y0171277D01*
X0171067Y0171208D01*
X0171111Y0171137D01*
X0171150Y0171064D01*
X0171187Y0170989D01*
X0171220Y0170912D01*
X0171249Y0170834D01*
X0171274Y0170755D01*
X0171296Y0170675D01*
X0171313Y0170593D01*
X0171327Y0170511D01*
X0171337Y0170428D01*
X0171343Y0170345D01*
X0171345Y0170262D01*
X0171343Y0170179D01*
X0171337Y0170096D01*
X0171327Y0170013D01*
X0171313Y0169931D01*
X0171296Y0169849D01*
X0171274Y0169769D01*
X0171249Y0169690D01*
X0171220Y0169612D01*
X0171187Y0169535D01*
X0171150Y0169460D01*
X0171111Y0169387D01*
X0171067Y0169316D01*
X0171021Y0169247D01*
X0170971Y0169180D01*
X0170918Y0169116D01*
X0170862Y0169054D01*
X0170803Y0168995D01*
X0170741Y0168939D01*
X0170677Y0168886D01*
X0170610Y0168836D01*
X0170541Y0168790D01*
X0170470Y0168746D01*
X0170397Y0168707D01*
X0170322Y0168670D01*
X0170245Y0168637D01*
X0170167Y0168608D01*
X0170088Y0168583D01*
X0170008Y0168561D01*
X0169926Y0168544D01*
X0169844Y0168530D01*
X0169761Y0168520D01*
X0169678Y0168514D01*
X0169595Y0168512D01*
X0169512Y0168514D01*
X0169429Y0168520D01*
X0169346Y0168530D01*
X0169264Y0168544D01*
X0169182Y0168561D01*
X0169102Y0168583D01*
X0169023Y0168608D01*
X0168945Y0168637D01*
X0168868Y0168670D01*
X0168793Y0168707D01*
X0168720Y0168746D01*
X0168649Y0168790D01*
X0168580Y0168836D01*
X0168513Y0168886D01*
X0168449Y0168939D01*
X0168387Y0168995D01*
X0168328Y0169054D01*
X0168272Y0169116D01*
X0168219Y0169180D01*
X0168169Y0169247D01*
X0168123Y0169316D01*
X0168079Y0169387D01*
X0168040Y0169460D01*
X0168003Y0169535D01*
X0167970Y0169612D01*
X0167941Y0169690D01*
X0167916Y0169769D01*
X0167894Y0169849D01*
X0167877Y0169931D01*
X0167863Y0170013D01*
X0167853Y0170096D01*
X0167847Y0170179D01*
X0167845Y0170262D01*
X0167845Y0180262D02*
X0167847Y0180345D01*
X0167853Y0180428D01*
X0167863Y0180511D01*
X0167877Y0180593D01*
X0167894Y0180675D01*
X0167916Y0180755D01*
X0167941Y0180834D01*
X0167970Y0180912D01*
X0168003Y0180989D01*
X0168040Y0181064D01*
X0168079Y0181137D01*
X0168123Y0181208D01*
X0168169Y0181277D01*
X0168219Y0181344D01*
X0168272Y0181408D01*
X0168328Y0181470D01*
X0168387Y0181529D01*
X0168449Y0181585D01*
X0168513Y0181638D01*
X0168580Y0181688D01*
X0168649Y0181734D01*
X0168720Y0181778D01*
X0168793Y0181817D01*
X0168868Y0181854D01*
X0168945Y0181887D01*
X0169023Y0181916D01*
X0169102Y0181941D01*
X0169182Y0181963D01*
X0169264Y0181980D01*
X0169346Y0181994D01*
X0169429Y0182004D01*
X0169512Y0182010D01*
X0169595Y0182012D01*
X0169678Y0182010D01*
X0169761Y0182004D01*
X0169844Y0181994D01*
X0169926Y0181980D01*
X0170008Y0181963D01*
X0170088Y0181941D01*
X0170167Y0181916D01*
X0170245Y0181887D01*
X0170322Y0181854D01*
X0170397Y0181817D01*
X0170470Y0181778D01*
X0170541Y0181734D01*
X0170610Y0181688D01*
X0170677Y0181638D01*
X0170741Y0181585D01*
X0170803Y0181529D01*
X0170862Y0181470D01*
X0170918Y0181408D01*
X0170971Y0181344D01*
X0171021Y0181277D01*
X0171067Y0181208D01*
X0171111Y0181137D01*
X0171150Y0181064D01*
X0171187Y0180989D01*
X0171220Y0180912D01*
X0171249Y0180834D01*
X0171274Y0180755D01*
X0171296Y0180675D01*
X0171313Y0180593D01*
X0171327Y0180511D01*
X0171337Y0180428D01*
X0171343Y0180345D01*
X0171345Y0180262D01*
X0171343Y0180179D01*
X0171337Y0180096D01*
X0171327Y0180013D01*
X0171313Y0179931D01*
X0171296Y0179849D01*
X0171274Y0179769D01*
X0171249Y0179690D01*
X0171220Y0179612D01*
X0171187Y0179535D01*
X0171150Y0179460D01*
X0171111Y0179387D01*
X0171067Y0179316D01*
X0171021Y0179247D01*
X0170971Y0179180D01*
X0170918Y0179116D01*
X0170862Y0179054D01*
X0170803Y0178995D01*
X0170741Y0178939D01*
X0170677Y0178886D01*
X0170610Y0178836D01*
X0170541Y0178790D01*
X0170470Y0178746D01*
X0170397Y0178707D01*
X0170322Y0178670D01*
X0170245Y0178637D01*
X0170167Y0178608D01*
X0170088Y0178583D01*
X0170008Y0178561D01*
X0169926Y0178544D01*
X0169844Y0178530D01*
X0169761Y0178520D01*
X0169678Y0178514D01*
X0169595Y0178512D01*
X0169512Y0178514D01*
X0169429Y0178520D01*
X0169346Y0178530D01*
X0169264Y0178544D01*
X0169182Y0178561D01*
X0169102Y0178583D01*
X0169023Y0178608D01*
X0168945Y0178637D01*
X0168868Y0178670D01*
X0168793Y0178707D01*
X0168720Y0178746D01*
X0168649Y0178790D01*
X0168580Y0178836D01*
X0168513Y0178886D01*
X0168449Y0178939D01*
X0168387Y0178995D01*
X0168328Y0179054D01*
X0168272Y0179116D01*
X0168219Y0179180D01*
X0168169Y0179247D01*
X0168123Y0179316D01*
X0168079Y0179387D01*
X0168040Y0179460D01*
X0168003Y0179535D01*
X0167970Y0179612D01*
X0167941Y0179690D01*
X0167916Y0179769D01*
X0167894Y0179849D01*
X0167877Y0179931D01*
X0167863Y0180013D01*
X0167853Y0180096D01*
X0167847Y0180179D01*
X0167845Y0180262D01*
X0177845Y0180262D02*
X0177847Y0180345D01*
X0177853Y0180428D01*
X0177863Y0180511D01*
X0177877Y0180593D01*
X0177894Y0180675D01*
X0177916Y0180755D01*
X0177941Y0180834D01*
X0177970Y0180912D01*
X0178003Y0180989D01*
X0178040Y0181064D01*
X0178079Y0181137D01*
X0178123Y0181208D01*
X0178169Y0181277D01*
X0178219Y0181344D01*
X0178272Y0181408D01*
X0178328Y0181470D01*
X0178387Y0181529D01*
X0178449Y0181585D01*
X0178513Y0181638D01*
X0178580Y0181688D01*
X0178649Y0181734D01*
X0178720Y0181778D01*
X0178793Y0181817D01*
X0178868Y0181854D01*
X0178945Y0181887D01*
X0179023Y0181916D01*
X0179102Y0181941D01*
X0179182Y0181963D01*
X0179264Y0181980D01*
X0179346Y0181994D01*
X0179429Y0182004D01*
X0179512Y0182010D01*
X0179595Y0182012D01*
X0179678Y0182010D01*
X0179761Y0182004D01*
X0179844Y0181994D01*
X0179926Y0181980D01*
X0180008Y0181963D01*
X0180088Y0181941D01*
X0180167Y0181916D01*
X0180245Y0181887D01*
X0180322Y0181854D01*
X0180397Y0181817D01*
X0180470Y0181778D01*
X0180541Y0181734D01*
X0180610Y0181688D01*
X0180677Y0181638D01*
X0180741Y0181585D01*
X0180803Y0181529D01*
X0180862Y0181470D01*
X0180918Y0181408D01*
X0180971Y0181344D01*
X0181021Y0181277D01*
X0181067Y0181208D01*
X0181111Y0181137D01*
X0181150Y0181064D01*
X0181187Y0180989D01*
X0181220Y0180912D01*
X0181249Y0180834D01*
X0181274Y0180755D01*
X0181296Y0180675D01*
X0181313Y0180593D01*
X0181327Y0180511D01*
X0181337Y0180428D01*
X0181343Y0180345D01*
X0181345Y0180262D01*
X0181343Y0180179D01*
X0181337Y0180096D01*
X0181327Y0180013D01*
X0181313Y0179931D01*
X0181296Y0179849D01*
X0181274Y0179769D01*
X0181249Y0179690D01*
X0181220Y0179612D01*
X0181187Y0179535D01*
X0181150Y0179460D01*
X0181111Y0179387D01*
X0181067Y0179316D01*
X0181021Y0179247D01*
X0180971Y0179180D01*
X0180918Y0179116D01*
X0180862Y0179054D01*
X0180803Y0178995D01*
X0180741Y0178939D01*
X0180677Y0178886D01*
X0180610Y0178836D01*
X0180541Y0178790D01*
X0180470Y0178746D01*
X0180397Y0178707D01*
X0180322Y0178670D01*
X0180245Y0178637D01*
X0180167Y0178608D01*
X0180088Y0178583D01*
X0180008Y0178561D01*
X0179926Y0178544D01*
X0179844Y0178530D01*
X0179761Y0178520D01*
X0179678Y0178514D01*
X0179595Y0178512D01*
X0179512Y0178514D01*
X0179429Y0178520D01*
X0179346Y0178530D01*
X0179264Y0178544D01*
X0179182Y0178561D01*
X0179102Y0178583D01*
X0179023Y0178608D01*
X0178945Y0178637D01*
X0178868Y0178670D01*
X0178793Y0178707D01*
X0178720Y0178746D01*
X0178649Y0178790D01*
X0178580Y0178836D01*
X0178513Y0178886D01*
X0178449Y0178939D01*
X0178387Y0178995D01*
X0178328Y0179054D01*
X0178272Y0179116D01*
X0178219Y0179180D01*
X0178169Y0179247D01*
X0178123Y0179316D01*
X0178079Y0179387D01*
X0178040Y0179460D01*
X0178003Y0179535D01*
X0177970Y0179612D01*
X0177941Y0179690D01*
X0177916Y0179769D01*
X0177894Y0179849D01*
X0177877Y0179931D01*
X0177863Y0180013D01*
X0177853Y0180096D01*
X0177847Y0180179D01*
X0177845Y0180262D01*
X0177845Y0190262D02*
X0177847Y0190345D01*
X0177853Y0190428D01*
X0177863Y0190511D01*
X0177877Y0190593D01*
X0177894Y0190675D01*
X0177916Y0190755D01*
X0177941Y0190834D01*
X0177970Y0190912D01*
X0178003Y0190989D01*
X0178040Y0191064D01*
X0178079Y0191137D01*
X0178123Y0191208D01*
X0178169Y0191277D01*
X0178219Y0191344D01*
X0178272Y0191408D01*
X0178328Y0191470D01*
X0178387Y0191529D01*
X0178449Y0191585D01*
X0178513Y0191638D01*
X0178580Y0191688D01*
X0178649Y0191734D01*
X0178720Y0191778D01*
X0178793Y0191817D01*
X0178868Y0191854D01*
X0178945Y0191887D01*
X0179023Y0191916D01*
X0179102Y0191941D01*
X0179182Y0191963D01*
X0179264Y0191980D01*
X0179346Y0191994D01*
X0179429Y0192004D01*
X0179512Y0192010D01*
X0179595Y0192012D01*
X0179678Y0192010D01*
X0179761Y0192004D01*
X0179844Y0191994D01*
X0179926Y0191980D01*
X0180008Y0191963D01*
X0180088Y0191941D01*
X0180167Y0191916D01*
X0180245Y0191887D01*
X0180322Y0191854D01*
X0180397Y0191817D01*
X0180470Y0191778D01*
X0180541Y0191734D01*
X0180610Y0191688D01*
X0180677Y0191638D01*
X0180741Y0191585D01*
X0180803Y0191529D01*
X0180862Y0191470D01*
X0180918Y0191408D01*
X0180971Y0191344D01*
X0181021Y0191277D01*
X0181067Y0191208D01*
X0181111Y0191137D01*
X0181150Y0191064D01*
X0181187Y0190989D01*
X0181220Y0190912D01*
X0181249Y0190834D01*
X0181274Y0190755D01*
X0181296Y0190675D01*
X0181313Y0190593D01*
X0181327Y0190511D01*
X0181337Y0190428D01*
X0181343Y0190345D01*
X0181345Y0190262D01*
X0181343Y0190179D01*
X0181337Y0190096D01*
X0181327Y0190013D01*
X0181313Y0189931D01*
X0181296Y0189849D01*
X0181274Y0189769D01*
X0181249Y0189690D01*
X0181220Y0189612D01*
X0181187Y0189535D01*
X0181150Y0189460D01*
X0181111Y0189387D01*
X0181067Y0189316D01*
X0181021Y0189247D01*
X0180971Y0189180D01*
X0180918Y0189116D01*
X0180862Y0189054D01*
X0180803Y0188995D01*
X0180741Y0188939D01*
X0180677Y0188886D01*
X0180610Y0188836D01*
X0180541Y0188790D01*
X0180470Y0188746D01*
X0180397Y0188707D01*
X0180322Y0188670D01*
X0180245Y0188637D01*
X0180167Y0188608D01*
X0180088Y0188583D01*
X0180008Y0188561D01*
X0179926Y0188544D01*
X0179844Y0188530D01*
X0179761Y0188520D01*
X0179678Y0188514D01*
X0179595Y0188512D01*
X0179512Y0188514D01*
X0179429Y0188520D01*
X0179346Y0188530D01*
X0179264Y0188544D01*
X0179182Y0188561D01*
X0179102Y0188583D01*
X0179023Y0188608D01*
X0178945Y0188637D01*
X0178868Y0188670D01*
X0178793Y0188707D01*
X0178720Y0188746D01*
X0178649Y0188790D01*
X0178580Y0188836D01*
X0178513Y0188886D01*
X0178449Y0188939D01*
X0178387Y0188995D01*
X0178328Y0189054D01*
X0178272Y0189116D01*
X0178219Y0189180D01*
X0178169Y0189247D01*
X0178123Y0189316D01*
X0178079Y0189387D01*
X0178040Y0189460D01*
X0178003Y0189535D01*
X0177970Y0189612D01*
X0177941Y0189690D01*
X0177916Y0189769D01*
X0177894Y0189849D01*
X0177877Y0189931D01*
X0177863Y0190013D01*
X0177853Y0190096D01*
X0177847Y0190179D01*
X0177845Y0190262D01*
X0167845Y0190262D02*
X0167847Y0190345D01*
X0167853Y0190428D01*
X0167863Y0190511D01*
X0167877Y0190593D01*
X0167894Y0190675D01*
X0167916Y0190755D01*
X0167941Y0190834D01*
X0167970Y0190912D01*
X0168003Y0190989D01*
X0168040Y0191064D01*
X0168079Y0191137D01*
X0168123Y0191208D01*
X0168169Y0191277D01*
X0168219Y0191344D01*
X0168272Y0191408D01*
X0168328Y0191470D01*
X0168387Y0191529D01*
X0168449Y0191585D01*
X0168513Y0191638D01*
X0168580Y0191688D01*
X0168649Y0191734D01*
X0168720Y0191778D01*
X0168793Y0191817D01*
X0168868Y0191854D01*
X0168945Y0191887D01*
X0169023Y0191916D01*
X0169102Y0191941D01*
X0169182Y0191963D01*
X0169264Y0191980D01*
X0169346Y0191994D01*
X0169429Y0192004D01*
X0169512Y0192010D01*
X0169595Y0192012D01*
X0169678Y0192010D01*
X0169761Y0192004D01*
X0169844Y0191994D01*
X0169926Y0191980D01*
X0170008Y0191963D01*
X0170088Y0191941D01*
X0170167Y0191916D01*
X0170245Y0191887D01*
X0170322Y0191854D01*
X0170397Y0191817D01*
X0170470Y0191778D01*
X0170541Y0191734D01*
X0170610Y0191688D01*
X0170677Y0191638D01*
X0170741Y0191585D01*
X0170803Y0191529D01*
X0170862Y0191470D01*
X0170918Y0191408D01*
X0170971Y0191344D01*
X0171021Y0191277D01*
X0171067Y0191208D01*
X0171111Y0191137D01*
X0171150Y0191064D01*
X0171187Y0190989D01*
X0171220Y0190912D01*
X0171249Y0190834D01*
X0171274Y0190755D01*
X0171296Y0190675D01*
X0171313Y0190593D01*
X0171327Y0190511D01*
X0171337Y0190428D01*
X0171343Y0190345D01*
X0171345Y0190262D01*
X0171343Y0190179D01*
X0171337Y0190096D01*
X0171327Y0190013D01*
X0171313Y0189931D01*
X0171296Y0189849D01*
X0171274Y0189769D01*
X0171249Y0189690D01*
X0171220Y0189612D01*
X0171187Y0189535D01*
X0171150Y0189460D01*
X0171111Y0189387D01*
X0171067Y0189316D01*
X0171021Y0189247D01*
X0170971Y0189180D01*
X0170918Y0189116D01*
X0170862Y0189054D01*
X0170803Y0188995D01*
X0170741Y0188939D01*
X0170677Y0188886D01*
X0170610Y0188836D01*
X0170541Y0188790D01*
X0170470Y0188746D01*
X0170397Y0188707D01*
X0170322Y0188670D01*
X0170245Y0188637D01*
X0170167Y0188608D01*
X0170088Y0188583D01*
X0170008Y0188561D01*
X0169926Y0188544D01*
X0169844Y0188530D01*
X0169761Y0188520D01*
X0169678Y0188514D01*
X0169595Y0188512D01*
X0169512Y0188514D01*
X0169429Y0188520D01*
X0169346Y0188530D01*
X0169264Y0188544D01*
X0169182Y0188561D01*
X0169102Y0188583D01*
X0169023Y0188608D01*
X0168945Y0188637D01*
X0168868Y0188670D01*
X0168793Y0188707D01*
X0168720Y0188746D01*
X0168649Y0188790D01*
X0168580Y0188836D01*
X0168513Y0188886D01*
X0168449Y0188939D01*
X0168387Y0188995D01*
X0168328Y0189054D01*
X0168272Y0189116D01*
X0168219Y0189180D01*
X0168169Y0189247D01*
X0168123Y0189316D01*
X0168079Y0189387D01*
X0168040Y0189460D01*
X0168003Y0189535D01*
X0167970Y0189612D01*
X0167941Y0189690D01*
X0167916Y0189769D01*
X0167894Y0189849D01*
X0167877Y0189931D01*
X0167863Y0190013D01*
X0167853Y0190096D01*
X0167847Y0190179D01*
X0167845Y0190262D01*
X0197845Y0190262D02*
X0197847Y0190345D01*
X0197853Y0190428D01*
X0197863Y0190511D01*
X0197877Y0190593D01*
X0197894Y0190675D01*
X0197916Y0190755D01*
X0197941Y0190834D01*
X0197970Y0190912D01*
X0198003Y0190989D01*
X0198040Y0191064D01*
X0198079Y0191137D01*
X0198123Y0191208D01*
X0198169Y0191277D01*
X0198219Y0191344D01*
X0198272Y0191408D01*
X0198328Y0191470D01*
X0198387Y0191529D01*
X0198449Y0191585D01*
X0198513Y0191638D01*
X0198580Y0191688D01*
X0198649Y0191734D01*
X0198720Y0191778D01*
X0198793Y0191817D01*
X0198868Y0191854D01*
X0198945Y0191887D01*
X0199023Y0191916D01*
X0199102Y0191941D01*
X0199182Y0191963D01*
X0199264Y0191980D01*
X0199346Y0191994D01*
X0199429Y0192004D01*
X0199512Y0192010D01*
X0199595Y0192012D01*
X0199678Y0192010D01*
X0199761Y0192004D01*
X0199844Y0191994D01*
X0199926Y0191980D01*
X0200008Y0191963D01*
X0200088Y0191941D01*
X0200167Y0191916D01*
X0200245Y0191887D01*
X0200322Y0191854D01*
X0200397Y0191817D01*
X0200470Y0191778D01*
X0200541Y0191734D01*
X0200610Y0191688D01*
X0200677Y0191638D01*
X0200741Y0191585D01*
X0200803Y0191529D01*
X0200862Y0191470D01*
X0200918Y0191408D01*
X0200971Y0191344D01*
X0201021Y0191277D01*
X0201067Y0191208D01*
X0201111Y0191137D01*
X0201150Y0191064D01*
X0201187Y0190989D01*
X0201220Y0190912D01*
X0201249Y0190834D01*
X0201274Y0190755D01*
X0201296Y0190675D01*
X0201313Y0190593D01*
X0201327Y0190511D01*
X0201337Y0190428D01*
X0201343Y0190345D01*
X0201345Y0190262D01*
X0201343Y0190179D01*
X0201337Y0190096D01*
X0201327Y0190013D01*
X0201313Y0189931D01*
X0201296Y0189849D01*
X0201274Y0189769D01*
X0201249Y0189690D01*
X0201220Y0189612D01*
X0201187Y0189535D01*
X0201150Y0189460D01*
X0201111Y0189387D01*
X0201067Y0189316D01*
X0201021Y0189247D01*
X0200971Y0189180D01*
X0200918Y0189116D01*
X0200862Y0189054D01*
X0200803Y0188995D01*
X0200741Y0188939D01*
X0200677Y0188886D01*
X0200610Y0188836D01*
X0200541Y0188790D01*
X0200470Y0188746D01*
X0200397Y0188707D01*
X0200322Y0188670D01*
X0200245Y0188637D01*
X0200167Y0188608D01*
X0200088Y0188583D01*
X0200008Y0188561D01*
X0199926Y0188544D01*
X0199844Y0188530D01*
X0199761Y0188520D01*
X0199678Y0188514D01*
X0199595Y0188512D01*
X0199512Y0188514D01*
X0199429Y0188520D01*
X0199346Y0188530D01*
X0199264Y0188544D01*
X0199182Y0188561D01*
X0199102Y0188583D01*
X0199023Y0188608D01*
X0198945Y0188637D01*
X0198868Y0188670D01*
X0198793Y0188707D01*
X0198720Y0188746D01*
X0198649Y0188790D01*
X0198580Y0188836D01*
X0198513Y0188886D01*
X0198449Y0188939D01*
X0198387Y0188995D01*
X0198328Y0189054D01*
X0198272Y0189116D01*
X0198219Y0189180D01*
X0198169Y0189247D01*
X0198123Y0189316D01*
X0198079Y0189387D01*
X0198040Y0189460D01*
X0198003Y0189535D01*
X0197970Y0189612D01*
X0197941Y0189690D01*
X0197916Y0189769D01*
X0197894Y0189849D01*
X0197877Y0189931D01*
X0197863Y0190013D01*
X0197853Y0190096D01*
X0197847Y0190179D01*
X0197845Y0190262D01*
X0197845Y0180262D02*
X0197847Y0180345D01*
X0197853Y0180428D01*
X0197863Y0180511D01*
X0197877Y0180593D01*
X0197894Y0180675D01*
X0197916Y0180755D01*
X0197941Y0180834D01*
X0197970Y0180912D01*
X0198003Y0180989D01*
X0198040Y0181064D01*
X0198079Y0181137D01*
X0198123Y0181208D01*
X0198169Y0181277D01*
X0198219Y0181344D01*
X0198272Y0181408D01*
X0198328Y0181470D01*
X0198387Y0181529D01*
X0198449Y0181585D01*
X0198513Y0181638D01*
X0198580Y0181688D01*
X0198649Y0181734D01*
X0198720Y0181778D01*
X0198793Y0181817D01*
X0198868Y0181854D01*
X0198945Y0181887D01*
X0199023Y0181916D01*
X0199102Y0181941D01*
X0199182Y0181963D01*
X0199264Y0181980D01*
X0199346Y0181994D01*
X0199429Y0182004D01*
X0199512Y0182010D01*
X0199595Y0182012D01*
X0199678Y0182010D01*
X0199761Y0182004D01*
X0199844Y0181994D01*
X0199926Y0181980D01*
X0200008Y0181963D01*
X0200088Y0181941D01*
X0200167Y0181916D01*
X0200245Y0181887D01*
X0200322Y0181854D01*
X0200397Y0181817D01*
X0200470Y0181778D01*
X0200541Y0181734D01*
X0200610Y0181688D01*
X0200677Y0181638D01*
X0200741Y0181585D01*
X0200803Y0181529D01*
X0200862Y0181470D01*
X0200918Y0181408D01*
X0200971Y0181344D01*
X0201021Y0181277D01*
X0201067Y0181208D01*
X0201111Y0181137D01*
X0201150Y0181064D01*
X0201187Y0180989D01*
X0201220Y0180912D01*
X0201249Y0180834D01*
X0201274Y0180755D01*
X0201296Y0180675D01*
X0201313Y0180593D01*
X0201327Y0180511D01*
X0201337Y0180428D01*
X0201343Y0180345D01*
X0201345Y0180262D01*
X0201343Y0180179D01*
X0201337Y0180096D01*
X0201327Y0180013D01*
X0201313Y0179931D01*
X0201296Y0179849D01*
X0201274Y0179769D01*
X0201249Y0179690D01*
X0201220Y0179612D01*
X0201187Y0179535D01*
X0201150Y0179460D01*
X0201111Y0179387D01*
X0201067Y0179316D01*
X0201021Y0179247D01*
X0200971Y0179180D01*
X0200918Y0179116D01*
X0200862Y0179054D01*
X0200803Y0178995D01*
X0200741Y0178939D01*
X0200677Y0178886D01*
X0200610Y0178836D01*
X0200541Y0178790D01*
X0200470Y0178746D01*
X0200397Y0178707D01*
X0200322Y0178670D01*
X0200245Y0178637D01*
X0200167Y0178608D01*
X0200088Y0178583D01*
X0200008Y0178561D01*
X0199926Y0178544D01*
X0199844Y0178530D01*
X0199761Y0178520D01*
X0199678Y0178514D01*
X0199595Y0178512D01*
X0199512Y0178514D01*
X0199429Y0178520D01*
X0199346Y0178530D01*
X0199264Y0178544D01*
X0199182Y0178561D01*
X0199102Y0178583D01*
X0199023Y0178608D01*
X0198945Y0178637D01*
X0198868Y0178670D01*
X0198793Y0178707D01*
X0198720Y0178746D01*
X0198649Y0178790D01*
X0198580Y0178836D01*
X0198513Y0178886D01*
X0198449Y0178939D01*
X0198387Y0178995D01*
X0198328Y0179054D01*
X0198272Y0179116D01*
X0198219Y0179180D01*
X0198169Y0179247D01*
X0198123Y0179316D01*
X0198079Y0179387D01*
X0198040Y0179460D01*
X0198003Y0179535D01*
X0197970Y0179612D01*
X0197941Y0179690D01*
X0197916Y0179769D01*
X0197894Y0179849D01*
X0197877Y0179931D01*
X0197863Y0180013D01*
X0197853Y0180096D01*
X0197847Y0180179D01*
X0197845Y0180262D01*
X0207845Y0180262D02*
X0207847Y0180345D01*
X0207853Y0180428D01*
X0207863Y0180511D01*
X0207877Y0180593D01*
X0207894Y0180675D01*
X0207916Y0180755D01*
X0207941Y0180834D01*
X0207970Y0180912D01*
X0208003Y0180989D01*
X0208040Y0181064D01*
X0208079Y0181137D01*
X0208123Y0181208D01*
X0208169Y0181277D01*
X0208219Y0181344D01*
X0208272Y0181408D01*
X0208328Y0181470D01*
X0208387Y0181529D01*
X0208449Y0181585D01*
X0208513Y0181638D01*
X0208580Y0181688D01*
X0208649Y0181734D01*
X0208720Y0181778D01*
X0208793Y0181817D01*
X0208868Y0181854D01*
X0208945Y0181887D01*
X0209023Y0181916D01*
X0209102Y0181941D01*
X0209182Y0181963D01*
X0209264Y0181980D01*
X0209346Y0181994D01*
X0209429Y0182004D01*
X0209512Y0182010D01*
X0209595Y0182012D01*
X0209678Y0182010D01*
X0209761Y0182004D01*
X0209844Y0181994D01*
X0209926Y0181980D01*
X0210008Y0181963D01*
X0210088Y0181941D01*
X0210167Y0181916D01*
X0210245Y0181887D01*
X0210322Y0181854D01*
X0210397Y0181817D01*
X0210470Y0181778D01*
X0210541Y0181734D01*
X0210610Y0181688D01*
X0210677Y0181638D01*
X0210741Y0181585D01*
X0210803Y0181529D01*
X0210862Y0181470D01*
X0210918Y0181408D01*
X0210971Y0181344D01*
X0211021Y0181277D01*
X0211067Y0181208D01*
X0211111Y0181137D01*
X0211150Y0181064D01*
X0211187Y0180989D01*
X0211220Y0180912D01*
X0211249Y0180834D01*
X0211274Y0180755D01*
X0211296Y0180675D01*
X0211313Y0180593D01*
X0211327Y0180511D01*
X0211337Y0180428D01*
X0211343Y0180345D01*
X0211345Y0180262D01*
X0211343Y0180179D01*
X0211337Y0180096D01*
X0211327Y0180013D01*
X0211313Y0179931D01*
X0211296Y0179849D01*
X0211274Y0179769D01*
X0211249Y0179690D01*
X0211220Y0179612D01*
X0211187Y0179535D01*
X0211150Y0179460D01*
X0211111Y0179387D01*
X0211067Y0179316D01*
X0211021Y0179247D01*
X0210971Y0179180D01*
X0210918Y0179116D01*
X0210862Y0179054D01*
X0210803Y0178995D01*
X0210741Y0178939D01*
X0210677Y0178886D01*
X0210610Y0178836D01*
X0210541Y0178790D01*
X0210470Y0178746D01*
X0210397Y0178707D01*
X0210322Y0178670D01*
X0210245Y0178637D01*
X0210167Y0178608D01*
X0210088Y0178583D01*
X0210008Y0178561D01*
X0209926Y0178544D01*
X0209844Y0178530D01*
X0209761Y0178520D01*
X0209678Y0178514D01*
X0209595Y0178512D01*
X0209512Y0178514D01*
X0209429Y0178520D01*
X0209346Y0178530D01*
X0209264Y0178544D01*
X0209182Y0178561D01*
X0209102Y0178583D01*
X0209023Y0178608D01*
X0208945Y0178637D01*
X0208868Y0178670D01*
X0208793Y0178707D01*
X0208720Y0178746D01*
X0208649Y0178790D01*
X0208580Y0178836D01*
X0208513Y0178886D01*
X0208449Y0178939D01*
X0208387Y0178995D01*
X0208328Y0179054D01*
X0208272Y0179116D01*
X0208219Y0179180D01*
X0208169Y0179247D01*
X0208123Y0179316D01*
X0208079Y0179387D01*
X0208040Y0179460D01*
X0208003Y0179535D01*
X0207970Y0179612D01*
X0207941Y0179690D01*
X0207916Y0179769D01*
X0207894Y0179849D01*
X0207877Y0179931D01*
X0207863Y0180013D01*
X0207853Y0180096D01*
X0207847Y0180179D01*
X0207845Y0180262D01*
X0207845Y0190262D02*
X0207847Y0190345D01*
X0207853Y0190428D01*
X0207863Y0190511D01*
X0207877Y0190593D01*
X0207894Y0190675D01*
X0207916Y0190755D01*
X0207941Y0190834D01*
X0207970Y0190912D01*
X0208003Y0190989D01*
X0208040Y0191064D01*
X0208079Y0191137D01*
X0208123Y0191208D01*
X0208169Y0191277D01*
X0208219Y0191344D01*
X0208272Y0191408D01*
X0208328Y0191470D01*
X0208387Y0191529D01*
X0208449Y0191585D01*
X0208513Y0191638D01*
X0208580Y0191688D01*
X0208649Y0191734D01*
X0208720Y0191778D01*
X0208793Y0191817D01*
X0208868Y0191854D01*
X0208945Y0191887D01*
X0209023Y0191916D01*
X0209102Y0191941D01*
X0209182Y0191963D01*
X0209264Y0191980D01*
X0209346Y0191994D01*
X0209429Y0192004D01*
X0209512Y0192010D01*
X0209595Y0192012D01*
X0209678Y0192010D01*
X0209761Y0192004D01*
X0209844Y0191994D01*
X0209926Y0191980D01*
X0210008Y0191963D01*
X0210088Y0191941D01*
X0210167Y0191916D01*
X0210245Y0191887D01*
X0210322Y0191854D01*
X0210397Y0191817D01*
X0210470Y0191778D01*
X0210541Y0191734D01*
X0210610Y0191688D01*
X0210677Y0191638D01*
X0210741Y0191585D01*
X0210803Y0191529D01*
X0210862Y0191470D01*
X0210918Y0191408D01*
X0210971Y0191344D01*
X0211021Y0191277D01*
X0211067Y0191208D01*
X0211111Y0191137D01*
X0211150Y0191064D01*
X0211187Y0190989D01*
X0211220Y0190912D01*
X0211249Y0190834D01*
X0211274Y0190755D01*
X0211296Y0190675D01*
X0211313Y0190593D01*
X0211327Y0190511D01*
X0211337Y0190428D01*
X0211343Y0190345D01*
X0211345Y0190262D01*
X0211343Y0190179D01*
X0211337Y0190096D01*
X0211327Y0190013D01*
X0211313Y0189931D01*
X0211296Y0189849D01*
X0211274Y0189769D01*
X0211249Y0189690D01*
X0211220Y0189612D01*
X0211187Y0189535D01*
X0211150Y0189460D01*
X0211111Y0189387D01*
X0211067Y0189316D01*
X0211021Y0189247D01*
X0210971Y0189180D01*
X0210918Y0189116D01*
X0210862Y0189054D01*
X0210803Y0188995D01*
X0210741Y0188939D01*
X0210677Y0188886D01*
X0210610Y0188836D01*
X0210541Y0188790D01*
X0210470Y0188746D01*
X0210397Y0188707D01*
X0210322Y0188670D01*
X0210245Y0188637D01*
X0210167Y0188608D01*
X0210088Y0188583D01*
X0210008Y0188561D01*
X0209926Y0188544D01*
X0209844Y0188530D01*
X0209761Y0188520D01*
X0209678Y0188514D01*
X0209595Y0188512D01*
X0209512Y0188514D01*
X0209429Y0188520D01*
X0209346Y0188530D01*
X0209264Y0188544D01*
X0209182Y0188561D01*
X0209102Y0188583D01*
X0209023Y0188608D01*
X0208945Y0188637D01*
X0208868Y0188670D01*
X0208793Y0188707D01*
X0208720Y0188746D01*
X0208649Y0188790D01*
X0208580Y0188836D01*
X0208513Y0188886D01*
X0208449Y0188939D01*
X0208387Y0188995D01*
X0208328Y0189054D01*
X0208272Y0189116D01*
X0208219Y0189180D01*
X0208169Y0189247D01*
X0208123Y0189316D01*
X0208079Y0189387D01*
X0208040Y0189460D01*
X0208003Y0189535D01*
X0207970Y0189612D01*
X0207941Y0189690D01*
X0207916Y0189769D01*
X0207894Y0189849D01*
X0207877Y0189931D01*
X0207863Y0190013D01*
X0207853Y0190096D01*
X0207847Y0190179D01*
X0207845Y0190262D01*
X0207845Y0170262D02*
X0207847Y0170345D01*
X0207853Y0170428D01*
X0207863Y0170511D01*
X0207877Y0170593D01*
X0207894Y0170675D01*
X0207916Y0170755D01*
X0207941Y0170834D01*
X0207970Y0170912D01*
X0208003Y0170989D01*
X0208040Y0171064D01*
X0208079Y0171137D01*
X0208123Y0171208D01*
X0208169Y0171277D01*
X0208219Y0171344D01*
X0208272Y0171408D01*
X0208328Y0171470D01*
X0208387Y0171529D01*
X0208449Y0171585D01*
X0208513Y0171638D01*
X0208580Y0171688D01*
X0208649Y0171734D01*
X0208720Y0171778D01*
X0208793Y0171817D01*
X0208868Y0171854D01*
X0208945Y0171887D01*
X0209023Y0171916D01*
X0209102Y0171941D01*
X0209182Y0171963D01*
X0209264Y0171980D01*
X0209346Y0171994D01*
X0209429Y0172004D01*
X0209512Y0172010D01*
X0209595Y0172012D01*
X0209678Y0172010D01*
X0209761Y0172004D01*
X0209844Y0171994D01*
X0209926Y0171980D01*
X0210008Y0171963D01*
X0210088Y0171941D01*
X0210167Y0171916D01*
X0210245Y0171887D01*
X0210322Y0171854D01*
X0210397Y0171817D01*
X0210470Y0171778D01*
X0210541Y0171734D01*
X0210610Y0171688D01*
X0210677Y0171638D01*
X0210741Y0171585D01*
X0210803Y0171529D01*
X0210862Y0171470D01*
X0210918Y0171408D01*
X0210971Y0171344D01*
X0211021Y0171277D01*
X0211067Y0171208D01*
X0211111Y0171137D01*
X0211150Y0171064D01*
X0211187Y0170989D01*
X0211220Y0170912D01*
X0211249Y0170834D01*
X0211274Y0170755D01*
X0211296Y0170675D01*
X0211313Y0170593D01*
X0211327Y0170511D01*
X0211337Y0170428D01*
X0211343Y0170345D01*
X0211345Y0170262D01*
X0211343Y0170179D01*
X0211337Y0170096D01*
X0211327Y0170013D01*
X0211313Y0169931D01*
X0211296Y0169849D01*
X0211274Y0169769D01*
X0211249Y0169690D01*
X0211220Y0169612D01*
X0211187Y0169535D01*
X0211150Y0169460D01*
X0211111Y0169387D01*
X0211067Y0169316D01*
X0211021Y0169247D01*
X0210971Y0169180D01*
X0210918Y0169116D01*
X0210862Y0169054D01*
X0210803Y0168995D01*
X0210741Y0168939D01*
X0210677Y0168886D01*
X0210610Y0168836D01*
X0210541Y0168790D01*
X0210470Y0168746D01*
X0210397Y0168707D01*
X0210322Y0168670D01*
X0210245Y0168637D01*
X0210167Y0168608D01*
X0210088Y0168583D01*
X0210008Y0168561D01*
X0209926Y0168544D01*
X0209844Y0168530D01*
X0209761Y0168520D01*
X0209678Y0168514D01*
X0209595Y0168512D01*
X0209512Y0168514D01*
X0209429Y0168520D01*
X0209346Y0168530D01*
X0209264Y0168544D01*
X0209182Y0168561D01*
X0209102Y0168583D01*
X0209023Y0168608D01*
X0208945Y0168637D01*
X0208868Y0168670D01*
X0208793Y0168707D01*
X0208720Y0168746D01*
X0208649Y0168790D01*
X0208580Y0168836D01*
X0208513Y0168886D01*
X0208449Y0168939D01*
X0208387Y0168995D01*
X0208328Y0169054D01*
X0208272Y0169116D01*
X0208219Y0169180D01*
X0208169Y0169247D01*
X0208123Y0169316D01*
X0208079Y0169387D01*
X0208040Y0169460D01*
X0208003Y0169535D01*
X0207970Y0169612D01*
X0207941Y0169690D01*
X0207916Y0169769D01*
X0207894Y0169849D01*
X0207877Y0169931D01*
X0207863Y0170013D01*
X0207853Y0170096D01*
X0207847Y0170179D01*
X0207845Y0170262D01*
X0197845Y0170262D02*
X0197847Y0170345D01*
X0197853Y0170428D01*
X0197863Y0170511D01*
X0197877Y0170593D01*
X0197894Y0170675D01*
X0197916Y0170755D01*
X0197941Y0170834D01*
X0197970Y0170912D01*
X0198003Y0170989D01*
X0198040Y0171064D01*
X0198079Y0171137D01*
X0198123Y0171208D01*
X0198169Y0171277D01*
X0198219Y0171344D01*
X0198272Y0171408D01*
X0198328Y0171470D01*
X0198387Y0171529D01*
X0198449Y0171585D01*
X0198513Y0171638D01*
X0198580Y0171688D01*
X0198649Y0171734D01*
X0198720Y0171778D01*
X0198793Y0171817D01*
X0198868Y0171854D01*
X0198945Y0171887D01*
X0199023Y0171916D01*
X0199102Y0171941D01*
X0199182Y0171963D01*
X0199264Y0171980D01*
X0199346Y0171994D01*
X0199429Y0172004D01*
X0199512Y0172010D01*
X0199595Y0172012D01*
X0199678Y0172010D01*
X0199761Y0172004D01*
X0199844Y0171994D01*
X0199926Y0171980D01*
X0200008Y0171963D01*
X0200088Y0171941D01*
X0200167Y0171916D01*
X0200245Y0171887D01*
X0200322Y0171854D01*
X0200397Y0171817D01*
X0200470Y0171778D01*
X0200541Y0171734D01*
X0200610Y0171688D01*
X0200677Y0171638D01*
X0200741Y0171585D01*
X0200803Y0171529D01*
X0200862Y0171470D01*
X0200918Y0171408D01*
X0200971Y0171344D01*
X0201021Y0171277D01*
X0201067Y0171208D01*
X0201111Y0171137D01*
X0201150Y0171064D01*
X0201187Y0170989D01*
X0201220Y0170912D01*
X0201249Y0170834D01*
X0201274Y0170755D01*
X0201296Y0170675D01*
X0201313Y0170593D01*
X0201327Y0170511D01*
X0201337Y0170428D01*
X0201343Y0170345D01*
X0201345Y0170262D01*
X0201343Y0170179D01*
X0201337Y0170096D01*
X0201327Y0170013D01*
X0201313Y0169931D01*
X0201296Y0169849D01*
X0201274Y0169769D01*
X0201249Y0169690D01*
X0201220Y0169612D01*
X0201187Y0169535D01*
X0201150Y0169460D01*
X0201111Y0169387D01*
X0201067Y0169316D01*
X0201021Y0169247D01*
X0200971Y0169180D01*
X0200918Y0169116D01*
X0200862Y0169054D01*
X0200803Y0168995D01*
X0200741Y0168939D01*
X0200677Y0168886D01*
X0200610Y0168836D01*
X0200541Y0168790D01*
X0200470Y0168746D01*
X0200397Y0168707D01*
X0200322Y0168670D01*
X0200245Y0168637D01*
X0200167Y0168608D01*
X0200088Y0168583D01*
X0200008Y0168561D01*
X0199926Y0168544D01*
X0199844Y0168530D01*
X0199761Y0168520D01*
X0199678Y0168514D01*
X0199595Y0168512D01*
X0199512Y0168514D01*
X0199429Y0168520D01*
X0199346Y0168530D01*
X0199264Y0168544D01*
X0199182Y0168561D01*
X0199102Y0168583D01*
X0199023Y0168608D01*
X0198945Y0168637D01*
X0198868Y0168670D01*
X0198793Y0168707D01*
X0198720Y0168746D01*
X0198649Y0168790D01*
X0198580Y0168836D01*
X0198513Y0168886D01*
X0198449Y0168939D01*
X0198387Y0168995D01*
X0198328Y0169054D01*
X0198272Y0169116D01*
X0198219Y0169180D01*
X0198169Y0169247D01*
X0198123Y0169316D01*
X0198079Y0169387D01*
X0198040Y0169460D01*
X0198003Y0169535D01*
X0197970Y0169612D01*
X0197941Y0169690D01*
X0197916Y0169769D01*
X0197894Y0169849D01*
X0197877Y0169931D01*
X0197863Y0170013D01*
X0197853Y0170096D01*
X0197847Y0170179D01*
X0197845Y0170262D01*
X0197845Y0160262D02*
X0197847Y0160345D01*
X0197853Y0160428D01*
X0197863Y0160511D01*
X0197877Y0160593D01*
X0197894Y0160675D01*
X0197916Y0160755D01*
X0197941Y0160834D01*
X0197970Y0160912D01*
X0198003Y0160989D01*
X0198040Y0161064D01*
X0198079Y0161137D01*
X0198123Y0161208D01*
X0198169Y0161277D01*
X0198219Y0161344D01*
X0198272Y0161408D01*
X0198328Y0161470D01*
X0198387Y0161529D01*
X0198449Y0161585D01*
X0198513Y0161638D01*
X0198580Y0161688D01*
X0198649Y0161734D01*
X0198720Y0161778D01*
X0198793Y0161817D01*
X0198868Y0161854D01*
X0198945Y0161887D01*
X0199023Y0161916D01*
X0199102Y0161941D01*
X0199182Y0161963D01*
X0199264Y0161980D01*
X0199346Y0161994D01*
X0199429Y0162004D01*
X0199512Y0162010D01*
X0199595Y0162012D01*
X0199678Y0162010D01*
X0199761Y0162004D01*
X0199844Y0161994D01*
X0199926Y0161980D01*
X0200008Y0161963D01*
X0200088Y0161941D01*
X0200167Y0161916D01*
X0200245Y0161887D01*
X0200322Y0161854D01*
X0200397Y0161817D01*
X0200470Y0161778D01*
X0200541Y0161734D01*
X0200610Y0161688D01*
X0200677Y0161638D01*
X0200741Y0161585D01*
X0200803Y0161529D01*
X0200862Y0161470D01*
X0200918Y0161408D01*
X0200971Y0161344D01*
X0201021Y0161277D01*
X0201067Y0161208D01*
X0201111Y0161137D01*
X0201150Y0161064D01*
X0201187Y0160989D01*
X0201220Y0160912D01*
X0201249Y0160834D01*
X0201274Y0160755D01*
X0201296Y0160675D01*
X0201313Y0160593D01*
X0201327Y0160511D01*
X0201337Y0160428D01*
X0201343Y0160345D01*
X0201345Y0160262D01*
X0201343Y0160179D01*
X0201337Y0160096D01*
X0201327Y0160013D01*
X0201313Y0159931D01*
X0201296Y0159849D01*
X0201274Y0159769D01*
X0201249Y0159690D01*
X0201220Y0159612D01*
X0201187Y0159535D01*
X0201150Y0159460D01*
X0201111Y0159387D01*
X0201067Y0159316D01*
X0201021Y0159247D01*
X0200971Y0159180D01*
X0200918Y0159116D01*
X0200862Y0159054D01*
X0200803Y0158995D01*
X0200741Y0158939D01*
X0200677Y0158886D01*
X0200610Y0158836D01*
X0200541Y0158790D01*
X0200470Y0158746D01*
X0200397Y0158707D01*
X0200322Y0158670D01*
X0200245Y0158637D01*
X0200167Y0158608D01*
X0200088Y0158583D01*
X0200008Y0158561D01*
X0199926Y0158544D01*
X0199844Y0158530D01*
X0199761Y0158520D01*
X0199678Y0158514D01*
X0199595Y0158512D01*
X0199512Y0158514D01*
X0199429Y0158520D01*
X0199346Y0158530D01*
X0199264Y0158544D01*
X0199182Y0158561D01*
X0199102Y0158583D01*
X0199023Y0158608D01*
X0198945Y0158637D01*
X0198868Y0158670D01*
X0198793Y0158707D01*
X0198720Y0158746D01*
X0198649Y0158790D01*
X0198580Y0158836D01*
X0198513Y0158886D01*
X0198449Y0158939D01*
X0198387Y0158995D01*
X0198328Y0159054D01*
X0198272Y0159116D01*
X0198219Y0159180D01*
X0198169Y0159247D01*
X0198123Y0159316D01*
X0198079Y0159387D01*
X0198040Y0159460D01*
X0198003Y0159535D01*
X0197970Y0159612D01*
X0197941Y0159690D01*
X0197916Y0159769D01*
X0197894Y0159849D01*
X0197877Y0159931D01*
X0197863Y0160013D01*
X0197853Y0160096D01*
X0197847Y0160179D01*
X0197845Y0160262D01*
X0207845Y0160262D02*
X0207847Y0160345D01*
X0207853Y0160428D01*
X0207863Y0160511D01*
X0207877Y0160593D01*
X0207894Y0160675D01*
X0207916Y0160755D01*
X0207941Y0160834D01*
X0207970Y0160912D01*
X0208003Y0160989D01*
X0208040Y0161064D01*
X0208079Y0161137D01*
X0208123Y0161208D01*
X0208169Y0161277D01*
X0208219Y0161344D01*
X0208272Y0161408D01*
X0208328Y0161470D01*
X0208387Y0161529D01*
X0208449Y0161585D01*
X0208513Y0161638D01*
X0208580Y0161688D01*
X0208649Y0161734D01*
X0208720Y0161778D01*
X0208793Y0161817D01*
X0208868Y0161854D01*
X0208945Y0161887D01*
X0209023Y0161916D01*
X0209102Y0161941D01*
X0209182Y0161963D01*
X0209264Y0161980D01*
X0209346Y0161994D01*
X0209429Y0162004D01*
X0209512Y0162010D01*
X0209595Y0162012D01*
X0209678Y0162010D01*
X0209761Y0162004D01*
X0209844Y0161994D01*
X0209926Y0161980D01*
X0210008Y0161963D01*
X0210088Y0161941D01*
X0210167Y0161916D01*
X0210245Y0161887D01*
X0210322Y0161854D01*
X0210397Y0161817D01*
X0210470Y0161778D01*
X0210541Y0161734D01*
X0210610Y0161688D01*
X0210677Y0161638D01*
X0210741Y0161585D01*
X0210803Y0161529D01*
X0210862Y0161470D01*
X0210918Y0161408D01*
X0210971Y0161344D01*
X0211021Y0161277D01*
X0211067Y0161208D01*
X0211111Y0161137D01*
X0211150Y0161064D01*
X0211187Y0160989D01*
X0211220Y0160912D01*
X0211249Y0160834D01*
X0211274Y0160755D01*
X0211296Y0160675D01*
X0211313Y0160593D01*
X0211327Y0160511D01*
X0211337Y0160428D01*
X0211343Y0160345D01*
X0211345Y0160262D01*
X0211343Y0160179D01*
X0211337Y0160096D01*
X0211327Y0160013D01*
X0211313Y0159931D01*
X0211296Y0159849D01*
X0211274Y0159769D01*
X0211249Y0159690D01*
X0211220Y0159612D01*
X0211187Y0159535D01*
X0211150Y0159460D01*
X0211111Y0159387D01*
X0211067Y0159316D01*
X0211021Y0159247D01*
X0210971Y0159180D01*
X0210918Y0159116D01*
X0210862Y0159054D01*
X0210803Y0158995D01*
X0210741Y0158939D01*
X0210677Y0158886D01*
X0210610Y0158836D01*
X0210541Y0158790D01*
X0210470Y0158746D01*
X0210397Y0158707D01*
X0210322Y0158670D01*
X0210245Y0158637D01*
X0210167Y0158608D01*
X0210088Y0158583D01*
X0210008Y0158561D01*
X0209926Y0158544D01*
X0209844Y0158530D01*
X0209761Y0158520D01*
X0209678Y0158514D01*
X0209595Y0158512D01*
X0209512Y0158514D01*
X0209429Y0158520D01*
X0209346Y0158530D01*
X0209264Y0158544D01*
X0209182Y0158561D01*
X0209102Y0158583D01*
X0209023Y0158608D01*
X0208945Y0158637D01*
X0208868Y0158670D01*
X0208793Y0158707D01*
X0208720Y0158746D01*
X0208649Y0158790D01*
X0208580Y0158836D01*
X0208513Y0158886D01*
X0208449Y0158939D01*
X0208387Y0158995D01*
X0208328Y0159054D01*
X0208272Y0159116D01*
X0208219Y0159180D01*
X0208169Y0159247D01*
X0208123Y0159316D01*
X0208079Y0159387D01*
X0208040Y0159460D01*
X0208003Y0159535D01*
X0207970Y0159612D01*
X0207941Y0159690D01*
X0207916Y0159769D01*
X0207894Y0159849D01*
X0207877Y0159931D01*
X0207863Y0160013D01*
X0207853Y0160096D01*
X0207847Y0160179D01*
X0207845Y0160262D01*
X0207845Y0150262D02*
X0207847Y0150345D01*
X0207853Y0150428D01*
X0207863Y0150511D01*
X0207877Y0150593D01*
X0207894Y0150675D01*
X0207916Y0150755D01*
X0207941Y0150834D01*
X0207970Y0150912D01*
X0208003Y0150989D01*
X0208040Y0151064D01*
X0208079Y0151137D01*
X0208123Y0151208D01*
X0208169Y0151277D01*
X0208219Y0151344D01*
X0208272Y0151408D01*
X0208328Y0151470D01*
X0208387Y0151529D01*
X0208449Y0151585D01*
X0208513Y0151638D01*
X0208580Y0151688D01*
X0208649Y0151734D01*
X0208720Y0151778D01*
X0208793Y0151817D01*
X0208868Y0151854D01*
X0208945Y0151887D01*
X0209023Y0151916D01*
X0209102Y0151941D01*
X0209182Y0151963D01*
X0209264Y0151980D01*
X0209346Y0151994D01*
X0209429Y0152004D01*
X0209512Y0152010D01*
X0209595Y0152012D01*
X0209678Y0152010D01*
X0209761Y0152004D01*
X0209844Y0151994D01*
X0209926Y0151980D01*
X0210008Y0151963D01*
X0210088Y0151941D01*
X0210167Y0151916D01*
X0210245Y0151887D01*
X0210322Y0151854D01*
X0210397Y0151817D01*
X0210470Y0151778D01*
X0210541Y0151734D01*
X0210610Y0151688D01*
X0210677Y0151638D01*
X0210741Y0151585D01*
X0210803Y0151529D01*
X0210862Y0151470D01*
X0210918Y0151408D01*
X0210971Y0151344D01*
X0211021Y0151277D01*
X0211067Y0151208D01*
X0211111Y0151137D01*
X0211150Y0151064D01*
X0211187Y0150989D01*
X0211220Y0150912D01*
X0211249Y0150834D01*
X0211274Y0150755D01*
X0211296Y0150675D01*
X0211313Y0150593D01*
X0211327Y0150511D01*
X0211337Y0150428D01*
X0211343Y0150345D01*
X0211345Y0150262D01*
X0211343Y0150179D01*
X0211337Y0150096D01*
X0211327Y0150013D01*
X0211313Y0149931D01*
X0211296Y0149849D01*
X0211274Y0149769D01*
X0211249Y0149690D01*
X0211220Y0149612D01*
X0211187Y0149535D01*
X0211150Y0149460D01*
X0211111Y0149387D01*
X0211067Y0149316D01*
X0211021Y0149247D01*
X0210971Y0149180D01*
X0210918Y0149116D01*
X0210862Y0149054D01*
X0210803Y0148995D01*
X0210741Y0148939D01*
X0210677Y0148886D01*
X0210610Y0148836D01*
X0210541Y0148790D01*
X0210470Y0148746D01*
X0210397Y0148707D01*
X0210322Y0148670D01*
X0210245Y0148637D01*
X0210167Y0148608D01*
X0210088Y0148583D01*
X0210008Y0148561D01*
X0209926Y0148544D01*
X0209844Y0148530D01*
X0209761Y0148520D01*
X0209678Y0148514D01*
X0209595Y0148512D01*
X0209512Y0148514D01*
X0209429Y0148520D01*
X0209346Y0148530D01*
X0209264Y0148544D01*
X0209182Y0148561D01*
X0209102Y0148583D01*
X0209023Y0148608D01*
X0208945Y0148637D01*
X0208868Y0148670D01*
X0208793Y0148707D01*
X0208720Y0148746D01*
X0208649Y0148790D01*
X0208580Y0148836D01*
X0208513Y0148886D01*
X0208449Y0148939D01*
X0208387Y0148995D01*
X0208328Y0149054D01*
X0208272Y0149116D01*
X0208219Y0149180D01*
X0208169Y0149247D01*
X0208123Y0149316D01*
X0208079Y0149387D01*
X0208040Y0149460D01*
X0208003Y0149535D01*
X0207970Y0149612D01*
X0207941Y0149690D01*
X0207916Y0149769D01*
X0207894Y0149849D01*
X0207877Y0149931D01*
X0207863Y0150013D01*
X0207853Y0150096D01*
X0207847Y0150179D01*
X0207845Y0150262D01*
X0197845Y0150262D02*
X0197847Y0150345D01*
X0197853Y0150428D01*
X0197863Y0150511D01*
X0197877Y0150593D01*
X0197894Y0150675D01*
X0197916Y0150755D01*
X0197941Y0150834D01*
X0197970Y0150912D01*
X0198003Y0150989D01*
X0198040Y0151064D01*
X0198079Y0151137D01*
X0198123Y0151208D01*
X0198169Y0151277D01*
X0198219Y0151344D01*
X0198272Y0151408D01*
X0198328Y0151470D01*
X0198387Y0151529D01*
X0198449Y0151585D01*
X0198513Y0151638D01*
X0198580Y0151688D01*
X0198649Y0151734D01*
X0198720Y0151778D01*
X0198793Y0151817D01*
X0198868Y0151854D01*
X0198945Y0151887D01*
X0199023Y0151916D01*
X0199102Y0151941D01*
X0199182Y0151963D01*
X0199264Y0151980D01*
X0199346Y0151994D01*
X0199429Y0152004D01*
X0199512Y0152010D01*
X0199595Y0152012D01*
X0199678Y0152010D01*
X0199761Y0152004D01*
X0199844Y0151994D01*
X0199926Y0151980D01*
X0200008Y0151963D01*
X0200088Y0151941D01*
X0200167Y0151916D01*
X0200245Y0151887D01*
X0200322Y0151854D01*
X0200397Y0151817D01*
X0200470Y0151778D01*
X0200541Y0151734D01*
X0200610Y0151688D01*
X0200677Y0151638D01*
X0200741Y0151585D01*
X0200803Y0151529D01*
X0200862Y0151470D01*
X0200918Y0151408D01*
X0200971Y0151344D01*
X0201021Y0151277D01*
X0201067Y0151208D01*
X0201111Y0151137D01*
X0201150Y0151064D01*
X0201187Y0150989D01*
X0201220Y0150912D01*
X0201249Y0150834D01*
X0201274Y0150755D01*
X0201296Y0150675D01*
X0201313Y0150593D01*
X0201327Y0150511D01*
X0201337Y0150428D01*
X0201343Y0150345D01*
X0201345Y0150262D01*
X0201343Y0150179D01*
X0201337Y0150096D01*
X0201327Y0150013D01*
X0201313Y0149931D01*
X0201296Y0149849D01*
X0201274Y0149769D01*
X0201249Y0149690D01*
X0201220Y0149612D01*
X0201187Y0149535D01*
X0201150Y0149460D01*
X0201111Y0149387D01*
X0201067Y0149316D01*
X0201021Y0149247D01*
X0200971Y0149180D01*
X0200918Y0149116D01*
X0200862Y0149054D01*
X0200803Y0148995D01*
X0200741Y0148939D01*
X0200677Y0148886D01*
X0200610Y0148836D01*
X0200541Y0148790D01*
X0200470Y0148746D01*
X0200397Y0148707D01*
X0200322Y0148670D01*
X0200245Y0148637D01*
X0200167Y0148608D01*
X0200088Y0148583D01*
X0200008Y0148561D01*
X0199926Y0148544D01*
X0199844Y0148530D01*
X0199761Y0148520D01*
X0199678Y0148514D01*
X0199595Y0148512D01*
X0199512Y0148514D01*
X0199429Y0148520D01*
X0199346Y0148530D01*
X0199264Y0148544D01*
X0199182Y0148561D01*
X0199102Y0148583D01*
X0199023Y0148608D01*
X0198945Y0148637D01*
X0198868Y0148670D01*
X0198793Y0148707D01*
X0198720Y0148746D01*
X0198649Y0148790D01*
X0198580Y0148836D01*
X0198513Y0148886D01*
X0198449Y0148939D01*
X0198387Y0148995D01*
X0198328Y0149054D01*
X0198272Y0149116D01*
X0198219Y0149180D01*
X0198169Y0149247D01*
X0198123Y0149316D01*
X0198079Y0149387D01*
X0198040Y0149460D01*
X0198003Y0149535D01*
X0197970Y0149612D01*
X0197941Y0149690D01*
X0197916Y0149769D01*
X0197894Y0149849D01*
X0197877Y0149931D01*
X0197863Y0150013D01*
X0197853Y0150096D01*
X0197847Y0150179D01*
X0197845Y0150262D01*
X0197845Y0140262D02*
X0197847Y0140345D01*
X0197853Y0140428D01*
X0197863Y0140511D01*
X0197877Y0140593D01*
X0197894Y0140675D01*
X0197916Y0140755D01*
X0197941Y0140834D01*
X0197970Y0140912D01*
X0198003Y0140989D01*
X0198040Y0141064D01*
X0198079Y0141137D01*
X0198123Y0141208D01*
X0198169Y0141277D01*
X0198219Y0141344D01*
X0198272Y0141408D01*
X0198328Y0141470D01*
X0198387Y0141529D01*
X0198449Y0141585D01*
X0198513Y0141638D01*
X0198580Y0141688D01*
X0198649Y0141734D01*
X0198720Y0141778D01*
X0198793Y0141817D01*
X0198868Y0141854D01*
X0198945Y0141887D01*
X0199023Y0141916D01*
X0199102Y0141941D01*
X0199182Y0141963D01*
X0199264Y0141980D01*
X0199346Y0141994D01*
X0199429Y0142004D01*
X0199512Y0142010D01*
X0199595Y0142012D01*
X0199678Y0142010D01*
X0199761Y0142004D01*
X0199844Y0141994D01*
X0199926Y0141980D01*
X0200008Y0141963D01*
X0200088Y0141941D01*
X0200167Y0141916D01*
X0200245Y0141887D01*
X0200322Y0141854D01*
X0200397Y0141817D01*
X0200470Y0141778D01*
X0200541Y0141734D01*
X0200610Y0141688D01*
X0200677Y0141638D01*
X0200741Y0141585D01*
X0200803Y0141529D01*
X0200862Y0141470D01*
X0200918Y0141408D01*
X0200971Y0141344D01*
X0201021Y0141277D01*
X0201067Y0141208D01*
X0201111Y0141137D01*
X0201150Y0141064D01*
X0201187Y0140989D01*
X0201220Y0140912D01*
X0201249Y0140834D01*
X0201274Y0140755D01*
X0201296Y0140675D01*
X0201313Y0140593D01*
X0201327Y0140511D01*
X0201337Y0140428D01*
X0201343Y0140345D01*
X0201345Y0140262D01*
X0201343Y0140179D01*
X0201337Y0140096D01*
X0201327Y0140013D01*
X0201313Y0139931D01*
X0201296Y0139849D01*
X0201274Y0139769D01*
X0201249Y0139690D01*
X0201220Y0139612D01*
X0201187Y0139535D01*
X0201150Y0139460D01*
X0201111Y0139387D01*
X0201067Y0139316D01*
X0201021Y0139247D01*
X0200971Y0139180D01*
X0200918Y0139116D01*
X0200862Y0139054D01*
X0200803Y0138995D01*
X0200741Y0138939D01*
X0200677Y0138886D01*
X0200610Y0138836D01*
X0200541Y0138790D01*
X0200470Y0138746D01*
X0200397Y0138707D01*
X0200322Y0138670D01*
X0200245Y0138637D01*
X0200167Y0138608D01*
X0200088Y0138583D01*
X0200008Y0138561D01*
X0199926Y0138544D01*
X0199844Y0138530D01*
X0199761Y0138520D01*
X0199678Y0138514D01*
X0199595Y0138512D01*
X0199512Y0138514D01*
X0199429Y0138520D01*
X0199346Y0138530D01*
X0199264Y0138544D01*
X0199182Y0138561D01*
X0199102Y0138583D01*
X0199023Y0138608D01*
X0198945Y0138637D01*
X0198868Y0138670D01*
X0198793Y0138707D01*
X0198720Y0138746D01*
X0198649Y0138790D01*
X0198580Y0138836D01*
X0198513Y0138886D01*
X0198449Y0138939D01*
X0198387Y0138995D01*
X0198328Y0139054D01*
X0198272Y0139116D01*
X0198219Y0139180D01*
X0198169Y0139247D01*
X0198123Y0139316D01*
X0198079Y0139387D01*
X0198040Y0139460D01*
X0198003Y0139535D01*
X0197970Y0139612D01*
X0197941Y0139690D01*
X0197916Y0139769D01*
X0197894Y0139849D01*
X0197877Y0139931D01*
X0197863Y0140013D01*
X0197853Y0140096D01*
X0197847Y0140179D01*
X0197845Y0140262D01*
X0207845Y0140262D02*
X0207847Y0140345D01*
X0207853Y0140428D01*
X0207863Y0140511D01*
X0207877Y0140593D01*
X0207894Y0140675D01*
X0207916Y0140755D01*
X0207941Y0140834D01*
X0207970Y0140912D01*
X0208003Y0140989D01*
X0208040Y0141064D01*
X0208079Y0141137D01*
X0208123Y0141208D01*
X0208169Y0141277D01*
X0208219Y0141344D01*
X0208272Y0141408D01*
X0208328Y0141470D01*
X0208387Y0141529D01*
X0208449Y0141585D01*
X0208513Y0141638D01*
X0208580Y0141688D01*
X0208649Y0141734D01*
X0208720Y0141778D01*
X0208793Y0141817D01*
X0208868Y0141854D01*
X0208945Y0141887D01*
X0209023Y0141916D01*
X0209102Y0141941D01*
X0209182Y0141963D01*
X0209264Y0141980D01*
X0209346Y0141994D01*
X0209429Y0142004D01*
X0209512Y0142010D01*
X0209595Y0142012D01*
X0209678Y0142010D01*
X0209761Y0142004D01*
X0209844Y0141994D01*
X0209926Y0141980D01*
X0210008Y0141963D01*
X0210088Y0141941D01*
X0210167Y0141916D01*
X0210245Y0141887D01*
X0210322Y0141854D01*
X0210397Y0141817D01*
X0210470Y0141778D01*
X0210541Y0141734D01*
X0210610Y0141688D01*
X0210677Y0141638D01*
X0210741Y0141585D01*
X0210803Y0141529D01*
X0210862Y0141470D01*
X0210918Y0141408D01*
X0210971Y0141344D01*
X0211021Y0141277D01*
X0211067Y0141208D01*
X0211111Y0141137D01*
X0211150Y0141064D01*
X0211187Y0140989D01*
X0211220Y0140912D01*
X0211249Y0140834D01*
X0211274Y0140755D01*
X0211296Y0140675D01*
X0211313Y0140593D01*
X0211327Y0140511D01*
X0211337Y0140428D01*
X0211343Y0140345D01*
X0211345Y0140262D01*
X0211343Y0140179D01*
X0211337Y0140096D01*
X0211327Y0140013D01*
X0211313Y0139931D01*
X0211296Y0139849D01*
X0211274Y0139769D01*
X0211249Y0139690D01*
X0211220Y0139612D01*
X0211187Y0139535D01*
X0211150Y0139460D01*
X0211111Y0139387D01*
X0211067Y0139316D01*
X0211021Y0139247D01*
X0210971Y0139180D01*
X0210918Y0139116D01*
X0210862Y0139054D01*
X0210803Y0138995D01*
X0210741Y0138939D01*
X0210677Y0138886D01*
X0210610Y0138836D01*
X0210541Y0138790D01*
X0210470Y0138746D01*
X0210397Y0138707D01*
X0210322Y0138670D01*
X0210245Y0138637D01*
X0210167Y0138608D01*
X0210088Y0138583D01*
X0210008Y0138561D01*
X0209926Y0138544D01*
X0209844Y0138530D01*
X0209761Y0138520D01*
X0209678Y0138514D01*
X0209595Y0138512D01*
X0209512Y0138514D01*
X0209429Y0138520D01*
X0209346Y0138530D01*
X0209264Y0138544D01*
X0209182Y0138561D01*
X0209102Y0138583D01*
X0209023Y0138608D01*
X0208945Y0138637D01*
X0208868Y0138670D01*
X0208793Y0138707D01*
X0208720Y0138746D01*
X0208649Y0138790D01*
X0208580Y0138836D01*
X0208513Y0138886D01*
X0208449Y0138939D01*
X0208387Y0138995D01*
X0208328Y0139054D01*
X0208272Y0139116D01*
X0208219Y0139180D01*
X0208169Y0139247D01*
X0208123Y0139316D01*
X0208079Y0139387D01*
X0208040Y0139460D01*
X0208003Y0139535D01*
X0207970Y0139612D01*
X0207941Y0139690D01*
X0207916Y0139769D01*
X0207894Y0139849D01*
X0207877Y0139931D01*
X0207863Y0140013D01*
X0207853Y0140096D01*
X0207847Y0140179D01*
X0207845Y0140262D01*
D11*
X0209202Y0115530D02*
X0209669Y0115062D01*
X0210136Y0115062D01*
X0210603Y0115530D01*
X0210603Y0117865D01*
X0210136Y0117865D02*
X0211070Y0117865D01*
X0212149Y0116464D02*
X0213550Y0117865D01*
X0213550Y0115062D01*
X0214017Y0116464D02*
X0212149Y0116464D01*
X0212670Y0131362D02*
X0213137Y0131830D01*
X0213137Y0133698D01*
X0212670Y0134165D01*
X0211268Y0134165D01*
X0211268Y0131362D01*
X0212670Y0131362D01*
X0210190Y0131362D02*
X0210190Y0134165D01*
X0208322Y0134165D02*
X0208322Y0131362D01*
X0207244Y0131830D02*
X0207244Y0132764D01*
X0206309Y0132764D01*
X0205375Y0133698D02*
X0205375Y0131830D01*
X0205842Y0131362D01*
X0206777Y0131362D01*
X0207244Y0131830D01*
X0207244Y0133698D02*
X0206777Y0134165D01*
X0205842Y0134165D01*
X0205375Y0133698D01*
X0208322Y0134165D02*
X0210190Y0131362D01*
X0201663Y0131362D02*
X0199795Y0134165D01*
X0198717Y0134165D02*
X0196849Y0134165D01*
X0197783Y0134165D02*
X0197783Y0131362D01*
X0199795Y0131362D02*
X0201663Y0134165D01*
X0191663Y0134165D02*
X0189795Y0131362D01*
X0188717Y0131362D02*
X0187783Y0132297D01*
X0188250Y0132297D02*
X0186849Y0132297D01*
X0186849Y0131362D02*
X0186849Y0134165D01*
X0188250Y0134165D01*
X0188717Y0133698D01*
X0188717Y0132764D01*
X0188250Y0132297D01*
X0189795Y0134165D02*
X0191663Y0131362D01*
X0181220Y0131362D02*
X0180286Y0131362D01*
X0180753Y0131362D02*
X0180753Y0134165D01*
X0180286Y0134165D02*
X0181220Y0134165D01*
X0179208Y0134165D02*
X0179208Y0131362D01*
X0177340Y0131362D02*
X0177340Y0134165D01*
X0178274Y0133231D01*
X0179208Y0134165D01*
X0171663Y0133698D02*
X0171663Y0131830D01*
X0171196Y0131362D01*
X0170262Y0131362D01*
X0169795Y0131830D01*
X0169795Y0133698D01*
X0170262Y0134165D01*
X0171196Y0134165D01*
X0171663Y0133698D01*
X0168717Y0134165D02*
X0168717Y0131362D01*
X0166849Y0131362D02*
X0166849Y0134165D01*
X0167783Y0133231D01*
X0168717Y0134165D01*
X0163137Y0134165D02*
X0161268Y0132297D01*
X0161735Y0132764D02*
X0163137Y0131362D01*
X0161268Y0131362D02*
X0161268Y0134165D01*
X0160190Y0133698D02*
X0159723Y0134165D01*
X0158789Y0134165D01*
X0158322Y0133698D01*
X0158322Y0131830D01*
X0158789Y0131362D01*
X0159723Y0131362D01*
X0160190Y0131830D01*
X0157244Y0131830D02*
X0156777Y0131362D01*
X0155842Y0131362D01*
X0155375Y0131830D01*
X0155842Y0132764D02*
X0156777Y0132764D01*
X0157244Y0132297D01*
X0157244Y0131830D01*
X0155842Y0132764D02*
X0155375Y0133231D01*
X0155375Y0133698D01*
X0155842Y0134165D01*
X0156777Y0134165D01*
X0157244Y0133698D01*
X0157122Y0136773D02*
X0156589Y0136773D01*
X0156322Y0137040D01*
X0156322Y0137307D01*
X0156589Y0137574D01*
X0157122Y0137574D01*
X0157389Y0137307D01*
X0157389Y0137040D01*
X0157122Y0136773D01*
X0157122Y0137574D02*
X0157389Y0137841D01*
X0157389Y0138108D01*
X0157122Y0138375D01*
X0156589Y0138375D01*
X0156322Y0138108D01*
X0156322Y0137841D01*
X0156589Y0137574D01*
X0155548Y0137040D02*
X0155281Y0136773D01*
X0154747Y0136773D01*
X0154480Y0137040D01*
X0154480Y0138108D01*
X0154747Y0138375D01*
X0155281Y0138375D01*
X0155548Y0138108D01*
X0150592Y0133698D02*
X0150125Y0134165D01*
X0149191Y0134165D01*
X0148724Y0133698D01*
X0147646Y0134165D02*
X0147646Y0131362D01*
X0148724Y0131362D02*
X0150592Y0133231D01*
X0150592Y0133698D01*
X0150592Y0131362D02*
X0148724Y0131362D01*
X0146711Y0133231D02*
X0147646Y0134165D01*
X0146711Y0133231D02*
X0145777Y0134165D01*
X0145777Y0131362D01*
X0144699Y0131830D02*
X0144232Y0131362D01*
X0143298Y0131362D01*
X0142831Y0131830D01*
X0142831Y0133698D01*
X0143298Y0134165D01*
X0144232Y0134165D01*
X0144699Y0133698D01*
X0141753Y0133698D02*
X0141285Y0134165D01*
X0140351Y0134165D01*
X0139884Y0133698D01*
X0138854Y0134165D02*
X0137920Y0134165D01*
X0138387Y0134165D02*
X0138387Y0131362D01*
X0137920Y0131362D02*
X0138854Y0131362D01*
X0139884Y0131362D02*
X0141753Y0133231D01*
X0141753Y0133698D01*
X0141753Y0131362D02*
X0139884Y0131362D01*
X0130190Y0131830D02*
X0129723Y0131362D01*
X0128789Y0131362D01*
X0128322Y0131830D01*
X0129256Y0132764D02*
X0129723Y0132764D01*
X0130190Y0132297D01*
X0130190Y0131830D01*
X0129723Y0132764D02*
X0130190Y0133231D01*
X0130190Y0133698D01*
X0129723Y0134165D01*
X0128789Y0134165D01*
X0128322Y0133698D01*
X0127646Y0134862D02*
X0127646Y0137665D01*
X0125777Y0137665D02*
X0127646Y0134862D01*
X0125777Y0134862D02*
X0125777Y0137665D01*
X0124747Y0137665D02*
X0123813Y0137665D01*
X0124280Y0137665D02*
X0124280Y0134862D01*
X0123813Y0134862D02*
X0124747Y0134862D01*
X0122735Y0134862D02*
X0122735Y0136731D01*
X0121801Y0137665D01*
X0120866Y0136731D01*
X0120866Y0134862D01*
X0119723Y0134165D02*
X0118789Y0134165D01*
X0118322Y0133698D01*
X0119723Y0134165D02*
X0120190Y0133698D01*
X0120190Y0133231D01*
X0118322Y0131362D01*
X0120190Y0131362D01*
X0120866Y0136264D02*
X0122735Y0136264D01*
X0115995Y0138123D02*
X0113193Y0138123D01*
X0114127Y0139057D01*
X0113193Y0139991D01*
X0115995Y0139991D01*
X0115995Y0141069D02*
X0114127Y0141069D01*
X0113193Y0142004D01*
X0114127Y0142938D01*
X0115995Y0142938D01*
X0115995Y0144016D02*
X0113193Y0145884D01*
X0113193Y0146962D02*
X0113193Y0148364D01*
X0113660Y0148831D01*
X0115528Y0148831D01*
X0115995Y0148364D01*
X0115995Y0146962D01*
X0113193Y0146962D01*
X0113193Y0144016D02*
X0115995Y0145884D01*
X0117606Y0146363D02*
X0118273Y0145696D01*
X0118273Y0144695D01*
X0118273Y0145696D02*
X0118941Y0146363D01*
X0118941Y0146696D01*
X0119816Y0146029D02*
X0120483Y0146696D01*
X0120483Y0144695D01*
X0119816Y0144695D02*
X0121151Y0144695D01*
X0122197Y0142536D02*
X0122997Y0142536D01*
X0123264Y0142269D01*
X0123264Y0141736D01*
X0122997Y0141469D01*
X0122197Y0141469D01*
X0122730Y0141469D02*
X0123264Y0140935D01*
X0124038Y0140935D02*
X0125106Y0140935D01*
X0124572Y0140935D02*
X0124572Y0142536D01*
X0124038Y0142002D01*
X0125880Y0141736D02*
X0126414Y0142002D01*
X0126681Y0142002D01*
X0126947Y0141736D01*
X0126947Y0141202D01*
X0126681Y0140935D01*
X0126147Y0140935D01*
X0125880Y0141202D01*
X0125880Y0141736D02*
X0125880Y0142536D01*
X0126947Y0142536D01*
X0127970Y0145376D02*
X0129038Y0145376D01*
X0129305Y0145643D01*
X0129305Y0146177D01*
X0129038Y0146443D01*
X0129305Y0147217D02*
X0128237Y0148285D01*
X0127970Y0148285D01*
X0127703Y0148018D01*
X0127703Y0147484D01*
X0127970Y0147217D01*
X0127970Y0146443D02*
X0127703Y0146177D01*
X0127703Y0145643D01*
X0127970Y0145376D01*
X0129305Y0147217D02*
X0129305Y0148285D01*
X0133703Y0147562D02*
X0135305Y0147562D01*
X0135305Y0147028D02*
X0135305Y0148096D01*
X0134237Y0147028D02*
X0133703Y0147562D01*
X0133970Y0146254D02*
X0133703Y0145988D01*
X0133703Y0145454D01*
X0133970Y0145187D01*
X0135038Y0145187D01*
X0135305Y0145454D01*
X0135305Y0145988D01*
X0135038Y0146254D01*
X0143321Y0146114D02*
X0143588Y0146380D01*
X0144122Y0146380D01*
X0144389Y0146114D01*
X0144389Y0145313D01*
X0144389Y0145847D02*
X0144923Y0146380D01*
X0144656Y0147154D02*
X0144923Y0147421D01*
X0144923Y0147955D01*
X0144656Y0148222D01*
X0143588Y0148222D01*
X0143321Y0147955D01*
X0143321Y0147421D01*
X0143588Y0147154D01*
X0143855Y0147154D01*
X0144122Y0147421D01*
X0144122Y0148222D01*
X0143321Y0146114D02*
X0143321Y0145313D01*
X0144923Y0145313D01*
X0142829Y0141984D02*
X0143096Y0141717D01*
X0143096Y0141183D01*
X0142829Y0140916D01*
X0141761Y0141984D01*
X0142829Y0141984D01*
X0141761Y0141984D02*
X0141495Y0141717D01*
X0141495Y0141183D01*
X0141761Y0140916D01*
X0142829Y0140916D01*
X0143096Y0140142D02*
X0143096Y0139075D01*
X0143096Y0139608D02*
X0141495Y0139608D01*
X0142028Y0139075D01*
X0141761Y0138301D02*
X0142295Y0138301D01*
X0142562Y0138034D01*
X0142562Y0137233D01*
X0142562Y0137767D02*
X0143096Y0138301D01*
X0143096Y0137233D02*
X0141495Y0137233D01*
X0141495Y0138034D01*
X0141761Y0138301D01*
X0122197Y0140935D02*
X0122197Y0142536D01*
X0117606Y0146363D02*
X0117606Y0146696D01*
X0114594Y0142938D02*
X0114594Y0141069D01*
X0109643Y0146462D02*
X0108709Y0146462D01*
X0108242Y0146930D01*
X0109176Y0147864D02*
X0109643Y0147864D01*
X0110110Y0147397D01*
X0110110Y0146930D01*
X0109643Y0146462D01*
X0109643Y0147864D02*
X0110110Y0148331D01*
X0110110Y0148798D01*
X0109643Y0149265D01*
X0108709Y0149265D01*
X0108242Y0148798D01*
X0107163Y0149265D02*
X0106229Y0149265D01*
X0106696Y0149265D02*
X0106696Y0146930D01*
X0106229Y0146462D01*
X0105762Y0146462D01*
X0105295Y0146930D01*
X0113193Y0150843D02*
X0114127Y0151777D01*
X0115995Y0151777D01*
X0115995Y0152855D02*
X0113193Y0152855D01*
X0113193Y0154257D01*
X0113660Y0154724D01*
X0114594Y0154724D01*
X0115061Y0154257D01*
X0115061Y0152855D01*
X0114594Y0151777D02*
X0114594Y0149909D01*
X0114127Y0149909D02*
X0113193Y0150843D01*
X0114127Y0149909D02*
X0115995Y0149909D01*
X0118160Y0161321D02*
X0118694Y0161321D01*
X0118961Y0161588D01*
X0118160Y0161321D02*
X0117894Y0161588D01*
X0117894Y0162655D01*
X0118160Y0162922D01*
X0118694Y0162922D01*
X0118961Y0162655D01*
X0119735Y0162121D02*
X0120536Y0162922D01*
X0120536Y0161321D01*
X0120803Y0162121D02*
X0119735Y0162121D01*
X0113120Y0163788D02*
X0113120Y0164322D01*
X0112853Y0164589D01*
X0113120Y0165363D02*
X0113120Y0166431D01*
X0113120Y0165897D02*
X0111518Y0165897D01*
X0112052Y0165363D01*
X0111785Y0164589D02*
X0111518Y0164322D01*
X0111518Y0163788D01*
X0111785Y0163522D01*
X0112853Y0163522D01*
X0113120Y0163788D01*
X0112853Y0167205D02*
X0111785Y0167205D01*
X0111518Y0167472D01*
X0111518Y0168005D01*
X0111785Y0168272D01*
X0112853Y0167205D01*
X0113120Y0167472D01*
X0113120Y0168005D01*
X0112853Y0168272D01*
X0111785Y0168272D01*
X0113272Y0169536D02*
X0113272Y0171204D01*
X0114606Y0171204D02*
X0114606Y0169536D01*
X0114272Y0169203D01*
X0113605Y0169203D01*
X0113272Y0169536D01*
X0115481Y0169203D02*
X0116816Y0169203D01*
X0116149Y0169203D02*
X0116149Y0171204D01*
X0115481Y0170537D01*
X0117833Y0170082D02*
X0119435Y0170082D01*
X0119435Y0169548D02*
X0119435Y0170616D01*
X0118634Y0171390D02*
X0118634Y0172457D01*
X0119435Y0172190D02*
X0117833Y0172190D01*
X0118634Y0171390D01*
X0117833Y0170082D02*
X0118367Y0169548D01*
X0118100Y0168774D02*
X0117833Y0168507D01*
X0117833Y0167973D01*
X0118100Y0167707D01*
X0119168Y0167707D01*
X0119435Y0167973D01*
X0119435Y0168507D01*
X0119168Y0168774D01*
X0127795Y0172048D02*
X0128062Y0171781D01*
X0128596Y0171781D01*
X0128863Y0172048D01*
X0129637Y0172048D02*
X0129904Y0171781D01*
X0130437Y0171781D01*
X0130704Y0172048D01*
X0130704Y0172315D01*
X0130437Y0172582D01*
X0129637Y0172582D01*
X0129637Y0172048D01*
X0129637Y0172582D02*
X0130170Y0173116D01*
X0130704Y0173383D01*
X0130741Y0174768D02*
X0130274Y0175235D01*
X0130741Y0174768D02*
X0131675Y0174768D01*
X0132142Y0175235D01*
X0132142Y0175702D01*
X0131675Y0176169D01*
X0131208Y0176169D01*
X0131675Y0176169D02*
X0132142Y0176636D01*
X0132142Y0177103D01*
X0131675Y0177570D01*
X0130741Y0177570D01*
X0130274Y0177103D01*
X0129196Y0177570D02*
X0127327Y0174768D01*
X0126249Y0174768D02*
X0126249Y0176636D01*
X0125315Y0177570D01*
X0124381Y0176636D01*
X0124381Y0174768D01*
X0123303Y0174768D02*
X0123303Y0177570D01*
X0122368Y0176636D01*
X0121434Y0177570D01*
X0121434Y0174768D01*
X0124381Y0176169D02*
X0126249Y0176169D01*
X0127327Y0177570D02*
X0129196Y0174768D01*
X0128596Y0173383D02*
X0128062Y0173383D01*
X0127795Y0173116D01*
X0127795Y0172048D01*
X0128863Y0173116D02*
X0128596Y0173383D01*
X0133220Y0174768D02*
X0135089Y0176636D01*
X0135089Y0177103D01*
X0134622Y0177570D01*
X0133687Y0177570D01*
X0133220Y0177103D01*
X0133220Y0174768D02*
X0135089Y0174768D01*
X0136167Y0175235D02*
X0136634Y0174768D01*
X0137568Y0174768D01*
X0138035Y0175235D01*
X0138035Y0175702D01*
X0137568Y0176169D01*
X0136167Y0176169D01*
X0136167Y0175235D01*
X0136167Y0176169D02*
X0137101Y0177103D01*
X0138035Y0177570D01*
X0139113Y0177103D02*
X0139580Y0177570D01*
X0140515Y0177570D01*
X0140982Y0177103D01*
X0140982Y0176636D01*
X0139113Y0174768D01*
X0140982Y0174768D01*
X0142060Y0175235D02*
X0142527Y0174768D01*
X0143461Y0174768D01*
X0143928Y0175235D01*
X0143928Y0177103D01*
X0142060Y0175235D01*
X0142060Y0177103D01*
X0142527Y0177570D01*
X0143461Y0177570D01*
X0143928Y0177103D01*
X0147319Y0177077D02*
X0147319Y0178678D01*
X0148119Y0178678D01*
X0148386Y0178411D01*
X0148386Y0177877D01*
X0148119Y0177610D01*
X0147319Y0177610D01*
X0147853Y0177610D02*
X0148386Y0177077D01*
X0149160Y0177344D02*
X0149427Y0177077D01*
X0149961Y0177077D01*
X0150228Y0177344D01*
X0150228Y0177610D01*
X0149961Y0177877D01*
X0149694Y0177877D01*
X0149961Y0177877D02*
X0150228Y0178144D01*
X0150228Y0178411D01*
X0149961Y0178678D01*
X0149427Y0178678D01*
X0149160Y0178411D01*
X0158849Y0183862D02*
X0158849Y0186665D01*
X0160250Y0186665D01*
X0160717Y0186198D01*
X0160717Y0185264D01*
X0160250Y0184797D01*
X0158849Y0184797D01*
X0161795Y0185731D02*
X0162729Y0186665D01*
X0162729Y0183862D01*
X0161795Y0183862D02*
X0163663Y0183862D01*
X0165508Y0193356D02*
X0165508Y0194557D01*
X0166108Y0194557D01*
X0166308Y0194357D01*
X0166308Y0193957D01*
X0166108Y0193756D01*
X0165508Y0193756D01*
X0166981Y0193356D02*
X0167782Y0193356D01*
X0167381Y0193356D02*
X0167381Y0194557D01*
X0166981Y0194157D01*
X0167316Y0196362D02*
X0166849Y0196830D01*
X0167316Y0196362D02*
X0168250Y0196362D01*
X0168717Y0196830D01*
X0168717Y0197297D01*
X0168250Y0197764D01*
X0167316Y0197764D01*
X0166849Y0198231D01*
X0166849Y0198698D01*
X0167316Y0199165D01*
X0168250Y0199165D01*
X0168717Y0198698D01*
X0169795Y0198698D02*
X0169795Y0198231D01*
X0170262Y0197764D01*
X0171196Y0197764D01*
X0171663Y0197297D01*
X0171663Y0196830D01*
X0171196Y0196362D01*
X0170262Y0196362D01*
X0169795Y0196830D01*
X0169795Y0198698D02*
X0170262Y0199165D01*
X0171196Y0199165D01*
X0171663Y0198698D01*
X0175375Y0199165D02*
X0176777Y0199165D01*
X0177244Y0198698D01*
X0177244Y0197764D01*
X0176777Y0197297D01*
X0175375Y0197297D01*
X0176309Y0197297D02*
X0177244Y0196362D01*
X0175375Y0196362D02*
X0175375Y0199165D01*
X0178322Y0199165D02*
X0180190Y0199165D01*
X0179256Y0199165D02*
X0179256Y0196362D01*
X0181268Y0196830D02*
X0181735Y0196362D01*
X0182670Y0196362D01*
X0183137Y0196830D01*
X0183137Y0197297D01*
X0182670Y0197764D01*
X0181735Y0197764D01*
X0181268Y0198231D01*
X0181268Y0198698D01*
X0181735Y0199165D01*
X0182670Y0199165D01*
X0183137Y0198698D01*
X0185375Y0198698D02*
X0185375Y0196830D01*
X0185842Y0196362D01*
X0186777Y0196362D01*
X0187244Y0196830D01*
X0187244Y0198698D02*
X0186777Y0199165D01*
X0185842Y0199165D01*
X0185375Y0198698D01*
X0188322Y0199165D02*
X0190190Y0199165D01*
X0189256Y0199165D02*
X0189256Y0196362D01*
X0191268Y0196830D02*
X0191735Y0196362D01*
X0192670Y0196362D01*
X0193137Y0196830D01*
X0193137Y0197297D01*
X0192670Y0197764D01*
X0191735Y0197764D01*
X0191268Y0198231D01*
X0191268Y0198698D01*
X0191735Y0199165D01*
X0192670Y0199165D01*
X0193137Y0198698D01*
X0195375Y0198698D02*
X0195375Y0198231D01*
X0195842Y0197764D01*
X0196777Y0197764D01*
X0197244Y0197297D01*
X0197244Y0196830D01*
X0196777Y0196362D01*
X0195842Y0196362D01*
X0195375Y0196830D01*
X0195375Y0198698D02*
X0195842Y0199165D01*
X0196777Y0199165D01*
X0197244Y0198698D01*
X0198322Y0198698D02*
X0198322Y0196830D01*
X0198789Y0196362D01*
X0199723Y0196362D01*
X0200190Y0196830D01*
X0201268Y0196362D02*
X0203137Y0196362D01*
X0201268Y0196362D02*
X0201268Y0199165D01*
X0200190Y0198698D02*
X0199723Y0199165D01*
X0198789Y0199165D01*
X0198322Y0198698D01*
X0205375Y0198698D02*
X0205375Y0198231D01*
X0205842Y0197764D01*
X0206777Y0197764D01*
X0207244Y0197297D01*
X0207244Y0196830D01*
X0206777Y0196362D01*
X0205842Y0196362D01*
X0205375Y0196830D01*
X0205375Y0198698D02*
X0205842Y0199165D01*
X0206777Y0199165D01*
X0207244Y0198698D01*
X0208322Y0199165D02*
X0209723Y0199165D01*
X0210190Y0198698D01*
X0210190Y0196830D01*
X0209723Y0196362D01*
X0208322Y0196362D01*
X0208322Y0199165D01*
X0211268Y0198231D02*
X0211268Y0196362D01*
X0211268Y0197764D02*
X0213137Y0197764D01*
X0213137Y0198231D02*
X0213137Y0196362D01*
X0213137Y0198231D02*
X0212203Y0199165D01*
X0211268Y0198231D01*
X0219929Y0192665D02*
X0221330Y0192665D01*
X0221797Y0192198D01*
X0221797Y0191264D01*
X0221330Y0190797D01*
X0219929Y0190797D01*
X0219929Y0189862D02*
X0219929Y0192665D01*
X0222875Y0192198D02*
X0222875Y0190330D01*
X0223342Y0189862D01*
X0224277Y0189862D01*
X0224744Y0190330D01*
X0224744Y0192198D01*
X0224277Y0192665D01*
X0223342Y0192665D01*
X0222875Y0192198D01*
X0225822Y0192665D02*
X0225822Y0189862D01*
X0226756Y0190797D01*
X0227690Y0189862D01*
X0227690Y0192665D01*
X0228768Y0192665D02*
X0228768Y0189862D01*
X0230637Y0189862D01*
X0231715Y0189862D02*
X0231715Y0192665D01*
X0233116Y0192665D01*
X0233583Y0192198D01*
X0233583Y0191264D01*
X0233116Y0190797D01*
X0231715Y0190797D01*
X0232649Y0190797D02*
X0233583Y0189862D01*
X0230637Y0192665D02*
X0228768Y0192665D01*
X0228768Y0191264D02*
X0229703Y0191264D01*
X0228645Y0184142D02*
X0228645Y0182074D01*
X0226577Y0184142D01*
X0226060Y0184142D01*
X0225542Y0183625D01*
X0225542Y0182591D01*
X0226060Y0182074D01*
X0225542Y0180920D02*
X0228645Y0180920D01*
X0227611Y0179885D01*
X0228645Y0178851D01*
X0225542Y0178851D01*
X0226060Y0177697D02*
X0225542Y0177180D01*
X0225542Y0176145D01*
X0226060Y0175628D01*
X0226577Y0175628D01*
X0227094Y0176145D01*
X0227094Y0177180D01*
X0227611Y0177697D01*
X0228128Y0177697D01*
X0228645Y0177180D01*
X0228645Y0176145D01*
X0228128Y0175628D01*
X0228402Y0170521D02*
X0228402Y0168519D01*
X0227735Y0168519D02*
X0229069Y0168519D01*
X0227735Y0169854D02*
X0228402Y0170521D01*
X0226859Y0170187D02*
X0226526Y0170521D01*
X0225525Y0170521D01*
X0225525Y0168519D01*
X0226526Y0168519D01*
X0226859Y0168853D01*
X0226859Y0170187D01*
X0223495Y0168337D02*
X0223495Y0166936D01*
X0220693Y0166936D01*
X0220693Y0168337D01*
X0221160Y0168804D01*
X0221627Y0168804D01*
X0222094Y0168337D01*
X0222094Y0166936D01*
X0222094Y0165857D02*
X0222094Y0164923D01*
X0222094Y0165857D02*
X0223028Y0165857D01*
X0223495Y0165390D01*
X0223495Y0164456D01*
X0223028Y0163989D01*
X0221160Y0163989D01*
X0220693Y0164456D01*
X0220693Y0165390D01*
X0221160Y0165857D01*
X0222094Y0168337D02*
X0222561Y0168804D01*
X0223028Y0168804D01*
X0223495Y0168337D01*
X0223495Y0162911D02*
X0222561Y0161977D01*
X0222561Y0162444D02*
X0222561Y0161043D01*
X0223495Y0161043D02*
X0220693Y0161043D01*
X0220693Y0162444D01*
X0221160Y0162911D01*
X0222094Y0162911D01*
X0222561Y0162444D01*
X0225542Y0153108D02*
X0228645Y0153108D01*
X0228645Y0152074D02*
X0228645Y0154142D01*
X0226577Y0152074D02*
X0225542Y0153108D01*
X0225542Y0150920D02*
X0228645Y0150920D01*
X0227611Y0149885D01*
X0228645Y0148851D01*
X0225542Y0148851D01*
X0226060Y0147697D02*
X0225542Y0147180D01*
X0225542Y0146145D01*
X0226060Y0145628D01*
X0226577Y0145628D01*
X0227094Y0146145D01*
X0227094Y0147180D01*
X0227611Y0147697D01*
X0228128Y0147697D01*
X0228645Y0147180D01*
X0228645Y0146145D01*
X0228128Y0145628D01*
X0227762Y0140665D02*
X0227295Y0140198D01*
X0227295Y0138330D01*
X0227762Y0137862D01*
X0228696Y0137862D01*
X0229163Y0138330D01*
X0229163Y0140198D01*
X0228696Y0140665D01*
X0227762Y0140665D01*
X0226217Y0140198D02*
X0225750Y0140665D01*
X0224816Y0140665D01*
X0224349Y0140198D01*
X0224349Y0138330D01*
X0224816Y0137862D01*
X0225750Y0137862D01*
X0226217Y0138330D01*
X0226217Y0140198D01*
X0223270Y0140198D02*
X0223270Y0139731D01*
X0222803Y0139264D01*
X0221402Y0139264D01*
X0221402Y0140665D02*
X0221402Y0137862D01*
X0222803Y0137862D01*
X0223270Y0138330D01*
X0223270Y0138797D01*
X0222803Y0139264D01*
X0223270Y0140198D02*
X0222803Y0140665D01*
X0221402Y0140665D01*
X0230242Y0140665D02*
X0232110Y0140665D01*
X0231176Y0140665D02*
X0231176Y0137862D01*
X0148375Y0156464D02*
X0148375Y0156997D01*
X0148109Y0157264D01*
X0148109Y0158038D02*
X0148375Y0158038D01*
X0148109Y0158038D02*
X0147041Y0159106D01*
X0146774Y0159106D01*
X0146774Y0158038D01*
X0147041Y0157264D02*
X0146774Y0156997D01*
X0146774Y0156464D01*
X0147041Y0156197D01*
X0148109Y0156197D01*
X0148375Y0156464D01*
X0145811Y0153273D02*
X0145143Y0153273D01*
X0144810Y0152939D01*
X0143934Y0153273D02*
X0143934Y0151605D01*
X0143601Y0151271D01*
X0142933Y0151271D01*
X0142600Y0151605D01*
X0142600Y0153273D01*
X0144810Y0151271D02*
X0146144Y0152606D01*
X0146144Y0152939D01*
X0145811Y0153273D01*
X0146144Y0151271D02*
X0144810Y0151271D01*
X0144835Y0166183D02*
X0145903Y0167251D01*
X0145903Y0167517D01*
X0145636Y0167784D01*
X0145102Y0167784D01*
X0144835Y0167517D01*
X0144061Y0167517D02*
X0143795Y0167784D01*
X0142994Y0167784D01*
X0142994Y0166183D01*
X0142994Y0166717D02*
X0143795Y0166717D01*
X0144061Y0166984D01*
X0144061Y0167517D01*
X0143528Y0166717D02*
X0144061Y0166183D01*
X0144835Y0166183D02*
X0145903Y0166183D01*
X0145573Y0170183D02*
X0145573Y0171784D01*
X0144772Y0170984D01*
X0145840Y0170984D01*
X0143998Y0170984D02*
X0143732Y0170717D01*
X0142931Y0170717D01*
X0143465Y0170717D02*
X0143998Y0170183D01*
X0143998Y0170984D02*
X0143998Y0171517D01*
X0143732Y0171784D01*
X0142931Y0171784D01*
X0142931Y0170183D01*
X0120647Y0182654D02*
X0119046Y0182654D01*
X0119046Y0183455D01*
X0119313Y0183722D01*
X0119846Y0183722D01*
X0120113Y0183455D01*
X0120113Y0182654D01*
X0120113Y0183188D02*
X0120647Y0183722D01*
X0120647Y0184496D02*
X0120647Y0185563D01*
X0120647Y0185030D02*
X0119046Y0185030D01*
X0119580Y0184496D01*
X0119313Y0186337D02*
X0119046Y0186604D01*
X0119046Y0187138D01*
X0119313Y0187405D01*
X0119580Y0187405D01*
X0120647Y0186337D01*
X0120647Y0187405D01*
X0126684Y0187707D02*
X0126684Y0188507D01*
X0126950Y0188774D01*
X0127484Y0188774D01*
X0127751Y0188507D01*
X0127751Y0187707D01*
X0127751Y0188240D02*
X0128285Y0188774D01*
X0128285Y0189548D02*
X0128018Y0189548D01*
X0126950Y0190616D01*
X0126684Y0190616D01*
X0126684Y0189548D01*
X0126684Y0187707D02*
X0128285Y0187707D01*
X0125880Y0192872D02*
X0126147Y0193139D01*
X0126147Y0193406D01*
X0125880Y0193673D01*
X0125080Y0193673D01*
X0125080Y0193139D01*
X0125346Y0192872D01*
X0125880Y0192872D01*
X0125080Y0193673D02*
X0125613Y0194206D01*
X0126147Y0194473D01*
X0124306Y0194206D02*
X0124306Y0193673D01*
X0124039Y0193406D01*
X0123238Y0193406D01*
X0123772Y0193406D02*
X0124306Y0192872D01*
X0123238Y0192872D02*
X0123238Y0194473D01*
X0124039Y0194473D01*
X0124306Y0194206D01*
X0125842Y0196362D02*
X0126777Y0196362D01*
X0127244Y0196830D01*
X0127244Y0198698D01*
X0126777Y0199165D01*
X0125842Y0199165D01*
X0125375Y0198698D01*
X0125375Y0196830D01*
X0125842Y0196362D01*
X0128322Y0196362D02*
X0129256Y0197297D01*
X0130190Y0196362D01*
X0130190Y0199165D01*
X0131268Y0199165D02*
X0132203Y0198231D01*
X0133137Y0199165D01*
X0133137Y0196362D01*
X0131268Y0196362D02*
X0131268Y0199165D01*
X0128322Y0199165D02*
X0128322Y0196362D01*
X0123137Y0196830D02*
X0122670Y0196362D01*
X0121268Y0196362D01*
X0121268Y0199165D01*
X0122670Y0199165D01*
X0123137Y0198698D01*
X0123137Y0198231D01*
X0122670Y0197764D01*
X0121268Y0197764D01*
X0120190Y0197297D02*
X0120190Y0196830D01*
X0119723Y0196362D01*
X0118789Y0196362D01*
X0118322Y0196830D01*
X0118789Y0197764D02*
X0119723Y0197764D01*
X0120190Y0197297D01*
X0120190Y0198698D02*
X0119723Y0199165D01*
X0118789Y0199165D01*
X0118322Y0198698D01*
X0118322Y0198231D01*
X0118789Y0197764D01*
X0117244Y0196830D02*
X0117244Y0199165D01*
X0115375Y0199165D02*
X0115375Y0196830D01*
X0115842Y0196362D01*
X0116777Y0196362D01*
X0117244Y0196830D01*
X0117536Y0194165D02*
X0118003Y0193698D01*
X0116135Y0191830D01*
X0116602Y0191362D01*
X0117536Y0191362D01*
X0118003Y0191830D01*
X0118003Y0193698D01*
X0117536Y0194165D02*
X0116602Y0194165D01*
X0116135Y0193698D01*
X0116135Y0191830D01*
X0115056Y0191830D02*
X0114589Y0191362D01*
X0113655Y0191362D01*
X0113188Y0191830D01*
X0113188Y0192764D02*
X0114122Y0193231D01*
X0114589Y0193231D01*
X0115056Y0192764D01*
X0115056Y0191830D01*
X0113188Y0192764D02*
X0113188Y0194165D01*
X0115056Y0194165D01*
X0112110Y0194165D02*
X0111176Y0193698D01*
X0110242Y0192764D01*
X0111643Y0192764D01*
X0112110Y0192297D01*
X0112110Y0191830D01*
X0111643Y0191362D01*
X0110709Y0191362D01*
X0110242Y0191830D01*
X0110242Y0192764D01*
X0109163Y0193698D02*
X0107295Y0191830D01*
X0107295Y0191362D01*
X0106407Y0190845D02*
X0106407Y0190311D01*
X0106140Y0190044D01*
X0105606Y0190578D02*
X0105606Y0190845D01*
X0105873Y0191112D01*
X0106140Y0191112D01*
X0106407Y0190845D01*
X0105606Y0190845D02*
X0105339Y0191112D01*
X0105072Y0191112D01*
X0104806Y0190845D01*
X0104806Y0190311D01*
X0105072Y0190044D01*
X0105072Y0189270D02*
X0104806Y0189003D01*
X0104806Y0188470D01*
X0105072Y0188203D01*
X0106140Y0188203D01*
X0106407Y0188470D01*
X0106407Y0189003D01*
X0106140Y0189270D01*
X0104349Y0191362D02*
X0104349Y0191830D01*
X0106217Y0193698D01*
X0106217Y0194165D01*
X0104349Y0194165D01*
X0103270Y0194165D02*
X0101402Y0191362D01*
X0100324Y0191362D02*
X0100324Y0193231D01*
X0099390Y0194165D01*
X0098456Y0193231D01*
X0098456Y0191362D01*
X0097377Y0191362D02*
X0097377Y0194165D01*
X0096443Y0193231D01*
X0095509Y0194165D01*
X0095509Y0191362D01*
X0098456Y0192764D02*
X0100324Y0192764D01*
X0101402Y0194165D02*
X0103270Y0191362D01*
X0100305Y0188543D02*
X0100572Y0188276D01*
X0100572Y0187742D01*
X0100305Y0187475D01*
X0099772Y0187475D02*
X0099505Y0188009D01*
X0099505Y0188276D01*
X0099772Y0188543D01*
X0100305Y0188543D01*
X0099772Y0187475D02*
X0098971Y0187475D01*
X0098971Y0188543D01*
X0099238Y0186701D02*
X0099772Y0186701D01*
X0100039Y0186434D01*
X0100039Y0185634D01*
X0100572Y0185634D02*
X0098971Y0185634D01*
X0098971Y0186434D01*
X0099238Y0186701D01*
X0100039Y0186167D02*
X0100572Y0186701D01*
X0096287Y0184002D02*
X0096020Y0184269D01*
X0095486Y0184269D01*
X0095219Y0184002D01*
X0095219Y0183735D01*
X0095486Y0183468D01*
X0096287Y0183468D01*
X0096287Y0182934D02*
X0096287Y0184002D01*
X0096287Y0182934D02*
X0096020Y0182667D01*
X0095486Y0182667D01*
X0095219Y0182934D01*
X0094445Y0182934D02*
X0094178Y0182667D01*
X0093645Y0182667D01*
X0093378Y0182934D01*
X0093378Y0184002D01*
X0093645Y0184269D01*
X0094178Y0184269D01*
X0094445Y0184002D01*
X0094781Y0181914D02*
X0095048Y0181914D01*
X0095315Y0181647D01*
X0095582Y0181914D01*
X0095849Y0181914D01*
X0096116Y0181647D01*
X0096116Y0181113D01*
X0095849Y0180846D01*
X0095315Y0181380D02*
X0095315Y0181647D01*
X0094781Y0181914D02*
X0094514Y0181647D01*
X0094514Y0181113D01*
X0094781Y0180846D01*
X0094514Y0179539D02*
X0096116Y0179539D01*
X0096116Y0180072D02*
X0096116Y0179005D01*
X0095849Y0178231D02*
X0096116Y0177964D01*
X0096116Y0177430D01*
X0095849Y0177163D01*
X0094781Y0177163D01*
X0094514Y0177430D01*
X0094514Y0177964D01*
X0094781Y0178231D01*
X0095048Y0179005D02*
X0094514Y0179539D01*
X0092182Y0178863D02*
X0092182Y0177262D01*
X0091649Y0177262D02*
X0092716Y0177262D01*
X0091649Y0178329D02*
X0092182Y0178863D01*
X0090875Y0177262D02*
X0089807Y0177262D01*
X0089807Y0178863D01*
X0086389Y0178963D02*
X0086389Y0177562D01*
X0083586Y0177562D01*
X0083586Y0178963D01*
X0084054Y0179430D01*
X0084521Y0179430D01*
X0084988Y0178963D01*
X0084988Y0177562D01*
X0084988Y0178963D02*
X0085455Y0179430D01*
X0085922Y0179430D01*
X0086389Y0178963D01*
X0086389Y0180508D02*
X0084521Y0180508D01*
X0083586Y0181442D01*
X0084521Y0182376D01*
X0086389Y0182376D01*
X0084988Y0182376D02*
X0084988Y0180508D01*
X0083586Y0183455D02*
X0083586Y0185323D01*
X0083586Y0184389D02*
X0086389Y0184389D01*
X0084988Y0186401D02*
X0084988Y0188269D01*
X0084054Y0187335D02*
X0085922Y0187335D01*
X0083735Y0176788D02*
X0084001Y0176521D01*
X0084001Y0175987D01*
X0083735Y0175720D01*
X0083468Y0175720D01*
X0083201Y0175987D01*
X0083201Y0176521D01*
X0083468Y0176788D01*
X0083735Y0176788D01*
X0083201Y0176521D02*
X0082934Y0176788D01*
X0082667Y0176788D01*
X0082400Y0176521D01*
X0082400Y0175987D01*
X0082667Y0175720D01*
X0082934Y0175720D01*
X0083201Y0175987D01*
X0084001Y0174946D02*
X0084001Y0173879D01*
X0084001Y0174413D02*
X0082400Y0174413D01*
X0082934Y0173879D01*
X0082667Y0173105D02*
X0082400Y0172838D01*
X0082400Y0172304D01*
X0082667Y0172037D01*
X0083735Y0172037D01*
X0084001Y0172304D01*
X0084001Y0172838D01*
X0083735Y0173105D01*
X0077187Y0165358D02*
X0078254Y0164290D01*
X0078521Y0164290D01*
X0078521Y0163516D02*
X0078521Y0162449D01*
X0078521Y0162982D02*
X0076920Y0162982D01*
X0077454Y0162449D01*
X0077187Y0161675D02*
X0076920Y0161408D01*
X0076920Y0160874D01*
X0077187Y0160607D01*
X0078254Y0160607D01*
X0078521Y0160874D01*
X0078521Y0161408D01*
X0078254Y0161675D01*
X0076920Y0164290D02*
X0076920Y0165358D01*
X0077187Y0165358D01*
X0074584Y0165091D02*
X0072983Y0165091D01*
X0073783Y0164290D01*
X0073783Y0165358D01*
X0074584Y0163516D02*
X0074584Y0162449D01*
X0074584Y0162982D02*
X0072983Y0162982D01*
X0073517Y0162449D01*
X0073783Y0161675D02*
X0074050Y0161408D01*
X0074050Y0160607D01*
X0074050Y0161141D02*
X0074584Y0161675D01*
X0073783Y0161675D02*
X0073250Y0161675D01*
X0072983Y0161408D01*
X0072983Y0160607D01*
X0074584Y0160607D01*
X0075136Y0158414D02*
X0075936Y0158414D01*
X0076203Y0158147D01*
X0076203Y0157614D01*
X0075936Y0157347D01*
X0075136Y0157347D01*
X0075669Y0157347D02*
X0076203Y0156813D01*
X0076977Y0157080D02*
X0076977Y0157347D01*
X0077244Y0157614D01*
X0077778Y0157614D01*
X0078045Y0157347D01*
X0078045Y0157080D01*
X0077778Y0156813D01*
X0077244Y0156813D01*
X0076977Y0157080D01*
X0077244Y0157614D02*
X0076977Y0157880D01*
X0076977Y0158147D01*
X0077244Y0158414D01*
X0077778Y0158414D01*
X0078045Y0158147D01*
X0078045Y0157880D01*
X0077778Y0157614D01*
X0075136Y0156813D02*
X0075136Y0158414D01*
X0083131Y0160916D02*
X0083465Y0160582D01*
X0084132Y0160582D01*
X0084466Y0160916D01*
X0084466Y0162584D01*
X0085341Y0162584D02*
X0085341Y0161583D01*
X0086008Y0161917D01*
X0086342Y0161917D01*
X0086676Y0161583D01*
X0086676Y0160916D01*
X0086342Y0160582D01*
X0085675Y0160582D01*
X0085341Y0160916D01*
X0085341Y0162584D02*
X0086676Y0162584D01*
X0083131Y0162584D02*
X0083131Y0160916D01*
X0084067Y0158000D02*
X0084067Y0156332D01*
X0084400Y0155998D01*
X0085068Y0155998D01*
X0085401Y0156332D01*
X0085401Y0158000D01*
X0086277Y0157666D02*
X0086610Y0158000D01*
X0087278Y0158000D01*
X0087611Y0157666D01*
X0087611Y0157332D01*
X0087278Y0156999D01*
X0087611Y0156665D01*
X0087611Y0156332D01*
X0087278Y0155998D01*
X0086610Y0155998D01*
X0086277Y0156332D01*
X0086944Y0156999D02*
X0087278Y0156999D01*
X0090730Y0162336D02*
X0091264Y0162336D01*
X0091531Y0162603D01*
X0092305Y0162336D02*
X0093372Y0162336D01*
X0092839Y0162336D02*
X0092839Y0163938D01*
X0092305Y0163404D01*
X0091531Y0163671D02*
X0091264Y0163938D01*
X0090730Y0163938D01*
X0090463Y0163671D01*
X0090463Y0162603D01*
X0090730Y0162336D01*
X0094146Y0162603D02*
X0094413Y0162336D01*
X0094947Y0162336D01*
X0095214Y0162603D01*
X0095214Y0162870D01*
X0094947Y0163137D01*
X0094146Y0163137D01*
X0094146Y0162603D01*
X0094146Y0163137D02*
X0094680Y0163671D01*
X0095214Y0163938D01*
X0097018Y0163733D02*
X0097285Y0163466D01*
X0098353Y0163466D01*
X0098620Y0163733D01*
X0098620Y0164267D01*
X0098353Y0164534D01*
X0098620Y0165308D02*
X0098620Y0166376D01*
X0098620Y0165842D02*
X0097018Y0165842D01*
X0097552Y0165308D01*
X0097285Y0164534D02*
X0097018Y0164267D01*
X0097018Y0163733D01*
X0097285Y0167150D02*
X0097018Y0167416D01*
X0097018Y0167950D01*
X0097285Y0168217D01*
X0097552Y0168217D01*
X0098620Y0167150D01*
X0098620Y0168217D01*
X0098183Y0171573D02*
X0098450Y0171840D01*
X0098450Y0172373D01*
X0098183Y0172640D01*
X0098183Y0173414D02*
X0098450Y0173681D01*
X0098450Y0174215D01*
X0098183Y0174482D01*
X0097650Y0174482D01*
X0097383Y0174215D01*
X0097383Y0173948D01*
X0097650Y0173414D01*
X0096849Y0173414D01*
X0096849Y0174482D01*
X0097116Y0172640D02*
X0096849Y0172373D01*
X0096849Y0171840D01*
X0097116Y0171573D01*
X0098183Y0171573D01*
X0103309Y0162788D02*
X0103042Y0162521D01*
X0103042Y0161454D01*
X0103309Y0161187D01*
X0103843Y0161187D01*
X0104110Y0161454D01*
X0104884Y0161187D02*
X0105951Y0161187D01*
X0105417Y0161187D02*
X0105417Y0162788D01*
X0104884Y0162254D01*
X0104110Y0162521D02*
X0103843Y0162788D01*
X0103309Y0162788D01*
X0106725Y0162254D02*
X0107259Y0162788D01*
X0107259Y0161187D01*
X0106725Y0161187D02*
X0107793Y0161187D01*
X0113140Y0177142D02*
X0113140Y0177943D01*
X0113407Y0178210D01*
X0113941Y0178210D01*
X0114208Y0177943D01*
X0114208Y0177142D01*
X0114742Y0177142D02*
X0113140Y0177142D01*
X0114208Y0177676D02*
X0114742Y0178210D01*
X0114742Y0178984D02*
X0114742Y0180052D01*
X0114742Y0179518D02*
X0113140Y0179518D01*
X0113674Y0178984D01*
X0113407Y0180826D02*
X0113140Y0181093D01*
X0113140Y0181626D01*
X0113407Y0181893D01*
X0113674Y0181893D01*
X0113941Y0181626D01*
X0114208Y0181893D01*
X0114475Y0181893D01*
X0114742Y0181626D01*
X0114742Y0181093D01*
X0114475Y0180826D01*
X0113941Y0181359D02*
X0113941Y0181626D01*
X0110407Y0181529D02*
X0108806Y0181529D01*
X0108806Y0182330D01*
X0109072Y0182597D01*
X0109606Y0182597D01*
X0109873Y0182330D01*
X0109873Y0181529D01*
X0109873Y0182063D02*
X0110407Y0182597D01*
X0110407Y0183371D02*
X0110407Y0184439D01*
X0110407Y0183905D02*
X0108806Y0183905D01*
X0109339Y0183371D01*
X0109163Y0193698D02*
X0109163Y0194165D01*
X0107295Y0194165D01*
X0106849Y0196362D02*
X0108717Y0196362D01*
X0109795Y0196362D02*
X0109795Y0199165D01*
X0111663Y0196362D01*
X0111663Y0199165D01*
X0108717Y0199165D02*
X0106849Y0199165D01*
X0106849Y0196362D01*
X0106849Y0197764D02*
X0107783Y0197764D01*
X0103137Y0197297D02*
X0103137Y0196830D01*
X0102670Y0196362D01*
X0101735Y0196362D01*
X0101268Y0196830D01*
X0101735Y0197764D02*
X0102670Y0197764D01*
X0103137Y0197297D01*
X0103137Y0198698D02*
X0102670Y0199165D01*
X0101735Y0199165D01*
X0101268Y0198698D01*
X0101268Y0198231D01*
X0101735Y0197764D01*
X0100190Y0198698D02*
X0099256Y0197764D01*
X0099256Y0196362D01*
X0099256Y0197764D02*
X0098322Y0198698D01*
X0098322Y0199165D01*
X0097244Y0198698D02*
X0096777Y0199165D01*
X0095842Y0199165D01*
X0095375Y0198698D01*
X0095375Y0198231D01*
X0095842Y0197764D01*
X0096777Y0197764D01*
X0097244Y0197297D01*
X0097244Y0196830D01*
X0096777Y0196362D01*
X0095842Y0196362D01*
X0095375Y0196830D01*
X0100190Y0198698D02*
X0100190Y0199165D01*
X0122670Y0197764D02*
X0123137Y0197297D01*
X0123137Y0196830D01*
X0135375Y0196830D02*
X0135842Y0196362D01*
X0136777Y0196362D01*
X0137244Y0196830D01*
X0137244Y0197297D01*
X0136777Y0197764D01*
X0135842Y0197764D01*
X0135375Y0198231D01*
X0135375Y0198698D01*
X0135842Y0199165D01*
X0136777Y0199165D01*
X0137244Y0198698D01*
X0138322Y0199165D02*
X0139723Y0199165D01*
X0140190Y0198698D01*
X0140190Y0197764D01*
X0139723Y0197297D01*
X0138322Y0197297D01*
X0139256Y0197297D02*
X0140190Y0196362D01*
X0141268Y0196362D02*
X0141268Y0199165D01*
X0143137Y0196362D01*
X0143137Y0199165D01*
X0145375Y0198698D02*
X0145375Y0198231D01*
X0145842Y0197764D01*
X0146777Y0197764D01*
X0147244Y0197297D01*
X0147244Y0196830D01*
X0146777Y0196362D01*
X0145842Y0196362D01*
X0145375Y0196830D01*
X0145375Y0198698D02*
X0145842Y0199165D01*
X0146777Y0199165D01*
X0147244Y0198698D01*
X0148322Y0199165D02*
X0149723Y0199165D01*
X0150190Y0198698D01*
X0150190Y0196830D01*
X0149723Y0196362D01*
X0148322Y0196362D01*
X0148322Y0199165D01*
X0151268Y0198698D02*
X0151735Y0199165D01*
X0152670Y0199165D01*
X0153137Y0198698D01*
X0153137Y0198231D01*
X0152670Y0197764D01*
X0153137Y0197297D01*
X0153137Y0196830D01*
X0152670Y0196362D01*
X0151735Y0196362D01*
X0151268Y0196830D01*
X0152203Y0197764D02*
X0152670Y0197764D01*
X0155375Y0198231D02*
X0155842Y0197764D01*
X0156777Y0197764D01*
X0157244Y0197297D01*
X0157244Y0196830D01*
X0156777Y0196362D01*
X0155842Y0196362D01*
X0155375Y0196830D01*
X0155375Y0198231D02*
X0155375Y0198698D01*
X0155842Y0199165D01*
X0156777Y0199165D01*
X0157244Y0198698D01*
X0158322Y0199165D02*
X0159723Y0199165D01*
X0160190Y0198698D01*
X0160190Y0196830D01*
X0159723Y0196362D01*
X0158322Y0196362D01*
X0158322Y0199165D01*
X0161268Y0198698D02*
X0161735Y0199165D01*
X0162670Y0199165D01*
X0163137Y0198698D01*
X0163137Y0198231D01*
X0161268Y0196362D01*
X0163137Y0196362D01*
X0139259Y0193076D02*
X0139259Y0192810D01*
X0138192Y0191742D01*
X0139259Y0191742D01*
X0139259Y0193076D02*
X0138993Y0193343D01*
X0138459Y0193343D01*
X0138192Y0193076D01*
X0137418Y0193076D02*
X0137418Y0192009D01*
X0137151Y0191742D01*
X0136617Y0191742D01*
X0136350Y0192009D01*
X0136350Y0193076D01*
X0136617Y0193343D01*
X0137151Y0193343D01*
X0137418Y0193076D01*
X0136884Y0192276D02*
X0137418Y0191742D01*
X0138322Y0196362D02*
X0138322Y0199165D01*
X0099310Y0213130D02*
X0098843Y0212662D01*
X0097909Y0212662D01*
X0097442Y0213130D01*
X0097442Y0214064D02*
X0098376Y0214531D01*
X0098843Y0214531D01*
X0099310Y0214064D01*
X0099310Y0213130D01*
X0097442Y0214064D02*
X0097442Y0215465D01*
X0099310Y0215465D01*
X0096363Y0215465D02*
X0095429Y0215465D01*
X0095896Y0215465D02*
X0095896Y0213130D01*
X0095429Y0212662D01*
X0094962Y0212662D01*
X0094495Y0213130D01*
X0072198Y0207713D02*
X0071731Y0208180D01*
X0070797Y0208180D01*
X0070330Y0207713D01*
X0069252Y0208180D02*
X0068318Y0208180D01*
X0068785Y0208180D02*
X0068785Y0205845D01*
X0068318Y0205378D01*
X0067851Y0205378D01*
X0067384Y0205845D01*
X0070330Y0205378D02*
X0072198Y0207246D01*
X0072198Y0207713D01*
X0072198Y0205378D02*
X0070330Y0205378D01*
X0066877Y0188269D02*
X0066877Y0186401D01*
X0065476Y0185323D02*
X0065476Y0183455D01*
X0065476Y0184389D02*
X0068279Y0184389D01*
X0068279Y0182376D02*
X0066410Y0182376D01*
X0065476Y0181442D01*
X0066410Y0180508D01*
X0068279Y0180508D01*
X0067812Y0179430D02*
X0068279Y0178963D01*
X0068279Y0177562D01*
X0065476Y0177562D01*
X0065476Y0178963D01*
X0065943Y0179430D01*
X0066410Y0179430D01*
X0066877Y0178963D01*
X0066877Y0177562D01*
X0066877Y0178963D02*
X0067344Y0179430D01*
X0067812Y0179430D01*
X0066877Y0180508D02*
X0066877Y0182376D01*
X0062116Y0177553D02*
X0061849Y0177819D01*
X0061315Y0177819D01*
X0061048Y0177553D01*
X0061048Y0177286D01*
X0061315Y0176752D01*
X0060514Y0176752D01*
X0060514Y0177819D01*
X0062116Y0177553D02*
X0062116Y0177019D01*
X0061849Y0176752D01*
X0062116Y0175978D02*
X0062116Y0174910D01*
X0062116Y0175444D02*
X0060514Y0175444D01*
X0061048Y0174910D01*
X0060781Y0174136D02*
X0060514Y0173869D01*
X0060514Y0173336D01*
X0060781Y0173069D01*
X0061849Y0173069D01*
X0062116Y0173336D01*
X0062116Y0173869D01*
X0061849Y0174136D01*
X0049614Y0167531D02*
X0049614Y0165462D01*
X0049614Y0166497D02*
X0046511Y0166497D01*
X0047545Y0165462D01*
X0046511Y0164308D02*
X0046511Y0163274D01*
X0046511Y0163791D02*
X0049097Y0163791D01*
X0049614Y0163274D01*
X0049614Y0162757D01*
X0049097Y0162240D01*
X0062900Y0163297D02*
X0063234Y0162963D01*
X0063901Y0162963D01*
X0064235Y0163297D01*
X0064235Y0164965D01*
X0065110Y0163964D02*
X0066445Y0163964D01*
X0066111Y0162963D02*
X0066111Y0164965D01*
X0065110Y0163964D01*
X0062900Y0163297D02*
X0062900Y0164965D01*
X0063560Y0149142D02*
X0064077Y0149142D01*
X0064594Y0148625D01*
X0065111Y0149142D01*
X0065628Y0149142D01*
X0066145Y0148625D01*
X0066145Y0147591D01*
X0065628Y0147074D01*
X0066145Y0145920D02*
X0063042Y0145920D01*
X0063560Y0147074D02*
X0063042Y0147591D01*
X0063042Y0148625D01*
X0063560Y0149142D01*
X0064594Y0148625D02*
X0064594Y0148108D01*
X0066145Y0145920D02*
X0065111Y0144885D01*
X0066145Y0143851D01*
X0063042Y0143851D01*
X0063560Y0142697D02*
X0063042Y0142180D01*
X0063042Y0141145D01*
X0063560Y0140628D01*
X0064077Y0140628D01*
X0064594Y0141145D01*
X0064594Y0142180D01*
X0065111Y0142697D01*
X0065628Y0142697D01*
X0066145Y0142180D01*
X0066145Y0141145D01*
X0065628Y0140628D01*
X0073370Y0138753D02*
X0074171Y0138753D01*
X0074438Y0138486D01*
X0074438Y0137952D01*
X0074171Y0137685D01*
X0073370Y0137685D01*
X0073370Y0137151D02*
X0073370Y0138753D01*
X0073904Y0137685D02*
X0074438Y0137151D01*
X0075212Y0137151D02*
X0076279Y0137151D01*
X0075745Y0137151D02*
X0075745Y0138753D01*
X0075212Y0138219D01*
X0077053Y0138219D02*
X0077587Y0138753D01*
X0077587Y0137151D01*
X0077053Y0137151D02*
X0078121Y0137151D01*
X0078322Y0134165D02*
X0078322Y0132297D01*
X0079256Y0131362D01*
X0080190Y0132297D01*
X0080190Y0134165D01*
X0081268Y0133698D02*
X0081268Y0133231D01*
X0081735Y0132764D01*
X0082670Y0132764D01*
X0083137Y0132297D01*
X0083137Y0131830D01*
X0082670Y0131362D01*
X0081735Y0131362D01*
X0081268Y0131830D01*
X0081268Y0132297D01*
X0081735Y0132764D01*
X0082670Y0132764D02*
X0083137Y0133231D01*
X0083137Y0133698D01*
X0082670Y0134165D01*
X0081735Y0134165D01*
X0081268Y0133698D01*
X0085375Y0133698D02*
X0085375Y0131830D01*
X0085842Y0131362D01*
X0086777Y0131362D01*
X0087244Y0131830D01*
X0087244Y0132764D01*
X0086309Y0132764D01*
X0085375Y0133698D02*
X0085842Y0134165D01*
X0086777Y0134165D01*
X0087244Y0133698D01*
X0088322Y0134165D02*
X0090190Y0131362D01*
X0090190Y0134165D01*
X0091268Y0134165D02*
X0091268Y0131362D01*
X0092670Y0131362D01*
X0093137Y0131830D01*
X0093137Y0133698D01*
X0092670Y0134165D01*
X0091268Y0134165D01*
X0088322Y0134165D02*
X0088322Y0131362D01*
X0098322Y0131830D02*
X0100190Y0133698D01*
X0100190Y0131830D01*
X0099723Y0131362D01*
X0098789Y0131362D01*
X0098322Y0131830D01*
X0098322Y0133698D01*
X0098789Y0134165D01*
X0099723Y0134165D01*
X0100190Y0133698D01*
X0108322Y0133231D02*
X0109256Y0134165D01*
X0109256Y0131362D01*
X0108322Y0131362D02*
X0110190Y0131362D01*
X0077244Y0131362D02*
X0075375Y0131362D01*
X0076309Y0131362D02*
X0076309Y0134165D01*
X0075375Y0133231D01*
X0071663Y0132297D02*
X0071663Y0134165D01*
X0069795Y0134165D02*
X0069795Y0132297D01*
X0070729Y0131362D01*
X0071663Y0132297D01*
X0068717Y0132297D02*
X0068717Y0131830D01*
X0068250Y0131362D01*
X0067316Y0131362D01*
X0066849Y0131830D01*
X0067783Y0132764D02*
X0068250Y0132764D01*
X0068717Y0132297D01*
X0068250Y0132764D02*
X0068717Y0133231D01*
X0068717Y0133698D01*
X0068250Y0134165D01*
X0067316Y0134165D01*
X0066849Y0133698D01*
X0063137Y0134165D02*
X0061268Y0134165D01*
X0062203Y0134165D02*
X0062203Y0131362D01*
X0060190Y0131830D02*
X0059723Y0131362D01*
X0058789Y0131362D01*
X0058322Y0131830D01*
X0058789Y0132764D02*
X0059723Y0132764D01*
X0060190Y0132297D01*
X0060190Y0131830D01*
X0058789Y0132764D02*
X0058322Y0133231D01*
X0058322Y0133698D01*
X0058789Y0134165D01*
X0059723Y0134165D01*
X0060190Y0133698D01*
X0057244Y0133698D02*
X0057244Y0132764D01*
X0056777Y0132297D01*
X0055375Y0132297D01*
X0056309Y0132297D02*
X0057244Y0131362D01*
X0055375Y0131362D02*
X0055375Y0134165D01*
X0056777Y0134165D01*
X0057244Y0133698D01*
X0057649Y0143862D02*
X0057649Y0146665D01*
X0056715Y0146665D02*
X0058583Y0146665D01*
X0055637Y0146665D02*
X0053768Y0146665D01*
X0053768Y0143862D01*
X0055637Y0143862D01*
X0054703Y0145264D02*
X0053768Y0145264D01*
X0052690Y0144797D02*
X0052690Y0144330D01*
X0052223Y0143862D01*
X0051289Y0143862D01*
X0050822Y0144330D01*
X0051289Y0145264D02*
X0052223Y0145264D01*
X0052690Y0144797D01*
X0052690Y0146198D02*
X0052223Y0146665D01*
X0051289Y0146665D01*
X0050822Y0146198D01*
X0050822Y0145731D01*
X0051289Y0145264D01*
X0049744Y0146665D02*
X0047875Y0146665D01*
X0047875Y0143862D01*
X0049744Y0143862D01*
X0048809Y0145264D02*
X0047875Y0145264D01*
X0046797Y0145264D02*
X0046330Y0144797D01*
X0044929Y0144797D01*
X0045863Y0144797D02*
X0046797Y0143862D01*
X0046797Y0145264D02*
X0046797Y0146198D01*
X0046330Y0146665D01*
X0044929Y0146665D01*
X0044929Y0143862D01*
X0041190Y0183006D02*
X0039855Y0183006D01*
X0041190Y0184340D01*
X0041190Y0184674D01*
X0040856Y0185007D01*
X0040189Y0185007D01*
X0039855Y0184674D01*
X0038980Y0184674D02*
X0038646Y0185007D01*
X0037646Y0185007D01*
X0037646Y0183006D01*
X0038646Y0183006D01*
X0038980Y0183339D01*
X0038980Y0184674D01*
X0050375Y0184330D02*
X0050842Y0183862D01*
X0051777Y0183862D01*
X0052244Y0184330D01*
X0053322Y0183862D02*
X0053322Y0186665D01*
X0052244Y0186198D02*
X0051777Y0186665D01*
X0050842Y0186665D01*
X0050375Y0186198D01*
X0050375Y0184330D01*
X0053322Y0185264D02*
X0055190Y0185264D01*
X0055190Y0186665D02*
X0055190Y0183862D01*
X0056268Y0184330D02*
X0056735Y0183862D01*
X0057670Y0183862D01*
X0058137Y0184330D01*
X0058137Y0185264D01*
X0057203Y0185264D01*
X0058137Y0186198D02*
X0057670Y0186665D01*
X0056735Y0186665D01*
X0056268Y0186198D01*
X0056268Y0184330D01*
X0188849Y0184797D02*
X0190250Y0184797D01*
X0190717Y0185264D01*
X0190717Y0186198D01*
X0190250Y0186665D01*
X0188849Y0186665D01*
X0188849Y0183862D01*
X0191795Y0184330D02*
X0193663Y0186198D01*
X0193663Y0184330D01*
X0193196Y0183862D01*
X0192262Y0183862D01*
X0191795Y0184330D01*
X0191795Y0186198D01*
X0192262Y0186665D01*
X0193196Y0186665D01*
X0193663Y0186198D01*
X0195508Y0193356D02*
X0195508Y0194557D01*
X0196108Y0194557D01*
X0196308Y0194357D01*
X0196308Y0193957D01*
X0196108Y0193756D01*
X0195508Y0193756D01*
X0196981Y0193556D02*
X0197782Y0194357D01*
X0197782Y0193556D01*
X0197581Y0193356D01*
X0197181Y0193356D01*
X0196981Y0193556D01*
X0196981Y0194357D01*
X0197181Y0194557D01*
X0197581Y0194557D01*
X0197782Y0194357D01*
D12*
X0222174Y0186168D02*
X0222174Y0174357D01*
X0222371Y0174357D02*
X0223158Y0174357D01*
X0226603Y0167625D02*
X0227587Y0167625D01*
X0229457Y0165755D02*
X0229457Y0164770D01*
X0230245Y0164475D02*
X0230245Y0162113D01*
X0227883Y0162113D01*
X0227587Y0162900D02*
X0226603Y0162900D01*
X0224733Y0164770D02*
X0224733Y0165755D01*
X0231032Y0174357D02*
X0231820Y0174357D01*
X0232016Y0174357D02*
X0232016Y0186168D01*
X0231820Y0186168D02*
X0231032Y0186168D01*
X0223158Y0186168D02*
X0222371Y0186168D01*
X0222371Y0156168D02*
X0223158Y0156168D01*
X0222174Y0156168D02*
X0222174Y0144357D01*
X0222371Y0144357D02*
X0223158Y0144357D01*
X0231032Y0144357D02*
X0231820Y0144357D01*
X0232016Y0144357D02*
X0232016Y0156168D01*
X0231820Y0156168D02*
X0231032Y0156168D01*
X0156345Y0156215D02*
X0156345Y0155047D01*
X0155761Y0154463D01*
X0156345Y0153115D02*
X0152842Y0150780D01*
X0154010Y0149432D02*
X0156345Y0149432D01*
X0156345Y0150780D02*
X0152842Y0153115D01*
X0153426Y0154463D02*
X0152842Y0155047D01*
X0152842Y0156215D01*
X0153426Y0156798D01*
X0154010Y0156798D01*
X0154594Y0156215D01*
X0155177Y0156798D01*
X0155761Y0156798D01*
X0156345Y0156215D01*
X0154594Y0156215D02*
X0154594Y0155631D01*
X0153426Y0158146D02*
X0152842Y0158730D01*
X0152842Y0159898D01*
X0153426Y0160481D01*
X0154010Y0160481D01*
X0156345Y0158146D01*
X0156345Y0160481D01*
X0155761Y0161829D02*
X0156345Y0162413D01*
X0156345Y0163581D01*
X0155761Y0164165D01*
X0155177Y0164165D01*
X0154594Y0163581D01*
X0154594Y0161829D01*
X0155761Y0161829D01*
X0154594Y0161829D02*
X0153426Y0162997D01*
X0152842Y0164165D01*
X0153426Y0165512D02*
X0152842Y0166096D01*
X0152842Y0167264D01*
X0153426Y0167848D01*
X0154010Y0167848D01*
X0156345Y0165512D01*
X0156345Y0167848D01*
X0155761Y0169196D02*
X0153426Y0171531D01*
X0155761Y0171531D01*
X0156345Y0170947D01*
X0156345Y0169779D01*
X0155761Y0169196D01*
X0153426Y0169196D01*
X0152842Y0169779D01*
X0152842Y0170947D01*
X0153426Y0171531D01*
X0152842Y0172879D02*
X0152842Y0175214D01*
X0152842Y0176562D02*
X0152842Y0178897D01*
X0152842Y0177730D02*
X0156345Y0177730D01*
X0156345Y0180245D02*
X0152842Y0180245D01*
X0154594Y0180245D02*
X0154594Y0182580D01*
X0155177Y0183928D02*
X0155177Y0185680D01*
X0154594Y0186263D01*
X0153426Y0186263D01*
X0152842Y0185680D01*
X0152842Y0183928D01*
X0156345Y0183928D01*
X0156345Y0182580D02*
X0152842Y0182580D01*
X0155177Y0185096D02*
X0156345Y0186263D01*
X0154594Y0174046D02*
X0154594Y0172879D01*
X0156345Y0172879D02*
X0152842Y0172879D01*
X0141682Y0167999D02*
X0124359Y0167999D01*
X0124359Y0151266D01*
X0139320Y0151266D01*
X0141682Y0153333D02*
X0141682Y0167999D01*
X0112154Y0169081D02*
X0112154Y0178136D01*
X0109792Y0180892D02*
X0102705Y0180892D01*
X0102705Y0169081D01*
X0112154Y0169081D01*
X0087548Y0169908D02*
X0087548Y0165499D01*
X0085579Y0163530D02*
X0080855Y0163530D01*
X0080855Y0169908D01*
X0087548Y0169908D01*
X0060579Y0162782D02*
X0060581Y0162821D01*
X0060587Y0162860D01*
X0060597Y0162898D01*
X0060610Y0162935D01*
X0060627Y0162970D01*
X0060647Y0163004D01*
X0060671Y0163035D01*
X0060698Y0163064D01*
X0060727Y0163090D01*
X0060759Y0163113D01*
X0060793Y0163133D01*
X0060829Y0163149D01*
X0060866Y0163161D01*
X0060905Y0163170D01*
X0060944Y0163175D01*
X0060983Y0163176D01*
X0061022Y0163173D01*
X0061061Y0163166D01*
X0061098Y0163155D01*
X0061135Y0163141D01*
X0061170Y0163123D01*
X0061203Y0163102D01*
X0061234Y0163077D01*
X0061262Y0163050D01*
X0061287Y0163020D01*
X0061309Y0162987D01*
X0061328Y0162953D01*
X0061343Y0162917D01*
X0061355Y0162879D01*
X0061363Y0162841D01*
X0061367Y0162802D01*
X0061367Y0162762D01*
X0061363Y0162723D01*
X0061355Y0162685D01*
X0061343Y0162647D01*
X0061328Y0162611D01*
X0061309Y0162577D01*
X0061287Y0162544D01*
X0061262Y0162514D01*
X0061234Y0162487D01*
X0061203Y0162462D01*
X0061170Y0162441D01*
X0061135Y0162423D01*
X0061098Y0162409D01*
X0061061Y0162398D01*
X0061022Y0162391D01*
X0060983Y0162388D01*
X0060944Y0162389D01*
X0060905Y0162394D01*
X0060866Y0162403D01*
X0060829Y0162415D01*
X0060793Y0162431D01*
X0060759Y0162451D01*
X0060727Y0162474D01*
X0060698Y0162500D01*
X0060671Y0162529D01*
X0060647Y0162560D01*
X0060627Y0162594D01*
X0060610Y0162629D01*
X0060597Y0162666D01*
X0060587Y0162704D01*
X0060581Y0162743D01*
X0060579Y0162782D01*
X0054406Y0158766D02*
X0054406Y0156207D01*
X0059674Y0151168D02*
X0059674Y0139357D01*
X0059871Y0139357D02*
X0060658Y0139357D01*
X0068532Y0139357D02*
X0069320Y0139357D01*
X0069516Y0139357D02*
X0069516Y0151168D01*
X0069320Y0151168D02*
X0068532Y0151168D01*
X0060658Y0151168D02*
X0059871Y0151168D01*
X0048501Y0150696D02*
X0046532Y0150696D01*
X0038658Y0150696D02*
X0034131Y0150696D01*
X0054406Y0171759D02*
X0054406Y0174318D01*
X0048501Y0179829D02*
X0046532Y0179829D01*
X0038658Y0179829D02*
X0034131Y0179829D01*
X0042233Y0184770D02*
X0042233Y0185755D01*
X0041446Y0186050D02*
X0041446Y0188412D01*
X0043808Y0188412D01*
X0044103Y0187625D02*
X0045087Y0187625D01*
X0046957Y0185755D02*
X0046957Y0184770D01*
X0045087Y0182900D02*
X0044103Y0182900D01*
X0152842Y0148264D02*
X0154010Y0147097D01*
X0156345Y0147097D01*
X0156345Y0145749D02*
X0152842Y0145749D01*
X0154010Y0144581D01*
X0152842Y0143414D01*
X0156345Y0143414D01*
X0154594Y0147097D02*
X0154594Y0149432D01*
X0154010Y0149432D02*
X0152842Y0148264D01*
D13*
X0112095Y0154512D02*
X0112095Y0141012D01*
X0111495Y0141012D01*
X0107695Y0141012D02*
X0106495Y0141012D01*
X0102695Y0141012D02*
X0101495Y0141012D01*
X0097695Y0141012D02*
X0096495Y0141012D01*
X0092695Y0141012D02*
X0091495Y0141012D01*
X0087695Y0141012D02*
X0087095Y0141012D01*
X0087095Y0154512D01*
X0087695Y0154512D01*
X0084107Y0154652D02*
X0084109Y0154691D01*
X0084115Y0154730D01*
X0084125Y0154768D01*
X0084138Y0154805D01*
X0084155Y0154840D01*
X0084175Y0154874D01*
X0084199Y0154905D01*
X0084226Y0154934D01*
X0084255Y0154960D01*
X0084287Y0154983D01*
X0084321Y0155003D01*
X0084357Y0155019D01*
X0084394Y0155031D01*
X0084433Y0155040D01*
X0084472Y0155045D01*
X0084511Y0155046D01*
X0084550Y0155043D01*
X0084589Y0155036D01*
X0084626Y0155025D01*
X0084663Y0155011D01*
X0084698Y0154993D01*
X0084731Y0154972D01*
X0084762Y0154947D01*
X0084790Y0154920D01*
X0084815Y0154890D01*
X0084837Y0154857D01*
X0084856Y0154823D01*
X0084871Y0154787D01*
X0084883Y0154749D01*
X0084891Y0154711D01*
X0084895Y0154672D01*
X0084895Y0154632D01*
X0084891Y0154593D01*
X0084883Y0154555D01*
X0084871Y0154517D01*
X0084856Y0154481D01*
X0084837Y0154447D01*
X0084815Y0154414D01*
X0084790Y0154384D01*
X0084762Y0154357D01*
X0084731Y0154332D01*
X0084698Y0154311D01*
X0084663Y0154293D01*
X0084626Y0154279D01*
X0084589Y0154268D01*
X0084550Y0154261D01*
X0084511Y0154258D01*
X0084472Y0154259D01*
X0084433Y0154264D01*
X0084394Y0154273D01*
X0084357Y0154285D01*
X0084321Y0154301D01*
X0084287Y0154321D01*
X0084255Y0154344D01*
X0084226Y0154370D01*
X0084199Y0154399D01*
X0084175Y0154430D01*
X0084155Y0154464D01*
X0084138Y0154499D01*
X0084125Y0154536D01*
X0084115Y0154574D01*
X0084109Y0154613D01*
X0084107Y0154652D01*
X0084501Y0152684D02*
X0084501Y0141857D01*
X0072690Y0141857D02*
X0072690Y0153668D01*
X0091495Y0154512D02*
X0092695Y0154512D01*
X0096495Y0154512D02*
X0097695Y0154512D01*
X0101495Y0154512D02*
X0102695Y0154512D01*
X0106495Y0154512D02*
X0107695Y0154512D01*
X0111495Y0154512D02*
X0112095Y0154512D01*
X0091682Y0179711D02*
X0088335Y0179711D01*
X0088335Y0189554D01*
X0082823Y0189554D01*
X0091682Y0195459D02*
X0091682Y0179711D01*
X0069044Y0189554D02*
X0063532Y0189554D01*
X0063532Y0179711D01*
X0060186Y0179711D01*
X0060186Y0195459D01*
X0036721Y0200262D02*
X0036723Y0200455D01*
X0036730Y0200648D01*
X0036742Y0200841D01*
X0036759Y0201034D01*
X0036780Y0201226D01*
X0036806Y0201417D01*
X0036837Y0201608D01*
X0036872Y0201798D01*
X0036912Y0201987D01*
X0036957Y0202175D01*
X0037006Y0202362D01*
X0037060Y0202548D01*
X0037118Y0202732D01*
X0037181Y0202915D01*
X0037249Y0203096D01*
X0037320Y0203275D01*
X0037397Y0203453D01*
X0037477Y0203629D01*
X0037562Y0203802D01*
X0037651Y0203974D01*
X0037744Y0204143D01*
X0037841Y0204310D01*
X0037943Y0204475D01*
X0038048Y0204637D01*
X0038157Y0204796D01*
X0038271Y0204953D01*
X0038388Y0205106D01*
X0038508Y0205257D01*
X0038633Y0205405D01*
X0038761Y0205550D01*
X0038892Y0205691D01*
X0039027Y0205830D01*
X0039166Y0205965D01*
X0039307Y0206096D01*
X0039452Y0206224D01*
X0039600Y0206349D01*
X0039751Y0206469D01*
X0039904Y0206586D01*
X0040061Y0206700D01*
X0040220Y0206809D01*
X0040382Y0206914D01*
X0040547Y0207016D01*
X0040714Y0207113D01*
X0040883Y0207206D01*
X0041055Y0207295D01*
X0041228Y0207380D01*
X0041404Y0207460D01*
X0041582Y0207537D01*
X0041761Y0207608D01*
X0041942Y0207676D01*
X0042125Y0207739D01*
X0042309Y0207797D01*
X0042495Y0207851D01*
X0042682Y0207900D01*
X0042870Y0207945D01*
X0043059Y0207985D01*
X0043249Y0208020D01*
X0043440Y0208051D01*
X0043631Y0208077D01*
X0043823Y0208098D01*
X0044016Y0208115D01*
X0044209Y0208127D01*
X0044402Y0208134D01*
X0044595Y0208136D01*
X0044788Y0208134D01*
X0044981Y0208127D01*
X0045174Y0208115D01*
X0045367Y0208098D01*
X0045559Y0208077D01*
X0045750Y0208051D01*
X0045941Y0208020D01*
X0046131Y0207985D01*
X0046320Y0207945D01*
X0046508Y0207900D01*
X0046695Y0207851D01*
X0046881Y0207797D01*
X0047065Y0207739D01*
X0047248Y0207676D01*
X0047429Y0207608D01*
X0047608Y0207537D01*
X0047786Y0207460D01*
X0047962Y0207380D01*
X0048135Y0207295D01*
X0048307Y0207206D01*
X0048476Y0207113D01*
X0048643Y0207016D01*
X0048808Y0206914D01*
X0048970Y0206809D01*
X0049129Y0206700D01*
X0049286Y0206586D01*
X0049439Y0206469D01*
X0049590Y0206349D01*
X0049738Y0206224D01*
X0049883Y0206096D01*
X0050024Y0205965D01*
X0050163Y0205830D01*
X0050298Y0205691D01*
X0050429Y0205550D01*
X0050557Y0205405D01*
X0050682Y0205257D01*
X0050802Y0205106D01*
X0050919Y0204953D01*
X0051033Y0204796D01*
X0051142Y0204637D01*
X0051247Y0204475D01*
X0051349Y0204310D01*
X0051446Y0204143D01*
X0051539Y0203974D01*
X0051628Y0203802D01*
X0051713Y0203629D01*
X0051793Y0203453D01*
X0051870Y0203275D01*
X0051941Y0203096D01*
X0052009Y0202915D01*
X0052072Y0202732D01*
X0052130Y0202548D01*
X0052184Y0202362D01*
X0052233Y0202175D01*
X0052278Y0201987D01*
X0052318Y0201798D01*
X0052353Y0201608D01*
X0052384Y0201417D01*
X0052410Y0201226D01*
X0052431Y0201034D01*
X0052448Y0200841D01*
X0052460Y0200648D01*
X0052467Y0200455D01*
X0052469Y0200262D01*
X0052467Y0200069D01*
X0052460Y0199876D01*
X0052448Y0199683D01*
X0052431Y0199490D01*
X0052410Y0199298D01*
X0052384Y0199107D01*
X0052353Y0198916D01*
X0052318Y0198726D01*
X0052278Y0198537D01*
X0052233Y0198349D01*
X0052184Y0198162D01*
X0052130Y0197976D01*
X0052072Y0197792D01*
X0052009Y0197609D01*
X0051941Y0197428D01*
X0051870Y0197249D01*
X0051793Y0197071D01*
X0051713Y0196895D01*
X0051628Y0196722D01*
X0051539Y0196550D01*
X0051446Y0196381D01*
X0051349Y0196214D01*
X0051247Y0196049D01*
X0051142Y0195887D01*
X0051033Y0195728D01*
X0050919Y0195571D01*
X0050802Y0195418D01*
X0050682Y0195267D01*
X0050557Y0195119D01*
X0050429Y0194974D01*
X0050298Y0194833D01*
X0050163Y0194694D01*
X0050024Y0194559D01*
X0049883Y0194428D01*
X0049738Y0194300D01*
X0049590Y0194175D01*
X0049439Y0194055D01*
X0049286Y0193938D01*
X0049129Y0193824D01*
X0048970Y0193715D01*
X0048808Y0193610D01*
X0048643Y0193508D01*
X0048476Y0193411D01*
X0048307Y0193318D01*
X0048135Y0193229D01*
X0047962Y0193144D01*
X0047786Y0193064D01*
X0047608Y0192987D01*
X0047429Y0192916D01*
X0047248Y0192848D01*
X0047065Y0192785D01*
X0046881Y0192727D01*
X0046695Y0192673D01*
X0046508Y0192624D01*
X0046320Y0192579D01*
X0046131Y0192539D01*
X0045941Y0192504D01*
X0045750Y0192473D01*
X0045559Y0192447D01*
X0045367Y0192426D01*
X0045174Y0192409D01*
X0044981Y0192397D01*
X0044788Y0192390D01*
X0044595Y0192388D01*
X0044402Y0192390D01*
X0044209Y0192397D01*
X0044016Y0192409D01*
X0043823Y0192426D01*
X0043631Y0192447D01*
X0043440Y0192473D01*
X0043249Y0192504D01*
X0043059Y0192539D01*
X0042870Y0192579D01*
X0042682Y0192624D01*
X0042495Y0192673D01*
X0042309Y0192727D01*
X0042125Y0192785D01*
X0041942Y0192848D01*
X0041761Y0192916D01*
X0041582Y0192987D01*
X0041404Y0193064D01*
X0041228Y0193144D01*
X0041055Y0193229D01*
X0040883Y0193318D01*
X0040714Y0193411D01*
X0040547Y0193508D01*
X0040382Y0193610D01*
X0040220Y0193715D01*
X0040061Y0193824D01*
X0039904Y0193938D01*
X0039751Y0194055D01*
X0039600Y0194175D01*
X0039452Y0194300D01*
X0039307Y0194428D01*
X0039166Y0194559D01*
X0039027Y0194694D01*
X0038892Y0194833D01*
X0038761Y0194974D01*
X0038633Y0195119D01*
X0038508Y0195267D01*
X0038388Y0195418D01*
X0038271Y0195571D01*
X0038157Y0195728D01*
X0038048Y0195887D01*
X0037943Y0196049D01*
X0037841Y0196214D01*
X0037744Y0196381D01*
X0037651Y0196550D01*
X0037562Y0196722D01*
X0037477Y0196895D01*
X0037397Y0197071D01*
X0037320Y0197249D01*
X0037249Y0197428D01*
X0037181Y0197609D01*
X0037118Y0197792D01*
X0037060Y0197976D01*
X0037006Y0198162D01*
X0036957Y0198349D01*
X0036912Y0198537D01*
X0036872Y0198726D01*
X0036837Y0198916D01*
X0036806Y0199107D01*
X0036780Y0199298D01*
X0036759Y0199490D01*
X0036742Y0199683D01*
X0036730Y0199876D01*
X0036723Y0200069D01*
X0036721Y0200262D01*
X0067075Y0209239D02*
X0084792Y0209239D01*
X0036721Y0130262D02*
X0036723Y0130455D01*
X0036730Y0130648D01*
X0036742Y0130841D01*
X0036759Y0131034D01*
X0036780Y0131226D01*
X0036806Y0131417D01*
X0036837Y0131608D01*
X0036872Y0131798D01*
X0036912Y0131987D01*
X0036957Y0132175D01*
X0037006Y0132362D01*
X0037060Y0132548D01*
X0037118Y0132732D01*
X0037181Y0132915D01*
X0037249Y0133096D01*
X0037320Y0133275D01*
X0037397Y0133453D01*
X0037477Y0133629D01*
X0037562Y0133802D01*
X0037651Y0133974D01*
X0037744Y0134143D01*
X0037841Y0134310D01*
X0037943Y0134475D01*
X0038048Y0134637D01*
X0038157Y0134796D01*
X0038271Y0134953D01*
X0038388Y0135106D01*
X0038508Y0135257D01*
X0038633Y0135405D01*
X0038761Y0135550D01*
X0038892Y0135691D01*
X0039027Y0135830D01*
X0039166Y0135965D01*
X0039307Y0136096D01*
X0039452Y0136224D01*
X0039600Y0136349D01*
X0039751Y0136469D01*
X0039904Y0136586D01*
X0040061Y0136700D01*
X0040220Y0136809D01*
X0040382Y0136914D01*
X0040547Y0137016D01*
X0040714Y0137113D01*
X0040883Y0137206D01*
X0041055Y0137295D01*
X0041228Y0137380D01*
X0041404Y0137460D01*
X0041582Y0137537D01*
X0041761Y0137608D01*
X0041942Y0137676D01*
X0042125Y0137739D01*
X0042309Y0137797D01*
X0042495Y0137851D01*
X0042682Y0137900D01*
X0042870Y0137945D01*
X0043059Y0137985D01*
X0043249Y0138020D01*
X0043440Y0138051D01*
X0043631Y0138077D01*
X0043823Y0138098D01*
X0044016Y0138115D01*
X0044209Y0138127D01*
X0044402Y0138134D01*
X0044595Y0138136D01*
X0044788Y0138134D01*
X0044981Y0138127D01*
X0045174Y0138115D01*
X0045367Y0138098D01*
X0045559Y0138077D01*
X0045750Y0138051D01*
X0045941Y0138020D01*
X0046131Y0137985D01*
X0046320Y0137945D01*
X0046508Y0137900D01*
X0046695Y0137851D01*
X0046881Y0137797D01*
X0047065Y0137739D01*
X0047248Y0137676D01*
X0047429Y0137608D01*
X0047608Y0137537D01*
X0047786Y0137460D01*
X0047962Y0137380D01*
X0048135Y0137295D01*
X0048307Y0137206D01*
X0048476Y0137113D01*
X0048643Y0137016D01*
X0048808Y0136914D01*
X0048970Y0136809D01*
X0049129Y0136700D01*
X0049286Y0136586D01*
X0049439Y0136469D01*
X0049590Y0136349D01*
X0049738Y0136224D01*
X0049883Y0136096D01*
X0050024Y0135965D01*
X0050163Y0135830D01*
X0050298Y0135691D01*
X0050429Y0135550D01*
X0050557Y0135405D01*
X0050682Y0135257D01*
X0050802Y0135106D01*
X0050919Y0134953D01*
X0051033Y0134796D01*
X0051142Y0134637D01*
X0051247Y0134475D01*
X0051349Y0134310D01*
X0051446Y0134143D01*
X0051539Y0133974D01*
X0051628Y0133802D01*
X0051713Y0133629D01*
X0051793Y0133453D01*
X0051870Y0133275D01*
X0051941Y0133096D01*
X0052009Y0132915D01*
X0052072Y0132732D01*
X0052130Y0132548D01*
X0052184Y0132362D01*
X0052233Y0132175D01*
X0052278Y0131987D01*
X0052318Y0131798D01*
X0052353Y0131608D01*
X0052384Y0131417D01*
X0052410Y0131226D01*
X0052431Y0131034D01*
X0052448Y0130841D01*
X0052460Y0130648D01*
X0052467Y0130455D01*
X0052469Y0130262D01*
X0052467Y0130069D01*
X0052460Y0129876D01*
X0052448Y0129683D01*
X0052431Y0129490D01*
X0052410Y0129298D01*
X0052384Y0129107D01*
X0052353Y0128916D01*
X0052318Y0128726D01*
X0052278Y0128537D01*
X0052233Y0128349D01*
X0052184Y0128162D01*
X0052130Y0127976D01*
X0052072Y0127792D01*
X0052009Y0127609D01*
X0051941Y0127428D01*
X0051870Y0127249D01*
X0051793Y0127071D01*
X0051713Y0126895D01*
X0051628Y0126722D01*
X0051539Y0126550D01*
X0051446Y0126381D01*
X0051349Y0126214D01*
X0051247Y0126049D01*
X0051142Y0125887D01*
X0051033Y0125728D01*
X0050919Y0125571D01*
X0050802Y0125418D01*
X0050682Y0125267D01*
X0050557Y0125119D01*
X0050429Y0124974D01*
X0050298Y0124833D01*
X0050163Y0124694D01*
X0050024Y0124559D01*
X0049883Y0124428D01*
X0049738Y0124300D01*
X0049590Y0124175D01*
X0049439Y0124055D01*
X0049286Y0123938D01*
X0049129Y0123824D01*
X0048970Y0123715D01*
X0048808Y0123610D01*
X0048643Y0123508D01*
X0048476Y0123411D01*
X0048307Y0123318D01*
X0048135Y0123229D01*
X0047962Y0123144D01*
X0047786Y0123064D01*
X0047608Y0122987D01*
X0047429Y0122916D01*
X0047248Y0122848D01*
X0047065Y0122785D01*
X0046881Y0122727D01*
X0046695Y0122673D01*
X0046508Y0122624D01*
X0046320Y0122579D01*
X0046131Y0122539D01*
X0045941Y0122504D01*
X0045750Y0122473D01*
X0045559Y0122447D01*
X0045367Y0122426D01*
X0045174Y0122409D01*
X0044981Y0122397D01*
X0044788Y0122390D01*
X0044595Y0122388D01*
X0044402Y0122390D01*
X0044209Y0122397D01*
X0044016Y0122409D01*
X0043823Y0122426D01*
X0043631Y0122447D01*
X0043440Y0122473D01*
X0043249Y0122504D01*
X0043059Y0122539D01*
X0042870Y0122579D01*
X0042682Y0122624D01*
X0042495Y0122673D01*
X0042309Y0122727D01*
X0042125Y0122785D01*
X0041942Y0122848D01*
X0041761Y0122916D01*
X0041582Y0122987D01*
X0041404Y0123064D01*
X0041228Y0123144D01*
X0041055Y0123229D01*
X0040883Y0123318D01*
X0040714Y0123411D01*
X0040547Y0123508D01*
X0040382Y0123610D01*
X0040220Y0123715D01*
X0040061Y0123824D01*
X0039904Y0123938D01*
X0039751Y0124055D01*
X0039600Y0124175D01*
X0039452Y0124300D01*
X0039307Y0124428D01*
X0039166Y0124559D01*
X0039027Y0124694D01*
X0038892Y0124833D01*
X0038761Y0124974D01*
X0038633Y0125119D01*
X0038508Y0125267D01*
X0038388Y0125418D01*
X0038271Y0125571D01*
X0038157Y0125728D01*
X0038048Y0125887D01*
X0037943Y0126049D01*
X0037841Y0126214D01*
X0037744Y0126381D01*
X0037651Y0126550D01*
X0037562Y0126722D01*
X0037477Y0126895D01*
X0037397Y0127071D01*
X0037320Y0127249D01*
X0037249Y0127428D01*
X0037181Y0127609D01*
X0037118Y0127792D01*
X0037060Y0127976D01*
X0037006Y0128162D01*
X0036957Y0128349D01*
X0036912Y0128537D01*
X0036872Y0128726D01*
X0036837Y0128916D01*
X0036806Y0129107D01*
X0036780Y0129298D01*
X0036759Y0129490D01*
X0036742Y0129683D01*
X0036730Y0129876D01*
X0036723Y0130069D01*
X0036721Y0130262D01*
D14*
X0086957Y0163924D02*
X0086959Y0163951D01*
X0086965Y0163978D01*
X0086974Y0164004D01*
X0086987Y0164028D01*
X0087003Y0164051D01*
X0087022Y0164070D01*
X0087044Y0164087D01*
X0087068Y0164101D01*
X0087093Y0164111D01*
X0087120Y0164118D01*
X0087147Y0164121D01*
X0087175Y0164120D01*
X0087202Y0164115D01*
X0087228Y0164107D01*
X0087252Y0164095D01*
X0087275Y0164079D01*
X0087296Y0164061D01*
X0087313Y0164040D01*
X0087328Y0164016D01*
X0087339Y0163991D01*
X0087347Y0163965D01*
X0087351Y0163938D01*
X0087351Y0163910D01*
X0087347Y0163883D01*
X0087339Y0163857D01*
X0087328Y0163832D01*
X0087313Y0163808D01*
X0087296Y0163787D01*
X0087275Y0163769D01*
X0087253Y0163753D01*
X0087228Y0163741D01*
X0087202Y0163733D01*
X0087175Y0163728D01*
X0087147Y0163727D01*
X0087120Y0163730D01*
X0087093Y0163737D01*
X0087068Y0163747D01*
X0087044Y0163761D01*
X0087022Y0163778D01*
X0087003Y0163797D01*
X0086987Y0163820D01*
X0086974Y0163844D01*
X0086965Y0163870D01*
X0086959Y0163897D01*
X0086957Y0163924D01*
X0111264Y0180396D02*
X0111266Y0180435D01*
X0111272Y0180474D01*
X0111282Y0180512D01*
X0111295Y0180549D01*
X0111312Y0180584D01*
X0111332Y0180618D01*
X0111356Y0180649D01*
X0111383Y0180678D01*
X0111412Y0180704D01*
X0111444Y0180727D01*
X0111478Y0180747D01*
X0111514Y0180763D01*
X0111551Y0180775D01*
X0111590Y0180784D01*
X0111629Y0180789D01*
X0111668Y0180790D01*
X0111707Y0180787D01*
X0111746Y0180780D01*
X0111783Y0180769D01*
X0111820Y0180755D01*
X0111855Y0180737D01*
X0111888Y0180716D01*
X0111919Y0180691D01*
X0111947Y0180664D01*
X0111972Y0180634D01*
X0111994Y0180601D01*
X0112013Y0180567D01*
X0112028Y0180531D01*
X0112040Y0180493D01*
X0112048Y0180455D01*
X0112052Y0180416D01*
X0112052Y0180376D01*
X0112048Y0180337D01*
X0112040Y0180299D01*
X0112028Y0180261D01*
X0112013Y0180225D01*
X0111994Y0180191D01*
X0111972Y0180158D01*
X0111947Y0180128D01*
X0111919Y0180101D01*
X0111888Y0180076D01*
X0111855Y0180055D01*
X0111820Y0180037D01*
X0111783Y0180023D01*
X0111746Y0180012D01*
X0111707Y0180005D01*
X0111668Y0180002D01*
X0111629Y0180003D01*
X0111590Y0180008D01*
X0111551Y0180017D01*
X0111514Y0180029D01*
X0111478Y0180045D01*
X0111444Y0180065D01*
X0111412Y0180088D01*
X0111383Y0180114D01*
X0111356Y0180143D01*
X0111332Y0180174D01*
X0111312Y0180208D01*
X0111295Y0180243D01*
X0111282Y0180280D01*
X0111272Y0180318D01*
X0111266Y0180357D01*
X0111264Y0180396D01*
X0140713Y0151861D02*
X0140715Y0151900D01*
X0140721Y0151939D01*
X0140731Y0151977D01*
X0140744Y0152014D01*
X0140761Y0152049D01*
X0140781Y0152083D01*
X0140805Y0152114D01*
X0140832Y0152143D01*
X0140861Y0152169D01*
X0140893Y0152192D01*
X0140927Y0152212D01*
X0140963Y0152228D01*
X0141000Y0152240D01*
X0141039Y0152249D01*
X0141078Y0152254D01*
X0141117Y0152255D01*
X0141156Y0152252D01*
X0141195Y0152245D01*
X0141232Y0152234D01*
X0141269Y0152220D01*
X0141304Y0152202D01*
X0141337Y0152181D01*
X0141368Y0152156D01*
X0141396Y0152129D01*
X0141421Y0152099D01*
X0141443Y0152066D01*
X0141462Y0152032D01*
X0141477Y0151996D01*
X0141489Y0151958D01*
X0141497Y0151920D01*
X0141501Y0151881D01*
X0141501Y0151841D01*
X0141497Y0151802D01*
X0141489Y0151764D01*
X0141477Y0151726D01*
X0141462Y0151690D01*
X0141443Y0151656D01*
X0141421Y0151623D01*
X0141396Y0151593D01*
X0141368Y0151566D01*
X0141337Y0151541D01*
X0141304Y0151520D01*
X0141269Y0151502D01*
X0141232Y0151488D01*
X0141195Y0151477D01*
X0141156Y0151470D01*
X0141117Y0151467D01*
X0141078Y0151468D01*
X0141039Y0151473D01*
X0141000Y0151482D01*
X0140963Y0151494D01*
X0140927Y0151510D01*
X0140893Y0151530D01*
X0140861Y0151553D01*
X0140832Y0151579D01*
X0140805Y0151608D01*
X0140781Y0151639D01*
X0140761Y0151673D01*
X0140744Y0151708D01*
X0140731Y0151745D01*
X0140721Y0151783D01*
X0140715Y0151822D01*
X0140713Y0151861D01*
D15*
X0140107Y0148806D02*
X0140107Y0144475D01*
X0138532Y0144475D02*
X0138532Y0148806D01*
X0136170Y0148806D02*
X0136170Y0144475D01*
X0138138Y0141719D02*
X0138138Y0137388D01*
X0140501Y0137388D02*
X0140501Y0141719D01*
X0142469Y0144475D02*
X0142469Y0148806D01*
X0153690Y0141522D02*
X0158020Y0141522D01*
X0158020Y0139160D02*
X0153690Y0139160D01*
X0126721Y0144475D02*
X0126721Y0148806D01*
X0124359Y0148806D02*
X0124359Y0144475D01*
X0121406Y0143097D02*
X0117075Y0143097D01*
X0117075Y0140735D02*
X0121406Y0140735D01*
X0121406Y0158058D02*
X0117075Y0158058D01*
X0117075Y0160420D02*
X0121406Y0160420D01*
X0110579Y0163766D02*
X0110579Y0168097D01*
X0108217Y0168097D02*
X0108217Y0163766D01*
X0106642Y0163766D02*
X0106642Y0168097D01*
X0104280Y0168097D02*
X0104280Y0163766D01*
X0101918Y0163766D02*
X0101918Y0168097D01*
X0099556Y0168097D02*
X0099556Y0163766D01*
X0095028Y0164751D02*
X0090698Y0164751D01*
X0090698Y0167113D02*
X0095028Y0167113D01*
X0096209Y0168885D02*
X0096209Y0176365D01*
X0096997Y0176562D02*
X0101327Y0176562D01*
X0101524Y0174790D02*
X0101524Y0170459D01*
X0099162Y0170459D02*
X0099162Y0174790D01*
X0101327Y0178924D02*
X0096997Y0178924D01*
X0096997Y0181286D02*
X0101327Y0181286D01*
X0101327Y0183648D02*
X0096997Y0183648D01*
X0101131Y0185026D02*
X0101131Y0189357D01*
X0103493Y0189357D02*
X0103493Y0185026D01*
X0104674Y0183058D02*
X0104674Y0187388D01*
X0107036Y0187388D02*
X0107036Y0183058D01*
X0108217Y0185026D02*
X0108217Y0189357D01*
X0110579Y0189357D02*
X0110579Y0185026D01*
X0111760Y0186995D02*
X0111760Y0182664D01*
X0114123Y0182664D02*
X0114123Y0186995D01*
X0115698Y0186995D02*
X0115698Y0182664D01*
X0118060Y0182664D02*
X0118060Y0186995D01*
X0126918Y0192703D02*
X0131249Y0192703D01*
X0131446Y0191325D02*
X0131446Y0186995D01*
X0129083Y0186995D02*
X0129083Y0191325D01*
X0132823Y0192349D02*
X0132823Y0193058D01*
X0131249Y0195066D02*
X0126918Y0195066D01*
X0134044Y0190538D02*
X0134359Y0190538D01*
X0135579Y0192349D02*
X0135579Y0193058D01*
X0146603Y0176168D02*
X0150934Y0176168D01*
X0150934Y0173806D02*
X0146603Y0173806D01*
X0146603Y0172231D02*
X0150934Y0172231D01*
X0150934Y0169869D02*
X0146603Y0169869D01*
X0146603Y0168294D02*
X0150934Y0168294D01*
X0150934Y0165932D02*
X0146603Y0165932D01*
X0146406Y0164160D02*
X0146406Y0159829D01*
X0148768Y0159829D02*
X0148768Y0164160D01*
X0135973Y0171444D02*
X0131642Y0171444D01*
X0131642Y0173806D02*
X0135973Y0173806D01*
X0119241Y0173215D02*
X0119241Y0177546D01*
X0116879Y0177546D02*
X0116879Y0173215D01*
X0089516Y0176365D02*
X0089516Y0168885D01*
X0087351Y0172034D02*
X0087351Y0176365D01*
X0084989Y0176365D02*
X0084989Y0172034D01*
X0079083Y0170459D02*
X0079083Y0166129D01*
X0076721Y0166129D02*
X0076721Y0170459D01*
X0075146Y0170459D02*
X0075146Y0166129D01*
X0072784Y0166129D02*
X0072784Y0170459D01*
X0059398Y0173215D02*
X0059398Y0177546D01*
X0057036Y0177546D02*
X0057036Y0173215D01*
X0078886Y0158845D02*
X0083217Y0158845D01*
X0083217Y0156483D02*
X0078886Y0156483D01*
X0078886Y0139160D02*
X0083217Y0139160D01*
X0083217Y0136798D02*
X0078886Y0136798D01*
D16*
X0119241Y0152152D03*
D17*
X0112345Y0157262D02*
X0112347Y0157316D01*
X0112353Y0157370D01*
X0112363Y0157423D01*
X0112376Y0157476D01*
X0112393Y0157527D01*
X0112414Y0157577D01*
X0112439Y0157625D01*
X0112467Y0157672D01*
X0112498Y0157716D01*
X0112532Y0157758D01*
X0112569Y0157797D01*
X0112609Y0157834D01*
X0112652Y0157867D01*
X0112697Y0157898D01*
X0112744Y0157925D01*
X0112792Y0157948D01*
X0112843Y0157968D01*
X0112894Y0157985D01*
X0112947Y0157997D01*
X0113000Y0158006D01*
X0113054Y0158011D01*
X0113109Y0158012D01*
X0113163Y0158009D01*
X0113216Y0158002D01*
X0113269Y0157991D01*
X0113322Y0157977D01*
X0113373Y0157959D01*
X0113422Y0157937D01*
X0113470Y0157912D01*
X0113516Y0157883D01*
X0113560Y0157851D01*
X0113601Y0157816D01*
X0113639Y0157778D01*
X0113675Y0157737D01*
X0113708Y0157694D01*
X0113738Y0157649D01*
X0113764Y0157601D01*
X0113787Y0157552D01*
X0113806Y0157501D01*
X0113821Y0157450D01*
X0113833Y0157397D01*
X0113841Y0157343D01*
X0113845Y0157289D01*
X0113845Y0157235D01*
X0113841Y0157181D01*
X0113833Y0157127D01*
X0113821Y0157074D01*
X0113806Y0157023D01*
X0113787Y0156972D01*
X0113764Y0156923D01*
X0113738Y0156875D01*
X0113708Y0156830D01*
X0113675Y0156787D01*
X0113639Y0156746D01*
X0113601Y0156708D01*
X0113560Y0156673D01*
X0113516Y0156641D01*
X0113470Y0156612D01*
X0113422Y0156587D01*
X0113373Y0156565D01*
X0113322Y0156547D01*
X0113269Y0156533D01*
X0113216Y0156522D01*
X0113163Y0156515D01*
X0113109Y0156512D01*
X0113054Y0156513D01*
X0113000Y0156518D01*
X0112947Y0156527D01*
X0112894Y0156539D01*
X0112843Y0156556D01*
X0112792Y0156576D01*
X0112744Y0156599D01*
X0112697Y0156626D01*
X0112652Y0156657D01*
X0112609Y0156690D01*
X0112569Y0156727D01*
X0112532Y0156766D01*
X0112498Y0156808D01*
X0112467Y0156852D01*
X0112439Y0156899D01*
X0112414Y0156947D01*
X0112393Y0156997D01*
X0112376Y0157048D01*
X0112363Y0157101D01*
X0112353Y0157154D01*
X0112347Y0157208D01*
X0112345Y0157262D01*
D18*
X0161995Y0194262D02*
X0161997Y0194311D01*
X0162003Y0194359D01*
X0162013Y0194407D01*
X0162027Y0194454D01*
X0162044Y0194500D01*
X0162065Y0194544D01*
X0162090Y0194586D01*
X0162118Y0194626D01*
X0162150Y0194664D01*
X0162184Y0194699D01*
X0162221Y0194731D01*
X0162260Y0194760D01*
X0162302Y0194786D01*
X0162346Y0194808D01*
X0162391Y0194826D01*
X0162438Y0194841D01*
X0162485Y0194852D01*
X0162534Y0194859D01*
X0162583Y0194862D01*
X0162632Y0194861D01*
X0162680Y0194856D01*
X0162729Y0194847D01*
X0162776Y0194834D01*
X0162822Y0194817D01*
X0162866Y0194797D01*
X0162909Y0194773D01*
X0162950Y0194746D01*
X0162988Y0194715D01*
X0163024Y0194682D01*
X0163056Y0194646D01*
X0163086Y0194607D01*
X0163113Y0194566D01*
X0163136Y0194522D01*
X0163155Y0194477D01*
X0163171Y0194431D01*
X0163183Y0194384D01*
X0163191Y0194335D01*
X0163195Y0194286D01*
X0163195Y0194238D01*
X0163191Y0194189D01*
X0163183Y0194140D01*
X0163171Y0194093D01*
X0163155Y0194047D01*
X0163136Y0194002D01*
X0163113Y0193958D01*
X0163086Y0193917D01*
X0163056Y0193878D01*
X0163024Y0193842D01*
X0162988Y0193809D01*
X0162950Y0193778D01*
X0162909Y0193751D01*
X0162866Y0193727D01*
X0162822Y0193707D01*
X0162776Y0193690D01*
X0162729Y0193677D01*
X0162680Y0193668D01*
X0162632Y0193663D01*
X0162583Y0193662D01*
X0162534Y0193665D01*
X0162485Y0193672D01*
X0162438Y0193683D01*
X0162391Y0193698D01*
X0162346Y0193716D01*
X0162302Y0193738D01*
X0162260Y0193764D01*
X0162221Y0193793D01*
X0162184Y0193825D01*
X0162150Y0193860D01*
X0162118Y0193898D01*
X0162090Y0193938D01*
X0162065Y0193980D01*
X0162044Y0194024D01*
X0162027Y0194070D01*
X0162013Y0194117D01*
X0162003Y0194165D01*
X0161997Y0194213D01*
X0161995Y0194262D01*
X0191995Y0194262D02*
X0191997Y0194311D01*
X0192003Y0194359D01*
X0192013Y0194407D01*
X0192027Y0194454D01*
X0192044Y0194500D01*
X0192065Y0194544D01*
X0192090Y0194586D01*
X0192118Y0194626D01*
X0192150Y0194664D01*
X0192184Y0194699D01*
X0192221Y0194731D01*
X0192260Y0194760D01*
X0192302Y0194786D01*
X0192346Y0194808D01*
X0192391Y0194826D01*
X0192438Y0194841D01*
X0192485Y0194852D01*
X0192534Y0194859D01*
X0192583Y0194862D01*
X0192632Y0194861D01*
X0192680Y0194856D01*
X0192729Y0194847D01*
X0192776Y0194834D01*
X0192822Y0194817D01*
X0192866Y0194797D01*
X0192909Y0194773D01*
X0192950Y0194746D01*
X0192988Y0194715D01*
X0193024Y0194682D01*
X0193056Y0194646D01*
X0193086Y0194607D01*
X0193113Y0194566D01*
X0193136Y0194522D01*
X0193155Y0194477D01*
X0193171Y0194431D01*
X0193183Y0194384D01*
X0193191Y0194335D01*
X0193195Y0194286D01*
X0193195Y0194238D01*
X0193191Y0194189D01*
X0193183Y0194140D01*
X0193171Y0194093D01*
X0193155Y0194047D01*
X0193136Y0194002D01*
X0193113Y0193958D01*
X0193086Y0193917D01*
X0193056Y0193878D01*
X0193024Y0193842D01*
X0192988Y0193809D01*
X0192950Y0193778D01*
X0192909Y0193751D01*
X0192866Y0193727D01*
X0192822Y0193707D01*
X0192776Y0193690D01*
X0192729Y0193677D01*
X0192680Y0193668D01*
X0192632Y0193663D01*
X0192583Y0193662D01*
X0192534Y0193665D01*
X0192485Y0193672D01*
X0192438Y0193683D01*
X0192391Y0193698D01*
X0192346Y0193716D01*
X0192302Y0193738D01*
X0192260Y0193764D01*
X0192221Y0193793D01*
X0192184Y0193825D01*
X0192150Y0193860D01*
X0192118Y0193898D01*
X0192090Y0193938D01*
X0192065Y0193980D01*
X0192044Y0194024D01*
X0192027Y0194070D01*
X0192013Y0194117D01*
X0192003Y0194165D01*
X0191997Y0194213D01*
X0191995Y0194262D01*
D19*
X0070509Y0167152D02*
X0070509Y0160774D01*
X0070138Y0160774D01*
X0066965Y0160774D02*
X0066595Y0160774D01*
X0063225Y0160774D02*
X0062855Y0160774D01*
X0059682Y0160774D02*
X0059312Y0160774D01*
X0059312Y0167152D01*
X0059682Y0167152D01*
X0062855Y0167152D02*
X0066965Y0167152D01*
X0070138Y0167152D02*
X0070509Y0167152D01*
M02*
