%
M48
M72
T01C0.00394
T02C0.01000
T03C0.02000
T04C0.03500
T05C0.03937
T06C0.09843
T07C0.10000
%
T01
X136957Y154121
X136957Y157270
X135383Y157270
X135383Y158845
X136957Y158845
X135383Y160420
X133808Y160420
X132233Y160420
X130658Y160420
X130658Y161995
X129083Y161995
X129083Y163570
X132233Y163570
X133808Y163570
X135383Y163570
X132233Y158845
X132233Y157270
X132233Y155696
X133808Y155696
X133808Y157270
X129083Y158845
X127509Y155696
X108217Y171837
X108217Y173412
X108217Y174987
X106642Y174987
X105068Y174987
X105068Y171837
T02
X215698Y132073
X85776Y137979
X101524Y132073
X104595Y133648
X111367Y133648
X114595Y135223
X119635Y136798
X120816Y138766
X123178Y141916
X125540Y143097
X123178Y145853
X123178Y148215
X120816Y145853
X129871Y150184
X139320Y151759
X141288Y143097
X137351Y143097
X142863Y138373
X137351Y136404
X136957Y132073
X129083Y132073
X152312Y140341
X159398Y140341
X159398Y137585
X159398Y143097
X156642Y148609
X159005Y150184
X174359Y149790
X189615Y150184
X197981Y153727
X192469Y156877
X193257Y167113
X205461Y169081
X209005Y175381
X204674Y177349
X205068Y180892
X191288Y183648
X204674Y191916
X204674Y185617
X222489Y175262
X231052Y165144
X222489Y155262
X220028Y150184
X153099Y157664
X150343Y160420
X145225Y160420
X145225Y163570
X145225Y166719
X145225Y169475
X141288Y166325
X135383Y170262
X132233Y170262
X125146Y168688
X123572Y170262
X120422Y175381
X115698Y175381
X112548Y178924
X110186Y181680
X116879Y180892
X119241Y180892
X125540Y177743
X132233Y177743
X132233Y175381
X135776Y175381
X137745Y176168
X140107Y174593
X140894Y172625
X145225Y177743
X145225Y182467
X150343Y181286
X157823Y180499
X157823Y176168
X157823Y171444
X157823Y161995
X125146Y158058
X122784Y159633
X115698Y159239
X112154Y154908
X101918Y155302
X103099Y164357
X103099Y167507
X105855Y169475
X110579Y169475
X111760Y167507
X112942Y169475
X115304Y169475
X117666Y167507
X117666Y165144
X120028Y165144
X111760Y164357
X98375Y164357
X97981Y167507
X97587Y170262
X97981Y172625
X97587Y174987
X102705Y177349
X102705Y172625
X95619Y177743
X92469Y180105
X95619Y182467
X105855Y188766
X109398Y191129
X112942Y188373
X133020Y188766
X146800Y187192
X148768Y188766
X154674Y192310
X157823Y188373
X159792Y186010
X155461Y186010
X172784Y200577
X105461Y199790
X94438Y199790
X60186Y185223
X58217Y183255
X58217Y187192
X58217Y178924
X52312Y173412
X49489Y166762
X49489Y164156
X53099Y158058
X64910Y162388
X73965Y164751
X85776Y169869
X88926Y165932
X87351Y163570
X71997Y153727
X64516Y149003
X42095Y165262
X40894Y186798
T03
X42595Y152270
X42595Y178255
T04
X169595Y140262
X179595Y140262
X179595Y150262
X169595Y150262
X169595Y160262
X179595Y160262
X179595Y170262
X169595Y170262
X169595Y180262
X179595Y180262
X179595Y190262
X169595Y190262
X199595Y190262
X199595Y180262
X209595Y180262
X209595Y190262
X209595Y170262
X199595Y170262
X199595Y160262
X209595Y160262
X209595Y150262
X199595Y150262
X199595Y140262
X209595Y140262
T05
X59595Y125262
X69595Y125262
X79595Y125262
X89595Y125262
X99595Y125262
X109595Y125262
X119595Y125262
X129595Y125262
X139595Y125262
X149595Y125262
X159595Y125262
X169595Y125262
X179595Y125262
X189595Y125262
X199595Y125262
X209595Y125262
X169595Y205262
X159595Y205262
X149595Y205262
X139595Y205262
X129595Y205262
X119595Y205262
X109595Y205262
X99595Y205262
X179595Y205262
X189595Y205262
X199595Y205262
X209595Y205262
T06
X44595Y130262
X44595Y200262
T07
X224595Y200262
X224595Y130262
M30
